<svg width="18" height="19" viewBox="0 0 18 19" fill="none" xmlns="http://www.w3.org/2000/svg">
<path d="M9.00201 4.77565C6.44808 4.77565 4.38806 6.83612 4.38806 9.39062C4.38806 11.9451 6.44808 14.0056 9.00201 14.0056C11.5559 14.0056 13.616 11.9451 13.616 9.39062C13.616 6.83612 11.5559 4.77565 9.00201 4.77565ZM9.00201 12.391C7.35159 12.391 6.00234 11.0454 6.00234 9.39062C6.00234 7.73582 7.34757 6.39029 9.00201 6.39029C10.6564 6.39029 12.0017 7.73582 12.0017 9.39062C12.0017 11.0454 10.6524 12.391 9.00201 12.391ZM14.8809 4.58688C14.8809 5.18534 14.399 5.6633 13.8047 5.6633C13.2064 5.6633 12.7285 5.18132 12.7285 4.58688C12.7285 3.99243 13.2104 3.51045 13.8047 3.51045C14.399 3.51045 14.8809 3.99243 14.8809 4.58688ZM17.9368 5.67937C17.8685 4.23744 17.5392 2.96019 16.4831 1.90786C15.431 0.855536 14.154 0.526182 12.7124 0.453885C11.2267 0.369538 6.77334 0.369538 5.28756 0.453885C3.84997 0.522166 2.57301 0.85152 1.5169 1.90385C0.460792 2.95617 0.135527 4.23342 0.063246 5.67535C-0.021082 7.16146 -0.021082 11.6158 0.063246 13.1019C0.131511 14.5438 0.460792 15.8211 1.5169 16.8734C2.57301 17.9257 3.84596 18.2551 5.28756 18.3274C6.77334 18.4117 11.2267 18.4117 12.7124 18.3274C14.154 18.2591 15.431 17.9297 16.4831 16.8734C17.5352 15.8211 17.8645 14.5438 17.9368 13.1019C18.0211 11.6158 18.0211 7.16548 17.9368 5.67937ZM16.0173 14.6964C15.7041 15.4837 15.0977 16.0902 14.3066 16.4075C13.122 16.8774 10.3111 16.769 9.00201 16.769C7.69292 16.769 4.87797 16.8734 3.69738 16.4075C2.91032 16.0942 2.30396 15.4877 1.98673 14.6964C1.5169 13.5116 1.62532 10.7 1.62532 9.39062C1.62532 8.08124 1.52091 5.26567 1.98673 4.08481C2.29994 3.29758 2.9063 2.69108 3.69738 2.37378C4.88199 1.90385 7.69292 2.01229 9.00201 2.01229C10.3111 2.01229 13.126 1.90786 14.3066 2.37378C15.0937 2.68707 15.7001 3.29356 16.0173 4.08481C16.4871 5.26968 16.3787 8.08124 16.3787 9.39062C16.3787 10.7 16.4871 13.5156 16.0173 14.6964Z" fill="#392263"/>
</svg>
