<svg width="16" height="16" viewBox="0 0 16 16" fill="none" xmlns="http://www.w3.org/2000/svg">
<path fill-rule="evenodd" clip-rule="evenodd" d="M0.255558 0.316062C0.612469 -0.0868501 1.21042 -0.107264 1.59113 0.270466L8 6.62927L14.4089 0.270466C14.7896 -0.107264 15.3875 -0.0868501 15.7444 0.316062C16.1014 0.718974 16.0821 1.35181 15.7014 1.72954L9.38152 8L15.7014 14.2705C16.0821 14.6482 16.1014 15.281 15.7444 15.6839C15.3875 16.0868 14.7896 16.1073 14.4089 15.7295L8 9.37073L1.59113 15.7295C1.21042 16.1073 0.612469 16.0868 0.255558 15.6839C-0.101352 15.281 -0.0820631 14.6482 0.298641 14.2705L6.61848 8L0.298641 1.72954C-0.0820631 1.35181 -0.101352 0.718974 0.255558 0.316062Z" fill="#9C521D"/>
</svg>
