<svg width="16" height="12" viewBox="0 0 16 12" fill="none" xmlns="http://www.w3.org/2000/svg">
<path fill-rule="evenodd" clip-rule="evenodd" d="M0 1.33329C0 0.965103 0.298477 0.666626 0.666667 0.666626H15.3333C15.7015 0.666626 16 0.965103 16 1.33329C16 1.70148 15.7015 1.99996 15.3333 1.99996H0.666667C0.298477 1.99996 0 1.70148 0 1.33329ZM0 5.99996C0 5.63177 0.298477 5.33329 0.666667 5.33329H15.3333C15.7015 5.33329 16 5.63177 16 5.99996C16 6.36815 15.7015 6.66663 15.3333 6.66663H0.666667C0.298477 6.66663 0 6.36815 0 5.99996ZM0 10.6666C0 10.2984 0.298477 9.99996 0.666667 9.99996H15.3333C15.7015 9.99996 16 10.2984 16 10.6666C16 11.0348 15.7015 11.3333 15.3333 11.3333H0.666667C0.298477 11.3333 0 11.0348 0 10.6666Z" fill="#9C521D"/>
</svg>
