<svg width="18" height="20" viewBox="0 0 18 20" fill="none" xmlns="http://www.w3.org/2000/svg">
<g clip-path="url(#clip0_298_2557)">
<path d="M9.00401 5.50781C6.44865 5.50781 4.38749 7.51172 4.38749 9.99609C4.38749 12.4805 6.44865 14.4844 9.00401 14.4844C11.5594 14.4844 13.6205 12.4805 13.6205 9.99609C13.6205 7.51172 11.5594 5.50781 9.00401 5.50781ZM9.00401 12.9141C7.35267 12.9141 6.00267 11.6055 6.00267 9.99609C6.00267 8.38672 7.34865 7.07812 9.00401 7.07812C10.6594 7.07812 12.0053 8.38672 12.0053 9.99609C12.0053 11.6055 10.6553 12.9141 9.00401 12.9141ZM14.8862 5.32422C14.8862 5.90625 14.404 6.37109 13.8094 6.37109C13.2107 6.37109 12.7326 5.90234 12.7326 5.32422C12.7326 4.74609 13.2147 4.27734 13.8094 4.27734C14.404 4.27734 14.8862 4.74609 14.8862 5.32422ZM17.9437 6.38672C17.8754 4.98438 17.546 3.74219 16.4893 2.71875C15.4366 1.69531 14.1589 1.375 12.7165 1.30469C11.2299 1.22266 6.7741 1.22266 5.28749 1.30469C3.8491 1.37109 2.57142 1.69141 1.51472 2.71484C0.458028 3.73828 0.132581 4.98047 0.06026 6.38281C-0.024115 7.82812 -0.024115 12.1602 0.06026 13.6055C0.128564 15.0078 0.458028 16.25 1.51472 17.2734C2.57142 18.2969 3.84508 18.6172 5.28749 18.6875C6.7741 18.7695 11.2299 18.7695 12.7165 18.6875C14.1589 18.6211 15.4366 18.3008 16.4893 17.2734C17.542 16.25 17.8714 15.0078 17.9437 13.6055C18.0281 12.1602 18.0281 7.83203 17.9437 6.38672ZM16.0232 15.1562C15.7098 15.9219 15.1031 16.5117 14.3116 16.8203C13.1263 17.2773 10.3138 17.1719 9.00401 17.1719C7.69419 17.1719 4.87767 17.2734 3.69642 16.8203C2.90892 16.5156 2.30222 15.9258 1.98481 15.1562C1.51472 14.0039 1.62321 11.2695 1.62321 9.99609C1.62321 8.72266 1.51874 5.98438 1.98481 4.83594C2.29821 4.07031 2.9049 3.48047 3.69642 3.17187C4.88169 2.71484 7.69419 2.82031 9.00401 2.82031C10.3138 2.82031 13.1304 2.71875 14.3116 3.17187C15.0991 3.47656 15.7058 4.06641 16.0232 4.83594C16.4933 5.98828 16.3848 8.72266 16.3848 9.99609C16.3848 11.2695 16.4933 14.0078 16.0232 15.1562Z" fill="#5C22C1"/>
</g>
<defs>
<clipPath id="clip0_298_2557">
<rect width="18" height="20" fill="white"/>
</clipPath>
</defs>
</svg>
