<svg width="20" height="20" viewBox="0 0 20 20" fill="none" xmlns="http://www.w3.org/2000/svg">
<path d="M4.36719 2.4297C6.64844 4.13673 9.10156 7.60548 10 9.46876C10.8984 7.60939 13.3516 4.14064 15.6328 2.4297C17.2773 1.19532 19.9414 0.242199 19.9414 3.28126C19.9414 3.88673 19.5938 8.37892 19.3906 9.10939C18.6797 11.6406 16.0938 12.2891 13.793 11.8945C17.8125 12.5781 18.8359 14.8438 16.625 17.1094C12.4297 21.4141 10.5977 16.0313 10.1289 14.6524C10.0625 14.4609 10.0273 14.3477 10 14.3477C9.97266 14.3477 9.9375 14.4649 9.87109 14.6524C9.40234 16.0313 7.56641 21.4141 3.375 17.1094C1.16797 14.8438 2.1875 12.5781 6.20703 11.8945C3.90625 12.2891 1.32031 11.6406 0.613281 9.10548C0.40625 8.37501 0.0585938 3.88282 0.0585938 3.27736C0.0585938 0.238293 2.72266 1.19142 4.36719 2.42579V2.4297Z" fill="#5C22C1"/>
</svg>
