<svg width="18" height="20" viewBox="0 0 18 20" fill="none" xmlns="http://www.w3.org/2000/svg">
<path d="M15.4286 1.25H2.57143C1.15313 1.25 0 2.37109 0 3.75V16.25C0 17.6289 1.15313 18.75 2.57143 18.75H5.48839L5.4 18.7188C5.18304 16.8398 5.27545 16.4727 6.0308 13.457C6.1875 12.832 6.37232 12.0898 6.58929 11.1953C6.58929 11.1953 6.29598 10.6172 6.29598 9.76953C6.29598 7.00781 9.32946 6.72266 9.32946 8.79297C9.32946 9.32031 9.1125 10.0078 8.87946 10.7383C8.74687 11.1523 8.61429 11.5781 8.51384 11.9883C8.28482 12.9453 9.00804 13.7227 9.97634 13.7227C11.7321 13.7227 13.0781 11.9258 13.0781 9.33203C13.0781 7.03516 11.3786 5.42969 8.9558 5.42969C6.14732 5.42969 4.5 7.47656 4.5 9.59375C4.5 10.418 4.82946 11.3008 5.23527 11.7812C5.31563 11.875 5.32768 11.957 5.30357 12.0547C5.25938 12.2383 5.17902 12.5586 5.11473 12.8047C5.07455 12.9609 5.04241 13.0898 5.03036 13.1406C4.98616 13.3164 4.88973 13.3555 4.70089 13.2695C3.47143 12.7109 2.7 10.9609 2.7 9.55469C2.7 6.52734 4.95804 3.75 9.21696 3.75C12.6402 3.75 15.3 6.12109 15.3 9.28906C15.3 12.5938 13.1585 15.2539 10.1812 15.2539C9.1808 15.2539 8.24063 14.75 7.9192 14.1523C7.9192 14.1523 7.425 15.9844 7.30446 16.4336C7.10357 17.1875 6.59732 18.1094 6.20357 18.75H15.4286C16.8469 18.75 18 17.6289 18 16.25V3.75C18 2.37109 16.8469 1.25 15.4286 1.25Z" fill="#5C22C1"/>
</svg>
