<svg width="23" height="20" viewBox="0 0 23 20" fill="none" xmlns="http://www.w3.org/2000/svg">
<path d="M21.9498 4.84766C21.6983 3.92187 20.9596 3.19531 20.0212 2.94922C18.3201 2.5 11.5 2.5 11.5 2.5C11.5 2.5 4.67987 2.5 2.97882 2.94922C2.04046 3.19531 1.30174 3.92187 1.05018 4.84766C0.594971 6.52344 0.594971 10.0156 0.594971 10.0156C0.594971 10.0156 0.594971 13.5078 1.05018 15.1836C1.30174 16.1094 2.04046 16.8047 2.97882 17.0508C4.67987 17.5 11.5 17.5 11.5 17.5C11.5 17.5 18.3201 17.5 20.0212 17.0508C20.9596 16.8047 21.6983 16.1055 21.9498 15.1836C22.405 13.5078 22.405 10.0156 22.405 10.0156C22.405 10.0156 22.405 6.52344 21.9498 4.84766ZM9.27188 13.1875V6.84375L14.97 10.0156L9.27188 13.1875Z" fill="#5C22C1"/>
</svg>
