<svg width="17" height="20" viewBox="0 0 17 20" fill="none" xmlns="http://www.w3.org/2000/svg">
<g clip-path="url(#clip0_298_2555)">
<path d="M12.5792 9.20703C12.6627 9.24219 12.7386 9.28125 12.8183 9.31641C13.9263 9.86719 14.7384 10.6914 15.1634 11.7148C15.7592 13.1406 15.8161 15.457 14.0136 17.3086C12.64 18.7227 10.9665 19.3594 8.60245 19.3789H8.59107C5.92723 19.3594 3.88192 18.4375 2.50446 16.6367C1.27879 15.0352 0.648882 12.8047 0.626114 10.0117V10V9.99219C0.645087 7.19922 1.275 4.96875 2.50067 3.36719C3.87812 1.56641 5.92723 0.644531 8.59107 0.625H8.60245C11.2701 0.644531 13.342 1.5625 14.7612 3.35547C15.4594 4.24219 15.9754 5.30859 16.3018 6.54688L14.7687 6.96875C14.4993 5.96094 14.0933 5.10156 13.5469 4.41406C12.4388 3.01562 10.7768 2.29688 8.59486 2.28125C6.43192 2.30078 4.79643 3.01563 3.73013 4.40625C2.73594 5.70703 2.21986 7.58984 2.20089 10C2.21986 12.4102 2.73594 14.293 3.73013 15.5977C4.79263 16.9883 6.43192 17.7031 8.59486 17.7227C10.5453 17.707 11.8355 17.2305 12.9094 16.125C14.135 14.8672 14.1123 13.3203 13.7214 12.3789C13.49 11.8242 13.0725 11.3633 12.5109 11.0156C12.3705 12.0664 12.0632 12.9023 11.5737 13.5469C10.9248 14.3984 10.0027 14.8594 8.81495 14.9258C7.91942 14.9766 7.05803 14.7539 6.39018 14.3008C5.60089 13.7617 5.13794 12.9414 5.08861 11.9844C4.99375 10.0977 6.4433 8.74219 8.70111 8.60938C9.50178 8.5625 10.2531 8.59766 10.9475 8.71875C10.8565 8.14062 10.6705 7.67969 10.3935 7.34375C10.0141 6.88672 9.4221 6.65234 8.6404 6.64844H8.61384C7.98393 6.64844 7.13393 6.82812 6.59129 7.67578L5.28594 6.75391C6.01451 5.61719 7.19464 4.99219 8.61763 4.99219H8.64799C11.0234 5.00781 12.4388 6.53516 12.583 9.19922L12.5754 9.20703H12.5792ZM6.6596 11.8945C6.70893 12.875 7.73728 13.332 8.73147 13.2734C9.7029 13.2188 10.8033 12.8281 10.9893 10.4141C10.4884 10.3008 9.93437 10.2422 9.34241 10.2422C9.16027 10.2422 8.97812 10.2461 8.79598 10.2578C7.16808 10.3516 6.62544 11.1641 6.66339 11.8906L6.6596 11.8945Z" fill="#5C22C1"/>
</g>
<defs>
<clipPath id="clip0_298_2555">
<rect width="17" height="20" fill="white"/>
</clipPath>
</defs>
</svg>
