<svg width="20" height="20" viewBox="0 0 20 20" fill="none" xmlns="http://www.w3.org/2000/svg">
<g clip-path="url(#clip0_298_2563)">
<path fill-rule="evenodd" clip-rule="evenodd" d="M14.9267 0.257251C17.1469 0.585406 19.0198 2.2789 19.3089 4.42782C19.4348 5.70596 19.3725 7.6264 19.3422 8.55989C19.3346 8.7922 19.3291 8.96338 19.3289 9.04834C19.3289 9.17379 19.3107 10.3191 19.3034 10.44C19.1089 13.5107 17.1942 14.7233 15.1822 15.1096C15.1605 15.1161 15.1358 15.1209 15.1107 15.1258C15.1042 15.1271 15.0977 15.1283 15.0912 15.1296C13.8157 15.3787 12.4492 15.445 11.1527 15.4814C10.8427 15.4896 10.5335 15.4896 10.2235 15.4896C8.93446 15.4899 7.64991 15.3374 6.39683 15.0351C6.39019 15.0334 6.38323 15.0332 6.37653 15.0347C6.36982 15.0362 6.36357 15.0392 6.35825 15.0435C6.35293 15.0479 6.34871 15.0534 6.34594 15.0597C6.34317 15.0659 6.34191 15.0728 6.34228 15.0796C6.3777 15.4876 6.46634 15.8891 6.60594 16.2741C6.77957 16.7195 7.386 17.7894 9.64074 17.7894C10.9509 17.7918 12.2568 17.6393 13.5311 17.3349C13.5376 17.3334 13.5443 17.3334 13.5508 17.3348C13.5573 17.3363 13.5634 17.3391 13.5686 17.3432C13.5738 17.3473 13.5781 17.3526 13.581 17.3585C13.584 17.3645 13.5855 17.371 13.5857 17.3776V18.8848C13.5854 18.8919 13.5836 18.8988 13.5802 18.9051C13.577 18.9114 13.5723 18.9169 13.5666 18.9211C13.1681 19.2099 12.6324 19.3797 12.1632 19.5283C12.142 19.535 12.121 19.5417 12.1001 19.5483C11.8867 19.6156 11.6706 19.6747 11.4518 19.7256C9.46283 20.1786 7.38699 20.069 5.45674 19.4093C3.65385 18.7766 1.81368 17.2258 1.35909 15.3623C1.11633 14.3534 0.945279 13.3285 0.847228 12.2953C0.744202 11.1655 0.709778 10.0339 0.675305 8.90058C0.662321 8.47372 0.649329 8.04664 0.632663 7.61935C0.589932 6.53037 0.614479 5.3432 0.8445 4.27237C1.32273 2.09801 3.29381 0.576314 5.45219 0.257251C5.49655 0.250684 5.54555 0.242065 5.60293 0.231971C6.0301 0.156834 6.92172 0 9.82077 0H9.84533C13.1329 0 14.5521 0.201801 14.9267 0.257251ZM16.1213 12.1808V6.84215C16.1219 5.75074 15.844 4.88412 15.2876 4.24237C14.7112 3.60151 13.9575 3.27246 13.0229 3.27246C11.9418 3.27246 11.1236 3.68877 10.5781 4.52052L10.0508 5.40409L9.52437 4.52052C8.97886 3.68877 8.16062 3.27246 7.07779 3.27246C6.14225 3.27246 5.38856 3.60151 4.81394 4.24237C4.25692 4.88474 3.9784 5.75132 3.9784 6.84215V12.1808H6.09314V6.99941C6.09314 5.90858 6.55228 5.35228 7.47145 5.35228C8.48791 5.35228 8.99797 6.0104 8.99797 7.31031V10.1464H11.1009V7.31031C11.1009 6.0104 11.61 5.35228 12.6265 5.35228C13.5511 5.35228 14.0057 5.90858 14.0057 6.99941V12.1808H16.1213Z" fill="#5C22C1"/>
</g>
<defs>
<clipPath id="clip0_298_2563">
<rect width="20" height="20" fill="white"/>
</clipPath>
</defs>
</svg>
