<svg width="17" height="20" viewBox="0 0 17 20" fill="none" xmlns="http://www.w3.org/2000/svg">
<path d="M16 8.38002C14.5254 8.38334 13.0871 7.89998 11.8884 6.99825V13.2848C11.8881 14.4491 11.5492 15.5855 10.9171 16.5421C10.2851 17.4987 9.38992 18.2298 8.35143 18.6377C7.31295 19.0456 6.18062 19.1108 5.10589 18.8246C4.03117 18.5384 3.06528 17.9144 2.33741 17.0361C1.60954 16.1578 1.15438 15.0671 1.03282 13.9098C0.911264 12.7525 1.12909 11.5839 1.65717 10.5601C2.18526 9.53636 2.99842 8.70632 3.9879 8.18101C4.97739 7.65571 6.09602 7.46018 7.1942 7.62057V10.7814C6.69206 10.6154 6.15281 10.6203 5.65345 10.7953C5.15409 10.9703 4.72015 11.3065 4.4136 11.756C4.10705 12.2054 3.94356 12.745 3.94647 13.2978C3.94938 13.8506 4.11854 14.3883 4.42981 14.8341C4.74107 15.28 5.17852 15.6111 5.67969 15.7803C6.18086 15.9495 6.72013 15.9481 7.22049 15.7763C7.72086 15.6045 8.15674 15.2711 8.46589 14.8236C8.77505 14.3762 8.94167 13.8376 8.94197 13.2848V1H11.8884C11.8867 1.26168 11.908 1.52297 11.952 1.78055C12.0545 2.3547 12.2674 2.90089 12.5777 3.38572C12.888 3.87056 13.2891 4.28385 13.7567 4.60035C14.4222 5.06194 15.2024 5.30772 16 5.30706V8.38002Z" fill="#5C22C1"/>
</svg>
