<svg width="274" height="115" viewBox="0 0 274 115" fill="none" xmlns="http://www.w3.org/2000/svg">
<path d="M136.234 55.5868C135.679 55.5868 135.229 56.0418 135.229 56.5985C135.229 57.1552 135.681 57.6102 136.234 57.6102C136.787 57.6102 137.239 57.1552 137.239 56.5985C137.239 56.0418 136.787 55.5868 136.234 55.5868ZM136.234 57.1044C135.959 57.1044 135.734 56.8781 135.734 56.6011C135.734 56.324 135.959 56.0978 136.234 56.0978C136.51 56.0978 136.734 56.324 136.734 56.6011C136.734 56.8781 136.51 57.1044 136.234 57.1044ZM192.479 50.6149C191.807 45.7852 190.608 41.6826 189.467 38.4849C187.578 32.8418 184.801 27.5292 181.208 22.7148C177.524 17.0413 173.313 12.7607 169.718 10.14C163.244 5.42474 155.925 2.31598 147.962 0.895054C142.301 -0.111544 137.378 -0.0912082 133.775 0.109603C128.291 0.346001 122.951 1.37293 117.879 3.13194C111.492 4.90873 106.235 7.58028 102.695 10.1832C96.2419 14.9239 91.0409 20.9711 87.2385 28.1596C84.9461 32.4936 83.517 36.5479 82.5728 39.8219C80.9266 45.1853 80.0707 50.8258 80.0707 56.6011C80.0707 56.8044 80.0758 57.0078 80.0783 57.2111C79.7198 64.059 80.6312 70.0859 82.0249 74.3741C84.5093 82.0202 88.6145 88.8681 94.2296 94.7272C97.8704 98.5299 101.516 101.273 104.43 103.22C109.189 106.527 114.395 109.053 119.894 110.729C126.059 113.054 131.836 114 136.207 114H136.27C144.258 113.982 151.996 112.167 159.268 108.604C164.105 106.232 167.892 103.515 170.652 101.293C172.498 99.8466 174.268 98.2757 175.947 96.5828C178.262 94.2519 180.352 91.7506 182.203 89.1096C186.386 83.8555 189.111 78.5327 190.466 74.3004C192.921 66.6467 193.595 58.6753 192.476 50.6123L192.479 50.6149ZM187.747 35.2948L187.709 35.31C188.103 36.2734 188.543 37.3918 188.99 38.6475C190.901 44.3567 191.896 50.3988 191.896 56.5985C191.896 68.3015 188.356 79.4554 181.789 88.8249C178.716 92.6784 174.851 96.4938 170.15 99.8085C164.966 103.461 157.72 107.188 148.76 108.342C164.287 104.531 177.156 93.8045 183.94 79.5978C184.791 78.1184 185.551 76.2577 186.187 74.1174C187.22 71.1408 188 68.0473 188.495 64.8572C191.557 54.1862 190.169 44.4202 188.017 37.3308C187.192 34.6135 186.19 32.0513 185.066 29.6543C186.066 31.4844 186.962 33.3654 187.747 35.2922V35.2948ZM129.415 108.898C129.231 108.86 129.044 108.82 128.867 108.776L128.857 108.82C111.714 106.377 97.2114 95.5482 89.5916 80.6018C89.5916 80.5993 89.5916 80.5942 89.5891 80.5916C89.6649 80.7238 89.7355 80.8535 89.8113 80.9856C93.2728 86.954 97.5952 92.2412 101.986 95.8787C107.957 100.823 115.784 104.107 124.06 105.355C126.229 106.237 128.574 107.017 131.114 107.668C133.899 108.382 136.585 108.827 139.168 109.048C137.79 109.208 136.469 109.303 135.217 109.336C133.255 109.297 131.319 109.153 129.415 108.901V108.898ZM84.7239 66.2324C84.7037 66.0417 84.6835 65.8511 84.6708 65.6681H84.6229C84.1129 62.7245 83.8452 59.692 83.8452 56.6011C83.8452 42.252 89.5689 29.2272 98.8323 19.7077C94.2726 24.8602 90.6217 30.6253 88.5464 35.9429C85.7212 43.1874 85.0395 51.6977 86.4155 60.0072C86.2514 62.356 86.2413 64.8445 86.4104 67.4779C86.5973 70.3681 87.0088 73.0777 87.5996 75.6197C87.0063 74.3157 86.4963 73.0472 86.0746 71.8297C85.5267 70.0046 85.0748 68.1363 84.7239 66.2324ZM111.332 10.2061C111.466 10.1476 111.603 10.0841 111.734 10.0307L111.721 10.0002C119.041 6.0831 127.382 3.85892 136.234 3.85892C145.086 3.85892 152.847 5.92804 159.977 9.59348C159.836 9.52993 159.697 9.46384 159.556 9.40283C153.272 6.62198 146.684 4.90365 141.011 4.55795C133.293 4.09024 125.047 6.06785 117.622 9.95443C115.352 10.5238 112.999 11.2813 110.562 12.2574C107.891 13.3275 105.457 14.5604 103.238 15.9101C104.167 15.0484 105.091 14.2604 106 13.5487C107.704 12.3311 109.484 11.2152 111.33 10.2061H111.332ZM172.51 18.5817C172.558 18.6376 172.611 18.6935 172.657 18.7494L172.669 18.7393C182.501 28.3325 188.623 41.7588 188.623 56.6011C188.623 59.3667 188.409 62.084 188 64.7377C187.992 64.7631 187.985 64.7886 187.977 64.814C187.995 64.6589 188.012 64.5039 188.028 64.3463C188.712 57.4704 188.3 50.6327 186.874 45.0938C184.93 37.5596 180.514 30.2719 174.548 24.3645C173.308 22.3666 171.866 20.3483 170.19 18.3173C168.355 16.0906 166.441 14.1435 164.482 12.4353C165.572 13.053 166.592 13.6885 167.539 14.3316C169.284 15.6432 170.942 17.0642 172.51 18.5817ZM141.721 108.685C138.408 108.586 134.911 108.115 131.238 107.175C129.465 106.72 127.789 106.204 126.201 105.632C130.235 106.067 134.351 106.016 138.38 105.441C145.821 104.381 152.504 101.57 157.955 97.2971C163.969 95.4618 170.834 91.8574 177.105 84.9561C173.455 91.6185 168.38 97.3123 162.479 101.105C157.738 104.153 151.464 106.634 144.814 108.09C143.763 108.319 142.731 108.515 141.716 108.682L141.721 108.685ZM99.2312 20.0229C99.9432 19.2197 100.663 18.452 101.382 17.7174C104.122 15.8364 107.227 14.141 110.752 12.7277C112.451 12.0464 114.11 11.472 115.728 10.9966C112.209 13.0327 108.911 15.5085 105.985 18.358C100.585 23.6172 96.8201 29.85 94.9038 36.5301C91.109 41.5733 87.6627 48.5508 86.6149 57.8466C85.6808 50.2971 86.4609 42.6866 89.0185 36.1285C91.0762 30.8566 94.7018 25.1373 99.2312 20.0229ZM138.969 71.4331C143.48 74.6309 149.903 74.519 155.806 71.2222C155.64 73.9445 154.9 76.8423 153.562 79.7274C152.519 81.9694 151.186 84.0537 149.608 85.9296C141.572 86.8829 134.714 84.3155 130.127 80.6298C129.91 80.4544 129.698 80.2764 129.488 80.096C134.172 78.6395 137.671 75.5841 138.969 71.4357V71.4331ZM138.683 70.5816C136.229 68.6142 135.947 66.8577 136.477 65.9273C136.722 65.4952 137.141 65.2461 137.565 65.2461C137.706 65.2461 137.848 65.2741 137.981 65.33C138.847 65.696 139.527 67.2898 138.683 70.5816ZM139.118 70.9146C140.122 67.1754 139.297 65.3351 138.176 64.8623C137.393 64.5318 136.494 64.8725 136.037 65.6757C135.805 66.0849 134.843 68.2532 138.537 71.1128C137.307 75.2714 133.78 78.3115 129.044 79.6994C124.032 75.1265 121.914 69.0234 123.605 63.7845C127.448 63.5913 128.93 62.2314 129.031 61.0113C129.102 60.1597 128.501 59.4048 127.602 59.2142C127.143 59.1176 124.797 58.8685 123.237 63.2888C123.146 63.2888 123.055 63.2914 122.964 63.2914C118.763 63.2914 114.91 60.8715 112.193 56.8527C114.963 50.6403 120.073 46.7257 125.544 46.7257C126.915 50.3454 128.657 51.3444 129.842 51.0648C130.667 50.8691 131.197 50.0607 131.096 49.1431C131.046 48.6728 130.559 46.3495 125.898 46.2224C124.466 42.1325 125.544 37.585 128.567 33.6578C135.29 34.3898 140.567 38.0756 142.258 43.3145C139.262 45.7471 138.858 47.7222 139.489 48.7694C139.931 49.5015 140.857 49.7557 141.693 49.377C142.12 49.1838 144.165 47.9992 142.844 43.4975C146.265 40.8615 150.893 40.4879 155.539 42.1706C156.925 48.8355 155.074 55.0276 150.648 58.2635C147.424 56.1461 145.432 56.3672 144.639 57.295C144.084 57.9432 144.129 58.9091 144.745 59.5929C145.061 59.9437 146.813 61.5324 150.656 58.8786C154.203 61.3392 155.986 65.6579 155.834 70.6223C149.967 74.0081 143.544 74.1504 139.12 70.912L139.118 70.9146ZM108.298 40.7878C114.244 35.2592 121.288 33.279 127.153 33.5485C127.43 33.5612 127.706 33.5815 127.981 33.6018C125.042 37.552 123.997 42.0944 125.368 46.2199C119.851 46.3038 114.721 50.1929 111.87 56.3545C110.416 54.0541 109.32 51.2732 108.722 48.1467C108.255 45.7166 108.118 43.2408 108.3 40.7878H108.298ZM108.222 48.2433C108.858 51.5605 110.045 54.4964 111.62 56.9036C111.466 57.262 111.317 57.6255 111.178 57.9991C109.118 63.5125 108.772 70.8027 111.974 78.1667C108.454 76.6059 105.24 74.3182 102.572 71.4153C100.574 69.2445 98.9106 66.756 97.5926 63.998C97.782 60.2462 98.5142 56.6544 99.8144 53.4694C101.925 48.3017 104.685 44.3084 107.765 41.2988C107.639 43.617 107.783 45.9505 108.224 48.2458L108.222 48.2433ZM111.651 58.1771C111.749 57.9152 111.853 57.656 111.959 57.4018C114.759 61.4027 118.685 63.8023 122.964 63.8023C122.999 63.8023 123.035 63.8023 123.07 63.8023C121.444 69.1098 123.535 75.2257 128.473 79.8596C125.85 80.5408 122.883 80.7289 119.745 80.3374C117.304 80.0324 114.925 79.3995 112.663 78.4691C109.28 71.0696 109.585 63.7108 111.651 58.1796V58.1771ZM123.785 63.2634C124.774 60.602 126.145 59.6768 127.17 59.6768C127.284 59.6768 127.395 59.6895 127.501 59.7098C128.145 59.8445 128.579 60.3733 128.529 60.9655C128.45 61.906 127.155 63.0499 123.787 63.2609L123.785 63.2634ZM126.095 46.7384C129.228 46.8783 130.483 48.1314 130.599 49.1965C130.67 49.8548 130.304 50.4318 129.731 50.5691C128.817 50.7852 127.337 49.898 126.097 46.7384H126.095ZM142.683 42.984C140.9 37.7274 135.638 34.0162 128.938 33.1901C130.662 31.0879 132.952 29.1789 135.719 27.6385C137.87 26.4413 140.163 25.5465 142.534 24.9619C149.593 28.9451 153.648 35.0762 155.205 40.7751C155.279 41.0446 155.347 41.314 155.41 41.5834C150.772 39.9922 146.157 40.3938 142.685 42.9815L142.683 42.984ZM141.486 48.9143C140.885 49.1863 140.226 49.0135 139.921 48.5051C139.433 47.6968 139.814 46.0064 142.418 43.8407C143.256 46.8859 142.458 48.4746 141.486 48.9118V48.9143ZM150.199 58.5761C147.583 60.3199 145.836 60.0454 145.119 59.2523C144.677 58.7617 144.634 58.0779 145.021 57.628C145.276 57.3281 145.725 57.1272 146.371 57.1272C147.268 57.1272 148.54 57.5187 150.199 58.5787V58.5761ZM151.09 58.566C155.506 55.2335 157.384 49.049 156.094 42.3791C158.614 43.3806 161.124 44.9845 163.434 47.1579C165.231 48.8482 166.787 50.7699 168.072 52.8594C166.489 60.8486 161.947 66.6213 157.046 69.8749C156.814 70.03 156.579 70.1774 156.344 70.3198C156.415 65.3859 154.61 61.0901 151.09 58.566ZM163.78 46.7867C161.328 44.4812 158.654 42.8061 155.973 41.7919C155.89 41.4106 155.796 41.0268 155.693 40.6429C154.14 34.9643 150.161 28.8612 143.273 24.7992C147.035 23.9782 150.969 23.9273 154.827 24.6975C157.71 25.272 160.508 26.2989 163.186 27.7504C165.224 30.8972 166.729 34.2373 167.536 37.585C168.847 43.0145 168.945 47.8772 168.211 52.1349C166.961 50.1853 165.481 48.3831 163.785 46.7867H163.78ZM154.92 24.1968C150.807 23.3757 146.606 23.4698 142.614 24.423C138.673 22.2319 133.826 20.6966 127.981 20.2492C124.848 20.0102 121.5 20.3153 118.114 21.1363C121.709 17.903 126.191 15.2924 131.417 13.4241C134.954 12.1583 138.625 11.4669 142.342 11.3321C144.296 12.0185 146.063 12.8065 147.626 13.6199C153.638 16.7464 158.897 21.4896 162.596 26.8683C160.126 25.6202 157.559 24.7229 154.923 24.1968H154.92ZM127.94 20.7576C133.472 21.1795 138.095 22.5903 141.89 24.6111C139.663 25.2059 137.504 26.0651 135.474 27.1962C132.538 28.8307 130.129 30.8718 128.344 33.1265C127.958 33.0884 127.567 33.0579 127.173 33.0401C121.328 32.7706 114.334 34.6923 108.368 40.0329C108.755 36.1793 109.924 32.397 111.84 28.9425C113.274 26.3599 115.11 23.9985 117.306 21.8836C120.909 20.905 124.529 20.4957 127.94 20.7576ZM111.401 28.696C109.356 32.3792 108.144 36.4284 107.813 40.5463C104.526 43.6424 101.577 47.8137 99.3499 53.2737C98.1557 56.1994 97.4109 59.4988 97.1382 62.9965C95.1941 58.5558 94.1135 53.4567 93.9645 47.8747C93.8636 44.0949 94.3433 40.3659 95.3658 36.7665C96.6181 35.1092 97.9082 33.6603 99.1605 32.4148C103.97 27.6258 110.078 24.057 116.299 22.1759C114.357 24.1536 112.716 26.3345 111.403 28.696H111.401ZM93.4545 47.8874C93.6161 53.9016 94.8457 59.3667 97.065 64.0692C96.9993 65.4139 96.9993 66.7814 97.0725 68.1693C97.373 73.9191 98.898 79.6918 101.476 84.8595C102.104 86.1203 102.849 87.4446 103.718 88.7969C98.5495 84.9993 94.2675 79.8113 91.2151 73.5226C89.1397 69.2496 87.7056 64.6513 86.9255 59.9869C87.6021 50.4064 90.8263 43.1721 94.5351 37.8951C93.7323 41.1488 93.3637 44.4965 93.4545 47.8848V47.8874ZM101.93 84.6307C98.8929 78.5429 97.4058 71.5958 97.5548 65.0555C98.8247 67.5262 100.375 69.7733 102.203 71.7585C105.051 74.8545 108.502 77.2668 112.287 78.8555C114.196 82.9607 117.225 87.071 121.694 90.894C124.09 92.9428 126.976 94.6738 130.195 96.016C125.398 96.504 120.247 95.9651 114.928 94.3841C111.327 93.3139 107.952 91.7023 104.869 89.6103C103.69 87.8971 102.72 86.2169 101.93 84.6333V84.6307ZM122.02 90.5076C117.791 86.8905 114.872 83.0141 112.981 79.1351C115.132 79.974 117.379 80.5535 119.684 80.8433C120.793 80.9806 121.881 81.0492 122.941 81.0492C125.065 81.0492 127.074 80.7772 128.915 80.2663C129.205 80.5255 129.503 80.7797 129.814 81.0288C133.828 84.2545 139.542 86.6439 146.253 86.6439C147.187 86.6439 148.141 86.5931 149.113 86.4965C146.551 89.3867 143.397 91.7557 139.827 93.4156C137.158 94.656 134.295 95.4822 131.281 95.8914C127.797 94.5518 124.628 92.7394 122.02 90.5102V90.5076ZM140.037 93.8731C143.844 92.104 147.189 89.5417 149.861 86.405C154.327 85.8458 159.144 84.2189 164.136 81.1204C166.812 79.4605 169.339 77.2312 171.601 74.5622C170.581 79.3054 168.478 84.0715 165.342 88.6749C163.219 91.7913 160.651 94.5264 157.723 96.8319C155.741 97.4318 153.852 97.8411 152.113 98.108C145.425 99.1349 138.401 98.4104 132.268 96.2473C134.995 95.7948 137.595 95.0043 140.037 93.868V93.8731ZM163.871 80.6908C159.147 83.6216 154.582 85.2205 150.333 85.8331C151.789 84.0334 153.032 82.0583 154.016 79.9409C155.438 76.883 156.193 73.8047 156.321 70.9247C156.655 70.7265 156.988 70.5206 157.319 70.2994C162.204 67.056 166.741 61.3646 168.45 53.5126C170.387 56.8603 171.652 60.6097 172.116 64.5395C172.465 67.4779 172.359 70.4748 171.813 73.487C169.47 76.4102 166.782 78.8835 163.868 80.6908H163.871ZM172.619 64.4785C172.124 60.2868 170.738 56.296 168.604 52.7679C169.455 48.317 169.407 43.2001 168.021 37.463C167.279 34.3873 165.956 31.2785 164.133 28.2892C168.299 30.732 172.149 34.217 175.53 38.645C177.817 41.6419 179.607 44.9439 180.88 48.4593C180.834 50.5437 180.638 52.4781 180.352 54.2269C179.256 60.9503 176.401 67.45 172.462 72.6532C172.879 69.9029 172.934 67.1678 172.616 64.481L172.619 64.4785ZM175.931 38.3349C172.288 33.5637 168.102 29.8703 163.562 27.3818C162.833 26.2557 162.03 25.1474 161.161 24.0697C157.561 19.5959 152.958 15.8288 147.853 13.1725C146.606 12.5243 145.233 11.8914 143.74 11.3118C150.138 11.3245 156.635 12.9895 162.775 16.2685C166.948 18.4978 170.793 21.3702 174.146 24.6797C179.193 32.8316 180.809 40.5921 180.887 47.0562C179.638 43.95 177.981 41.0217 175.929 38.3349H175.931ZM163.015 15.8186C156.377 12.2727 149.328 10.5925 142.423 10.8238C136.487 8.74956 128.829 7.6057 119.725 9.47401C126.567 6.24578 133.997 4.64183 140.983 5.06379C146.599 5.40441 153.123 7.11003 159.354 9.86546C160.336 10.3001 161.288 10.7526 162.204 11.2178C164.825 13.2589 167.382 15.7068 169.804 18.6427C170.973 20.0585 172.028 21.4718 172.977 22.8724C169.965 20.1322 166.61 17.7403 163.015 15.8186ZM141.016 10.8924C137.696 11.1288 134.419 11.81 131.245 12.9437C125.613 14.9569 120.831 17.8242 117.076 21.4007C115.786 21.7514 114.493 22.1759 113.206 22.6742C107.866 24.7407 102.885 27.9817 98.7995 32.0487C97.8022 33.0426 96.7797 34.1611 95.7723 35.4117C97.7618 29.2908 101.342 23.5867 106.336 18.7189C109.732 15.4119 113.633 12.6158 117.796 10.4298C127.054 8.11663 134.884 8.96817 141.014 10.8899L141.016 10.8924ZM86.8194 62.145C87.6577 66.1434 88.9731 70.0656 90.7631 73.7488C94.063 80.5459 98.7843 86.0745 104.505 89.9764C108.098 95.167 113.625 100.624 122.08 104.501C114.66 103.062 107.712 99.9636 102.306 95.4872C97.9613 91.8904 93.6792 86.649 90.2481 80.7314C89.7078 79.8011 89.2053 78.8758 88.7357 77.9582C87.8041 74.7529 87.1628 71.2577 86.9179 67.4449C86.7992 65.6071 86.7715 63.843 86.8194 62.145ZM105.682 90.7491C108.507 92.5234 111.557 93.9113 114.784 94.8696C120.515 96.5726 126.059 97.0836 131.185 96.4125C132.435 96.8904 133.727 97.3123 135.06 97.6733C140.587 99.1628 146.508 99.4857 152.188 98.6138C153.574 98.4003 155.054 98.0978 156.599 97.6835C151.416 101.458 145.19 103.957 138.307 104.936C133.629 105.602 128.842 105.553 124.196 104.859C115.354 101.252 109.517 95.9295 105.68 90.7466L105.682 90.7491ZM159.051 96.4074C161.598 94.2519 163.853 91.7608 165.757 88.9647C169.137 84.0029 171.334 78.853 172.283 73.7361C173.121 72.6888 173.919 71.5806 174.672 70.4138C177.785 65.5842 179.923 60.0123 180.852 54.3032C181.079 52.9102 181.251 51.3978 181.337 49.7913C183.301 55.9224 183.735 62.6559 182.536 69.547C181.721 74.2318 180.196 78.8021 178.105 83.0344C171.965 90.3856 165.133 94.3307 159.051 96.4049V96.4074ZM183.036 69.6385C184.334 62.1856 183.743 54.9183 181.392 48.378C181.516 42.0537 180.234 34.367 175.654 26.2278C180.817 31.7818 184.629 38.401 186.389 45.2209C187.803 50.7013 188.207 57.4755 187.53 64.2954C187.424 65.3707 187.288 66.4205 187.134 67.4449C186.015 70.5867 184.493 73.7895 182.468 77.0152C181.491 78.5708 180.484 80.0172 179.453 81.3593C181.11 77.6303 182.334 73.6751 183.039 69.6385H183.036ZM144.463 108.685C144.617 108.652 144.771 108.624 144.925 108.588C151.633 107.119 157.965 104.613 162.755 101.534C169.271 97.3454 174.79 90.8661 178.527 83.3267C180.032 81.522 181.491 79.5164 182.892 77.2871C184.427 74.8418 185.677 72.4067 186.684 70.0046C186.404 71.3975 186.081 72.7117 185.715 73.9369C185.071 75.7951 184.329 77.6074 183.491 79.3639C183.41 79.5037 183.329 79.646 183.246 79.7808L183.276 79.8011C175.904 94.8924 161.578 105.942 144.531 108.685C144.508 108.685 144.485 108.685 144.46 108.685H144.463ZM176.03 16.6981C176.002 16.6702 175.977 16.6447 175.952 16.6168C169.17 9.78921 160.957 4.92399 151.994 2.30327C158.298 3.94535 164.146 6.71095 169.425 10.5543C171.495 12.0617 173.773 14.1283 176.032 16.6981H176.03ZM132.031 0.719662V0.734913C132.576 0.694243 133.169 0.653572 133.8 0.617985C134.611 0.582399 135.421 0.562063 136.237 0.562063C151.105 0.562063 165.082 6.39067 175.596 16.9752C177.489 18.8816 179.229 20.905 180.809 23.0224C183.478 27.1378 185.866 31.9877 187.533 37.4783C189.383 43.5712 190.663 51.6647 188.982 60.6071C189.08 59.2828 189.131 57.9457 189.131 56.596C189.131 41.5377 182.89 27.9207 172.876 18.2258C171.654 16.8074 169.943 15.3509 167.862 13.9351C165.471 12.1354 162.926 10.5314 160.247 9.15373C151.095 2.88791 141.413 1.19246 134.035 1.06282C131.276 1.01452 128.604 1.17466 126.044 1.49495C128.014 1.12891 130.011 0.867093 132.031 0.71712V0.719662ZM102.993 10.595C104.973 9.14102 107.497 7.66417 110.456 6.33729C105.379 8.98342 100.68 12.4303 96.5221 16.6168C93.962 19.1943 91.6821 21.9777 89.6926 24.9288C93.2122 19.3188 97.6709 14.5045 102.993 10.595ZM82.1335 43.3577L82.1637 43.3653C82.4036 42.374 82.694 41.2327 83.055 39.9795C85.6934 31.3878 90.3819 23.5155 96.8781 16.9777C102.95 10.8644 110.181 6.33983 118.069 3.60727C122.833 2.28802 128.233 1.47207 134.025 1.57629C140.362 1.68813 148.414 2.96671 156.352 7.35405C150.146 4.77655 143.354 3.348 136.234 3.348C127.15 3.348 118.591 5.66622 111.115 9.74599C109.454 10.4831 107.624 11.6346 105.722 13.1267C103.306 14.8502 101.039 16.7744 98.9434 18.874C90.1319 25.7117 85.5091 34.4966 83.0954 41.5479C82.2067 44.1457 81.5376 46.7232 81.0503 49.2473C81.3078 47.257 81.6689 45.2921 82.1335 43.3577ZM80.765 65.513C82.2546 75.0426 86.1276 83.9648 92.0886 91.5651C87.799 86.4152 84.5774 80.5967 82.5046 74.214C81.7244 71.8119 81.0983 68.8556 80.765 65.513ZM107.008 104.31L107.023 104.285C106.326 103.853 105.548 103.357 104.713 102.8C101.938 100.871 99.3145 98.6799 96.8781 96.2269C86.5064 85.7822 80.7347 71.9441 80.5832 57.201C80.8408 52.3459 81.7396 47.074 83.5751 41.7131C85.653 35.643 89.3871 28.2715 96.0626 22.0006C88.1348 31.3141 83.3403 43.4035 83.3403 56.6011C83.3403 59.9157 83.6458 63.1567 84.224 66.3061C84.4057 67.9812 84.8703 69.8953 85.5873 71.9593C86.5064 75.0299 87.693 77.9836 89.122 80.795C92.8713 91.2677 99.7059 98.3621 105.594 102.833C107.876 104.564 110.211 106.059 112.549 107.345C110.651 106.445 108.8 105.431 107.008 104.313V104.31ZM136.27 113.492H136.207C133.712 113.492 130.748 113.176 127.519 112.47C130.377 112.915 133.288 113.146 136.234 113.146C142.748 113.146 149.093 112.035 155.054 109.908C149.035 112.274 142.736 113.479 136.267 113.492H136.27ZM175.593 96.2244C174.517 97.3073 173.407 98.3367 172.26 99.3179L172.253 99.3077C171.685 99.7932 171.048 100.327 170.347 100.891C160.629 108.507 148.75 112.638 136.237 112.638C130.667 112.638 125.224 111.819 120.038 110.241C115.4 108.487 110.54 105.945 105.899 102.424C100.822 98.5706 95.0351 92.7445 91.1747 84.4553C99.3423 97.7978 113.186 107.256 129.291 109.394C130.738 109.702 132.432 109.854 134.308 109.854C134.586 109.854 134.871 109.847 135.154 109.839C135.515 109.847 135.873 109.852 136.237 109.852C139.077 109.852 141.867 109.623 144.586 109.186C155.612 108.82 164.408 104.473 170.437 100.223C172.642 98.6697 174.664 97.0048 176.51 95.2788C176.209 95.5965 175.904 95.9117 175.593 96.2244ZM186.477 81.9389C190.35 74.1708 192.4 65.5461 192.4 56.6011C192.4 55.7953 192.38 54.9946 192.347 54.1939C192.85 60.9833 192.062 67.6787 189.989 74.1479C189.245 76.4763 188.078 79.1377 186.477 81.9389Z" fill="#1C4AC7"/>
<circle cx="59.5" cy="57.5" r="4.5" fill="#E93F30"/>
<circle cx="214.5" cy="57.5" r="4.5" fill="#E93F30"/>
<path d="M271 55.333C272.473 55.333 273.667 56.5272 273.667 58C273.667 59.4728 272.473 60.667 271 60.667C269.698 60.667 268.616 59.7336 268.382 58.5H219V57.5H268.382C268.616 56.2664 269.698 55.333 271 55.333Z" fill="#1C4AC7"/>
<path d="M2.99902 55.333C4.30078 55.333 5.38303 56.2664 5.61719 57.5L54.999 57.5L54.999 58.5L5.61719 58.5C5.38303 59.7336 4.30078 60.667 2.99902 60.667C1.52626 60.667 0.332032 59.4728 0.332031 58C0.332031 56.5272 1.52626 55.333 2.99902 55.333Z" fill="#1C4AC7"/>
</svg>
