<svg width="234" height="91" viewBox="0 0 234 91" fill="none" xmlns="http://www.w3.org/2000/svg">
<path d="M40.7515 26.1712L44.4821 35.5595C44.5188 35.651 44.6216 35.6933 44.7118 35.6553L53.9877 31.6557C54.2131 31.5584 54.4414 31.7867 54.3441 32.0121L50.3444 41.2877C50.3064 41.3778 50.3486 41.4821 50.4402 41.5173L59.8288 45.2478C60.0571 45.338 60.0571 45.662 59.8288 45.7522L50.4402 49.4827C50.3486 49.5193 50.3064 49.6222 50.3444 49.7123L54.3441 58.9879C54.4414 59.2133 54.2131 59.4416 53.9877 59.3443L44.7118 55.3447C44.6216 55.3067 44.5174 55.349 44.4821 55.4405L40.7515 64.8288C40.6613 65.0571 40.3373 65.0571 40.2471 64.8288L36.5165 55.4405C36.4798 55.349 36.377 55.3067 36.2868 55.3447L27.0109 59.3443C26.7855 59.4416 26.5572 59.2133 26.6545 58.9879L30.6542 49.7123C30.6922 49.6222 30.65 49.5179 30.5584 49.4827L21.1712 45.7508C20.9429 45.6606 20.9429 45.3366 21.1712 45.2464L30.5598 41.5159C30.6514 41.4793 30.6936 41.3764 30.6556 41.2863L26.6559 32.0107C26.5586 31.7853 26.7869 31.557 27.0123 31.6542L36.2882 35.6538C36.3784 35.6919 36.4826 35.6496 36.5179 35.5581L40.2471 26.1712C40.3373 25.9429 40.6613 25.9429 40.7515 26.1712Z" fill="#E93F30"/>
<path d="M193.751 26.1712L197.482 35.5595C197.519 35.651 197.622 35.6933 197.712 35.6553L206.988 31.6557C207.213 31.5584 207.441 31.7867 207.344 32.0121L203.344 41.2877C203.306 41.3778 203.349 41.4821 203.44 41.5173L212.829 45.2478C213.057 45.338 213.057 45.662 212.829 45.7522L203.44 49.4827C203.349 49.5193 203.306 49.6222 203.344 49.7123L207.344 58.9879C207.441 59.2133 207.213 59.4416 206.988 59.3443L197.712 55.3447C197.622 55.3067 197.517 55.349 197.482 55.4405L193.751 64.8288C193.661 65.0571 193.337 65.0571 193.247 64.8288L189.516 55.4405C189.48 55.349 189.377 55.3067 189.287 55.3447L180.011 59.3443C179.785 59.4416 179.557 59.2133 179.654 58.9879L183.654 49.7123C183.692 49.6222 183.65 49.5179 183.558 49.4827L174.171 45.7508C173.943 45.6606 173.943 45.3366 174.171 45.2464L183.56 41.5159C183.651 41.4793 183.694 41.3764 183.656 41.2863L179.656 32.0107C179.559 31.7853 179.787 31.557 180.012 31.6542L189.288 35.6538C189.378 35.6919 189.483 35.6496 189.518 35.5581L193.247 26.1712C193.337 25.9429 193.661 25.9429 193.751 26.1712Z" fill="#E93F30"/>
<path d="M162 45.4145C162 45.392 161.994 45.3694 161.99 45.3436C161.984 45.3146 161.978 45.2823 161.968 45.2533C161.968 45.2436 161.965 45.234 161.962 45.2243C161.959 45.2146 161.952 45.2049 161.949 45.1953C161.936 45.1662 161.923 45.1372 161.907 45.1082C161.898 45.0888 161.888 45.0727 161.876 45.0534C161.86 45.0276 161.841 45.0018 161.818 44.9792C161.805 44.9631 161.793 44.9502 161.78 44.9341C161.758 44.9115 161.732 44.8889 161.707 44.8696C161.691 44.8567 161.678 44.847 161.662 44.8341C161.636 44.8147 161.608 44.7986 161.579 44.7825C161.56 44.7728 161.544 44.7631 161.525 44.7567C161.509 44.7502 161.496 44.7406 161.48 44.7341L138.561 36.4658L148.986 14.2374C148.986 14.2374 148.995 14.2051 149.002 14.189C149.008 14.1697 149.014 14.1503 149.021 14.131C149.03 14.0987 149.04 14.0665 149.043 14.0342C149.046 14.0149 149.049 13.9955 149.049 13.9794C149.053 13.9472 149.056 13.9149 149.056 13.8827C149.056 13.8633 149.056 13.844 149.053 13.8246C149.053 13.7924 149.046 13.7601 149.04 13.7311C149.037 13.7118 149.03 13.6924 149.024 13.6698C149.014 13.6376 149.005 13.6086 148.992 13.5763C148.989 13.5666 148.986 13.557 148.982 13.5441C148.979 13.5344 148.973 13.5279 148.967 13.5183C148.954 13.4892 148.935 13.4634 148.919 13.4376C148.906 13.4183 148.893 13.399 148.877 13.3796C148.861 13.3603 148.842 13.3377 148.823 13.3183C148.804 13.299 148.785 13.2796 148.766 13.2635C148.746 13.2474 148.73 13.2345 148.711 13.2216C148.686 13.2022 148.66 13.1861 148.632 13.1732C148.622 13.17 148.616 13.1635 148.606 13.1571C148.596 13.1539 148.587 13.1506 148.577 13.1474C148.549 13.1345 148.517 13.1248 148.485 13.1152C148.466 13.1087 148.447 13.1055 148.427 13.099C148.396 13.0926 148.364 13.0894 148.332 13.0861C148.313 13.0861 148.293 13.0861 148.274 13.0861C148.242 13.0861 148.211 13.0861 148.175 13.0926C148.156 13.0926 148.14 13.0958 148.121 13.099C148.089 13.1055 148.057 13.1119 148.026 13.1216C148.006 13.1281 147.987 13.1345 147.968 13.141C147.952 13.1474 147.936 13.1506 147.92 13.1571L125.933 23.6957L117.751 0.532088C117.745 0.515964 117.735 0.499841 117.729 0.483717C117.722 0.464368 117.713 0.448244 117.703 0.43212C117.687 0.403097 117.671 0.374074 117.652 0.345051C117.643 0.328927 117.63 0.316028 117.62 0.299904C117.601 0.274106 117.579 0.248308 117.553 0.225734C117.541 0.212835 117.525 0.199936 117.509 0.187037C117.483 0.167688 117.458 0.14834 117.432 0.128991C117.416 0.119317 117.397 0.106418 117.381 0.0967433C117.352 0.0806194 117.324 0.0677203 117.295 0.0548212C117.285 0.0515964 117.276 0.0451469 117.266 0.0419221C117.257 0.0386973 117.247 0.0386973 117.238 0.0354726C117.209 0.0257982 117.177 0.0193487 117.148 0.0128991C117.126 0.00967433 117.104 0.00322478 117.081 0.00322478C117.056 0.00322478 117.027 0 117.002 0C116.976 0 116.947 0 116.922 0.00322478C116.9 0.00322478 116.877 0.00967433 116.855 0.0128991C116.823 0.0193487 116.794 0.0257982 116.762 0.0354726C116.753 0.0354726 116.743 0.0386973 116.734 0.0419221C116.724 0.0451469 116.715 0.0515964 116.705 0.0548212C116.673 0.0677203 116.644 0.0806194 116.616 0.0967433C116.6 0.106418 116.581 0.116092 116.565 0.125766C116.536 0.145115 116.51 0.164464 116.488 0.183812C116.475 0.196711 116.459 0.209611 116.447 0.22251C116.424 0.245083 116.402 0.270881 116.38 0.29668C116.37 0.309579 116.357 0.325703 116.348 0.338602C116.329 0.367625 116.313 0.396648 116.297 0.425671C116.287 0.441795 116.281 0.461143 116.271 0.477267C116.265 0.493391 116.255 0.50629 116.249 0.525639L108.07 23.6957L86.0829 13.1635C86.0829 13.1635 86.0542 13.1539 86.0383 13.1474C86.0191 13.1377 85.9968 13.1313 85.9777 13.1248C85.949 13.1152 85.9171 13.1087 85.8884 13.1023C85.8692 13.099 85.8469 13.0958 85.8278 13.0926C85.7959 13.0894 85.7671 13.0861 85.7352 13.0861C85.7129 13.0861 85.6938 13.0861 85.6715 13.0894C85.6427 13.0894 85.6108 13.0958 85.5821 13.1023C85.5598 13.1055 85.5407 13.1119 85.5183 13.1184C85.4864 13.1281 85.4577 13.1377 85.429 13.1506C85.4195 13.1539 85.4067 13.1571 85.3971 13.1635C85.3876 13.1668 85.3812 13.1732 85.3716 13.1797C85.3429 13.1926 85.3174 13.2087 85.2919 13.228C85.2727 13.2409 85.2536 13.2538 85.2345 13.27C85.2153 13.2861 85.193 13.3054 85.177 13.3248C85.1579 13.3441 85.1388 13.3635 85.1228 13.3828C85.1069 13.4022 85.0941 13.4215 85.0813 13.4409C85.0654 13.4667 85.0494 13.4925 85.0335 13.5215C85.0303 13.5312 85.0239 13.5376 85.0175 13.5473C85.0144 13.557 85.0112 13.5666 85.008 13.5795C84.9952 13.6086 84.9856 13.6408 84.9761 13.6731C84.9697 13.6924 84.9665 13.7118 84.9601 13.7343C84.9537 13.7666 84.9506 13.7956 84.9474 13.8278C84.9474 13.8472 84.9474 13.8665 84.9442 13.8859C84.9442 13.9181 84.9442 13.9504 84.9506 13.9826C84.9506 14.002 84.9537 14.0213 84.9569 14.0375C84.9633 14.0697 84.9697 14.102 84.9793 14.1342C84.9856 14.1535 84.992 14.1729 84.9984 14.1922C85.0048 14.2084 85.008 14.2245 85.0144 14.2406L95.4386 36.469L72.5231 44.7373C72.5072 44.7438 72.4944 44.7535 72.4785 44.7599C72.4593 44.7696 72.4402 44.776 72.4242 44.7857C72.3955 44.8018 72.3668 44.818 72.3413 44.8341C72.3254 44.8438 72.3094 44.8567 72.2967 44.8696C72.2711 44.8889 72.2488 44.9115 72.2265 44.9341C72.2137 44.9469 72.201 44.9631 72.185 44.9792C72.1659 45.005 72.1467 45.0276 72.1276 45.0534C72.1148 45.0695 72.1053 45.0888 72.0957 45.1082C72.0797 45.1372 72.067 45.1662 72.0542 45.1953C72.051 45.2049 72.0447 45.2146 72.0415 45.2243C72.0383 45.234 72.0383 45.2436 72.0351 45.2533C72.0255 45.2823 72.0191 45.3146 72.0128 45.3436C72.0096 45.3662 72.0032 45.3887 72.0032 45.4145C72.0032 45.4403 72 45.4694 72 45.4952C72 45.521 72 45.55 72.0032 45.5758C72.0032 45.5984 72.0096 45.6209 72.0128 45.6467C72.0191 45.679 72.0255 45.708 72.0351 45.737C72.0351 45.7467 72.0383 45.7564 72.0415 45.766C72.0447 45.7757 72.051 45.7854 72.0542 45.7951C72.067 45.8241 72.0797 45.8531 72.0957 45.8821C72.1053 45.9015 72.1148 45.9176 72.1276 45.937C72.1435 45.9628 72.1627 45.9886 72.185 46.0144C72.1978 46.0305 72.2105 46.0434 72.2233 46.0595C72.2456 46.0821 72.2711 46.1046 72.2967 46.1272C72.3094 46.1401 72.3254 46.1498 72.3413 46.1595C72.3668 46.1788 72.3955 46.1949 72.4274 46.2111C72.4434 46.2207 72.4625 46.2272 72.4785 46.2369C72.4944 46.2433 72.5072 46.253 72.5263 46.2594L95.445 54.5278L85.0207 76.7562C85.0207 76.7562 85.0112 76.7884 85.0048 76.8045C84.9984 76.8239 84.992 76.8432 84.9856 76.8626C84.9761 76.8948 84.9665 76.9271 84.9633 76.9593C84.9601 76.9787 84.9569 76.998 84.9569 77.0141C84.9537 77.0464 84.9506 77.0786 84.9506 77.1109C84.9506 77.1302 84.9506 77.1496 84.9537 77.1689C84.9537 77.2012 84.9601 77.2334 84.9665 77.2624C84.9697 77.2818 84.9761 77.3011 84.9825 77.3237C84.992 77.356 85.0016 77.385 85.0144 77.4172C85.0175 77.4269 85.0207 77.4366 85.0239 77.4495C85.0239 77.4559 85.0335 77.4592 85.0367 77.4656C85.0686 77.5269 85.1037 77.5882 85.1515 77.6397C85.1515 77.643 85.1579 77.6462 85.1611 77.6494C85.2026 77.6946 85.2504 77.7333 85.3014 77.7687C85.3206 77.7816 85.3365 77.7913 85.3557 77.801C85.3716 77.8107 85.3844 77.8203 85.4035 77.83C85.429 77.8429 85.4545 77.8461 85.4801 77.8558C85.5024 77.8655 85.5247 77.8752 85.5502 77.8816C85.6077 77.8977 85.6651 77.9042 85.7225 77.9074C85.7289 77.9074 85.7384 77.9106 85.7448 77.9106C85.8118 77.9106 85.882 77.8977 85.949 77.8816C85.9649 77.8784 85.9777 77.8719 85.9904 77.8655C86.0223 77.8558 86.0542 77.8461 86.0861 77.8332L108.073 67.2947L116.252 90.4647C116.258 90.4873 116.271 90.5066 116.281 90.526C116.281 90.5324 116.287 90.5389 116.29 90.5485C116.335 90.6421 116.396 90.7227 116.466 90.7904C116.501 90.8226 116.539 90.8517 116.577 90.8742C116.587 90.8807 116.596 90.8871 116.606 90.8904C116.641 90.9097 116.679 90.929 116.718 90.9452C116.724 90.9452 116.727 90.9516 116.734 90.9548C116.734 90.9548 116.74 90.9548 116.743 90.9548C116.778 90.9678 116.813 90.9742 116.848 90.9839C116.855 90.9839 116.864 90.9871 116.871 90.9903C116.912 90.9968 116.957 91 116.998 91C117.043 91 117.085 90.9968 117.126 90.9903C117.132 90.9903 117.142 90.9871 117.148 90.9839C117.183 90.9774 117.219 90.9678 117.254 90.9548C117.254 90.9548 117.26 90.9548 117.263 90.9548C117.27 90.9548 117.276 90.9484 117.279 90.9452C117.317 90.929 117.356 90.9129 117.391 90.8904C117.4 90.8839 117.41 90.8807 117.419 90.8742C117.458 90.8484 117.496 90.8226 117.531 90.7904C117.604 90.7227 117.662 90.6421 117.707 90.5485C117.71 90.5421 117.713 90.5356 117.716 90.526C117.726 90.5066 117.735 90.4873 117.745 90.4647L125.923 67.2947L147.911 77.8332C147.943 77.8494 147.974 77.8558 148.006 77.8655C148.019 77.8687 148.035 77.8752 148.048 77.8816C148.115 77.9009 148.185 77.9106 148.252 77.9106C148.262 77.9106 148.268 77.9106 148.278 77.9074C148.335 77.9074 148.392 77.8977 148.45 77.8816C148.475 77.8752 148.498 77.8655 148.52 77.8558C148.545 77.8461 148.571 77.8397 148.596 77.83C148.612 77.8236 148.628 77.8107 148.644 77.801C148.663 77.7913 148.679 77.7784 148.699 77.7687C148.75 77.7333 148.797 77.6946 148.839 77.6494C148.839 77.6494 148.845 77.643 148.848 77.6397C148.896 77.5882 148.931 77.5269 148.963 77.4656C148.967 77.4592 148.973 77.4559 148.976 77.4495C148.979 77.4398 148.982 77.4301 148.986 77.4172C148.998 77.3882 149.008 77.356 149.018 77.3237C149.024 77.3044 149.027 77.285 149.033 77.2624C149.04 77.2302 149.043 77.2012 149.046 77.1689C149.046 77.1496 149.046 77.1302 149.049 77.1109C149.049 77.0786 149.049 77.0464 149.043 77.0141C149.043 76.9948 149.04 76.9754 149.037 76.9593C149.03 76.9271 149.024 76.8948 149.014 76.8626C149.008 76.8432 149.002 76.8239 148.995 76.8045C148.989 76.7884 148.986 76.7723 148.979 76.7562L138.555 54.5278L161.474 46.2594C161.49 46.253 161.506 46.2433 161.522 46.2369C161.537 46.2304 161.557 46.2207 161.573 46.2111C161.601 46.1949 161.63 46.1788 161.659 46.1595C161.675 46.1498 161.687 46.1369 161.7 46.1272C161.726 46.1046 161.751 46.0853 161.774 46.0595C161.786 46.0466 161.799 46.0305 161.812 46.0176C161.831 45.9918 161.85 45.9692 161.869 45.9402C161.882 45.9241 161.892 45.9047 161.901 45.8854C161.917 45.8563 161.93 45.8273 161.943 45.7983C161.946 45.7886 161.952 45.7789 161.955 45.7693C161.959 45.7596 161.959 45.7499 161.962 45.7402C161.971 45.7112 161.978 45.6822 161.984 45.65C161.987 45.6274 161.994 45.6048 161.994 45.579C161.994 45.5532 161.997 45.5242 161.997 45.4984C161.997 45.4726 161.997 45.4436 161.994 45.4178L162 45.4145ZM146.584 15.5886L137.046 35.924L129.247 33.112L126.466 25.2274L146.581 15.5854L146.584 15.5886ZM133.49 47.4816L136.36 53.6023L130.048 55.8789L131.729 51.7706L133.49 47.4816ZM127.27 58.691L125.018 65.0696L118.963 62.1673L122.935 60.5033L127.27 58.691ZM115.033 62.1673L108.979 65.0696L106.727 58.6877L110.788 60.3872L115.033 62.1673ZM103.949 55.8789L97.6364 53.6023L100.507 47.4816L102.226 51.6738L103.946 55.8789H103.949ZM100.51 43.5087L97.6396 37.3881L103.952 35.1114L102.204 39.3874L100.514 43.5087H100.51ZM106.727 32.3026L108.979 25.9208L115.033 28.8231L110.89 30.5612L106.727 32.3026ZM118.963 28.8263L125.018 25.924L127.27 32.3026L123.158 30.5838L118.963 28.8263ZM132.574 45.4952L130.271 51.1224L128.013 56.6303L122.329 59.0134L117.002 61.2418L111.435 58.9135L105.987 56.6303L103.697 51.0482L101.426 45.4952L103.668 40.013L105.987 34.36L111.506 32.0478L117.002 29.7486L122.568 32.0769L128.016 34.36L130.233 39.768L132.577 45.4919L132.574 45.4952ZM131.707 39.1585L130.051 35.1114L136.364 37.3881L133.493 43.5087L131.707 39.1585ZM116.998 3.19898L124.478 24.3954L116.998 27.9814L109.518 24.3954L116.998 3.19898ZM87.4163 15.5886L107.531 25.2274L104.75 33.112L96.9537 35.924L87.4195 15.5886H87.4163ZM75.1611 45.4952L96.1276 37.9331L99.6746 45.4952L96.1276 53.0573L75.1611 45.4952ZM87.4163 75.405L96.9537 55.0695L104.753 57.8815L107.534 65.7661L87.4195 75.405H87.4163ZM116.998 87.7913L109.518 66.5949L116.998 63.0089L124.478 66.5949L116.998 87.7913ZM146.584 75.405L126.469 65.7661L129.25 57.8815L137.046 55.0695L146.581 75.405H146.584ZM137.869 53.0605L134.322 45.4984L137.869 37.9363L158.836 45.4984L137.869 53.0605Z" fill="#B62518"/>
<circle cx="4.5" cy="45.5" r="4.5" fill="#FFC72D"/>
<circle cx="229.5" cy="45.5" r="4.5" fill="#FFC72D"/>
</svg>
