<svg width="184" height="48" viewBox="0 0 184 48" fill="none" xmlns="http://www.w3.org/2000/svg">
<circle cx="34.5" cy="23.5" r="4.5" fill="#FFC72D"/>
<circle cx="149.5" cy="23.5" r="4.5" fill="#FFC72D"/>
<path d="M108.968 31.023L116 23.9906L108.968 16.9583V7.03238H99.0324L92 0L84.9676 7.03238H75.0324V16.9676L68 24L75.0324 31.0324V40.9676H84.9676L92 48L99.0324 40.9676H108.968V31.0324V31.023ZM112.685 24L108.968 27.7175V20.2825L112.685 24ZM106.627 30.0585L98.0585 38.6266H85.9415L77.3734 30.0585V17.9415L85.9415 9.37339H98.0585L106.627 17.9415V30.0585ZM106.627 9.37339V14.6266L101.373 9.37339H106.627ZM92 3.31487L95.7175 7.03238H88.2825L92 3.31487ZM77.3734 9.37339H82.6266L77.3734 14.6266V9.37339ZM71.3149 24L75.0324 20.2825V27.7175L71.3149 24ZM77.3734 38.6266V33.3734L82.6266 38.6266H77.3734ZM92 44.6851L88.2825 40.9676H95.7175L92 44.6851ZM101.364 38.6266L106.617 33.3734V38.6266H101.364ZM92 18.7187C89.0878 18.7187 86.7281 21.0784 86.7281 23.9906C86.7281 26.9028 89.0878 29.2626 92 29.2626C94.9122 29.2626 97.2719 26.9028 97.2719 23.9906C97.2719 21.0784 94.9122 18.7187 92 18.7187ZM92 26.9309C90.38 26.9309 89.0691 25.6106 89.0691 24C89.0691 22.3894 90.3894 21.0691 92 21.0691C93.6106 21.0691 94.9309 22.3894 94.9309 24C94.9309 25.6106 93.6106 26.9309 92 26.9309Z" fill="#926400"/>
<path d="M181 20.833C182.473 20.833 183.667 22.0272 183.667 23.5C183.667 24.9728 182.473 26.167 181 26.167C179.698 26.167 178.616 25.2336 178.382 24H154V23H178.382C178.616 21.7664 179.698 20.833 181 20.833Z" fill="#926400"/>
<path d="M2.99902 20.833C4.30078 20.833 5.38303 21.7664 5.61719 23H29.999V24H5.61719C5.38303 25.2336 4.30078 26.167 2.99902 26.167C1.52626 26.167 0.332031 24.9728 0.332031 23.5C0.332031 22.0272 1.52626 20.833 2.99902 20.833Z" fill="#926400"/>
</svg>
