<svg width="178" height="58" viewBox="0 0 178 58" fill="none" xmlns="http://www.w3.org/2000/svg">
<path d="M89.0185 0L90.8551 26.7287L113.091 11.4869L93.1481 29.5755L119.035 37.3001L92.3289 33.1264L102.376 58L89.0185 34.7073L75.6589 58L85.7062 33.1264L59 37.3001L84.8888 29.5755L64.9457 11.4869L87.18 26.7287L89.0185 0Z" fill="#B62518"/>
<path d="M138.454 14.1313L130.507 30.376L148.65 28.9708L130.886 32.814L143.412 46.0665L129.209 34.6133L126.688 52.5446L126.74 34.4202L111.069 43.5275L125.338 32.3781L108.317 25.8045L126.058 30.0264L120.505 12.7216L128.358 29.1356L138.454 14.1313Z" fill="#FFC72D"/>
<path d="M59.1221 14.1313L51.1748 30.376L69.3175 28.9708L51.5544 32.814L64.0801 46.0665L49.8771 34.6133L47.3556 52.5446L47.4083 34.4202L31.7374 43.5275L46.0056 32.3781L28.9854 25.8045L46.7263 30.0264L41.173 12.7216L49.0264 29.1356L59.1221 14.1313Z" fill="#FFC72D"/>
<path d="M17.558 26.0395L18.419 28.206C18.4274 28.2272 18.4511 28.2369 18.4719 28.2281L20.6125 27.3052C20.6646 27.2827 20.7172 27.3354 20.6948 27.3874L19.7718 29.5279C19.763 29.5487 19.7728 29.5728 19.7939 29.5809L21.9605 30.4418C22.0132 30.4626 22.0132 30.5374 21.9605 30.5582L19.7939 31.4191C19.7728 31.4275 19.763 31.4513 19.7718 31.4721L20.6948 33.6126C20.7172 33.6646 20.6646 33.7173 20.6125 33.6948L18.4719 32.7719C18.4511 32.7631 18.4271 32.7728 18.419 32.794L17.558 34.9605C17.5372 35.0132 17.4624 35.0132 17.4416 34.9605L16.5807 32.794C16.5723 32.7728 16.5485 32.7631 16.5277 32.7719L14.3871 33.6948C14.3351 33.7173 14.2824 33.6646 14.3049 33.6126L15.2279 31.4721C15.2367 31.4513 15.2269 31.4272 15.2058 31.4191L13.0395 30.5579C12.9868 30.5371 12.9868 30.4623 13.0395 30.4415L15.2061 29.5806C15.2272 29.5721 15.237 29.5484 15.2282 29.5276L14.3052 27.3871C14.2828 27.3351 14.3354 27.2824 14.3875 27.3048L16.5281 28.2278C16.5489 28.2366 16.5729 28.2268 16.581 28.2057L17.4416 26.0395C17.4624 25.9868 17.5372 25.9868 17.558 26.0395Z" fill="#1C4AC7"/>
<path d="M160.558 26.0395L161.419 28.206C161.427 28.2272 161.451 28.2369 161.472 28.2281L163.613 27.3052C163.665 27.2827 163.717 27.3354 163.695 27.3874L162.772 29.5279C162.763 29.5487 162.773 29.5728 162.794 29.5809L164.96 30.4418C165.013 30.4626 165.013 30.5374 164.96 30.5582L162.794 31.4191C162.773 31.4275 162.763 31.4513 162.772 31.4721L163.695 33.6126C163.717 33.6646 163.665 33.7173 163.613 33.6948L161.472 32.7719C161.451 32.7631 161.427 32.7728 161.419 32.794L160.558 34.9605C160.537 35.0132 160.462 35.0132 160.442 34.9605L159.581 32.794C159.572 32.7728 159.549 32.7631 159.528 32.7719L157.387 33.6948C157.335 33.7173 157.282 33.6646 157.305 33.6126L158.228 31.4721C158.237 31.4513 158.227 31.4272 158.206 31.4191L156.04 30.5579C155.987 30.5371 155.987 30.4623 156.04 30.4415L158.206 29.5806C158.227 29.5721 158.237 29.5484 158.228 29.5276L157.305 27.3871C157.283 27.3351 157.335 27.2824 157.387 27.3048L159.528 28.2278C159.549 28.2366 159.573 28.2268 159.581 28.2057L160.442 26.0395C160.462 25.9868 160.537 25.9868 160.558 26.0395Z" fill="#1C4AC7"/>
<circle cx="2.5" cy="31.5" r="2.5" fill="#001045"/>
<circle cx="175.5" cy="31.5" r="2.5" fill="#001045"/>
</svg>
