<svg width="500" height="476" viewBox="0 0 500 476" fill="none" xmlns="http://www.w3.org/2000/svg">
<g clip-path="url(#clip0_4125_2793)">
<path d="M651.144 140.805C651.144 224.099 583.627 291.622 500.342 291.622C417.056 291.622 349.54 224.099 349.54 140.805C349.54 57.5106 417.056 -10.0131 500.342 -10.0132C583.627 -10.0132 651.144 57.5105 651.144 140.805ZM635.148 130.435C635.148 204.89 574.796 265.248 500.349 265.248C425.901 265.248 365.549 204.89 365.549 130.435C365.549 55.9794 425.901 -4.37875 500.349 -4.37875C574.796 -4.37862 635.148 55.9795 635.148 130.435ZM620.62 122.077C620.62 188.511 566.769 242.367 500.342 242.367C433.914 242.367 380.064 188.511 380.064 122.077C380.064 55.6424 433.914 1.78647 500.342 1.78635C566.769 1.78635 620.62 55.6423 620.62 122.077ZM609.508 115.763C609.507 176.06 560.632 224.94 500.342 224.94C440.051 224.94 391.176 176.06 391.176 115.763C391.176 55.4668 440.051 6.58639 500.342 6.58627C560.632 6.58627 609.508 55.4667 609.508 115.763ZM598.033 109.786C598.033 163.748 554.292 207.493 500.335 207.493C446.379 207.493 402.638 163.748 402.638 109.786C402.638 55.8237 446.379 12.0786 500.335 12.0786C554.292 12.0786 598.033 55.8236 598.033 109.786ZM588.091 105.342C588.091 153.809 548.804 193.1 500.342 193.1C451.879 193.1 412.593 153.809 412.593 105.342C412.593 56.8743 451.879 17.5836 500.342 17.5835C548.804 17.5835 588.091 56.8742 588.091 105.342ZM578.887 101.357C578.887 144.736 543.724 179.903 500.349 179.903C456.973 179.903 421.81 144.736 421.81 101.357C421.81 57.9768 456.973 22.8105 500.349 22.8105C543.724 22.8106 578.887 57.9769 578.887 101.357ZM570.115 97.7147C570.115 136.253 538.877 167.495 500.342 167.495C461.807 167.495 430.568 136.253 430.568 97.7147C430.568 59.1759 461.807 27.934 500.342 27.9339C538.877 27.9339 570.115 59.1758 570.115 97.7147ZM562.58 95.0367C562.58 129.417 534.712 157.287 500.335 157.287C465.959 157.287 438.091 129.417 438.091 95.0367C438.091 60.6566 465.959 32.7856 500.335 32.7856C534.712 32.7856 562.58 60.6565 562.58 95.0367ZM555.4 92.7397C555.4 123.151 530.749 147.804 500.342 147.804C469.934 147.804 445.283 123.151 445.283 92.7397C445.283 62.329 469.934 37.6766 500.342 37.6765C530.749 37.6765 555.4 62.329 555.4 92.7397ZM548.091 90.5603C548.091 116.934 526.713 138.314 500.342 138.314C473.971 138.314 452.593 116.934 452.593 90.5603C452.593 64.1866 473.971 42.8063 500.342 42.8062C526.713 42.8062 548.091 64.1865 548.091 90.5603ZM541.94 88.943C541.939 111.919 523.315 130.545 500.342 130.545C477.368 130.545 458.744 111.919 458.744 88.943C458.744 65.967 477.368 47.3409 500.342 47.3408C523.315 47.3408 541.94 65.9669 541.94 88.943ZM535.432 87.6101C535.432 106.992 519.722 122.704 500.342 122.704C480.962 122.704 465.251 106.992 465.251 87.6101C465.251 68.2282 480.962 52.5161 500.342 52.5159C519.722 52.5159 535.432 68.2281 535.432 87.6101ZM529.151 86.5039C529.151 102.417 516.253 115.317 500.342 115.317C484.43 115.317 471.532 102.417 471.532 86.5039C471.532 70.5911 484.431 57.6912 500.342 57.6911C516.253 57.6911 529.151 70.5911 529.151 86.5039ZM523.091 85.6176C523.091 98.1828 512.906 108.369 500.342 108.369C487.778 108.369 477.593 98.1827 477.593 85.6176C477.593 73.0525 487.778 62.8664 500.342 62.8663C512.906 62.8663 523.091 73.0524 523.091 85.6176ZM517.237 84.9385C517.237 94.2704 509.673 101.835 500.342 101.835C491.011 101.835 483.446 94.2703 483.446 84.9385C483.446 75.6066 491.011 68.0416 500.342 68.0414C509.673 68.0414 517.237 75.6065 517.237 84.9385ZM511.403 84.272C511.403 90.3813 506.45 95.3343 500.342 95.3343C494.233 95.3342 489.281 90.3812 489.281 84.272C489.281 78.1628 494.233 73.2104 500.342 73.2103C506.45 73.2103 511.403 78.1627 511.403 84.272ZM505.394 84.272C505.394 87.0623 503.132 89.3246 500.342 89.3246C497.552 89.3245 495.29 87.0622 495.29 84.272C495.29 81.4818 497.552 79.2201 500.342 79.22C503.132 79.22 505.394 81.4818 505.394 84.272ZM506.041 84.272C506.04 81.1245 503.489 78.5731 500.342 78.5731C497.195 78.5732 494.643 81.1246 494.643 84.272C494.643 87.4195 497.194 89.9714 500.342 89.9715C503.489 89.9715 506.041 87.4195 506.041 84.272ZM512.05 84.272C512.05 77.8054 506.808 72.5634 500.342 72.5634C493.876 72.5635 488.634 77.8055 488.634 84.272C488.634 90.7385 493.876 95.9811 500.342 95.9812C506.808 95.9812 512.05 90.7386 512.05 84.272ZM517.884 84.9385C517.884 75.2493 510.03 67.3945 500.342 67.3945C490.654 67.3947 482.799 75.2493 482.799 84.9385C482.799 94.6276 490.654 102.482 500.342 102.482C510.03 102.482 517.884 94.6277 517.884 84.9385ZM523.737 85.6176C523.737 72.6951 513.263 62.2194 500.342 62.2194C487.421 62.2195 476.946 72.6952 476.946 85.6176C476.946 98.54 487.421 109.016 500.342 109.016C513.263 109.016 523.737 98.5401 523.737 85.6176ZM529.798 86.5039C529.798 70.2338 516.61 57.0442 500.342 57.0442C484.073 57.0443 470.885 70.2339 470.885 86.5039C470.885 102.774 484.073 115.963 500.342 115.964C516.61 115.964 529.798 102.774 529.798 86.5039ZM536.079 87.6101C536.079 67.8709 520.079 51.869 500.342 51.869C480.605 51.8692 464.604 67.8709 464.604 87.6101C464.604 107.349 480.605 123.351 500.342 123.351C520.079 123.351 536.079 107.349 536.079 87.6101ZM542.586 88.943C542.586 65.6096 523.673 46.6939 500.342 46.6939C477.011 46.694 458.097 65.6097 458.097 88.943C458.098 112.276 477.011 131.191 500.342 131.192C523.673 131.192 542.586 112.276 542.586 88.943ZM548.738 90.5603C548.738 63.8292 527.07 42.1593 500.342 42.1593C473.613 42.1594 451.946 63.8293 451.946 90.5603C451.946 117.291 473.614 138.961 500.342 138.961C527.07 138.961 548.738 117.291 548.738 90.5603ZM556.047 92.7397C556.047 61.9717 531.107 37.0296 500.342 37.0296C469.577 37.0297 444.637 61.9718 444.636 92.7397C444.636 123.508 469.577 148.45 500.342 148.451C531.107 148.451 556.047 123.508 556.047 92.7397ZM563.227 95.0367C563.227 60.2993 535.069 32.1387 500.335 32.1387C465.601 32.1387 437.444 60.2993 437.444 95.0367C437.444 129.774 465.601 157.934 500.335 157.934C535.069 157.934 563.227 129.774 563.227 95.0367ZM570.762 97.7147C570.762 58.8186 539.234 27.287 500.342 27.287C461.45 27.2871 429.921 58.8186 429.921 97.7147C429.921 136.611 461.45 168.142 500.342 168.142C539.234 168.142 570.762 136.611 570.762 97.7147ZM579.534 101.357C579.533 57.6196 544.081 22.1637 500.349 22.1636C456.616 22.1636 421.164 57.6195 421.164 101.357C421.164 145.094 456.616 180.55 500.349 180.55C544.081 180.55 579.534 145.094 579.534 101.357ZM588.738 105.342C588.738 56.5169 549.161 16.9366 500.342 16.9366C451.522 16.9367 411.946 56.517 411.946 105.342C411.946 154.166 451.522 193.746 500.342 193.747C549.161 193.747 588.738 154.166 588.738 105.342ZM598.679 109.786C598.679 55.4664 554.649 11.4317 500.335 11.4317C446.021 11.4317 401.991 55.4664 401.991 109.786C401.991 164.105 446.021 208.14 500.335 208.14C554.649 208.14 598.679 164.105 598.679 109.786ZM610.154 115.763C610.154 55.1094 560.989 5.93936 500.342 5.93936C439.694 5.93948 390.529 55.1095 390.529 115.763C390.53 176.417 439.694 225.587 500.342 225.587C560.989 225.587 610.154 176.417 610.154 115.763ZM621.267 122.077C621.267 55.285 567.127 1.13947 500.342 1.13947C433.557 1.13959 379.417 55.2851 379.417 122.077C379.417 188.869 433.557 243.014 500.342 243.014C567.127 243.014 621.267 188.869 621.267 122.077ZM635.795 130.435C635.795 55.6223 575.153 -5.0255 500.349 -5.02563C425.544 -5.02563 364.902 55.6222 364.902 130.435C364.902 205.247 425.544 265.895 500.349 265.895C575.153 265.895 635.794 205.247 635.795 130.435ZM651.791 140.805C651.791 57.1532 583.985 -10.6601 500.342 -10.6601C416.699 -10.66 348.893 57.1533 348.893 140.805C348.893 224.456 416.699 292.269 500.342 292.269C583.984 292.269 651.791 224.456 651.791 140.805Z" fill="#5374DF"/>
<path d="M500.723 225.263V-131.882H500.077V225.263H500.723Z" fill="#5374DF"/>
<path d="M513.797 -32.4028C522.531 -56.6901 541.561 -93.3216 559.311 -122.151L559.036 -122.321L558.76 -122.49C540.999 -93.6422 521.943 -56.9678 513.188 -32.6214L513.797 -32.4028ZM487.445 -32.6025C478.656 -56.9359 459.556 -93.5846 441.756 -122.413L441.48 -122.243L441.206 -122.073C458.994 -93.2632 478.069 -56.657 486.836 -32.3826L487.445 -32.6025ZM526.417 -29.0351C548.541 -53.591 586.033 -80.4353 611.772 -91.6785L611.513 -92.2711C585.686 -80.9893 548.119 -54.0896 525.936 -29.4684L526.177 -29.2517L526.417 -29.0351ZM474.709 -29.4362C452.487 -54.0314 414.894 -80.8796 389.048 -92.1289L388.79 -91.5357C414.548 -80.3248 452.065 -53.5328 474.229 -29.0028L474.709 -29.4362ZM538.359 -23.2907C551.953 -31.7493 572.578 -38.0367 593.491 -41.8207C614.401 -45.6041 635.552 -46.8769 650.179 -45.3351L650.213 -45.6573L650.246 -45.9788C635.539 -47.5291 614.323 -46.247 593.376 -42.4569C572.433 -38.6674 551.713 -32.3626 538.017 -23.8403L538.188 -23.5655L538.359 -23.2907ZM462.628 -23.7885C448.922 -32.2947 428.196 -38.5741 407.248 -42.3369C386.297 -46.1003 365.08 -47.3546 350.373 -45.7849L350.441 -45.1411C365.068 -46.7023 386.221 -45.4568 407.134 -41.7001C428.051 -37.9427 448.684 -31.6814 462.287 -23.2389L462.628 -23.7885ZM670.884 9.96573C653.757 -1.48834 606.163 -23.9827 548.341 -16.6992L548.422 -16.0573C606.047 -23.3161 653.486 -0.890361 670.524 10.504L670.884 9.96573ZM330.16 10.7169C347.185 -0.703233 394.592 -23.1868 452.23 -15.9992L452.27 -16.3201L452.31 -16.6411C394.475 -23.8533 346.914 -1.30017 329.8 10.1799L330.16 10.7169ZM671.138 69.2446L671.412 69.0727C649.881 34.8527 607.696 -0.810246 558.33 -6.67291L558.291 -6.35135L558.254 -6.03043C607.374 -0.197052 649.406 35.312 670.864 69.417L671.138 69.2446ZM329.898 69.6362C351.311 35.499 393.299 -0.0553865 442.412 -5.95969L442.373 -6.28061L442.334 -6.60153C392.975 -0.667562 350.835 35.0401 329.35 69.2926L329.898 69.6362ZM408.704 187.996C455.408 155.312 488.884 104.582 500.393 84.8339C511.931 104.573 545.47 155.25 592.214 187.872L592.399 187.608L592.584 187.342C546.706 155.325 513.555 105.844 501.525 85.4846L501.564 85.4631C501.543 85.4246 501.522 85.3862 501.501 85.3475C522.459 98.5978 578.277 120.846 647.476 105.47L647.336 104.838C579.559 119.899 524.67 98.7526 502.994 85.5124L503.091 85.3241C502.43 84.9814 501.751 84.6165 501.054 84.2312C501.066 84.2246 501.077 84.2176 501.089 84.211C537.114 85.0248 584.256 69.482 614.438 41.0881L613.995 40.6169C584.244 68.6046 537.903 84.0662 502.174 83.5837C522.335 71.777 554.777 44.2799 574.499 8.98904L573.934 8.67319C553.995 44.3539 520.995 72.0487 501.002 83.5148C506.078 73.9796 513.545 59.041 520.396 43.1729C527.81 25.9972 534.516 7.70484 536.677 -6.00391L536.357 -6.0538L536.038 -6.10434C533.891 7.51827 527.214 25.7467 519.802 42.9164C512.942 58.8072 505.462 73.7665 500.392 83.2849C495.309 73.7731 487.81 58.8247 480.93 42.9435C473.496 25.7835 466.796 7.56311 464.633 -6.05951L464.314 -6.00897L463.994 -5.95779C466.171 7.75093 472.9 26.0348 480.336 43.2007C487.207 59.0589 494.692 73.9868 499.782 83.5155C479.774 72.0726 446.734 44.4227 426.75 8.76352L426.186 9.07941C445.952 44.3502 478.435 71.8037 498.611 83.5862C462.881 84.121 416.518 68.7162 386.728 40.7653L386.285 41.2372C416.507 69.5931 463.67 85.0779 499.696 84.2116C499.708 84.2185 499.72 84.225 499.732 84.2318C499.033 84.6193 498.352 84.9859 497.69 85.3304L497.788 85.5206C476.126 98.7891 421.265 119.997 353.478 105.025L353.408 105.341L353.338 105.657C422.552 120.944 478.343 98.6285 499.284 85.3506C499.264 85.3884 499.244 85.4262 499.223 85.4637L499.261 85.4846C487.262 105.853 454.172 155.386 408.333 187.465L408.518 187.73L408.704 187.996Z" fill="#5374DF"/>
<path d="M574.475 40.9752C574.475 81.9219 541.285 115.116 500.342 115.116C459.399 115.116 426.209 81.922 426.209 40.9752C426.209 0.0284271 459.399 -33.1653 500.342 -33.1653C541.285 -33.1651 574.475 0.0285034 574.475 40.9752ZM575.769 40.9752C575.768 -0.686039 541.999 -34.4589 500.342 -34.459C458.685 -34.459 424.915 -0.686115 424.915 40.9752C424.915 82.6365 458.685 116.41 500.342 116.41C541.999 116.41 575.769 82.6365 575.769 40.9752Z" fill="#5374DF"/>
<path d="M613.57 41.0009C613.57 103.531 562.884 154.221 500.361 154.221C437.838 154.221 387.153 103.53 387.153 41.0009C387.153 -21.5284 437.838 -72.2184 500.361 -72.2186C562.884 -72.2186 613.569 -21.5285 613.57 41.0009ZM614.863 41.0009C614.863 -22.243 563.599 -73.5124 500.361 -73.5124C437.124 -73.5122 385.859 -22.2429 385.859 41.0009C385.859 104.245 437.123 155.515 500.361 155.515C563.599 155.515 614.863 104.245 614.863 41.0009Z" fill="#5374DF"/>
<path d="M507.263 40.9752C507.263 44.798 504.164 47.8971 500.342 47.8972C496.52 47.8972 493.421 44.798 493.421 40.9752C493.421 37.1525 496.52 34.0533 500.342 34.0533C504.164 34.0534 507.263 37.1525 507.263 40.9752ZM508.233 40.9752C508.233 36.6166 504.7 33.083 500.342 33.083C495.984 33.083 492.451 36.6166 492.45 40.9752C492.45 45.3339 495.984 48.8675 500.342 48.8675C504.7 48.8674 508.233 45.3339 508.233 40.9752Z" fill="#5374DF"/>
<path d="M672.78 41.0015C672.78 136.236 595.585 213.438 500.361 213.438C405.137 213.438 327.942 136.235 327.942 41.0015C327.942 -54.2326 405.137 -131.435 500.361 -131.436C595.585 -131.436 672.78 -54.2327 672.78 41.0015ZM674.074 41.0015C674.074 -54.9472 596.3 -132.729 500.361 -132.729C404.422 -132.729 326.648 -54.9471 326.648 41.0015C326.649 136.95 404.422 214.732 500.361 214.732C596.3 214.732 674.074 136.95 674.074 41.0015Z" fill="#5374DF"/>
<path d="M507.379 260.098C528.964 260.098 546.526 277.661 546.526 299.248C546.526 320.835 528.964 338.399 507.379 338.399C485.795 338.399 468.233 320.835 468.233 299.248C468.233 277.661 485.795 260.098 507.379 260.098ZM507.379 259.451C485.407 259.451 467.586 277.267 467.586 299.248C467.586 321.23 485.4 339.045 507.379 339.045C529.359 339.045 547.172 321.23 547.172 299.248C547.172 277.267 529.359 259.451 507.379 259.451Z" fill="#5374DF"/>
<path d="M507.379 220.929C523.563 220.929 536.733 233.847 536.733 249.735C536.733 265.623 523.563 278.541 507.379 278.541C491.196 278.541 478.026 265.623 478.026 249.735C478.026 233.847 491.196 220.929 507.379 220.929ZM507.379 220.282C490.814 220.282 477.379 233.465 477.379 249.735C477.379 266.004 490.808 279.188 507.379 279.188C523.951 279.188 537.379 266.004 537.379 249.735C537.379 233.465 523.951 220.282 507.379 220.282Z" fill="#5374DF"/>
<path d="M507.379 176.998C537.768 176.998 562.489 201.528 562.489 231.674C562.489 261.819 537.768 286.349 507.379 286.349C476.991 286.349 452.269 261.819 452.269 231.674C452.269 201.528 476.991 176.998 507.379 176.998ZM507.379 176.351C476.584 176.351 451.623 201.121 451.623 231.674C451.623 262.227 476.584 286.996 507.379 286.996C538.175 286.996 563.136 262.227 563.136 231.674C563.136 201.121 538.175 176.351 507.379 176.351Z" fill="#5374DF"/>
<path d="M507.379 244.463C514.236 244.463 519.812 250.039 519.812 256.896C519.812 263.753 514.236 269.329 507.379 269.329C500.523 269.329 494.947 263.753 494.947 256.896C494.947 250.039 500.523 244.463 507.379 244.463ZM507.379 243.816C500.154 243.816 494.301 249.67 494.301 256.896C494.301 264.122 500.154 269.976 507.379 269.976C514.605 269.976 520.458 264.122 520.458 256.896C520.458 249.67 514.605 243.816 507.379 243.816Z" fill="#5374DF"/>
<path d="M507.379 320.376C523.563 320.376 536.733 333.295 536.733 349.182C536.733 365.07 523.563 377.989 507.379 377.989C491.196 377.989 478.026 365.07 478.026 349.182C478.026 333.295 491.196 320.376 507.379 320.376ZM507.379 319.729C490.814 319.729 477.379 332.913 477.379 349.182C477.379 365.452 490.808 378.636 507.379 378.636C523.951 378.636 537.379 365.452 537.379 349.182C537.379 332.913 523.951 319.729 507.379 319.729Z" fill="#5374DF"/>
<path d="M507.379 312.562C537.768 312.562 562.489 337.092 562.489 367.237C562.489 397.383 537.768 421.913 507.379 421.913C476.991 421.913 452.269 397.383 452.269 367.237C452.269 337.092 476.991 312.562 507.379 312.562ZM507.379 311.915C476.584 311.915 451.623 336.684 451.623 367.237C451.623 397.79 476.584 422.56 507.379 422.56C538.175 422.56 563.136 397.79 563.136 367.237C563.136 336.684 538.175 311.915 507.379 311.915Z" fill="#5374DF"/>
<path d="M506.733 306.52C534.941 306.52 561.454 315.324 581.39 331.309C601.286 347.261 612.237 368.46 612.237 390.998C612.237 413.536 601.28 434.734 581.39 450.687C561.454 466.672 534.941 475.476 506.733 475.476C478.524 475.476 452.011 466.672 432.075 450.687C412.179 434.734 401.228 413.536 401.228 390.998C401.228 368.46 412.185 347.261 432.075 331.309C452.011 315.324 478.524 306.52 506.733 306.52ZM506.733 305.873C448.104 305.873 400.575 343.981 400.575 390.998C400.575 438.014 448.104 476.123 506.733 476.123C565.361 476.123 612.89 438.014 612.89 390.998C612.89 343.981 565.361 305.873 506.733 305.873Z" fill="#5374DF"/>
<path d="M507.379 329.581C514.236 329.581 519.812 335.158 519.812 342.015C519.812 348.872 514.236 354.448 507.379 354.448C500.523 354.448 494.947 348.872 494.947 342.015C494.947 335.158 500.523 329.581 507.379 329.581ZM507.379 328.934C500.154 328.934 494.301 334.789 494.301 342.015C494.301 349.241 500.154 355.095 507.379 355.095C514.605 355.095 520.458 349.241 520.458 342.015C520.458 334.789 514.605 328.934 507.379 328.934Z" fill="#5374DF"/>
<path d="M507.378 259.775L507.446 260.091C491.277 263.551 477.434 280.142 477.184 299.272C477.049 309.411 481.073 318.697 486.91 325.701C492.751 332.71 500.381 337.403 507.423 338.395L507.378 338.716L507.333 339.036C500.093 338.016 492.328 333.213 486.413 326.115C480.494 319.012 476.4 309.58 476.537 299.263C476.791 279.851 490.827 262.985 507.31 259.458L507.378 259.775Z" fill="#5374DF"/>
<path d="M507.581 259.458C524.064 262.985 538.1 279.851 538.354 299.263C538.491 309.58 534.397 319.012 528.478 326.115C522.563 333.213 514.798 338.016 507.558 339.036L507.469 338.395C514.511 337.403 522.141 332.71 527.981 325.701C533.818 318.697 537.842 309.411 537.707 299.272C537.457 280.142 523.615 263.551 507.446 260.091L507.581 259.458Z" fill="#5374DF"/>
<path d="M507.511 260.07C496.688 264.878 485.309 280.113 485.122 299.271C484.923 319.596 497.175 333.904 507.509 338.419L507.25 339.012C496.679 334.393 484.273 319.849 484.475 299.265C484.664 279.88 496.17 264.401 507.248 259.479L507.511 260.07Z" fill="#5374DF"/>
<path d="M507.647 259.479C518.726 264.401 530.232 279.88 530.42 299.265C530.622 319.849 518.217 334.393 507.645 339.012L507.387 338.419C517.721 333.904 529.973 319.596 529.774 299.271C529.587 280.113 518.208 264.878 507.385 260.07L507.647 259.479Z" fill="#5374DF"/>
<path d="M507.609 260.004C499.426 268.149 491.442 280.085 491.256 299.251C491.156 309.43 493.201 316.977 496.285 323.104C499.372 329.236 503.507 333.961 507.62 338.498L507.141 338.933C503.027 334.394 498.837 329.613 495.707 323.394C492.574 317.17 490.508 309.521 490.609 299.245C490.797 279.869 498.881 267.779 507.153 259.545L507.609 260.004Z" fill="#5374DF"/>
<path d="M507.744 259.545C516.016 267.779 524.099 279.869 524.288 299.245C524.389 309.521 522.323 317.17 519.19 323.394C516.059 329.613 511.87 334.394 507.755 338.933L507.277 338.498C511.39 333.961 515.525 329.236 518.612 323.104C521.696 316.977 523.741 309.43 523.641 299.251C523.455 280.085 515.471 268.149 507.288 260.004L507.744 259.545Z" fill="#5374DF"/>
<path d="M507.38 259.775L507.651 259.951C502.36 268.092 497.186 280.045 497.063 299.251C496.999 309.448 498.324 317.011 500.323 323.149C502.322 329.289 504.999 334.017 507.659 338.552L507.101 338.879C504.438 334.339 501.73 329.56 499.707 323.349C497.684 317.137 496.351 309.504 496.416 299.246C496.54 279.91 501.753 267.837 507.109 259.599L507.38 259.775Z" fill="#5374DF"/>
<path d="M507.787 259.599C513.142 267.837 518.357 279.91 518.48 299.246C518.545 309.504 517.211 317.137 515.188 323.349C513.166 329.56 510.459 334.339 507.795 338.879L507.237 338.552C509.897 334.017 512.574 329.289 514.574 323.149C516.572 317.011 517.898 309.448 517.833 299.251C517.711 280.045 512.536 268.092 507.245 259.951L507.787 259.599Z" fill="#5374DF"/>
<path d="M507.689 259.875C505.042 268.03 502.446 280.009 502.388 299.249C502.324 319.665 505.039 329.57 507.692 338.625L507.071 338.807C504.407 329.71 501.676 319.742 501.741 299.247C501.8 279.945 504.404 267.899 507.074 259.675L507.689 259.875Z" fill="#5374DF"/>
<path d="M507.824 259.675C510.493 267.899 513.098 279.945 513.156 299.247C513.221 319.742 510.491 329.71 507.826 338.807L507.206 338.625C509.858 329.57 512.574 319.665 512.509 299.249C512.451 280.009 509.856 268.03 507.208 259.875L507.824 259.675Z" fill="#5374DF"/>
<path d="M473.286 265.011C483.885 258.299 497.116 256.353 507.473 259.465L507.287 260.085C497.127 257.032 484.09 258.935 473.632 265.557C463.187 272.171 455.331 283.482 455.492 299.246C455.662 316.097 463.931 327.548 474.494 334C485.072 340.463 497.94 341.904 507.276 338.733L507.484 339.346C497.946 342.585 484.879 341.103 474.156 334.553C463.417 327.993 455.017 316.343 454.845 299.252C454.682 283.24 462.673 271.731 473.286 265.011Z" fill="#5374DF"/>
<path d="M507.527 259.465C517.884 256.353 531.114 258.299 541.714 265.011C552.326 271.731 560.318 283.24 560.155 299.252C559.982 316.343 551.582 327.993 540.844 334.553C530.121 341.103 517.054 342.585 507.515 339.346L507.724 338.733C517.06 341.904 529.927 340.463 540.506 334C551.069 327.548 559.338 316.097 559.508 299.246C559.669 283.482 551.813 272.171 541.368 265.557C530.91 258.935 517.872 257.032 507.712 260.085L507.527 259.465Z" fill="#5374DF"/>
<path d="M437.806 298.503C438.031 266.836 472.951 241.043 507.532 259.489L507.228 260.06C472.832 241.714 438.133 267.701 438.454 299.245C438.624 316.095 448.157 330.961 461.485 339.121C474.806 347.278 491.898 348.724 507.204 338.768L507.38 339.039L507.556 339.31C492.015 349.42 474.653 347.943 461.147 339.673C447.647 331.407 437.98 316.345 437.807 299.252L437.806 298.503Z" fill="#5374DF"/>
<path d="M507.467 259.489C542.321 240.898 577.518 267.245 577.192 299.252C577.02 316.345 567.352 331.407 553.852 339.673C540.346 347.943 522.984 349.42 507.443 339.31L507.62 339.039L507.796 338.768C523.102 348.724 540.194 347.278 553.515 339.121C566.842 330.961 576.375 316.095 576.546 299.245C576.867 267.701 542.168 241.714 507.772 260.06L507.467 259.489Z" fill="#5374DF"/>
<path d="M415.244 299.242C415.244 286.943 419.445 272.749 427.813 261.623C436.188 250.489 448.745 242.419 465.438 242.418C473.499 242.418 480.31 243.304 486.977 245.893C493.642 248.482 500.142 252.765 507.596 259.529L507.162 260.008C499.745 253.278 493.311 249.047 486.742 246.496C480.175 243.946 473.45 243.065 465.438 243.065C448.981 243.065 436.603 251.012 428.33 262.012C420.051 273.019 415.891 287.075 415.891 299.242C415.891 327.109 434.354 354.828 464.267 355.412C473.321 355.59 479.857 355.181 486.216 352.867C492.576 350.552 498.788 346.321 507.162 338.798L507.379 339.039L507.595 339.28C499.197 346.823 492.912 351.118 486.437 353.474C479.961 355.831 473.325 356.237 464.255 356.059C433.871 355.465 415.244 327.331 415.244 299.242Z" fill="#5374DF"/>
<path d="M599.105 299.242C599.105 287.075 594.945 273.019 586.666 262.012C578.392 251.012 566.015 243.065 549.557 243.065C541.545 243.065 534.821 243.946 528.253 246.496C521.684 249.047 515.251 253.278 507.834 260.008L507.4 259.529C514.854 252.765 521.354 248.482 528.019 245.893C534.686 243.304 541.496 242.419 549.557 242.418C566.25 242.418 578.808 250.488 587.183 261.623C595.551 272.749 599.752 286.943 599.752 299.242C599.752 327.331 581.125 355.465 550.741 356.059C541.671 356.237 535.034 355.831 528.558 353.474C522.083 351.118 515.798 346.823 507.401 339.28L507.833 338.798C516.208 346.321 522.42 350.552 528.779 352.867C535.138 355.181 541.675 355.59 550.729 355.412C580.642 354.828 599.105 327.109 599.105 299.242Z" fill="#5374DF"/>
<path d="M366.479 299.85C366.479 259.926 394.351 220.27 439.756 219.951C462.693 219.789 479.312 228.858 490.373 238.389C501.425 247.913 506.938 257.907 507.676 259.641L507.378 259.768L507.081 259.895C506.382 258.252 500.928 248.338 489.951 238.879C478.983 229.427 462.51 220.437 439.761 220.598C394.804 220.914 367.126 260.181 367.126 299.85C367.126 339.476 400.766 377.969 447.333 377.969C465.148 377.969 480.118 369.45 490.63 360.289C495.884 355.711 500.017 350.978 502.826 347.084C504.231 345.137 505.302 343.404 506.016 342.008C506.373 341.31 506.639 340.701 506.812 340.195C506.988 339.683 507.061 339.301 507.055 339.047L507.379 339.039L507.702 339.031C507.711 339.4 507.608 339.868 507.424 340.406C507.237 340.949 506.958 341.588 506.591 342.303C505.858 343.735 504.769 345.497 503.35 347.463C500.513 351.396 496.347 356.166 491.055 360.778C480.473 369.999 465.358 378.616 447.333 378.616C400.394 378.616 366.479 339.818 366.479 299.85Z" fill="#5374DF"/>
<path d="M647.87 299.85C647.87 260.181 620.192 220.914 575.235 220.598C552.486 220.437 536.013 229.427 525.045 238.879C514.068 248.338 508.614 258.252 507.915 259.895L507.618 259.768L507.32 259.641C508.058 257.907 513.571 247.913 524.623 238.389C535.684 228.858 552.302 219.789 575.239 219.951C620.644 220.27 648.517 259.926 648.517 299.85C648.517 339.818 614.602 378.616 567.663 378.616C549.638 378.616 534.523 369.999 523.941 360.778C518.649 356.166 514.483 351.396 511.645 347.463C510.227 345.497 509.137 343.735 508.404 342.303C508.038 341.588 507.759 340.949 507.572 340.406C507.388 339.868 507.285 339.4 507.294 339.031L507.618 339.039L507.941 339.047C507.935 339.301 508.008 339.683 508.184 340.195C508.357 340.701 508.623 341.31 508.98 342.008C509.694 343.404 510.765 345.137 512.17 347.084C514.979 350.978 519.112 355.711 524.366 360.289C534.878 369.45 549.848 377.969 567.663 377.969C614.23 377.969 647.87 339.476 647.87 299.85Z" fill="#5374DF"/>
<path d="M282.664 299.856C282.664 253.809 298.17 223.343 320.749 204.395C343.317 185.456 372.911 178.059 401.034 178.059C445.924 178.059 472.602 196.559 488.05 216.033C495.77 225.764 500.681 235.733 503.662 243.746C506.639 251.746 507.703 257.825 507.703 259.781H507.056C507.056 257.939 506.023 251.945 503.056 243.971C500.094 236.01 495.213 226.103 487.543 216.435C472.212 197.107 445.717 178.705 401.034 178.705C373.013 178.705 343.583 186.077 321.164 204.89C298.756 223.695 283.311 253.967 283.311 299.856C283.311 319.703 289.26 349.714 308.355 374.754C327.439 399.779 359.676 419.872 412.328 419.868C451.342 419.868 475.045 400.895 488.991 381.296C495.967 371.493 500.5 361.532 503.283 353.712C504.673 349.802 505.626 346.43 506.226 343.882C506.526 342.608 506.738 341.542 506.873 340.719C507.009 339.889 507.063 339.325 507.056 339.047L507.38 339.039L507.703 339.031C507.711 339.375 507.648 339.991 507.512 340.823C507.374 341.663 507.159 342.744 506.856 344.03C506.25 346.601 505.291 349.997 503.892 353.929C501.095 361.792 496.535 371.808 489.518 381.671C475.477 401.403 451.593 420.515 412.328 420.515C359.487 420.519 327.055 400.342 307.841 375.147C288.64 349.967 282.664 319.807 282.664 299.856Z" fill="#5374DF"/>
<path d="M731.689 299.85C731.689 253.961 716.244 223.69 693.835 204.885C671.417 186.071 641.987 178.699 613.966 178.699C569.283 178.699 542.788 197.101 527.457 216.428C519.787 226.097 514.906 236.003 511.943 243.965C508.976 251.939 507.944 257.933 507.944 259.775H507.297C507.297 257.819 508.361 251.74 511.338 243.739C514.319 235.727 519.23 225.758 526.95 216.027C542.398 196.553 569.075 178.052 613.966 178.052C642.089 178.052 671.683 185.449 694.251 204.389C716.83 223.337 732.336 253.803 732.336 299.85C732.336 319.801 726.36 349.961 707.159 375.141C687.945 400.337 655.512 420.515 602.672 420.515C563.407 420.515 539.523 401.404 525.482 381.671C518.464 371.809 513.905 361.792 511.108 353.929C509.709 349.997 508.75 346.602 508.144 344.031C507.841 342.745 507.626 341.663 507.488 340.823C507.352 339.991 507.288 339.375 507.297 339.031L507.62 339.039L507.944 339.047C507.937 339.325 507.991 339.889 508.127 340.719C508.261 341.542 508.473 342.608 508.774 343.882C509.374 346.43 510.326 349.802 511.717 353.712C514.499 361.532 519.033 371.493 526.009 381.296C539.955 400.895 563.658 419.868 602.672 419.868C655.323 419.868 687.561 399.774 706.644 374.749C725.74 349.707 731.689 319.696 731.689 299.85Z" fill="#5374DF"/>
<path d="M507.703 259.451V339.039H507.056V259.451H507.703Z" fill="#5374DF"/>
<path d="M506.733 123.441C534.941 123.441 561.454 132.246 581.39 148.23C601.286 164.183 612.237 185.382 612.237 207.92C612.237 230.457 601.28 251.656 581.39 267.609C561.454 283.594 534.941 292.398 506.733 292.398C478.524 292.398 452.011 283.594 432.075 267.609C412.179 251.656 401.228 230.457 401.228 207.92C401.228 185.382 412.185 164.183 432.075 148.23C452.011 132.246 478.524 123.441 506.733 123.441ZM506.733 122.794C448.104 122.794 400.575 160.903 400.575 207.92C400.575 254.936 448.104 293.045 506.733 293.045C565.361 293.045 612.89 254.936 612.89 207.92C612.89 160.903 565.361 122.794 506.733 122.794Z" fill="#5374DF"/>
<path d="M224.715 -58.1747C246.3 -58.1747 263.862 -40.6115 263.862 -19.0246C263.862 2.56239 246.3 20.1256 224.715 20.1256C203.131 20.1256 185.569 2.56239 185.569 -19.0246C185.569 -40.6115 203.131 -58.1747 224.715 -58.1747ZM224.715 -58.8216C202.743 -58.8216 184.922 -41.0061 184.922 -19.0246C184.922 2.95699 202.736 20.7725 224.715 20.7725C246.695 20.7725 264.508 2.95699 264.508 -19.0246C264.508 -41.0061 246.695 -58.8216 224.715 -58.8216Z" fill="#5374DF"/>
<path d="M224.715 -97.3443C240.899 -97.3443 254.069 -84.4258 254.069 -68.538C254.069 -52.6502 240.899 -39.7317 224.715 -39.7317C208.532 -39.7317 195.362 -52.6502 195.362 -68.538C195.362 -84.4258 208.532 -97.3443 224.715 -97.3443ZM224.715 -97.9912C208.15 -97.9912 194.715 -84.8075 194.715 -68.538C194.715 -52.2686 208.144 -39.0848 224.715 -39.0848C241.287 -39.0848 254.715 -52.2686 254.715 -68.538C254.715 -84.8075 241.287 -97.9912 224.715 -97.9912Z" fill="#5374DF"/>
<path d="M224.715 -141.275C255.103 -141.275 279.825 -116.745 279.825 -86.5994C279.825 -56.454 255.103 -31.9236 224.715 -31.9236C194.327 -31.9236 169.605 -56.454 169.605 -86.5994C169.605 -116.745 194.327 -141.275 224.715 -141.275ZM224.715 -141.922C193.92 -141.922 168.959 -117.152 168.959 -86.5994C168.959 -56.0464 193.92 -31.2767 224.715 -31.2767C255.511 -31.2767 280.472 -56.0464 280.472 -86.5994C280.472 -117.152 255.511 -141.922 224.715 -141.922Z" fill="#5374DF"/>
<path d="M224.715 -73.8102C231.572 -73.8102 237.147 -68.234 237.147 -61.3769C237.147 -54.5198 231.572 -48.9435 224.715 -48.9435C217.859 -48.9435 212.283 -54.5198 212.283 -61.3769C212.283 -68.234 217.859 -73.8102 224.715 -73.8102ZM224.715 -74.4571C217.49 -74.4571 211.636 -68.6027 211.636 -61.3769C211.636 -54.151 217.49 -48.2966 224.715 -48.2966C231.94 -48.2966 237.794 -54.151 237.794 -61.3769C237.794 -68.6027 231.94 -74.4571 224.715 -74.4571Z" fill="#5374DF"/>
<path d="M224.715 2.10309C240.899 2.10309 254.069 15.0216 254.069 30.9094C254.069 46.7972 240.899 59.7157 224.715 59.7157C208.532 59.7157 195.362 46.7972 195.362 30.9094C195.362 15.0216 208.532 2.10309 224.715 2.10309ZM224.715 1.45619C208.15 1.45619 194.715 14.6399 194.715 30.9094C194.715 47.1788 208.144 60.3626 224.715 60.3626C241.287 60.3626 254.715 47.1788 254.715 30.9094C254.715 14.6399 241.287 1.45619 224.715 1.45619Z" fill="#5374DF"/>
<path d="M224.715 -5.71141C255.103 -5.71141 279.825 18.8189 279.825 48.9643C279.825 79.1097 255.103 103.64 224.715 103.64C194.327 103.64 169.605 79.1097 169.605 48.9643C169.605 18.8189 194.327 -5.71141 224.715 -5.71141ZM224.715 -6.35831C193.92 -6.35831 168.959 18.4114 168.959 48.9643C168.959 79.5172 193.92 104.287 224.715 104.287C255.511 104.287 280.472 79.5172 280.472 48.9643C280.472 18.4114 255.511 -6.35831 224.715 -6.35831Z" fill="#5374DF"/>
<path d="M224.069 -11.7534C252.277 -11.7534 278.79 -2.94917 298.726 13.0356C318.622 28.9881 329.573 50.1869 329.573 72.7248C329.573 95.2627 318.616 116.461 298.726 132.414C278.79 148.399 252.277 157.203 224.069 157.203C195.86 157.203 169.347 148.399 149.411 132.414C129.515 116.461 118.564 95.2627 118.564 72.7248C118.564 50.1869 129.521 28.9881 149.411 13.0356C169.347 -2.94917 195.86 -11.7534 224.069 -11.7534ZM224.069 -12.4003C165.44 -12.4003 117.911 25.7084 117.911 72.7248C117.911 119.741 165.44 157.85 224.069 157.85C282.697 157.85 330.226 119.741 330.226 72.7248C330.226 25.7084 282.697 -12.4003 224.069 -12.4003Z" fill="#5374DF"/>
<path d="M224.715 11.3084C231.572 11.3084 237.147 16.8847 237.147 23.7418C237.147 30.5989 231.572 36.1751 224.715 36.1751C217.859 36.1751 212.283 30.5989 212.283 23.7418C212.283 16.8847 217.859 11.3084 224.715 11.3084ZM224.715 10.6615C217.49 10.6615 211.636 16.516 211.636 23.7418C211.636 30.9676 217.49 36.822 224.715 36.822C231.94 36.822 237.794 30.9676 237.794 23.7418C237.794 16.516 231.94 10.6615 224.715 10.6615Z" fill="#5374DF"/>
<path d="M224.714 -58.4982L224.782 -58.1817C208.613 -54.722 194.77 -38.1307 194.52 -19.0008C194.385 -8.86242 198.409 0.423642 204.246 7.42778C210.087 14.4367 217.717 19.1305 224.759 20.1225L224.714 20.4428L224.669 20.7631C217.429 19.7432 209.664 14.9403 203.749 7.84221C197.83 0.73915 193.736 -8.69324 193.873 -19.0097C194.127 -38.4218 208.163 -55.2878 224.646 -58.8147L224.714 -58.4982Z" fill="#5374DF"/>
<path d="M224.917 -58.8147C241.4 -55.2879 255.436 -38.4218 255.69 -19.0097C255.827 -8.69324 251.733 0.73915 245.814 7.84221C239.899 14.9402 232.134 19.7432 224.894 20.7631L224.805 20.1225C231.846 19.1305 239.477 14.4367 245.317 7.42778C251.154 0.423646 255.178 -8.86244 255.043 -19.0008C254.793 -38.1306 240.951 -54.722 224.782 -58.1817L224.917 -58.8147Z" fill="#5374DF"/>
<path d="M224.847 -58.2025C214.024 -53.3946 202.644 -38.16 202.458 -19.0021C202.259 1.32282 214.511 15.6312 224.845 20.1465L224.586 20.7391C214.015 16.1201 201.609 1.57639 201.811 -19.0084C202 -38.3925 213.506 -53.8724 224.584 -58.7938L224.847 -58.2025Z" fill="#5374DF"/>
<path d="M224.983 -58.7938C236.062 -53.8724 247.568 -38.3925 247.756 -19.0084C247.958 1.57639 235.553 16.1201 224.981 20.7391L224.722 20.1465C235.057 15.6312 247.309 1.32282 247.109 -19.0021C246.923 -38.16 235.544 -53.3946 224.721 -58.2025L224.983 -58.7938Z" fill="#5374DF"/>
<path d="M224.945 -58.2689C216.762 -50.1235 208.778 -38.1877 208.591 -19.0217C208.492 -8.84284 210.537 -1.29603 213.621 4.83072C216.708 10.9632 220.843 15.6882 224.956 20.2255L224.477 20.6601C220.363 16.1214 216.173 11.3396 213.043 5.12132C209.91 -1.10278 207.844 -8.7521 207.945 -19.028C208.133 -38.4037 216.217 -50.4936 224.489 -58.7275L224.945 -58.2689Z" fill="#5374DF"/>
<path d="M225.08 -58.7275C233.352 -50.4936 241.435 -38.4037 241.624 -19.028C241.725 -8.75211 239.659 -1.10277 236.526 5.12132C233.395 11.3396 229.206 16.1214 225.091 20.6601L224.613 20.2255C228.726 15.6882 232.861 10.9632 235.948 4.83072C239.032 -1.29603 241.077 -8.84284 240.977 -19.0217C240.791 -38.1877 232.807 -50.1235 224.624 -58.2689L225.08 -58.7275Z" fill="#5374DF"/>
<path d="M224.715 -58.4982L224.987 -58.3219C219.696 -50.1814 214.522 -38.2284 214.399 -19.0223C214.335 -8.82539 215.66 -1.26236 217.658 4.87621C219.658 11.0162 222.335 15.7442 224.995 20.2792L224.437 20.6064C221.774 16.0656 219.066 11.2871 217.043 5.07646C215.02 -1.13581 213.687 -8.7689 213.752 -19.0267C213.876 -38.3627 219.089 -50.4355 224.445 -58.6744L224.715 -58.4982Z" fill="#5374DF"/>
<path d="M225.123 -58.6744C230.478 -50.4355 235.693 -38.3627 235.816 -19.0267C235.881 -8.7689 234.547 -1.13581 232.524 5.07646C230.502 11.2871 227.795 16.0656 225.131 20.6064L224.573 20.2792C227.233 15.7441 229.91 11.0163 231.91 4.87621C233.908 -1.26236 235.233 -8.8254 235.169 -19.0223C235.047 -38.2283 229.872 -50.1814 224.581 -58.3219L225.123 -58.6744Z" fill="#5374DF"/>
<path d="M225.025 -58.3984C222.378 -50.243 219.782 -38.2637 219.724 -19.0236C219.659 1.39188 222.375 11.2966 225.028 20.3518L224.407 20.5338C221.743 11.4371 219.012 1.46872 219.077 -19.0255C219.136 -38.3274 221.74 -50.3739 224.41 -58.598L225.025 -58.3984Z" fill="#5374DF"/>
<path d="M225.16 -58.598C227.829 -50.3739 230.434 -38.3275 230.492 -19.0255C230.557 1.46872 227.827 11.4371 225.162 20.5338L224.542 20.3518C227.194 11.2966 229.91 1.39188 229.845 -19.0236C229.787 -38.2637 227.192 -50.243 224.544 -58.3984L225.16 -58.598Z" fill="#5374DF"/>
<path d="M190.622 -53.2624C201.221 -59.9742 214.451 -61.9198 224.809 -58.8077L224.623 -58.188C214.463 -61.2407 201.426 -59.338 190.968 -52.7159C180.523 -46.1018 172.667 -34.7907 172.828 -19.0274C172.998 -2.17595 181.267 9.27511 191.829 15.7275C202.408 22.1896 215.276 23.6307 224.612 20.4598L224.82 21.0726C215.282 24.3124 202.215 22.8297 191.492 16.2797C180.753 9.71979 172.353 -1.92999 172.181 -19.0211C172.018 -35.0333 180.009 -46.5423 190.622 -53.2624Z" fill="#5374DF"/>
<path d="M224.863 -58.8077C235.22 -61.9198 248.45 -59.9742 259.05 -53.2624C269.662 -46.5423 277.654 -35.0333 277.491 -19.0211C277.318 -1.92999 268.918 9.71979 258.179 16.2797C247.457 22.8297 234.39 24.3124 224.851 21.0726L225.06 20.4598C234.396 23.6307 247.263 22.1896 257.842 15.7275C268.405 9.27511 276.674 -2.17595 276.844 -19.0274C277.005 -34.7907 269.149 -46.1018 258.704 -52.7159C248.246 -59.338 235.208 -61.2407 225.048 -58.188L224.863 -58.8077Z" fill="#5374DF"/>
<path d="M155.142 -19.7703C155.367 -51.4373 190.287 -77.2296 224.868 -58.7837L224.564 -58.2126C190.168 -76.5593 155.468 -50.572 155.79 -19.028C155.96 -2.17824 165.493 12.6879 178.821 20.8484C192.142 29.0049 209.234 30.4515 224.54 20.4946L224.716 20.7662L224.892 21.0372C209.351 31.147 191.989 29.6696 178.483 21.3999C164.983 13.134 155.316 -1.92844 155.143 -19.0211L155.142 -19.7703Z" fill="#5374DF"/>
<path d="M224.803 -58.7837C259.657 -77.3748 294.854 -51.0281 294.528 -19.0211C294.356 -1.92832 284.688 13.1341 271.188 21.3999C257.682 29.6696 240.32 31.1469 224.779 21.0372L224.956 20.7662L225.132 20.4946C240.438 30.4515 257.53 29.0049 270.851 20.8484C284.178 12.6879 293.711 -2.17825 293.882 -19.028C294.203 -50.572 259.504 -76.5593 225.108 -58.2126L224.803 -58.7837Z" fill="#5374DF"/>
<path d="M132.58 -19.0312C132.58 -31.3298 136.78 -45.5242 145.149 -56.6503C153.524 -67.7843 166.081 -75.8544 182.774 -75.8545C190.835 -75.8545 197.646 -74.9689 204.313 -72.3799C210.978 -69.7914 217.478 -65.508 224.932 -58.7439L224.498 -58.2651C217.081 -64.9952 210.647 -69.2256 204.078 -71.7766C197.511 -74.3271 190.786 -75.2076 182.774 -75.2076C166.317 -75.2075 153.939 -67.2606 145.666 -56.2612C137.387 -45.2539 133.227 -31.1981 133.227 -19.0312C133.227 8.8363 151.69 36.5548 181.603 37.1389C190.657 37.3166 197.193 36.9076 203.552 34.5936C209.912 32.2793 216.124 28.0483 224.498 20.5255L224.715 20.7662L224.931 21.0069C216.533 28.5502 210.248 32.8451 203.773 35.2014C197.297 37.5579 190.661 37.9639 181.591 37.7858C151.207 37.1925 132.58 9.05791 132.58 -19.0312Z" fill="#5374DF"/>
<path d="M316.441 -19.0312C316.441 -31.1982 312.281 -45.2539 304.002 -56.2612C295.728 -67.2606 283.351 -75.2076 266.893 -75.2076C258.881 -75.2076 252.157 -74.3272 245.589 -71.7766C239.02 -69.2256 232.587 -64.9952 225.17 -58.2651L224.736 -58.7439C232.19 -65.508 238.69 -69.7914 245.355 -72.3799C252.022 -74.9688 258.832 -75.8544 266.893 -75.8545C283.586 -75.8545 296.144 -67.7845 304.519 -56.6503C312.887 -45.5242 317.088 -31.3298 317.088 -19.0312C317.088 9.05787 298.461 37.1925 268.077 37.7858C259.006 37.9639 252.37 37.558 245.894 35.2014C239.419 32.8451 233.134 28.5501 224.737 21.0069L225.169 20.5255C233.544 28.0484 239.756 32.2793 246.115 34.5936C252.474 36.9076 259.011 37.3166 268.064 37.1389C297.978 36.5548 316.441 8.83627 316.441 -19.0312Z" fill="#5374DF"/>
<path d="M83.8151 -18.4228C83.8151 -58.3473 111.687 -98.0028 157.092 -98.3215C180.029 -98.4839 196.648 -89.4149 207.709 -79.8837C218.761 -70.36 224.274 -60.3658 225.012 -58.6315L224.714 -58.5045L224.417 -58.3781C223.718 -60.021 218.264 -69.9348 207.287 -79.3941C196.318 -88.8459 179.846 -97.8356 157.097 -97.6746C112.14 -97.3592 84.4619 -58.0924 84.4619 -18.4228C84.462 21.2029 118.102 59.6963 164.669 59.6963C182.484 59.6963 197.454 51.1771 207.965 42.0165C213.22 37.4377 217.353 32.7052 220.162 28.8114C221.567 26.8642 222.638 25.131 223.352 23.7354C223.709 23.0374 223.975 22.4281 224.148 21.9223C224.324 21.4104 224.397 21.0277 224.391 20.7738L224.715 20.7662L225.038 20.758C225.047 21.1267 224.944 21.5955 224.76 22.1327C224.573 22.6761 224.293 23.3146 223.927 24.0304C223.194 25.4624 222.105 27.2237 220.686 29.1898C217.848 33.123 213.683 37.893 208.391 42.5049C197.809 51.7259 182.694 60.3432 164.669 60.3432C117.73 60.3432 83.8152 21.5455 83.8151 -18.4228Z" fill="#5374DF"/>
<path d="M365.206 -18.4228C365.206 -58.0924 337.528 -97.3592 292.571 -97.6746C269.822 -97.8356 253.349 -88.8459 242.381 -79.3941C231.404 -69.9349 225.95 -60.021 225.251 -58.3781L224.954 -58.5045L224.656 -58.6315C225.394 -60.366 230.907 -70.3601 241.959 -79.8837C253.02 -89.4149 269.638 -98.4838 292.575 -98.3215C337.98 -98.0029 365.853 -58.3474 365.853 -18.4228C365.853 21.5454 331.938 60.343 284.999 60.3432C266.974 60.3432 251.859 51.7259 241.277 42.5049C235.985 37.893 231.819 33.123 228.981 29.1898C227.563 27.2237 226.473 25.4624 225.74 24.0304C225.374 23.3146 225.095 22.6761 224.908 22.1327C224.724 21.5955 224.621 21.1267 224.63 20.758L224.954 20.7662L225.277 20.7738C225.271 21.0277 225.344 21.4103 225.52 21.9223C225.693 22.4282 225.959 23.0374 226.316 23.7354C227.03 25.131 228.101 26.8641 229.506 28.8114C232.315 32.7052 236.448 37.4377 241.702 42.0165C252.214 51.1771 267.184 59.6963 284.999 59.6963C331.566 59.6961 365.206 21.2028 365.206 -18.4228Z" fill="#5374DF"/>
<path d="M0 -18.4165C0 -64.4638 15.506 -94.9301 38.0847 -113.878C60.6532 -132.817 90.2467 -140.214 118.37 -140.214C163.26 -140.214 189.938 -121.714 205.386 -102.24C213.105 -92.5085 218.017 -82.5399 220.998 -74.5272C223.975 -66.5267 225.039 -60.4475 225.039 -58.4919H224.392C224.392 -60.3335 223.359 -66.3279 220.392 -74.3017C217.43 -82.2633 212.549 -92.1695 204.879 -101.838C189.547 -121.166 163.053 -139.567 118.37 -139.567C90.3485 -139.567 60.9188 -132.196 38.5003 -113.383C16.0919 -94.5777 0.646831 -64.3061 0.646831 -18.4165C0.646866 1.42969 6.59575 31.4408 25.6913 56.4814C44.7749 81.5063 77.0123 101.599 129.664 101.595C168.678 101.595 192.381 82.6216 206.327 63.023C213.303 53.2196 217.836 43.259 220.618 35.4389C222.009 31.5294 222.962 28.1569 223.562 25.6091C223.862 24.3352 224.074 23.2688 224.209 22.446C224.345 21.6156 224.399 21.0522 224.392 20.7738L224.715 20.7656L225.039 20.758C225.047 21.1023 224.984 21.7178 224.848 22.5503C224.71 23.3905 224.495 24.4715 224.192 25.7569C223.586 28.3282 222.627 31.7238 221.228 35.6556C218.431 43.5187 213.871 53.5353 206.854 63.3976C192.813 83.1302 168.929 102.242 129.664 102.242C76.8234 102.246 44.3907 82.0689 25.1771 56.8737C5.97557 31.6942 3.54763e-05 1.53441 0 -18.4165Z" fill="#5374DF"/>
<path d="M449.025 -18.4228C449.025 -64.3123 433.58 -94.5834 411.171 -113.388C388.753 -132.202 359.323 -139.574 331.302 -139.574C286.619 -139.574 260.124 -121.172 244.793 -101.845C237.123 -92.1759 232.242 -82.2696 229.279 -74.308C226.312 -66.3342 225.28 -60.3398 225.28 -58.4982H224.633C224.633 -60.4538 225.697 -66.533 228.674 -74.5335C231.655 -82.5462 236.566 -92.5148 244.286 -102.246C259.734 -121.72 286.411 -140.221 331.302 -140.221C359.425 -140.221 389.018 -132.824 411.587 -113.884C434.166 -94.9364 449.672 -64.4701 449.672 -18.4228C449.672 1.52807 443.696 31.6877 424.495 56.868C405.281 82.0641 372.848 102.242 320.008 102.242C280.743 102.242 256.859 83.1308 242.818 63.3982C235.8 53.536 231.241 43.5193 228.444 35.6562C227.045 31.7245 226.086 28.3288 225.48 25.7576C225.177 24.4721 224.962 23.3905 224.824 22.5503C224.688 21.7178 224.624 21.1023 224.633 20.758L224.956 20.7662L225.28 20.7738C225.273 21.0522 225.327 21.6156 225.463 22.446C225.597 23.2688 225.809 24.3351 226.11 25.6091C226.71 28.1568 227.662 31.5294 229.053 35.4389C231.835 43.259 236.369 53.2196 243.345 63.023C257.29 82.6217 280.994 101.595 320.008 101.595C372.659 101.595 404.897 81.5014 423.98 56.4757C443.076 31.4344 449.025 1.42333 449.025 -18.4228Z" fill="#5374DF"/>
<path d="M225.039 -58.8216V20.7662H224.392V-58.8216H225.039Z" fill="#5374DF"/>
<path d="M224.069 -194.832C252.277 -194.832 278.79 -186.027 298.726 -170.043C318.622 -154.09 329.573 -132.891 329.573 -110.353C329.573 -87.8155 318.616 -66.6167 298.726 -50.6643C278.79 -34.6794 252.277 -25.8752 224.069 -25.8752C195.86 -25.8752 169.347 -34.6794 149.411 -50.6643C129.515 -66.6167 118.564 -87.8155 118.564 -110.353C118.564 -132.891 129.521 -154.09 149.411 -170.043C169.347 -186.027 195.86 -194.832 224.069 -194.832ZM224.069 -195.479C165.44 -195.479 117.911 -157.37 117.911 -110.353C117.911 -63.337 165.44 -25.2283 224.069 -25.2283C282.697 -25.2283 330.226 -63.337 330.226 -110.353C330.226 -157.37 282.697 -195.479 224.069 -195.479Z" fill="#5374DF"/>
<path d="M404.803 174.116L407.082 179.851C407.104 179.907 407.167 179.933 407.222 179.91L412.888 177.466C413.025 177.407 413.165 177.546 413.105 177.684L410.662 183.35C410.639 183.406 410.665 183.469 410.721 183.491L416.455 185.77C416.595 185.825 416.595 186.023 416.455 186.078L410.721 188.357C410.665 188.379 410.639 188.442 410.662 188.497L413.105 194.164C413.165 194.301 413.025 194.441 412.888 194.381L407.222 191.938C407.167 191.915 407.103 191.94 407.082 191.996L404.803 197.732C404.748 197.871 404.55 197.871 404.495 197.732L402.216 191.996C402.194 191.94 402.131 191.915 402.076 191.938L396.41 194.381C396.272 194.441 396.133 194.301 396.192 194.164L398.635 188.497C398.658 188.442 398.633 188.378 398.577 188.357L392.843 186.077C392.703 186.022 392.703 185.824 392.843 185.769L398.578 183.49C398.633 183.468 398.659 183.405 398.636 183.35L396.193 177.683C396.134 177.545 396.273 177.406 396.411 177.465L402.077 179.909C402.132 179.932 402.195 179.906 402.217 179.85L404.495 174.116C404.55 173.976 404.748 173.976 404.803 174.116Z" fill="#FFC72D"/>
<path d="M404.752 177.909L406.299 181.802C406.314 181.84 406.357 181.857 406.394 181.841L410.24 180.183C410.334 180.143 410.428 180.237 410.388 180.331L408.73 184.177C408.714 184.214 408.731 184.258 408.769 184.272L412.662 185.819C412.757 185.857 412.757 185.991 412.662 186.028L408.769 187.575C408.731 187.591 408.714 187.633 408.73 187.671L410.388 191.517C410.428 191.61 410.334 191.705 410.24 191.665L406.394 190.006C406.357 189.99 406.314 190.008 406.299 190.046L404.752 193.939C404.715 194.034 404.58 194.034 404.543 193.939L402.996 190.046C402.981 190.008 402.938 189.99 402.901 190.006L399.055 191.665C398.961 191.705 398.867 191.61 398.907 191.517L400.565 187.671C400.581 187.633 400.564 187.59 400.526 187.575L396.633 186.028C396.539 185.99 396.539 185.856 396.633 185.819L400.526 184.272C400.564 184.257 400.582 184.214 400.566 184.177L398.908 180.33C398.867 180.237 398.962 180.142 399.055 180.182L402.902 181.841C402.939 181.857 402.982 181.839 402.997 181.801L404.543 177.909C404.58 177.814 404.715 177.814 404.752 177.909Z" fill="#001045"/>
<path d="M264.906 8.96055L265.34 10.0506C265.344 10.0613 265.356 10.0662 265.366 10.0617L266.443 9.59735C266.469 9.58606 266.496 9.61256 266.484 9.63873L266.02 10.7157C266.016 10.7262 266.021 10.7383 266.031 10.7424L267.121 11.1755C267.148 11.186 267.148 11.2236 267.121 11.2341L266.031 11.6672C266.021 11.6715 266.016 11.6834 266.02 11.6939L266.484 12.7709C266.496 12.7971 266.469 12.8236 266.443 12.8123L265.366 12.3479C265.356 12.3435 265.344 12.3484 265.34 12.359L264.906 13.4491C264.896 13.4756 264.858 13.4756 264.848 13.4491L264.415 12.359C264.41 12.3484 264.399 12.3435 264.388 12.3479L263.311 12.8123C263.285 12.8236 263.258 12.7971 263.27 12.7709L263.734 11.6939C263.739 11.6834 263.734 11.6713 263.723 11.6672L262.633 11.2339C262.607 11.2235 262.607 11.1858 262.633 11.1754L263.723 10.7422C263.734 10.738 263.739 10.726 263.734 10.7156L263.27 9.63857C263.259 9.6124 263.285 9.5859 263.311 9.59719L264.388 10.0616C264.399 10.066 264.411 10.0611 264.415 10.0505L264.848 8.96055C264.858 8.93405 264.896 8.93405 264.906 8.96055Z" fill="#E93F30"/>
<path d="M500.97 213.99L503.285 248.274L531.315 228.724L506.175 251.925L538.808 261.833L505.143 256.48L517.808 288.384L500.97 258.507L484.129 288.384L496.794 256.48L463.129 261.833L495.764 251.925L470.624 228.724L498.652 248.274L500.97 213.99Z" fill="#FFC72D"/>
<path d="M500.862 44.685L507.896 71.193C507.934 71.333 508.096 71.4005 508.221 71.328L531.939 57.5578C532.137 57.4428 532.357 57.6653 532.242 57.8603L518.473 81.5807C518.4 81.7082 518.465 81.8682 518.608 81.9057L545.113 88.9409C545.333 88.9984 545.333 89.3109 545.113 89.3684L518.608 96.4035C518.468 96.441 518.4 96.6035 518.473 96.7285L532.242 120.449C532.357 120.646 532.134 120.867 531.939 120.752L508.221 106.981C508.094 106.909 507.934 106.974 507.896 107.116L500.862 133.624C500.804 133.844 500.492 133.844 500.434 133.624L493.4 107.116C493.363 106.976 493.2 106.909 493.075 106.981L469.357 120.752C469.16 120.867 468.94 120.644 469.055 120.449L482.823 96.7285C482.896 96.601 482.831 96.441 482.688 96.4035L456.181 89.3709C455.961 89.3134 455.961 89.0009 456.181 88.9434L482.686 81.9082C482.826 81.8707 482.893 81.7082 482.821 81.5832L469.052 57.8603C468.937 57.6628 469.16 57.4428 469.355 57.5578L493.073 71.328C493.2 71.4005 493.36 71.3355 493.398 71.193L500.432 44.685C500.489 44.465 500.802 44.465 500.859 44.685H500.862Z" fill="#FFC72D"/>
<path d="M500.647 46.4176L507.266 71.3605C507.369 71.743 507.714 72.0106 508.111 72.0106C508.264 72.0106 508.416 71.9706 508.549 71.8931L530.864 58.9378L517.911 81.2557C517.773 81.4932 517.753 81.7732 517.858 82.0282C517.963 82.2808 518.175 82.4683 518.44 82.5383L543.381 89.1584L518.44 95.7785C518.175 95.8485 517.963 96.0335 517.858 96.2885C517.753 96.5435 517.773 96.8235 517.911 97.061L530.864 119.379L508.549 106.424C508.416 106.346 508.264 106.306 508.111 106.306C507.716 106.306 507.369 106.574 507.266 106.956L500.647 131.899L494.027 106.956C493.925 106.574 493.58 106.306 493.183 106.306C493.03 106.306 492.878 106.346 492.745 106.424L470.429 119.379L483.383 97.061C483.521 96.8235 483.541 96.541 483.436 96.2885C483.331 96.036 483.118 95.8485 482.853 95.7785L457.913 89.1559L482.853 82.5358C483.118 82.4658 483.331 82.2808 483.436 82.0257C483.541 81.7732 483.521 81.4907 483.383 81.2532L470.429 58.9353L492.745 71.8906C492.878 71.9681 493.03 72.0081 493.183 72.0081C493.578 72.0081 493.925 71.7405 494.027 71.358L500.647 46.4176ZM500.647 44.52C500.554 44.52 500.462 44.575 500.432 44.685L493.398 71.193C493.37 71.2955 493.28 71.358 493.183 71.358C493.145 71.358 493.108 71.348 493.073 71.328L469.355 57.5578C469.317 57.5353 469.28 57.5253 469.242 57.5253C469.087 57.5253 468.96 57.7003 469.052 57.8603L482.821 81.5807C482.893 81.7082 482.828 81.8682 482.686 81.9057L456.181 88.9409C455.961 88.9984 455.961 89.3109 456.181 89.3684L482.686 96.4035C482.826 96.441 482.893 96.6035 482.821 96.7285L469.052 120.449C468.96 120.609 469.087 120.784 469.242 120.784C469.28 120.784 469.317 120.774 469.355 120.752L493.073 106.981C493.108 106.961 493.145 106.951 493.183 106.951C493.278 106.951 493.37 107.014 493.398 107.116L500.432 133.624C500.462 133.734 500.554 133.789 500.647 133.789C500.739 133.789 500.832 133.734 500.862 133.624L507.896 107.116C507.924 107.014 508.014 106.951 508.111 106.951C508.149 106.951 508.186 106.961 508.221 106.981L531.939 120.752C531.977 120.774 532.014 120.784 532.052 120.784C532.207 120.784 532.334 120.609 532.242 120.449L518.473 96.7285C518.4 96.601 518.465 96.441 518.608 96.4035L545.113 89.3684C545.333 89.3109 545.333 88.9984 545.113 88.9409L518.608 81.9057C518.468 81.8682 518.4 81.7057 518.473 81.5807L532.242 57.8603C532.334 57.7003 532.207 57.5253 532.052 57.5253C532.014 57.5253 531.977 57.5353 531.939 57.5578L508.221 71.328C508.186 71.348 508.149 71.358 508.111 71.358C508.016 71.358 507.924 71.2955 507.896 71.193L500.862 44.685C500.832 44.575 500.739 44.52 500.647 44.52Z" fill="#E93F30"/>
<path d="M526.455 63.8554L511.936 89.0534C511.886 89.1384 511.886 89.2434 511.936 89.3284L526.345 114.614C526.485 114.859 526.212 115.129 525.967 114.989L500.76 100.449C500.675 100.399 500.57 100.399 500.485 100.449L475.214 114.839C474.969 114.979 474.699 114.706 474.839 114.461L489.358 89.2634C489.408 89.1784 489.408 89.0734 489.358 88.9884L474.949 63.7029C474.809 63.4579 475.082 63.1879 475.327 63.3279L500.535 77.8682C500.62 77.9182 500.725 77.9182 500.81 77.8682L526.08 63.4779C526.325 63.3379 526.595 63.6104 526.455 63.8554Z" fill="#FFC72D"/>
<path d="M476.2 64.5826L500.208 78.4304C500.348 78.5104 500.508 78.5554 500.67 78.5554C500.833 78.5554 500.99 78.5129 501.128 78.4329L525.196 64.7276L511.367 88.7281C511.204 89.0131 511.202 89.3656 511.367 89.6506L525.088 113.731L501.08 99.8833C500.94 99.8033 500.78 99.7583 500.618 99.7583C500.455 99.7583 500.298 99.8008 500.16 99.8808L476.092 113.586L489.921 89.5856C490.083 89.3006 490.086 88.9481 489.921 88.6631L476.2 64.5826ZM475.187 63.2876C474.995 63.2876 474.835 63.5026 474.95 63.7001L489.359 88.9856C489.406 89.0706 489.406 89.1756 489.359 89.2606L474.84 114.459C474.725 114.656 474.882 114.874 475.077 114.874C475.122 114.874 475.17 114.861 475.215 114.836L500.485 100.446C500.528 100.421 500.575 100.411 500.623 100.411C500.67 100.411 500.718 100.423 500.76 100.448L525.968 114.989C526.013 115.016 526.061 115.026 526.106 115.026C526.298 115.026 526.458 114.811 526.343 114.614L511.934 89.3281C511.887 89.2431 511.887 89.1381 511.934 89.0531L526.453 63.8551C526.568 63.6576 526.41 63.4401 526.216 63.4401C526.171 63.4401 526.123 63.4526 526.078 63.4776L500.808 77.8679C500.765 77.8929 500.718 77.9029 500.67 77.9029C500.623 77.9029 500.575 77.8904 500.533 77.8654L475.325 63.3251C475.28 63.2976 475.232 63.2876 475.187 63.2876Z" fill="#E93F30"/>
<path d="M483.174 71.5928L500.168 81.3954C500.318 81.483 500.49 81.528 500.665 81.528C500.84 81.528 501.008 81.4829 501.158 81.3979L518.196 71.6953L508.407 88.6856C508.232 88.9906 508.229 89.3706 508.407 89.6756L518.121 106.721L501.128 96.9182C500.978 96.8307 500.805 96.7857 500.63 96.7857C500.455 96.7857 500.288 96.8308 500.138 96.9158L483.099 106.618L492.888 89.6281C493.063 89.3231 493.066 88.9431 492.888 88.6381L483.174 71.5928ZM482.344 70.4127C482.102 70.4127 481.907 70.6827 482.047 70.9277L492.321 88.9581C492.381 89.0631 492.381 89.1931 492.321 89.3006L481.967 107.271C481.824 107.518 482.022 107.788 482.264 107.788C482.319 107.788 482.379 107.773 482.437 107.741L500.458 97.4783C500.51 97.4483 500.57 97.4333 500.628 97.4333C500.688 97.4333 500.745 97.4483 500.8 97.4783L518.776 107.846C518.834 107.878 518.894 107.893 518.949 107.893C519.191 107.893 519.386 107.623 519.246 107.378L508.972 89.3481C508.912 89.2431 508.912 89.1131 508.972 89.0056L519.326 71.0352C519.469 70.7877 519.271 70.5177 519.029 70.5177C518.974 70.5177 518.914 70.5327 518.856 70.5652L500.835 80.8279C500.783 80.8579 500.723 80.8729 500.665 80.8729C500.608 80.8729 500.548 80.8579 500.493 80.8279L482.517 70.4602C482.459 70.4277 482.399 70.4127 482.344 70.4127Z" fill="#E93F30"/>
<path d="M489.134 77.5829L500.165 83.9455C500.315 84.033 500.488 84.078 500.66 84.078C500.833 84.078 501.003 84.033 501.15 83.948L512.212 77.6504L505.857 88.6806C505.682 88.9831 505.682 89.3631 505.857 89.6656L512.164 100.731L501.133 94.3682C500.983 94.2807 500.81 94.2357 500.638 94.2357C500.465 94.2357 500.295 94.2807 500.148 94.3657L489.086 100.663L495.441 89.6331C495.616 89.3306 495.616 88.9506 495.441 88.6481L489.134 77.5829ZM488.291 76.3954C488.054 76.3954 487.859 76.6604 487.996 76.9054L494.871 88.9681C494.931 89.0731 494.931 89.2006 494.871 89.3056L487.944 101.328C487.804 101.573 487.999 101.841 488.236 101.841C488.291 101.841 488.349 101.826 488.406 101.793L500.463 94.9282C500.515 94.8982 500.573 94.8832 500.63 94.8832C500.688 94.8832 500.748 94.8982 500.8 94.9282L512.827 101.866C512.884 101.898 512.942 101.913 512.997 101.913C513.234 101.913 513.429 101.648 513.292 101.403L506.417 89.3406C506.357 89.2356 506.357 89.1081 506.417 89.0031L513.344 76.9804C513.484 76.7354 513.289 76.4679 513.052 76.4679C512.997 76.4679 512.939 76.4829 512.882 76.5154L500.825 83.3805C500.773 83.4105 500.715 83.4255 500.658 83.4255C500.6 83.4255 500.54 83.4105 500.488 83.3805L488.461 76.4429C488.404 76.4104 488.346 76.3954 488.291 76.3954Z" fill="#E93F30"/>
<path d="M500.912 53.0128L508.534 81.0783C508.559 81.1733 508.634 81.2458 508.729 81.2733L536.814 88.891C537.087 88.9635 537.087 89.3485 536.814 89.4235L508.729 97.0412C508.634 97.0662 508.562 97.1412 508.534 97.2362L500.912 125.302C500.84 125.572 500.455 125.572 500.38 125.302L492.758 97.2362C492.733 97.1412 492.658 97.0687 492.563 97.0412L464.478 89.4235C464.205 89.351 464.205 88.966 464.478 88.891L492.563 81.2733C492.658 81.2483 492.73 81.1733 492.758 81.0783L500.38 53.0128C500.452 52.7428 500.837 52.7428 500.912 53.0128Z" fill="#FFC72D"/>
<path d="M500.645 54.5203L507.904 81.2509C507.989 81.5684 508.239 81.8159 508.557 81.9034L535.304 89.1585L508.557 96.4136C508.239 96.4986 507.992 96.7486 507.904 97.0662L500.645 123.797L493.385 97.0662C493.3 96.7511 493.05 96.5011 492.733 96.4136L465.985 89.1585L492.733 81.9034C493.05 81.8184 493.298 81.5684 493.385 81.2509L500.645 54.5203ZM500.645 52.8103C500.53 52.8103 500.415 52.8778 500.38 53.0128L492.758 81.0783C492.733 81.1733 492.658 81.2458 492.563 81.2733L464.478 88.891C464.205 88.9635 464.205 89.3485 464.478 89.4235L492.563 97.0412C492.658 97.0662 492.73 97.1412 492.758 97.2362L500.38 125.302C500.417 125.437 500.532 125.504 500.645 125.504C500.757 125.504 500.875 125.437 500.91 125.302L508.532 97.2362C508.557 97.1412 508.632 97.0687 508.727 97.0412L536.812 89.4235C537.084 89.351 537.084 88.966 536.812 88.891L508.727 81.2733C508.632 81.2483 508.559 81.1733 508.532 81.0783L500.91 53.0128C500.872 52.8778 500.757 52.8103 500.645 52.8103Z" fill="#E93F30"/>
<path d="M500.645 64.4006L505.784 83.3235C505.877 83.6635 506.144 83.931 506.484 84.0235L525.418 89.1586L506.484 94.2937C506.144 94.3862 505.877 94.6537 505.784 94.9937L500.645 113.917L495.505 94.9937C495.413 94.6537 495.145 94.3862 494.805 94.2937L475.872 89.1586L494.805 84.0235C495.145 83.931 495.413 83.6635 495.505 83.3235L500.645 64.4006ZM500.645 62.8831C500.502 62.8831 500.36 62.9681 500.312 63.1356L494.875 83.1509C494.843 83.2684 494.75 83.3609 494.633 83.3935L474.604 88.8261C474.267 88.9186 474.267 89.3986 474.604 89.4886L494.633 94.9212C494.75 94.9537 494.843 95.0462 494.875 95.1637L500.312 115.179C500.357 115.349 500.502 115.432 500.645 115.432C500.787 115.432 500.93 115.347 500.977 115.179L506.414 95.1637C506.447 95.0462 506.539 94.9537 506.657 94.9212L526.685 89.4886C527.023 89.3961 527.023 88.9161 526.685 88.8261L506.657 83.3935C506.539 83.3609 506.447 83.2684 506.414 83.1509L500.977 63.1356C500.932 62.9656 500.787 62.8831 500.645 62.8831Z" fill="#E93F30"/>
<path d="M500.645 72.8408L503.982 85.126C504.075 85.4636 504.342 85.7311 504.679 85.8236L516.971 89.1561L504.679 92.4887C504.342 92.5812 504.075 92.8487 503.982 93.1862L500.645 105.471L497.308 93.1862C497.215 92.8487 496.948 92.5812 496.61 92.4887L484.319 89.1561L496.61 85.8236C496.948 85.7311 497.215 85.4636 497.308 85.126L500.645 72.8408ZM500.645 71.3133C500.502 71.3133 500.362 71.3958 500.317 71.5633L496.68 84.9535C496.648 85.071 496.558 85.1611 496.44 85.1936L483.041 88.8286C482.706 88.9186 482.706 89.3936 483.041 89.4836L496.44 93.1187C496.558 93.1512 496.648 93.2412 496.68 93.3587L500.317 106.749C500.362 106.916 500.505 106.999 500.645 106.999C500.785 106.999 500.927 106.916 500.972 106.749L504.609 93.3587C504.642 93.2412 504.732 93.1512 504.849 93.1187L518.248 89.4836C518.583 89.3936 518.583 88.9186 518.248 88.8286L504.849 85.1936C504.732 85.1611 504.642 85.071 504.609 84.9535L500.972 71.5633C500.927 71.3958 500.785 71.3133 500.645 71.3133Z" fill="#E93F30"/>
<path d="M500.648 99.961C506.615 99.961 511.452 95.1233 511.452 89.1558C511.452 83.1882 506.615 78.3506 500.648 78.3506C494.681 78.3506 489.844 83.1882 489.844 89.1558C489.844 95.1233 494.681 99.961 500.648 99.961Z" fill="#FFC72D"/>
<path d="M500.648 79.0031C506.245 79.0031 510.8 83.5582 510.8 89.1558C510.8 94.7534 506.245 99.3085 500.648 99.3085C495.051 99.3085 490.496 94.7534 490.496 89.1558C490.496 83.5582 495.051 79.0031 500.648 79.0031ZM500.648 78.3506C494.681 78.3506 489.844 83.1882 489.844 89.1558C489.844 95.1234 494.681 99.961 500.648 99.961C506.615 99.961 511.452 95.1234 511.452 89.1558C511.452 83.1882 506.615 78.3506 500.648 78.3506Z" fill="#E93F30"/>
<path d="M500.648 82.9105C504.093 82.9105 506.892 85.7131 506.892 89.1557C506.892 92.5982 504.09 95.4008 500.648 95.4008C497.206 95.4008 494.403 92.5982 494.403 89.1557C494.403 85.7131 497.206 82.9105 500.648 82.9105ZM500.648 82.258C496.838 82.258 493.751 85.3456 493.751 89.1557C493.751 92.9657 496.838 96.0533 500.648 96.0533C504.458 96.0533 507.545 92.9657 507.545 89.1557C507.545 85.3456 504.458 82.258 500.648 82.258Z" fill="#E93F30"/>
<path d="M500.648 91.1634C501.757 91.1634 502.655 90.2645 502.655 89.1558C502.655 88.0471 501.757 87.1483 500.648 87.1483C499.54 87.1483 498.641 88.0471 498.641 89.1558C498.641 90.2645 499.54 91.1634 500.648 91.1634Z" fill="#E93F30"/>
<path d="M500.647 35.8866L508.897 66.9758C509.025 67.4526 509.455 67.786 509.95 67.786C510.14 67.786 510.33 67.7361 510.496 67.6395L538.309 51.492L522.164 79.3093C521.993 79.6053 521.968 79.9543 522.098 80.2722C522.229 80.5869 522.494 80.8206 522.824 80.9079L553.91 89.1593L522.824 97.4107C522.494 97.4979 522.229 97.7285 522.098 98.0463C521.968 98.3642 521.993 98.7132 522.164 99.0092L538.309 126.827L510.496 110.679C510.33 110.582 510.14 110.533 509.95 110.533C509.458 110.533 509.025 110.866 508.897 111.343L500.647 142.432L492.397 111.343C492.269 110.866 491.839 110.533 491.344 110.533C491.153 110.533 490.963 110.582 490.798 110.679L462.985 126.827L479.13 99.0092C479.301 98.7132 479.326 98.3611 479.195 98.0463C479.065 97.7316 478.8 97.4979 478.47 97.4107L447.384 89.1561L478.47 80.9047C478.8 80.8175 479.065 80.5869 479.195 80.2691C479.326 79.9543 479.301 79.6022 479.13 79.3062L462.985 51.4889L490.798 67.6364C490.963 67.733 491.153 67.7829 491.344 67.7829C491.836 67.7829 492.269 67.4495 492.397 66.9727L500.647 35.8866ZM500.647 33.5215C500.532 33.5215 500.416 33.59 500.379 33.7271L491.611 66.767C491.577 66.8948 491.465 66.9727 491.344 66.9727C491.297 66.9727 491.25 66.9602 491.206 66.9353L461.645 49.7719C461.598 49.7438 461.551 49.7314 461.505 49.7314C461.311 49.7314 461.153 49.9495 461.268 50.1489L478.429 79.7144C478.519 79.8733 478.438 80.0727 478.261 80.1195L445.225 88.8882C444.951 88.9598 444.951 89.3493 445.225 89.421L478.261 98.1897C478.435 98.2364 478.519 98.439 478.429 98.5948L461.268 128.16C461.153 128.36 461.311 128.578 461.505 128.578C461.551 128.578 461.598 128.565 461.645 128.537L491.206 111.374C491.25 111.349 491.297 111.336 491.344 111.336C491.462 111.336 491.577 111.414 491.611 111.542L500.379 144.582C500.416 144.719 500.532 144.788 500.647 144.788C500.762 144.788 500.878 144.719 500.915 144.582L509.682 111.542C509.717 111.414 509.829 111.336 509.95 111.336C509.997 111.336 510.044 111.349 510.087 111.374L539.649 128.537C539.696 128.565 539.743 128.578 539.789 128.578C539.982 128.578 540.141 128.36 540.026 128.16L522.865 98.5948C522.775 98.4359 522.856 98.2364 523.033 98.1897L556.069 89.421C556.343 89.3493 556.343 88.9598 556.069 88.8882L523.033 80.1195C522.859 80.0727 522.775 79.8702 522.865 79.7144L540.026 50.1489C540.141 49.9495 539.982 49.7314 539.789 49.7314C539.743 49.7314 539.696 49.7438 539.649 49.7719L510.087 66.9353C510.044 66.9602 509.997 66.9727 509.95 66.9727C509.832 66.9727 509.717 66.8948 509.682 66.767L500.915 33.7271C500.878 33.59 500.762 33.5215 500.647 33.5215Z" fill="#E93F30"/>
<path d="M225.099 3.76562L226.128 18.9695L238.586 10.2997L227.413 20.5888L241.916 24.9828L226.954 22.6087L232.583 36.7574L225.099 23.5079L217.615 36.7574L223.244 22.6087L208.281 24.9828L222.786 20.5888L211.612 10.2997L224.069 18.9695L225.099 3.76562Z" fill="#F8F3E7"/>
</g>
<defs>
<clipPath id="clip0_4125_2793">
<rect width="500" height="476" fill="white"/>
</clipPath>
</defs>
</svg>
