<svg width="773" height="725" viewBox="0 0 773 725" fill="none" xmlns="http://www.w3.org/2000/svg">
<g clip-path="url(#clip0_4121_3231)">
<path d="M1006.67 206.841C1006.67 335.6 902.289 439.98 773.53 439.98C644.77 439.98 540.39 335.6 540.39 206.841C540.39 78.0813 644.77 -26.2996 773.53 -26.2998C902.289 -26.2998 1006.67 78.0811 1006.67 206.841ZM981.94 190.811C981.94 305.907 888.636 399.211 773.54 399.211C658.444 399.211 565.14 305.907 565.14 190.811C565.14 75.7144 658.444 -17.5898 773.54 -17.5898C888.636 -17.5896 981.94 75.7145 981.94 190.811ZM959.48 177.891C959.48 280.588 876.227 363.841 773.53 363.841C670.833 363.841 587.581 280.588 587.58 177.891C587.58 75.1934 670.832 -8.05939 773.53 -8.05957C876.227 -8.05957 959.48 75.1933 959.48 177.891ZM942.3 168.131C942.3 261.34 866.739 336.9 773.53 336.9C680.321 336.9 604.76 261.34 604.76 168.131C604.76 74.9219 680.321 -0.639465 773.53 -0.639648C866.739 -0.639648 942.3 74.9218 942.3 168.131ZM924.56 158.891C924.56 242.308 856.937 309.931 773.52 309.931C690.103 309.931 622.48 242.308 622.48 158.891C622.48 75.4736 690.103 7.85065 773.52 7.85059C856.937 7.85059 924.56 75.4735 924.56 158.891ZM909.19 152.021C909.19 226.943 848.453 287.681 773.53 287.681C698.607 287.68 637.87 226.943 637.87 152.021C637.87 77.0977 698.607 16.3605 773.53 16.3604C848.453 16.3604 909.19 77.0976 909.19 152.021ZM894.96 145.86C894.96 212.919 840.599 267.28 773.54 267.28C706.482 267.28 652.12 212.919 652.12 145.86C652.121 78.802 706.482 24.4404 773.54 24.4404C840.599 24.4406 894.96 78.8021 894.96 145.86ZM881.4 140.23C881.4 199.805 833.105 248.101 773.53 248.101C713.955 248.1 665.66 199.805 665.66 140.23C665.66 80.6556 713.955 32.3605 773.53 32.3604C833.105 32.3604 881.4 80.6555 881.4 140.23ZM869.75 136.091C869.75 189.237 826.666 232.32 773.52 232.32C720.374 232.32 677.291 189.237 677.29 136.091C677.29 82.9445 720.374 39.8604 773.52 39.8604C826.666 39.8604 869.75 82.9445 869.75 136.091ZM858.65 132.54C858.65 179.551 820.54 217.66 773.53 217.66C726.519 217.66 688.41 179.55 688.41 132.54C688.41 85.5299 726.519 47.4211 773.53 47.4209C820.54 47.4209 858.65 85.5298 858.65 132.54ZM847.35 129.171C847.35 169.94 814.299 202.99 773.53 202.99C732.76 202.99 699.711 169.94 699.71 129.171C699.71 88.4014 732.76 55.3508 773.53 55.3506C814.299 55.3506 847.35 88.4012 847.35 129.171ZM837.84 126.671C837.84 162.188 809.047 190.98 773.53 190.98C738.013 190.98 709.22 162.188 709.22 126.671C709.22 91.1536 738.012 62.3605 773.53 62.3604C809.047 62.3604 837.84 91.1535 837.84 126.671ZM827.78 124.61C827.78 154.572 803.491 178.86 773.53 178.86C743.568 178.86 719.28 154.572 719.28 124.61C719.28 94.6491 743.568 70.3605 773.53 70.3604C803.491 70.3604 827.78 94.649 827.78 124.61ZM818.07 122.9C818.07 147.499 798.128 167.44 773.53 167.44C748.931 167.44 728.99 147.499 728.99 122.9C728.99 98.3018 748.931 78.3605 773.53 78.3604C798.128 78.3604 818.07 98.3017 818.07 122.9ZM808.7 121.53C808.7 140.954 792.954 156.7 773.53 156.7C754.106 156.7 738.36 140.954 738.36 121.53C738.36 102.107 754.106 86.3605 773.53 86.3604C792.953 86.3604 808.699 102.107 808.7 121.53ZM799.65 120.48C799.65 134.906 787.955 146.601 773.53 146.601C759.104 146.6 747.41 134.906 747.41 120.48C747.41 106.055 759.104 94.3605 773.53 94.3604C787.955 94.3604 799.65 106.055 799.65 120.48ZM790.63 119.45C790.63 128.894 782.974 136.551 773.53 136.551C764.086 136.551 756.43 128.894 756.43 119.45C756.43 110.006 764.086 102.351 773.53 102.351C782.974 102.351 790.63 110.006 790.63 119.45ZM781.34 119.45C781.34 123.764 777.843 127.261 773.53 127.261C769.216 127.261 765.72 123.763 765.72 119.45C765.72 115.137 769.217 111.641 773.53 111.641C777.843 111.641 781.34 115.137 781.34 119.45ZM782.34 119.45C782.34 114.585 778.395 110.641 773.53 110.641C768.664 110.641 764.72 114.585 764.72 119.45C764.72 124.316 768.664 128.261 773.53 128.261C778.395 128.261 782.34 124.316 782.34 119.45ZM791.63 119.45C791.63 109.454 783.526 101.351 773.53 101.351C763.534 101.351 755.43 109.454 755.43 119.45C755.43 129.446 763.533 137.551 773.53 137.551C783.526 137.551 791.63 129.447 791.63 119.45ZM800.65 120.48C800.65 105.503 788.508 93.3604 773.53 93.3604C758.552 93.3605 746.41 105.503 746.41 120.48C746.41 135.458 758.552 147.6 773.53 147.601C788.508 147.601 800.65 135.458 800.65 120.48ZM809.7 121.53C809.699 101.554 793.506 85.3604 773.53 85.3604C753.554 85.3605 737.36 101.554 737.36 121.53C737.36 141.506 753.554 157.7 773.53 157.7C793.506 157.7 809.7 141.506 809.7 121.53ZM819.07 122.9C819.07 97.7494 798.681 77.3604 773.53 77.3604C748.379 77.3605 727.99 97.7495 727.99 122.9C727.99 148.051 748.379 168.44 773.53 168.44C798.681 168.44 819.07 148.051 819.07 122.9ZM828.78 124.61C828.78 94.0967 804.043 69.3604 773.53 69.3604C743.016 69.3605 718.28 94.0968 718.28 124.61C718.28 155.124 743.016 179.86 773.53 179.86C804.043 179.86 828.78 155.124 828.78 124.61ZM838.84 126.671C838.84 90.6012 809.599 61.3604 773.53 61.3604C737.46 61.3605 708.22 90.6013 708.22 126.671C708.22 162.74 737.46 191.98 773.53 191.98C809.599 191.98 838.84 162.74 838.84 126.671ZM848.35 129.171C848.35 87.8489 814.852 54.3506 773.53 54.3506C732.208 54.3508 698.71 87.8491 698.71 129.171C698.711 170.493 732.208 203.99 773.53 203.99C814.851 203.99 848.35 170.493 848.35 129.171ZM859.65 132.54C859.65 84.9775 821.092 46.4209 773.53 46.4209C725.967 46.4211 687.41 84.9776 687.41 132.54C687.41 180.103 725.967 218.66 773.53 218.66C821.092 218.66 859.65 180.103 859.65 132.54ZM870.75 136.091C870.75 82.3922 827.219 38.8604 773.52 38.8604C719.821 38.8604 676.29 82.3922 676.29 136.091C676.291 189.789 719.821 233.32 773.52 233.32C827.218 233.32 870.75 189.789 870.75 136.091ZM882.4 140.23C882.4 80.1032 833.657 31.3604 773.53 31.3604C713.403 31.3605 664.66 80.1033 664.66 140.23C664.66 200.358 713.403 249.1 773.53 249.101C833.657 249.101 882.4 200.358 882.4 140.23ZM895.96 145.86C895.96 78.2498 841.151 23.4406 773.54 23.4404C705.93 23.4404 651.121 78.2497 651.12 145.86C651.12 213.471 705.93 268.28 773.54 268.28C841.151 268.28 895.96 213.471 895.96 145.86ZM910.19 152.021C910.19 76.5453 849.005 15.3604 773.53 15.3604C698.055 15.3605 636.87 76.5454 636.87 152.021C636.87 227.496 698.055 288.68 773.53 288.681C849.005 288.681 910.19 227.496 910.19 152.021ZM925.56 158.891C925.56 74.9213 857.489 6.85059 773.52 6.85059C689.551 6.85065 621.48 74.9213 621.48 158.891C621.48 242.86 689.551 310.931 773.52 310.931C857.489 310.931 925.56 242.86 925.56 158.891ZM943.3 168.131C943.3 74.3695 867.291 -1.63965 773.53 -1.63965C679.768 -1.63947 603.76 74.3696 603.76 168.131C603.76 261.892 679.769 337.9 773.53 337.9C867.291 337.9 943.3 261.892 943.3 168.131ZM960.48 177.891C960.48 74.641 876.779 -9.05957 773.53 -9.05957C670.28 -9.05939 586.58 74.6411 586.58 177.891C586.581 281.14 670.28 364.841 773.53 364.841C876.779 364.841 960.48 281.14 960.48 177.891ZM982.94 190.811C982.94 75.1622 889.189 -18.5896 773.54 -18.5898C657.892 -18.5898 564.14 75.1621 564.14 190.811C564.14 306.459 657.892 400.211 773.54 400.211C889.189 400.211 982.94 306.459 982.94 190.811ZM1007.67 206.841C1007.67 77.5289 902.842 -27.2998 773.53 -27.2998C644.218 -27.2996 539.39 77.529 539.39 206.841C539.39 336.152 644.218 440.98 773.53 440.98C902.841 440.98 1007.67 336.153 1007.67 206.841Z" fill="#DCD0B4"/>
<path d="M774.12 337.4V-214.689H773.12V337.4H774.12Z" fill="#DCD0B4"/>
<path d="M794.331 -60.9107C807.835 -98.455 837.255 -155.081 864.696 -199.647L864.271 -199.91L863.845 -200.171C836.386 -155.577 806.926 -98.8842 793.39 -61.2486L794.331 -60.9107ZM753.591 -61.2193C740.004 -98.8348 710.475 -155.488 682.956 -200.052L682.53 -199.79L682.106 -199.527C709.607 -154.991 739.097 -98.4037 752.65 -60.8794L753.591 -61.2193ZM813.842 -55.7046C848.046 -93.6642 906.009 -135.161 945.801 -152.542L945.4 -153.458C905.472 -136.018 847.394 -94.4349 813.099 -56.3745L813.471 -56.0396L813.842 -55.7046ZM733.901 -56.3247C699.546 -94.345 641.428 -135.848 601.47 -153.238L601.071 -152.321C640.893 -134.991 698.895 -93.5743 733.159 -55.6548L733.901 -56.3247ZM832.305 -46.8247C853.321 -59.9005 885.207 -69.6197 917.539 -75.4692C949.865 -81.3177 982.565 -83.2853 1005.18 -80.9019L1005.23 -81.3999L1005.28 -81.897C982.545 -84.2935 949.745 -82.3116 917.361 -76.4526C884.983 -70.5947 852.951 -60.8485 831.776 -47.6743L832.04 -47.2495L832.305 -46.8247ZM715.225 -47.5943C694.035 -60.7434 661.992 -70.4504 629.607 -76.2671C597.217 -82.0848 564.415 -84.0237 541.678 -81.5972L541.783 -80.6021C564.396 -83.0154 597.099 -81.09 629.431 -75.2827C661.769 -69.4744 693.667 -59.7955 714.697 -46.7447L715.225 -47.5943ZM1037.19 4.58444C1010.71 -13.1217 937.129 -47.8944 847.737 -36.6353L847.862 -35.6431C936.95 -46.864 1010.29 -12.1974 1036.63 5.41647L1037.19 4.58444ZM510.429 5.74557C536.75 -11.9081 610.041 -46.6642 699.148 -35.5533L699.211 -36.0493L699.273 -36.5454C609.861 -47.6944 536.331 -12.8308 509.872 4.9155L510.429 5.74557ZM1037.58 96.2202L1038 95.9546C1004.72 43.0558 939.5 -12.0735 863.18 -21.1363L863.12 -20.6392L863.062 -20.1431C939.001 -11.1256 1003.98 43.7657 1037.16 96.4868L1037.58 96.2202ZM510.024 96.8257C543.129 44.0548 608.041 -10.9066 683.971 -20.0337L683.91 -20.5298L683.851 -21.0259C607.541 -11.8529 542.393 43.3454 509.177 96.2944L510.024 96.8257ZM631.857 279.79C704.062 229.267 755.816 150.846 773.608 120.319C791.447 150.832 843.298 229.171 915.564 279.6L915.851 279.191L916.137 278.781C845.209 229.286 793.958 152.797 775.359 121.325L775.42 121.291C775.388 121.232 775.355 121.173 775.322 121.113C807.723 141.596 894.018 175.987 1001 152.218L1000.78 151.243C895.999 174.523 811.141 141.835 777.63 121.368L777.78 121.077C776.759 120.547 775.709 119.983 774.631 119.387C774.649 119.377 774.667 119.366 774.685 119.356C830.38 120.614 903.261 96.5872 949.923 52.6948L949.237 51.9663C903.243 95.231 831.599 119.132 776.362 118.386C807.532 100.135 857.687 57.6288 888.177 3.07468L887.304 2.5864C856.478 57.7431 805.46 100.555 774.55 118.28C782.398 103.54 793.943 80.4471 804.533 55.9174C815.996 29.3666 826.364 1.08948 829.704 -20.1021L829.21 -20.1792L828.717 -20.2574C825.397 0.801056 815.075 28.9793 803.615 55.521C793.01 80.0856 781.446 103.21 773.607 117.924C765.749 103.221 754.156 80.1127 743.52 55.563C732.027 29.0363 721.669 0.870392 718.324 -20.188L717.831 -20.1099L717.337 -20.0308C720.703 1.16074 731.105 29.4248 742.602 55.9604C753.223 80.4748 764.796 103.551 772.664 118.281C741.731 100.592 690.652 57.8495 659.757 2.72604L658.885 3.21432C689.443 57.7374 739.662 100.176 770.855 118.39C715.616 119.217 643.938 95.4034 597.883 52.1958L597.198 52.9253C643.921 96.759 716.835 120.696 772.531 119.357C772.55 119.368 772.569 119.378 772.588 119.388C771.507 119.987 770.454 120.554 769.43 121.086L769.582 121.38C736.092 141.891 651.278 174.675 546.479 151.532L546.37 152.02L546.263 152.508C653.266 176.139 739.519 141.643 771.895 121.118C771.863 121.176 771.832 121.234 771.801 121.292L771.859 121.325C753.308 152.811 702.152 229.382 631.284 278.97L631.57 279.38L631.857 279.79Z" fill="#DCD0B4"/>
<path d="M888.14 52.5201C888.14 115.817 836.828 167.13 773.53 167.13C710.233 167.13 658.92 115.818 658.92 52.5201C658.92 -10.777 710.233 -62.0892 773.53 -62.0892C836.827 -62.0891 888.14 -10.7769 888.14 52.5201ZM890.14 52.5201C890.14 -11.8815 837.932 -64.0891 773.53 -64.0892C709.129 -64.0892 656.92 -11.8816 656.92 52.5201C656.92 116.922 709.128 169.13 773.53 169.13C837.932 169.13 890.14 116.922 890.14 52.5201Z" fill="#DCD0B4"/>
<path d="M948.58 52.56C948.58 149.221 870.22 227.58 773.56 227.58C676.899 227.58 598.54 149.221 598.54 52.56C598.54 -44.1005 676.899 -122.459 773.56 -122.46C870.22 -122.46 948.58 -44.1006 948.58 52.56ZM950.58 52.56C950.58 -45.2052 871.325 -124.46 773.56 -124.46C675.794 -124.459 596.54 -45.2051 596.54 52.56C596.54 150.325 675.794 229.58 773.56 229.58C871.325 229.58 950.58 150.325 950.58 52.56Z" fill="#DCD0B4"/>
<path d="M784.23 52.5203C784.23 58.4297 779.44 63.2204 773.53 63.2205C767.621 63.2205 762.83 58.4297 762.83 52.5203C762.83 46.6109 767.621 41.8201 773.53 41.8201C779.439 41.8202 784.23 46.611 784.23 52.5203ZM785.73 52.5203C785.73 45.7826 780.268 40.3202 773.53 40.3201C766.792 40.3201 761.33 45.7825 761.33 52.5203C761.33 59.2581 766.792 64.7205 773.53 64.7205C780.268 64.7204 785.73 59.2581 785.73 52.5203Z" fill="#DCD0B4"/>
<path d="M1040.12 52.5609C1040.12 199.778 920.776 319.12 773.56 319.12C626.343 319.12 507 199.778 507 52.5609C507 -94.6559 626.343 -213.999 773.56 -214C920.777 -214 1040.12 -94.6561 1040.12 52.5609ZM1042.12 52.5609C1042.12 -95.7607 921.881 -216 773.56 -216C625.238 -215.999 505 -95.7605 505 52.5609C505 200.882 625.238 321.12 773.56 321.12C921.881 321.12 1042.12 200.882 1042.12 52.5609Z" fill="#DCD0B4"/>
<path d="M784.41 391.25C817.78 391.25 844.93 418.4 844.93 451.77C844.93 485.14 817.78 512.29 784.41 512.29C751.04 512.29 723.89 485.14 723.89 451.77C723.89 418.4 751.04 391.25 784.41 391.25ZM784.41 390.25C750.44 390.25 722.89 417.79 722.89 451.77C722.89 485.75 750.43 513.29 784.41 513.29C818.39 513.29 845.93 485.75 845.93 451.77C845.93 417.79 818.39 390.25 784.41 390.25Z" fill="#DCD0B4"/>
<path d="M784.41 330.7C809.43 330.7 829.79 350.67 829.79 375.23C829.79 399.79 809.43 419.76 784.41 419.76C759.39 419.76 739.03 399.79 739.03 375.23C739.03 350.67 759.39 330.7 784.41 330.7ZM784.41 329.7C758.8 329.7 738.03 350.08 738.03 375.23C738.03 400.38 758.79 420.76 784.41 420.76C810.03 420.76 830.79 400.38 830.79 375.23C830.79 350.08 810.03 329.7 784.41 329.7Z" fill="#DCD0B4"/>
<path d="M784.41 262.79C831.39 262.79 869.61 300.71 869.61 347.31C869.61 393.91 831.39 431.83 784.41 431.83C737.43 431.83 699.21 393.91 699.21 347.31C699.21 300.71 737.43 262.79 784.41 262.79ZM784.41 261.79C736.8 261.79 698.21 300.08 698.21 347.31C698.21 394.54 736.8 432.83 784.41 432.83C832.02 432.83 870.61 394.54 870.61 347.31C870.61 300.08 832.02 261.79 784.41 261.79Z" fill="#DCD0B4"/>
<path d="M784.41 367.08C795.01 367.08 803.63 375.7 803.63 386.3C803.63 396.9 795.01 405.52 784.41 405.52C773.81 405.52 765.19 396.9 765.19 386.3C765.19 375.7 773.81 367.08 784.41 367.08ZM784.41 366.08C773.24 366.08 764.19 375.13 764.19 386.3C764.19 397.47 773.24 406.52 784.41 406.52C795.58 406.52 804.63 397.47 804.63 386.3C804.63 375.13 795.58 366.08 784.41 366.08Z" fill="#DCD0B4"/>
<path d="M784.41 484.43C809.43 484.43 829.79 504.4 829.79 528.96C829.79 553.52 809.43 573.49 784.41 573.49C759.39 573.49 739.03 553.52 739.03 528.96C739.03 504.4 759.39 484.43 784.41 484.43ZM784.41 483.43C758.8 483.43 738.03 503.81 738.03 528.96C738.03 554.11 758.79 574.49 784.41 574.49C810.03 574.49 830.79 554.11 830.79 528.96C830.79 503.81 810.03 483.43 784.41 483.43Z" fill="#DCD0B4"/>
<path d="M784.41 472.35C831.39 472.35 869.61 510.27 869.61 556.87C869.61 603.47 831.39 641.39 784.41 641.39C737.43 641.39 699.21 603.47 699.21 556.87C699.21 510.27 737.43 472.35 784.41 472.35ZM784.41 471.35C736.8 471.35 698.21 509.64 698.21 556.87C698.21 604.1 736.8 642.39 784.41 642.39C832.02 642.39 870.61 604.1 870.61 556.87C870.61 509.64 832.02 471.35 784.41 471.35Z" fill="#DCD0B4"/>
<path d="M783.41 463.01C827.02 463.01 868.01 476.62 898.83 501.33C929.59 525.99 946.52 558.76 946.52 593.6C946.52 628.44 929.58 661.21 898.83 685.87C868.01 710.58 827.02 724.19 783.41 724.19C739.8 724.19 698.81 710.58 667.99 685.87C637.23 661.21 620.3 628.44 620.3 593.6C620.3 558.76 637.24 525.99 667.99 501.33C698.81 476.62 739.8 463.01 783.41 463.01ZM783.41 462.01C692.77 462.01 619.29 520.92 619.29 593.6C619.29 666.28 692.77 725.19 783.41 725.19C874.05 725.19 947.53 666.28 947.53 593.6C947.53 520.92 874.05 462.01 783.41 462.01Z" fill="#DCD0B4"/>
<path d="M784.41 498.66C795.01 498.66 803.63 507.28 803.63 517.88C803.63 528.48 795.01 537.1 784.41 537.1C773.81 537.1 765.19 528.48 765.19 517.88C765.19 507.28 773.81 498.66 784.41 498.66ZM784.41 497.66C773.24 497.66 764.19 506.71 764.19 517.88C764.19 529.05 773.24 538.1 784.41 538.1C795.58 538.1 804.63 529.05 804.63 517.88C804.63 506.71 795.58 497.66 784.41 497.66Z" fill="#DCD0B4"/>
<path d="M784.408 390.75L784.513 391.239C759.515 396.587 738.115 422.235 737.728 451.807C737.519 467.479 743.741 481.834 752.765 492.661C761.795 503.496 773.591 510.752 784.478 512.285L784.408 512.78L784.338 513.275C773.145 511.699 761.141 504.274 751.996 493.302C742.845 482.322 736.516 467.741 736.728 451.793C737.121 421.785 758.82 395.713 784.303 390.261L784.408 390.75Z" fill="#DCD0B4"/>
<path d="M784.722 390.261C810.204 395.713 831.904 421.785 832.297 451.793C832.509 467.741 826.18 482.322 817.028 493.302C807.883 504.274 795.879 511.699 784.687 513.275L784.548 512.285C795.435 510.752 807.231 503.496 816.261 492.661C825.284 481.834 831.505 467.479 831.297 451.807C830.91 422.235 809.51 396.587 784.513 391.239L784.722 390.261Z" fill="#DCD0B4"/>
<path d="M784.613 391.207C767.881 398.639 750.288 422.19 750 451.805C749.692 483.224 768.634 505.342 784.61 512.322L784.21 513.238C767.867 506.098 748.688 483.616 749 451.795C749.292 421.83 767.08 397.901 784.207 390.293L784.613 391.207Z" fill="#DCD0B4"/>
<path d="M784.824 390.293C801.952 397.901 819.739 421.83 820.031 451.795C820.343 483.616 801.165 506.098 784.821 513.238L784.421 512.322C800.397 505.342 819.339 483.224 819.031 451.805C818.743 422.19 801.15 398.639 784.418 391.207L784.824 390.293Z" fill="#DCD0B4"/>
<path d="M784.765 391.104C772.113 403.696 759.771 422.147 759.482 451.774C759.328 467.509 762.489 479.176 767.258 488.646C772.031 498.126 778.423 505.43 784.782 512.444L784.042 513.116C777.681 506.1 771.204 498.708 766.364 489.096C761.52 479.474 758.327 467.65 758.482 451.765C758.774 421.813 771.271 403.124 784.06 390.396L784.765 391.104Z" fill="#DCD0B4"/>
<path d="M784.974 390.396C797.762 403.124 810.259 421.813 810.551 451.765C810.707 467.65 807.513 479.474 802.669 489.096C797.829 498.708 791.352 506.1 784.991 513.116L784.251 512.444C790.61 505.43 797.003 498.126 801.775 488.646C806.544 479.176 809.705 467.509 809.551 451.774C809.262 422.147 796.92 403.696 784.269 391.104L784.974 390.396Z" fill="#DCD0B4"/>
<path d="M784.41 390.75L784.83 391.022C776.65 403.606 768.65 422.084 768.461 451.773C768.361 467.536 770.41 479.228 773.5 488.717C776.591 498.208 780.729 505.517 784.842 512.527L783.979 513.033C779.862 506.014 775.675 498.627 772.549 489.026C769.422 479.423 767.361 467.624 767.461 451.767C767.652 421.876 775.712 403.214 783.991 390.478L784.41 390.75Z" fill="#DCD0B4"/>
<path d="M785.04 390.478C793.319 403.214 801.381 421.876 801.571 451.767C801.672 467.624 799.61 479.423 796.482 489.026C793.356 498.627 789.17 506.014 785.053 513.033L784.189 512.527C788.302 505.517 792.441 498.208 795.532 488.717C798.622 479.228 800.671 467.536 800.571 451.773C800.382 422.084 792.383 403.606 784.202 391.022L785.04 390.478Z" fill="#DCD0B4"/>
<path d="M784.889 390.904C780.796 403.511 776.783 422.029 776.693 451.771C776.594 483.331 780.792 498.642 784.893 512.64L783.934 512.921C779.814 498.859 775.593 483.449 775.693 451.769C775.784 421.931 779.81 403.309 783.938 390.596L784.889 390.904Z" fill="#DCD0B4"/>
<path d="M785.097 390.596C789.224 403.309 793.251 421.931 793.341 451.769C793.441 483.449 789.22 498.859 785.101 512.921L784.142 512.64C788.242 498.642 792.441 483.331 792.341 451.771C792.251 422.029 788.238 403.511 784.146 390.904L785.097 390.596Z" fill="#DCD0B4"/>
<path d="M731.701 398.844C748.088 388.468 768.542 385.461 784.555 390.271L784.268 391.229C768.56 386.51 748.404 389.452 732.236 399.688C716.088 409.913 703.943 427.398 704.191 451.766C704.455 477.815 717.238 495.517 733.568 505.491C749.923 515.481 769.817 517.708 784.25 512.807L784.572 513.754C769.826 518.762 749.624 516.47 733.047 506.345C716.445 496.204 703.458 478.195 703.191 451.775C702.939 427.023 715.294 409.232 731.701 398.844Z" fill="#DCD0B4"/>
<path d="M784.638 390.271C800.65 385.461 821.104 388.468 837.491 398.844C853.898 409.232 866.253 427.023 866.001 451.775C865.734 478.195 852.748 496.204 836.146 506.345C819.568 516.47 799.367 518.762 784.62 513.754L784.942 512.807C799.376 517.708 819.269 515.481 835.624 505.491C851.954 495.517 864.738 477.815 865.001 451.766C865.249 427.398 853.104 409.913 836.956 399.688C820.788 389.452 800.632 386.51 784.925 391.229L784.638 390.271Z" fill="#DCD0B4"/>
<path d="M676.85 450.617C677.198 401.665 731.183 361.794 784.646 390.309L784.176 391.191C731 362.83 677.354 403.003 677.851 451.765C678.114 477.812 692.853 500.792 713.457 513.407C734.052 526.016 760.475 528.252 784.139 512.86L784.411 513.28L784.684 513.699C760.657 529.327 733.815 527.044 712.935 514.26C692.064 501.482 677.119 478.198 676.852 451.775L676.85 450.617Z" fill="#DCD0B4"/>
<path d="M784.546 390.309C838.43 361.57 892.844 402.298 892.341 451.775C892.074 478.198 877.127 501.482 856.257 514.26C835.376 527.043 808.535 529.327 784.509 513.699L784.781 513.28L785.054 512.86C808.717 528.252 835.141 526.016 855.735 513.407C876.34 500.792 891.078 477.812 891.341 451.765C891.837 403.003 838.192 362.83 785.017 391.191L784.546 390.309Z" fill="#DCD0B4"/>
<path d="M641.969 451.76C641.969 432.748 648.463 410.806 661.4 393.606C674.347 376.395 693.762 363.92 719.568 363.92C732.031 363.92 742.561 365.289 752.867 369.291C763.172 373.292 773.221 379.914 784.745 390.37L784.073 391.11C772.607 380.707 762.66 374.167 752.505 370.224C742.352 366.281 731.955 364.92 719.568 364.92C694.126 364.92 674.99 377.205 662.199 394.208C649.4 411.224 642.969 432.952 642.969 451.76C642.969 494.838 671.512 537.687 717.759 538.59C731.755 538.865 741.861 538.232 751.691 534.655C761.523 531.078 771.127 524.537 784.074 512.908L784.409 513.28L784.743 513.652C771.761 525.313 762.044 531.952 752.033 535.595C742.022 539.238 731.762 539.865 717.739 539.59C670.766 538.673 641.969 495.181 641.969 451.76Z" fill="#DCD0B4"/>
<path d="M926.218 451.76C926.218 432.952 919.786 411.224 906.986 394.208C894.196 377.205 875.06 364.92 849.617 364.92C837.23 364.92 826.834 366.281 816.681 370.224C806.525 374.167 796.579 380.707 785.113 391.11L784.441 390.37C795.965 379.914 806.015 373.292 816.319 369.291C826.626 365.289 837.155 363.92 849.617 363.92C875.424 363.92 894.839 376.395 907.786 393.606C920.724 410.806 927.218 432.748 927.218 451.76C927.218 495.181 898.42 538.673 851.447 539.59C837.424 539.865 827.164 539.238 817.152 535.595C807.142 531.952 797.426 525.313 784.443 513.652L785.111 512.908C798.059 524.537 807.662 531.078 817.494 534.655C827.325 538.232 837.431 538.865 851.428 538.59C897.674 537.687 926.218 494.838 926.218 451.76Z" fill="#DCD0B4"/>
<path d="M566.578 452.7C566.578 390.983 609.668 329.682 679.864 329.189C715.325 328.938 741.018 342.958 758.118 357.691C775.204 372.414 783.728 387.863 784.868 390.544L784.408 390.74L783.948 390.936C782.868 388.396 774.436 373.071 757.466 358.448C740.508 343.837 715.041 329.941 679.872 330.189C610.368 330.677 567.578 391.377 567.578 452.7C567.578 513.955 619.586 573.46 691.578 573.46C719.121 573.46 742.263 560.291 758.515 546.13C766.638 539.052 773.027 531.736 777.37 525.717C779.542 522.707 781.198 520.027 782.302 517.87C782.854 516.791 783.265 515.849 783.533 515.067C783.805 514.276 783.918 513.684 783.908 513.292L784.409 513.28L784.908 513.268C784.922 513.838 784.764 514.562 784.479 515.393C784.19 516.233 783.758 517.22 783.191 518.326C782.059 520.54 780.374 523.262 778.181 526.302C773.794 532.382 767.354 539.755 759.172 546.885C742.813 561.139 719.446 574.46 691.578 574.46C619.011 574.46 566.578 514.485 566.578 452.7Z" fill="#DCD0B4"/>
<path d="M1001.61 452.7C1001.61 391.377 958.818 330.677 889.314 330.189C854.145 329.941 828.678 343.837 811.721 358.448C794.75 373.071 786.318 388.396 785.238 390.936L784.778 390.74L784.318 390.544C785.459 387.863 793.982 372.413 811.068 357.691C828.168 342.958 853.861 328.939 889.321 329.189C959.518 329.682 1002.61 390.983 1002.61 452.7C1002.61 514.485 950.175 574.46 877.608 574.46C849.741 574.46 826.373 561.139 810.015 546.885C801.833 539.755 795.392 532.382 791.005 526.302C788.812 523.262 787.127 520.54 785.994 518.326C785.428 517.22 784.997 516.233 784.708 515.393C784.423 514.562 784.264 513.838 784.278 513.268L784.778 513.28L785.278 513.292C785.269 513.684 785.382 514.276 785.653 515.067C785.922 515.849 786.333 516.791 786.885 517.87C787.989 520.027 789.645 522.707 791.816 525.717C796.159 531.736 802.549 539.052 810.672 546.13C826.923 560.291 850.066 573.46 877.608 573.46C949.601 573.46 1001.61 513.955 1001.61 452.7Z" fill="#DCD0B4"/>
<path d="M437 452.71C437 381.528 460.972 334.432 495.879 305.142C530.77 275.864 576.521 264.43 620 264.43C689.401 264.43 730.644 293.029 754.526 323.132C766.461 338.175 774.054 353.585 778.663 365.972C783.265 378.339 784.91 387.737 784.91 390.76H783.91C783.91 387.913 782.314 378.646 777.727 366.32C773.147 354.013 765.601 338.699 753.743 323.753C730.04 293.876 689.079 265.43 620 265.43C576.679 265.43 531.181 276.825 496.521 305.907C461.878 334.977 438 381.772 438 452.71C438 483.389 447.197 529.782 476.719 568.49C506.222 607.175 556.061 638.234 637.46 638.229C697.776 638.229 734.421 608.899 755.981 578.603C766.766 563.448 773.775 548.051 778.076 535.962C780.226 529.918 781.699 524.705 782.627 520.767C783.091 518.797 783.419 517.149 783.627 515.877C783.837 514.593 783.921 513.722 783.91 513.292L784.41 513.279L784.91 513.268C784.923 513.8 784.825 514.751 784.614 516.038C784.402 517.337 784.069 519.008 783.601 520.995C782.664 524.97 781.181 530.219 779.019 536.297C774.694 548.452 767.645 563.936 756.796 579.182C735.089 609.685 698.164 639.229 637.46 639.229C555.769 639.234 505.628 608.045 475.924 569.097C446.238 530.173 437 483.551 437 452.71Z" fill="#DCD0B4"/>
<path d="M1131.19 452.7C1131.19 381.762 1107.31 334.968 1072.67 305.898C1038.01 276.816 992.514 265.42 949.192 265.42C880.113 265.42 839.152 293.866 815.449 323.743C803.591 338.69 796.046 354.003 791.466 366.311C786.879 378.637 785.282 387.903 785.282 390.75H784.282C784.282 387.727 785.927 378.329 790.529 365.962C795.139 353.576 802.731 338.166 814.666 323.122C838.548 293.019 879.792 264.42 949.192 264.42C992.671 264.42 1038.42 275.855 1073.31 305.132C1108.22 334.422 1132.19 381.518 1132.19 452.7C1132.19 483.541 1122.95 530.163 1093.27 569.088C1063.56 608.037 1013.42 639.229 931.732 639.229C871.029 639.229 834.104 609.686 812.396 579.183C801.547 563.937 794.499 548.453 790.174 536.298C788.011 530.22 786.528 524.971 785.592 520.996C785.124 519.009 784.791 517.337 784.578 516.038C784.367 514.751 784.269 513.8 784.282 513.268L784.781 513.28L785.282 513.292C785.272 513.722 785.355 514.593 785.565 515.877C785.774 517.149 786.101 518.797 786.565 520.767C787.494 524.705 788.965 529.918 791.115 535.962C795.416 548.051 802.426 563.448 813.211 578.603C834.771 608.899 871.416 638.229 931.732 638.229C1013.13 638.229 1062.97 607.167 1092.47 568.481C1122 529.772 1131.19 483.379 1131.19 452.7Z" fill="#DCD0B4"/>
<path d="M784.91 390.25V513.28H783.91V390.25H784.91Z" fill="#DCD0B4"/>
<path d="M783.41 180C827.02 180 868.01 193.61 898.83 218.32C929.59 242.98 946.52 275.75 946.52 310.59C946.52 345.43 929.58 378.2 898.83 402.86C868.01 427.57 827.02 441.18 783.41 441.18C739.8 441.18 698.81 427.57 667.99 402.86C637.23 378.2 620.3 345.43 620.3 310.59C620.3 275.75 637.24 242.98 667.99 218.32C698.81 193.61 739.8 180 783.41 180ZM783.41 179C692.77 179 619.29 237.91 619.29 310.59C619.29 383.27 692.77 442.18 783.41 442.18C874.05 442.18 947.53 383.27 947.53 310.59C947.53 237.91 874.05 179 783.41 179Z" fill="#DCD0B4"/>
<path d="M347.41 -100.75C380.78 -100.75 407.93 -73.6 407.93 -40.23C407.93 -6.86002 380.78 20.29 347.41 20.29C314.04 20.29 286.89 -6.86002 286.89 -40.23C286.89 -73.6 314.04 -100.75 347.41 -100.75ZM347.41 -101.75C313.44 -101.75 285.89 -74.21 285.89 -40.23C285.89 -6.25 313.43 21.29 347.41 21.29C381.39 21.29 408.93 -6.25 408.93 -40.23C408.93 -74.21 381.39 -101.75 347.41 -101.75Z" fill="#DCD0B4"/>
<path d="M347.41 -161.3C372.43 -161.3 392.79 -141.33 392.79 -116.77C392.79 -92.21 372.43 -72.24 347.41 -72.24C322.39 -72.24 302.03 -92.21 302.03 -116.77C302.03 -141.33 322.39 -161.3 347.41 -161.3ZM347.41 -162.3C321.8 -162.3 301.03 -141.92 301.03 -116.77C301.03 -91.62 321.79 -71.24 347.41 -71.24C373.03 -71.24 393.79 -91.62 393.79 -116.77C393.79 -141.92 373.03 -162.3 347.41 -162.3Z" fill="#DCD0B4"/>
<path d="M347.41 -229.21C394.39 -229.21 432.61 -191.29 432.61 -144.69C432.61 -98.09 394.39 -60.17 347.41 -60.17C300.43 -60.17 262.21 -98.09 262.21 -144.69C262.21 -191.29 300.43 -229.21 347.41 -229.21ZM347.41 -230.21C299.8 -230.21 261.21 -191.92 261.21 -144.69C261.21 -97.46 299.8 -59.17 347.41 -59.17C395.02 -59.17 433.61 -97.46 433.61 -144.69C433.61 -191.92 395.02 -230.21 347.41 -230.21Z" fill="#DCD0B4"/>
<path d="M347.41 -124.92C358.01 -124.92 366.63 -116.3 366.63 -105.7C366.63 -95.1 358.01 -86.48 347.41 -86.48C336.81 -86.48 328.19 -95.1 328.19 -105.7C328.19 -116.3 336.81 -124.92 347.41 -124.92ZM347.41 -125.92C336.24 -125.92 327.19 -116.87 327.19 -105.7C327.19 -94.53 336.24 -85.48 347.41 -85.48C358.58 -85.48 367.63 -94.53 367.63 -105.7C367.63 -116.87 358.58 -125.92 347.41 -125.92Z" fill="#DCD0B4"/>
<path d="M347.41 -7.57001C372.43 -7.57001 392.79 12.4 392.79 36.96C392.79 61.52 372.43 81.49 347.41 81.49C322.39 81.49 302.03 61.52 302.03 36.96C302.03 12.4 322.39 -7.57001 347.41 -7.57001ZM347.41 -8.57001C321.8 -8.57001 301.03 11.81 301.03 36.96C301.03 62.11 321.79 82.49 347.41 82.49C373.03 82.49 393.79 62.11 393.79 36.96C393.79 11.81 373.03 -8.57001 347.41 -8.57001Z" fill="#DCD0B4"/>
<path d="M347.41 -19.65C394.39 -19.65 432.61 18.27 432.61 64.87C432.61 111.47 394.39 149.39 347.41 149.39C300.43 149.39 262.21 111.47 262.21 64.87C262.21 18.27 300.43 -19.65 347.41 -19.65ZM347.41 -20.65C299.8 -20.65 261.21 17.64 261.21 64.87C261.21 112.1 299.8 150.39 347.41 150.39C395.02 150.39 433.61 112.1 433.61 64.87C433.61 17.64 395.02 -20.65 347.41 -20.65Z" fill="#DCD0B4"/>
<path d="M346.41 -28.99C390.02 -28.99 431.01 -15.38 461.83 9.32999C492.59 33.99 509.52 66.76 509.52 101.6C509.52 136.44 492.58 169.21 461.83 193.87C431.01 218.58 390.02 232.19 346.41 232.19C302.8 232.19 261.81 218.58 230.99 193.87C200.23 169.21 183.3 136.44 183.3 101.6C183.3 66.76 200.24 33.99 230.99 9.32999C261.81 -15.38 302.8 -28.99 346.41 -28.99ZM346.41 -29.99C255.77 -29.99 182.29 28.92 182.29 101.6C182.29 174.28 255.77 233.19 346.41 233.19C437.05 233.19 510.53 174.28 510.53 101.6C510.53 28.92 437.05 -29.99 346.41 -29.99Z" fill="#DCD0B4"/>
<path d="M347.41 6.66C358.01 6.66 366.63 15.28 366.63 25.88C366.63 36.48 358.01 45.1 347.41 45.1C336.81 45.1 328.19 36.48 328.19 25.88C328.19 15.28 336.81 6.66 347.41 6.66ZM347.41 5.66C336.24 5.66 327.19 14.71 327.19 25.88C327.19 37.05 336.24 46.1 347.41 46.1C358.58 46.1 367.63 37.05 367.63 25.88C367.63 14.71 358.58 5.66 347.41 5.66Z" fill="#DCD0B4"/>
<path d="M347.408 -101.25L347.513 -100.761C322.515 -95.4126 301.115 -69.765 300.728 -40.1934C300.519 -24.521 306.741 -10.1662 315.765 0.661133C324.795 11.4959 336.591 18.7517 347.478 20.2852L347.408 20.7803L347.338 21.2754C336.145 19.6988 324.141 12.2743 314.996 1.30176C305.845 -9.67847 299.516 -24.2594 299.728 -40.207C300.121 -70.215 321.82 -96.2872 347.303 -101.739L347.408 -101.25Z" fill="#DCD0B4"/>
<path d="M347.722 -101.739C373.204 -96.2874 394.904 -70.2151 395.297 -40.207C395.509 -24.2594 389.18 -9.67847 380.028 1.30176C370.883 12.2742 358.879 19.6989 347.687 21.2754L347.548 20.2852C358.435 18.7516 370.231 11.4958 379.261 0.661133C388.284 -10.1661 394.505 -24.521 394.297 -40.1934C393.91 -69.765 372.51 -95.4126 347.513 -100.761L347.722 -101.739Z" fill="#DCD0B4"/>
<path d="M347.613 -100.793C330.881 -93.3607 313.288 -69.8104 313 -40.1953C312.692 -8.77618 331.634 13.3424 347.61 20.3223L347.21 21.2383C330.867 14.0981 311.688 -8.38419 312 -40.2051C312.292 -70.1698 330.08 -94.0993 347.207 -101.707L347.613 -100.793Z" fill="#DCD0B4"/>
<path d="M347.824 -101.707C364.952 -94.0993 382.739 -70.1698 383.031 -40.2051C383.343 -8.38419 364.165 14.0981 347.821 21.2383L347.421 20.3223C363.397 13.3424 382.339 -8.77618 382.031 -40.1953C381.743 -69.8104 364.15 -93.3607 347.418 -100.793L347.824 -101.707Z" fill="#DCD0B4"/>
<path d="M347.765 -100.896C335.113 -88.304 322.771 -69.8532 322.482 -40.2256C322.328 -24.4907 325.489 -12.8245 330.258 -3.35352C335.031 6.12631 341.423 13.4305 347.782 20.4443L347.042 21.1162C340.681 14.1002 334.204 6.70825 329.364 -2.9043C324.52 -12.5258 321.327 -24.3504 321.482 -40.2354C321.774 -70.1871 334.271 -88.8761 347.06 -101.604L347.765 -100.896Z" fill="#DCD0B4"/>
<path d="M347.974 -101.604C360.762 -88.8761 373.259 -70.1871 373.551 -40.2354C373.707 -24.3504 370.513 -12.5258 365.669 -2.9043C360.829 6.70825 354.352 14.1002 347.991 21.1162L347.251 20.4443C353.61 13.4305 360.003 6.12631 364.775 -3.35352C369.544 -12.8245 372.705 -24.4907 372.551 -40.2256C372.262 -69.8532 359.92 -88.304 347.269 -100.896L347.974 -101.604Z" fill="#DCD0B4"/>
<path d="M347.41 -101.25L347.83 -100.978C339.65 -88.3936 331.65 -69.9161 331.461 -40.2266C331.361 -24.4637 333.41 -12.7725 336.5 -3.2832C339.591 6.20825 343.729 13.5169 347.842 20.5273L346.979 21.0332C342.862 14.0138 338.675 6.62708 335.549 -2.97363C332.422 -12.5768 330.361 -24.3764 330.461 -40.2334C330.652 -70.1237 338.712 -88.7864 346.991 -101.522L347.41 -101.25Z" fill="#DCD0B4"/>
<path d="M348.04 -101.522C356.319 -88.7864 364.381 -70.1237 364.571 -40.2334C364.672 -24.3764 362.61 -12.5768 359.482 -2.97363C356.356 6.62701 352.17 14.0138 348.053 21.0332L347.189 20.5273C351.302 13.5169 355.441 6.20834 358.532 -3.2832C361.622 -12.7725 363.671 -24.4637 363.571 -40.2266C363.382 -69.916 355.383 -88.3936 347.202 -100.978L348.04 -101.522Z" fill="#DCD0B4"/>
<path d="M347.889 -101.096C343.796 -88.4888 339.783 -69.9706 339.693 -40.2285C339.594 -8.66943 343.792 6.64166 347.893 20.6396L346.934 20.9209C342.814 6.85889 338.593 -8.55063 338.693 -40.2314C338.784 -70.0692 342.81 -88.6912 346.938 -101.404L347.889 -101.096Z" fill="#DCD0B4"/>
<path d="M348.097 -101.404C352.224 -88.6912 356.251 -70.0693 356.341 -40.2314C356.441 -8.55063 352.22 6.85889 348.101 20.9209L347.142 20.6396C351.242 6.64166 355.441 -8.66943 355.341 -40.2285C355.251 -69.9706 351.238 -88.4888 347.146 -101.096L348.097 -101.404Z" fill="#DCD0B4"/>
<path d="M294.701 -93.1562C311.088 -103.532 331.542 -106.539 347.555 -101.729L347.268 -100.771C331.56 -105.49 311.404 -102.548 295.236 -92.3115C279.088 -82.0871 266.943 -64.602 267.191 -40.2344C267.455 -14.1848 280.238 3.51682 296.568 13.4912C312.923 23.4806 332.817 25.7082 347.25 20.8066L347.572 21.7539C332.826 26.7621 312.624 24.4701 296.047 14.3447C279.445 4.20419 266.458 -13.8045 266.191 -40.2246C265.939 -64.977 278.294 -82.7682 294.701 -93.1562Z" fill="#DCD0B4"/>
<path d="M347.638 -101.729C363.65 -106.539 384.104 -103.532 400.491 -93.1562C416.898 -82.7682 429.253 -64.977 429.001 -40.2246C428.734 -13.8045 415.748 4.20419 399.146 14.3447C382.568 24.47 362.367 26.7621 347.62 21.7539L347.942 20.8066C362.376 25.7083 382.269 23.4806 398.624 13.4912C414.954 3.51682 427.738 -14.1848 428.001 -40.2344C428.249 -64.602 416.104 -82.0871 399.956 -92.3115C383.788 -102.548 363.632 -105.49 347.925 -100.771L347.638 -101.729Z" fill="#DCD0B4"/>
<path d="M239.85 -41.3828C240.198 -90.3349 294.183 -130.206 347.646 -101.691L347.176 -100.809C294 -129.17 240.354 -88.9974 240.851 -40.2354C241.114 -14.1883 255.853 8.79242 276.457 21.4072C297.052 34.0159 323.475 36.2522 347.139 20.8604L347.411 21.2803L347.684 21.6992C323.657 37.3272 296.815 35.0435 275.935 22.2598C255.064 9.48209 240.119 -13.8021 239.852 -40.2246L239.85 -41.3828Z" fill="#DCD0B4"/>
<path d="M347.546 -101.691C401.43 -130.43 455.844 -89.7025 455.341 -40.2246C455.074 -13.8019 440.127 9.48215 419.257 22.2598C398.376 35.0434 371.535 37.3271 347.509 21.6992L347.781 21.2803L348.054 20.8604C371.717 36.2522 398.141 34.0159 418.735 21.4072C439.34 8.79242 454.078 -14.1883 454.341 -40.2354C454.837 -88.9974 401.192 -129.17 348.017 -100.809L347.546 -101.691Z" fill="#DCD0B4"/>
<path d="M204.969 -40.2402C204.969 -59.2519 211.463 -81.1942 224.4 -98.3936C237.347 -115.605 256.762 -128.08 282.568 -128.08C295.031 -128.08 305.561 -126.711 315.867 -122.709C326.172 -118.708 336.221 -112.086 347.745 -101.63L347.073 -100.89C335.607 -111.293 325.66 -117.833 315.505 -121.776C305.352 -125.719 294.955 -127.08 282.568 -127.08C257.126 -127.08 237.99 -114.795 225.199 -97.792C212.4 -80.7764 205.969 -59.0484 205.969 -40.2402C205.969 2.83847 234.512 45.6869 280.759 46.5898C294.755 46.8646 304.861 46.2323 314.691 42.6553C324.523 39.0777 334.127 32.5373 347.074 20.9082L347.409 21.2803L347.743 21.6523C334.761 33.313 325.044 39.9523 315.033 43.5947C305.022 47.2376 294.762 47.8651 280.739 47.5898C233.766 46.6728 204.969 3.18106 204.969 -40.2402Z" fill="#DCD0B4"/>
<path d="M489.218 -40.2402C489.218 -59.0485 482.786 -80.7764 469.986 -97.792C457.196 -114.795 438.06 -127.08 412.617 -127.08C400.23 -127.08 389.834 -125.719 379.681 -121.776C369.525 -117.833 359.579 -111.293 348.113 -100.89L347.441 -101.63C358.965 -112.086 369.015 -118.708 379.319 -122.709C389.626 -126.711 400.155 -128.08 412.617 -128.08C438.424 -128.08 457.839 -115.605 470.786 -98.3936C483.724 -81.1942 490.218 -59.2519 490.218 -40.2402C490.218 3.181 461.42 46.6727 414.447 47.5898C400.424 47.8651 390.164 47.2377 380.152 43.5947C370.142 39.9523 360.426 33.3128 347.443 21.6523L348.111 20.9082C361.059 32.5373 370.662 39.0777 380.494 42.6553C390.325 46.2323 400.431 46.8646 414.428 46.5898C460.674 45.6869 489.218 2.83844 489.218 -40.2402Z" fill="#DCD0B4"/>
<path d="M129.578 -39.2998C129.578 -101.017 172.668 -162.318 242.864 -162.811C278.325 -163.062 304.018 -149.042 321.118 -134.309C338.204 -119.586 346.728 -104.137 347.868 -101.456L347.408 -101.26L346.948 -101.064C345.868 -103.604 337.436 -118.929 320.466 -133.552C303.508 -148.163 278.041 -162.059 242.872 -161.811C173.368 -161.323 130.578 -100.623 130.578 -39.2998C130.578 21.9553 182.586 81.46 254.578 81.46C282.121 81.46 305.263 68.2906 321.515 54.1299C329.638 47.0517 336.027 39.736 340.37 33.7168C342.542 30.7067 344.198 28.0275 345.302 25.8701C345.854 24.7912 346.265 23.8493 346.533 23.0674C346.805 22.276 346.918 21.6844 346.908 21.292L347.409 21.2803L347.908 21.2676C347.922 21.8375 347.764 22.5622 347.479 23.3926C347.19 24.2326 346.758 25.2196 346.191 26.3262C345.059 28.5399 343.374 31.2625 341.181 34.3018C336.794 40.3819 330.354 47.7555 322.172 54.8848C305.813 69.139 282.446 82.46 254.578 82.46C182.011 82.46 129.578 22.4849 129.578 -39.2998Z" fill="#DCD0B4"/>
<path d="M564.608 -39.2998C564.608 -100.623 521.818 -161.323 452.314 -161.811C417.145 -162.059 391.678 -148.163 374.721 -133.552C357.75 -118.929 349.318 -103.604 348.238 -101.064L347.778 -101.26L347.318 -101.456C348.459 -104.137 356.982 -119.587 374.068 -134.309C391.168 -149.042 416.861 -163.061 452.321 -162.811C522.518 -162.318 565.608 -101.017 565.608 -39.2998C565.608 22.4848 513.175 82.4598 440.608 82.46C412.741 82.46 389.373 69.139 373.015 54.8848C364.833 47.7555 358.392 40.3819 354.005 34.3018C351.812 31.2625 350.127 28.5398 348.994 26.3262C348.428 25.2196 347.997 24.2326 347.708 23.3926C347.423 22.5622 347.264 21.8375 347.278 21.2676L347.778 21.2803L348.278 21.292C348.269 21.6844 348.382 22.276 348.653 23.0674C348.922 23.8494 349.333 24.7911 349.885 25.8701C350.989 28.0275 352.645 30.7067 354.816 33.7168C359.159 39.736 365.549 47.0517 373.672 54.1299C389.923 68.2906 413.066 81.46 440.608 81.46C512.601 81.4598 564.608 21.9552 564.608 -39.2998Z" fill="#DCD0B4"/>
<path d="M0 -39.29C0 -110.472 23.9723 -157.568 58.8789 -186.858C93.7698 -216.136 139.521 -227.57 183 -227.57C252.401 -227.57 293.644 -198.971 317.526 -168.868C329.461 -153.825 337.054 -138.415 341.663 -126.028C346.265 -113.661 347.91 -104.263 347.91 -101.24H346.91C346.91 -104.087 345.314 -113.354 340.727 -125.68C336.147 -137.987 328.601 -153.301 316.743 -168.247C293.04 -198.124 252.079 -226.57 183 -226.57C139.679 -226.57 94.1805 -215.175 59.5215 -186.093C24.8781 -157.023 1 -110.228 1 -39.29C1.00005 -8.61099 10.197 37.7815 39.7188 76.4902C69.2221 115.175 119.061 146.234 200.46 146.229C260.776 146.229 297.421 116.899 318.981 86.6025C329.766 71.4481 336.775 56.0505 341.076 43.9619C343.226 37.9184 344.699 32.705 345.627 28.7666C346.091 26.7973 346.419 25.1488 346.627 23.877C346.837 22.5933 346.921 21.7223 346.91 21.292L347.41 21.2793L347.91 21.2676C347.923 21.7998 347.825 22.7513 347.614 24.0381C347.402 25.3369 347.069 27.0081 346.601 28.9951C345.664 32.9698 344.181 38.2189 342.019 44.2969C337.694 56.452 330.645 71.9361 319.796 87.1816C298.089 117.685 261.164 147.229 200.46 147.229C118.769 147.234 68.628 116.045 38.9238 77.0967C9.23824 38.1731 5.48463e-05 -8.4491 0 -39.29Z" fill="#DCD0B4"/>
<path d="M694.192 -39.2998C694.192 -110.238 670.314 -157.032 635.671 -186.102C601.012 -215.184 555.514 -226.58 512.192 -226.58C443.113 -226.58 402.152 -198.134 378.449 -168.257C366.591 -153.31 359.046 -137.997 354.466 -125.689C349.879 -113.363 348.282 -104.097 348.282 -101.25H347.282C347.282 -104.273 348.927 -113.671 353.529 -126.038C358.139 -138.424 365.731 -153.834 377.666 -168.878C401.548 -198.981 442.792 -227.58 512.192 -227.58C555.671 -227.58 601.423 -216.145 636.313 -186.868C671.22 -157.578 695.192 -110.482 695.192 -39.2998C695.192 -8.45889 685.954 38.1631 656.269 77.0879C626.564 116.037 576.423 147.229 494.732 147.229C434.029 147.229 397.104 117.686 375.396 87.1826C364.547 71.9372 357.499 56.4529 353.174 44.2979C351.011 38.2199 349.528 32.9708 348.592 28.9961C348.124 27.0089 347.791 25.337 347.578 24.0381C347.367 22.7512 347.269 21.7997 347.282 21.2676L347.781 21.2803L348.282 21.292C348.272 21.7223 348.355 22.5933 348.565 23.877C348.774 25.1488 349.101 26.7972 349.565 28.7666C350.494 32.705 351.965 37.9185 354.115 43.9619C358.416 56.0505 365.426 71.4481 376.211 86.6025C397.771 116.899 434.416 146.229 494.732 146.229C576.131 146.229 625.97 115.167 655.474 76.4814C684.995 37.7715 694.192 -8.62082 694.192 -39.2998Z" fill="#DCD0B4"/>
<path d="M347.91 -101.75V21.2803H346.91V-101.75H347.91Z" fill="#DCD0B4"/>
<path d="M346.41 -312C390.02 -312 431.01 -298.39 461.83 -273.68C492.59 -249.02 509.52 -216.25 509.52 -181.41C509.52 -146.57 492.58 -113.8 461.83 -89.14C431.01 -64.43 390.02 -50.82 346.41 -50.82C302.8 -50.82 261.81 -64.43 230.99 -89.14C200.23 -113.8 183.3 -146.57 183.3 -181.41C183.3 -216.25 200.24 -249.02 230.99 -273.68C261.81 -298.39 302.8 -312 346.41 -312ZM346.41 -313C255.77 -313 182.29 -254.09 182.29 -181.41C182.29 -108.73 255.77 -49.82 346.41 -49.82C437.05 -49.82 510.53 -108.73 510.53 -181.41C510.53 -254.09 437.05 -313 346.41 -313Z" fill="#DCD0B4"/>
<path d="M625.824 258.334L629.347 267.2C629.381 267.287 629.478 267.327 629.563 267.291L638.323 263.514C638.536 263.422 638.751 263.638 638.659 263.85L634.882 272.61C634.846 272.695 634.886 272.793 634.973 272.827L643.839 276.35C644.054 276.435 644.054 276.741 643.839 276.826L634.973 280.349C634.886 280.383 634.846 280.481 634.882 280.566L638.659 289.325C638.751 289.538 638.536 289.754 638.323 289.662L629.563 285.885C629.478 285.849 629.38 285.889 629.347 285.975L625.824 294.841C625.738 295.057 625.432 295.057 625.347 294.841L621.824 285.975C621.79 285.889 621.693 285.849 621.608 285.885L612.848 289.662C612.635 289.754 612.42 289.538 612.511 289.325L616.289 280.566C616.324 280.481 616.285 280.382 616.198 280.349L607.334 276.825C607.118 276.739 607.118 276.433 607.334 276.348L616.199 272.825C616.286 272.791 616.326 272.694 616.29 272.608L612.513 263.849C612.421 263.636 612.637 263.421 612.849 263.512L621.609 267.29C621.694 267.325 621.792 267.286 621.826 267.199L625.347 258.334C625.432 258.119 625.738 258.119 625.824 258.334Z" fill="#B62518"/>
<path d="M625.747 264.198L628.139 270.216C628.162 270.274 628.228 270.302 628.286 270.277L634.232 267.713C634.376 267.651 634.523 267.797 634.46 267.942L631.896 273.888C631.872 273.945 631.899 274.012 631.958 274.035L637.976 276.426C638.123 276.484 638.123 276.692 637.976 276.75L631.958 279.141C631.899 279.164 631.872 279.23 631.896 279.288L634.46 285.234C634.523 285.378 634.376 285.525 634.232 285.462L628.286 282.899C628.228 282.874 628.161 282.901 628.139 282.96L625.747 288.978C625.689 289.124 625.482 289.124 625.424 288.978L623.032 282.96C623.009 282.901 622.943 282.874 622.885 282.899L616.939 285.462C616.795 285.525 616.648 285.378 616.711 285.234L619.275 279.288C619.299 279.23 619.272 279.163 619.213 279.141L613.196 276.749C613.049 276.691 613.049 276.483 613.196 276.425L619.214 274.034C619.273 274.01 619.3 273.945 619.275 273.887L616.711 267.941C616.649 267.796 616.795 267.65 616.94 267.712L622.886 270.276C622.944 270.301 623.011 270.274 623.033 270.215L625.424 264.198C625.482 264.051 625.689 264.051 625.747 264.198Z" fill="#F8F3E7"/>
<path d="M409.545 3.03072L410.215 4.7158C410.221 4.73224 410.24 4.73982 410.256 4.733L411.921 4.01512C411.961 3.99767 412.002 4.03863 411.985 4.07909L411.267 5.74394C411.26 5.76012 411.268 5.77884 411.284 5.78516L412.969 6.45474C413.01 6.47092 413.01 6.52908 412.969 6.54526L411.284 7.21484C411.268 7.22142 411.26 7.23988 411.267 7.25606L411.985 8.92091C412.002 8.96137 411.961 9.00233 411.921 8.98488L410.256 8.267C410.24 8.26018 410.221 8.26776 410.215 8.2842L409.545 9.96928C409.529 10.0102 409.471 10.0102 409.455 9.96928L408.785 8.2842C408.778 8.26776 408.76 8.26018 408.744 8.267L407.079 8.98488C407.038 9.00233 406.997 8.96137 407.015 8.92091L407.733 7.25606C407.74 7.23988 407.732 7.22116 407.716 7.21484L406.031 6.54501C405.99 6.52883 405.99 6.47067 406.031 6.45448L407.716 5.7849C407.732 5.77833 407.74 5.75987 407.733 5.74369L407.015 4.07884C406.998 4.03838 407.039 3.99742 407.079 4.01486L408.744 4.73274C408.76 4.73957 408.779 4.73198 408.785 4.71555L409.455 3.03072C409.471 2.98976 409.529 2.98976 409.545 3.03072Z" fill="#1C4AC7"/>
<path d="M774.498 319.975L778.077 372.971L821.412 342.75L782.546 378.616L832.996 393.932L780.95 385.656L800.53 434.975L774.498 388.791L748.462 434.975L768.043 385.656L715.996 393.932L766.45 378.616L727.583 342.75L770.915 372.971L774.498 319.975Z" fill="#FFC72D"/>
<path d="M774.332 58.2551L785.208 99.2323C785.266 99.4487 785.517 99.5531 785.71 99.441L822.378 78.1543C822.683 77.9765 823.023 78.3205 822.846 78.6219L801.559 115.29C801.447 115.487 801.547 115.734 801.768 115.792L842.745 126.668C843.085 126.757 843.085 127.24 842.745 127.329L801.768 138.204C801.551 138.262 801.447 138.513 801.559 138.706L822.846 175.374C823.023 175.68 822.68 176.02 822.378 175.842L785.71 154.555C785.513 154.443 785.266 154.544 785.208 154.764L774.332 195.741C774.243 196.081 773.76 196.081 773.672 195.741L762.796 154.764C762.738 154.547 762.487 154.443 762.294 154.555L725.626 175.842C725.32 176.02 724.98 175.676 725.158 175.374L746.445 138.706C746.557 138.509 746.456 138.262 746.236 138.204L705.255 127.332C704.915 127.243 704.915 126.76 705.255 126.672L746.232 115.796C746.449 115.738 746.553 115.487 746.441 115.294L725.154 78.6219C724.977 78.3166 725.32 77.9765 725.622 78.1543L762.29 99.441C762.487 99.5531 762.734 99.4526 762.792 99.2323L773.668 58.2551C773.757 57.915 774.24 57.915 774.329 58.2551H774.332Z" fill="#FFC72D"/>
<path d="M774 60.9333L784.234 99.4912C784.392 100.083 784.925 100.496 785.54 100.496C785.776 100.496 786.011 100.434 786.216 100.314L820.716 80.2876L800.689 114.788C800.477 115.155 800.446 115.588 800.608 115.982C800.771 116.372 801.099 116.662 801.509 116.77L840.067 127.004L801.509 137.238C801.099 137.346 800.771 137.632 800.608 138.026C800.446 138.42 800.477 138.853 800.689 139.22L820.716 173.72L786.216 153.693C786.011 153.574 785.776 153.512 785.54 153.512C784.929 153.512 784.392 153.925 784.234 154.517L774 193.074L763.766 154.517C763.608 153.925 763.075 153.512 762.46 153.512C762.224 153.512 761.989 153.574 761.784 153.693L727.284 173.72L747.311 139.22C747.523 138.853 747.554 138.416 747.392 138.026C747.229 137.636 746.901 137.346 746.491 137.238L707.933 127L746.491 116.766C746.901 116.658 747.229 116.372 747.392 115.978C747.554 115.588 747.523 115.151 747.311 114.784L727.284 80.2837L761.784 100.311C761.989 100.43 762.224 100.492 762.46 100.492C763.071 100.492 763.608 100.079 763.766 99.4873L774 60.9333ZM774 58C773.857 58 773.714 58.085 773.668 58.2551L762.792 99.2323C762.75 99.3907 762.611 99.4873 762.46 99.4873C762.402 99.4873 762.344 99.4719 762.29 99.441L725.622 78.1543C725.564 78.1195 725.506 78.1041 725.448 78.1041C725.208 78.1041 725.011 78.3746 725.154 78.6219L746.441 115.29C746.553 115.487 746.453 115.734 746.232 115.792L705.255 126.668C704.915 126.757 704.915 127.24 705.255 127.329L746.232 138.204C746.449 138.262 746.553 138.513 746.441 138.706L725.154 175.374C725.011 175.622 725.208 175.892 725.448 175.892C725.506 175.892 725.564 175.877 725.622 175.842L762.29 154.555C762.344 154.524 762.402 154.509 762.46 154.509C762.607 154.509 762.75 154.605 762.792 154.764L773.668 195.741C773.714 195.911 773.857 195.996 774 195.996C774.143 195.996 774.286 195.911 774.332 195.741L785.208 154.764C785.25 154.605 785.389 154.509 785.54 154.509C785.598 154.509 785.656 154.524 785.71 154.555L822.378 175.842C822.436 175.877 822.494 175.892 822.552 175.892C822.792 175.892 822.989 175.622 822.846 175.374L801.559 138.706C801.447 138.509 801.547 138.262 801.768 138.204L842.745 127.329C843.085 127.24 843.085 126.757 842.745 126.668L801.768 115.792C801.551 115.734 801.447 115.483 801.559 115.29L822.846 78.6219C822.989 78.3746 822.792 78.1041 822.552 78.1041C822.494 78.1041 822.436 78.1195 822.378 78.1543L785.71 99.441C785.656 99.4719 785.598 99.4873 785.54 99.4873C785.393 99.4873 785.25 99.3907 785.208 99.2323L774.332 58.2551C774.286 58.085 774.143 58 774 58Z" fill="#E93F30"/>
<path d="M813.9 87.8894L791.454 126.842C791.377 126.973 791.377 127.135 791.454 127.267L813.73 166.354C813.947 166.733 813.525 167.15 813.147 166.934L774.175 144.457C774.044 144.379 773.881 144.379 773.75 144.457L734.682 166.702C734.303 166.918 733.886 166.497 734.102 166.118L756.548 127.166C756.626 127.035 756.626 126.872 756.548 126.741L734.272 87.6537C734.056 87.2749 734.477 86.8576 734.856 87.074L773.827 109.551C773.959 109.628 774.121 109.628 774.252 109.551L813.321 87.3059C813.699 87.0894 814.117 87.5107 813.9 87.8894Z" fill="#FFC72D"/>
<path d="M736.206 89.0139L773.322 110.42C773.538 110.544 773.786 110.614 774.037 110.614C774.288 110.614 774.532 110.548 774.744 110.424L811.953 89.238L790.574 126.339C790.323 126.78 790.319 127.324 790.574 127.765L811.787 164.99L774.671 143.583C774.454 143.459 774.207 143.39 773.956 143.39C773.705 143.39 773.461 143.456 773.249 143.579L736.039 164.765L757.419 127.665C757.67 127.224 757.674 126.679 757.419 126.238L736.206 89.0139ZM734.64 87.012C734.343 87.012 734.095 87.3443 734.273 87.6496L756.549 126.737C756.623 126.868 756.623 127.031 756.549 127.162L734.103 166.114C733.925 166.42 734.169 166.756 734.47 166.756C734.54 166.756 734.613 166.736 734.683 166.698L773.751 144.453C773.817 144.414 773.89 144.399 773.964 144.399C774.037 144.399 774.11 144.418 774.176 144.457L813.148 166.934C813.217 166.976 813.291 166.992 813.36 166.992C813.658 166.992 813.905 166.659 813.727 166.354L791.451 127.266C791.378 127.135 791.378 126.973 791.451 126.841L813.897 87.8892C814.075 87.5839 813.832 87.2477 813.53 87.2477C813.461 87.2477 813.387 87.267 813.318 87.3057L774.25 109.551C774.184 109.589 774.11 109.605 774.037 109.605C773.964 109.605 773.89 109.586 773.824 109.547L734.853 87.0699C734.783 87.0274 734.71 87.012 734.64 87.012Z" fill="#E93F30"/>
<path d="M746.988 99.8504L773.26 115.004C773.492 115.139 773.759 115.209 774.029 115.209C774.3 115.209 774.559 115.139 774.791 115.008L801.132 100.009L785.998 126.273C785.728 126.745 785.724 127.332 785.998 127.804L801.016 154.153L774.744 139C774.512 138.864 774.246 138.795 773.975 138.795C773.705 138.795 773.446 138.864 773.214 138.996L746.872 153.995L762.006 127.73C762.277 127.259 762.281 126.671 762.006 126.2L746.988 99.8504ZM745.705 98.0263C745.33 98.0263 745.029 98.4437 745.245 98.8224L761.129 126.694C761.222 126.857 761.222 127.058 761.129 127.224L745.121 155.003C744.901 155.386 745.206 155.803 745.581 155.803C745.666 155.803 745.759 155.78 745.848 155.73L773.708 139.865C773.79 139.819 773.882 139.796 773.971 139.796C774.064 139.796 774.153 139.819 774.238 139.865L802.029 155.892C802.118 155.942 802.21 155.966 802.296 155.966C802.67 155.966 802.972 155.548 802.755 155.169L786.872 127.297C786.779 127.135 786.779 126.934 786.872 126.768L802.879 98.9886C803.099 98.606 802.794 98.1886 802.419 98.1886C802.334 98.1886 802.241 98.2118 802.153 98.262L774.292 114.127C774.211 114.173 774.118 114.196 774.029 114.196C773.94 114.196 773.848 114.173 773.763 114.127L745.972 98.0997C745.883 98.0495 745.79 98.0263 745.705 98.0263Z" fill="#E93F30"/>
<path d="M756.201 109.11L773.256 118.946C773.488 119.081 773.755 119.151 774.022 119.151C774.288 119.151 774.551 119.081 774.779 118.95L791.88 109.215L782.056 126.266C781.786 126.733 781.786 127.321 782.056 127.788L791.807 144.893L774.752 135.058C774.52 134.922 774.253 134.853 773.987 134.853C773.72 134.853 773.457 134.922 773.229 135.054L756.128 144.789L765.952 127.738C766.223 127.27 766.223 126.683 765.952 126.215L756.201 109.11ZM754.899 107.274C754.532 107.274 754.23 107.684 754.443 108.063L765.071 126.71C765.164 126.872 765.164 127.069 765.071 127.232L754.362 145.817C754.145 146.196 754.447 146.609 754.814 146.609C754.899 146.609 754.988 146.586 755.077 146.536L773.716 135.923C773.797 135.877 773.886 135.854 773.975 135.854C774.064 135.854 774.157 135.877 774.238 135.923L792.831 146.648C792.92 146.698 793.009 146.721 793.094 146.721C793.461 146.721 793.762 146.312 793.55 145.933L782.922 127.286C782.829 127.123 782.829 126.926 782.922 126.764L793.631 108.179C793.847 107.8 793.546 107.387 793.179 107.387C793.094 107.387 793.005 107.41 792.916 107.46L774.277 118.072C774.195 118.119 774.107 118.142 774.018 118.142C773.929 118.142 773.836 118.119 773.755 118.072L755.162 107.348C755.073 107.298 754.984 107.274 754.899 107.274Z" fill="#E93F30"/>
<path d="M774.413 71.1285L786.197 114.513C786.235 114.66 786.351 114.772 786.498 114.815L829.918 126.59C830.339 126.703 830.339 127.298 829.918 127.414L786.498 139.189C786.351 139.228 786.239 139.344 786.197 139.491L774.413 182.876C774.301 183.293 773.706 183.293 773.59 182.876L761.807 139.491C761.768 139.344 761.652 139.232 761.505 139.189L718.085 127.414C717.664 127.302 717.664 126.706 718.085 126.59L761.505 114.815C761.652 114.776 761.764 114.66 761.807 114.513L773.59 71.1285C773.702 70.7111 774.297 70.7111 774.413 71.1285Z" fill="#FFC72D"/>
<path d="M774 73.4589L785.223 114.78C785.354 115.271 785.741 115.653 786.231 115.789L827.583 127.004L786.231 138.219C785.741 138.351 785.358 138.737 785.223 139.228L774 180.549L762.777 139.228C762.645 138.741 762.259 138.355 761.768 138.219L720.416 127.004L761.768 115.789C762.259 115.657 762.641 115.271 762.777 114.78L774 73.4589ZM774 70.8154C773.822 70.8154 773.644 70.9198 773.59 71.1285L761.807 114.513C761.768 114.66 761.652 114.772 761.505 114.815L718.085 126.59C717.664 126.703 717.664 127.298 718.085 127.414L761.505 139.189C761.652 139.228 761.764 139.344 761.807 139.491L773.59 182.876C773.648 183.084 773.826 183.189 774 183.189C774.174 183.189 774.355 183.084 774.409 182.876L786.193 139.491C786.231 139.344 786.347 139.232 786.494 139.189L829.914 127.414C830.335 127.302 830.335 126.706 829.914 126.59L786.494 114.815C786.347 114.776 786.235 114.66 786.193 114.513L774.409 71.1285C774.351 70.9198 774.174 70.8154 774 70.8154Z" fill="#E93F30"/>
<path d="M774 88.7322L781.945 117.984C782.088 118.51 782.502 118.923 783.028 119.066L812.299 127.004L783.028 134.942C782.502 135.085 782.088 135.499 781.945 136.024L774 165.276L766.054 136.024C765.911 135.499 765.497 135.085 764.972 134.942L735.701 127.004L764.972 119.066C765.497 118.923 765.911 118.51 766.054 117.984L774 88.7322ZM774 86.3863C773.779 86.3863 773.559 86.5177 773.486 86.7767L765.08 117.717C765.03 117.899 764.887 118.042 764.705 118.092L733.741 126.49C733.22 126.633 733.22 127.375 733.741 127.514L764.705 135.912C764.887 135.962 765.03 136.105 765.08 136.287L773.486 167.228C773.555 167.491 773.779 167.618 774 167.618C774.22 167.618 774.44 167.487 774.514 167.228L782.919 136.287C782.97 136.105 783.113 135.962 783.294 135.912L814.258 127.514C814.78 127.371 814.78 126.629 814.258 126.49L783.294 118.092C783.113 118.042 782.97 117.899 782.919 117.717L774.514 86.7767C774.444 86.5139 774.22 86.3863 774 86.3863Z" fill="#E93F30"/>
<path d="M774 101.779L779.159 120.77C779.302 121.292 779.716 121.706 780.237 121.849L799.24 127L780.237 132.152C779.716 132.295 779.302 132.708 779.159 133.23L774 152.221L768.84 133.23C768.697 132.708 768.284 132.295 767.762 132.152L748.759 127L767.762 121.849C768.284 121.706 768.697 121.292 768.84 120.77L774 101.779ZM774 99.4181C773.779 99.4181 773.563 99.5457 773.493 99.8046L767.87 120.504C767.82 120.685 767.681 120.825 767.499 120.875L746.785 126.494C746.267 126.633 746.267 127.367 746.785 127.507L767.499 133.126C767.681 133.176 767.82 133.315 767.87 133.497L773.493 154.196C773.563 154.455 773.783 154.583 774 154.583C774.216 154.583 774.436 154.455 774.506 154.196L780.129 133.497C780.179 133.315 780.318 133.176 780.5 133.126L801.215 127.507C801.733 127.367 801.733 126.633 801.215 126.494L780.5 120.875C780.318 120.825 780.179 120.685 780.129 120.504L774.506 99.8046C774.436 99.5457 774.216 99.4181 774 99.4181Z" fill="#E93F30"/>
<path d="M774 143.703C783.225 143.703 790.703 136.225 790.703 127C790.703 117.775 783.225 110.297 774 110.297C764.775 110.297 757.297 117.775 757.297 127C757.297 136.225 764.775 143.703 774 143.703Z" fill="#FFC72D"/>
<path d="M774 111.306C782.653 111.306 789.694 118.347 789.694 127C789.694 135.653 782.653 142.694 774 142.694C765.347 142.694 758.306 135.653 758.306 127C758.306 118.347 765.347 111.306 774 111.306ZM774 110.297C764.775 110.297 757.297 117.775 757.297 127C757.297 136.225 764.775 143.703 774 143.703C783.225 143.703 790.703 136.225 790.703 127C790.703 117.775 783.225 110.297 774 110.297Z" fill="#E93F30"/>
<path d="M774 117.346C779.326 117.346 783.654 121.678 783.654 127C783.654 132.321 779.322 136.654 774 136.654C768.679 136.654 764.346 132.321 764.346 127C764.346 121.678 768.679 117.346 774 117.346ZM774 116.337C768.11 116.337 763.338 121.11 763.338 127C763.338 132.89 768.11 137.662 774 137.662C779.89 137.662 784.663 132.89 784.663 127C784.663 121.11 779.89 116.337 774 116.337Z" fill="#E93F30"/>
<path d="M774 130.103C775.714 130.103 777.104 128.714 777.104 127C777.104 125.286 775.714 123.897 774 123.897C772.287 123.897 770.897 125.286 770.897 127C770.897 128.714 772.287 130.103 774 130.103Z" fill="#E93F30"/>
<path d="M774 44.6541L786.755 92.7132C786.952 93.4502 787.617 93.9656 788.383 93.9656C788.677 93.9656 788.971 93.8885 789.226 93.7392L832.226 68.7776L807.265 111.779C807 112.236 806.962 112.776 807.164 113.267C807.366 113.754 807.776 114.115 808.286 114.25L856.344 127.005L808.286 139.761C807.776 139.896 807.366 140.252 807.164 140.743C806.962 141.235 807 141.774 807.265 142.232L832.226 185.233L789.226 160.271C788.971 160.122 788.677 160.045 788.383 160.045C787.622 160.045 786.952 160.56 786.755 161.297L774 209.356L761.245 161.297C761.047 160.56 760.383 160.045 759.617 160.045C759.323 160.045 759.029 160.122 758.774 160.271L715.774 185.233L740.735 142.232C741 141.774 741.038 141.23 740.836 140.743C740.634 140.257 740.224 139.896 739.714 139.761L691.656 127L739.714 114.245C740.224 114.11 740.634 113.754 740.836 113.262C741.038 112.776 741 112.232 740.735 111.774L715.774 68.7728L758.774 93.7344C759.029 93.8837 759.323 93.9608 759.617 93.9608C760.378 93.9608 761.047 93.4454 761.245 92.7084L774 44.6541ZM774 40.998C773.822 40.998 773.644 41.104 773.586 41.316L760.031 92.3904C759.978 92.5879 759.805 92.7084 759.617 92.7084C759.545 92.7084 759.472 92.6891 759.405 92.6506L713.703 66.1186C713.63 66.0753 713.558 66.056 713.486 66.056C713.187 66.056 712.942 66.3932 713.12 66.7015L739.651 112.405C739.791 112.651 739.666 112.959 739.391 113.031L688.318 126.586C687.894 126.697 687.894 127.299 688.318 127.41L739.391 140.965C739.661 141.037 739.791 141.35 739.651 141.591L713.12 187.295C712.942 187.603 713.187 187.94 713.486 187.94C713.558 187.94 713.63 187.921 713.703 187.877L759.405 161.346C759.472 161.307 759.545 161.288 759.617 161.288C759.8 161.288 759.978 161.408 760.031 161.606L773.586 212.68C773.644 212.892 773.822 212.998 774 212.998C774.178 212.998 774.356 212.892 774.414 212.68L787.969 161.606C788.022 161.408 788.195 161.288 788.383 161.288C788.455 161.288 788.528 161.307 788.595 161.346L834.297 187.877C834.37 187.921 834.442 187.94 834.514 187.94C834.813 187.94 835.058 187.603 834.88 187.295L808.349 141.591C808.209 141.345 808.334 141.037 808.609 140.965L859.682 127.41C860.106 127.299 860.106 126.697 859.682 126.586L808.609 113.031C808.339 112.959 808.209 112.646 808.349 112.405L834.88 66.7015C835.058 66.3932 834.813 66.056 834.514 66.056C834.442 66.056 834.37 66.0753 834.297 66.1186L788.595 92.6506C788.528 92.6891 788.455 92.7084 788.383 92.7084C788.2 92.7084 788.022 92.5879 787.969 92.3904L774.414 41.316C774.356 41.104 774.178 40.998 774 40.998Z" fill="#E93F30"/>
<path d="M348.001 -5L349.592 18.5029L368.852 5.10059L351.578 21.006L374 27.7984L350.868 24.1284L359.571 46L348.001 25.5185L336.429 46L345.132 24.1284L322 27.7984L344.424 21.006L327.15 5.10059L346.408 18.5029L348.001 -5Z" fill="#AF8103"/>
</g>
<defs>
<clipPath id="clip0_4121_3231">
<rect width="773" height="725" fill="white"/>
</clipPath>
</defs>
</svg>
