<svg width="200" height="377" viewBox="0 0 200 377" fill="none" xmlns="http://www.w3.org/2000/svg">
<g clip-path="url(#clip0_4122_5112)">
<path d="M374.381 108.023C374.381 203.902 296.484 281.628 200.395 281.628C104.306 281.628 26.4106 203.902 26.4104 108.023C26.4104 12.1428 104.306 -65.5837 200.395 -65.5839C296.485 -65.5839 374.381 12.1426 374.381 108.023ZM355.925 96.0858C355.925 181.791 286.296 251.27 200.403 251.27C114.511 251.27 44.8806 181.791 44.8806 96.0858C44.8806 10.3803 114.511 -59.0981 200.403 -59.0981C286.296 -59.0979 355.925 10.3804 355.925 96.0858ZM339.164 86.4651C339.164 162.938 277.035 224.932 200.395 224.932C123.756 224.931 61.6272 162.938 61.6272 86.4651C61.6272 9.99231 123.756 -52.0013 200.395 -52.0014C277.035 -52.0014 339.164 9.99222 339.164 86.4651ZM326.343 79.1975C326.343 148.605 269.954 204.871 200.395 204.871C130.836 204.87 74.448 148.605 74.4478 79.1975C74.4478 9.79013 130.836 -46.4761 200.395 -46.4762C269.954 -46.4762 326.343 9.79004 326.343 79.1975ZM313.104 72.3169C313.104 134.433 262.639 184.788 200.388 184.788C138.136 184.788 87.6716 134.433 87.6715 72.3169C87.6715 10.201 138.136 -40.154 200.388 -40.154C262.64 -40.154 313.104 10.2009 313.104 72.3169ZM301.634 67.2011C301.634 122.992 256.308 168.219 200.395 168.219C144.483 168.219 99.1571 122.992 99.1571 67.2011C99.1571 11.4103 144.483 -33.8171 200.395 -33.8173C256.308 -33.8173 301.634 11.4102 301.634 67.2011ZM291.015 62.614C291.015 112.548 250.447 153.028 200.403 153.028C150.36 153.028 109.791 112.549 109.791 62.614C109.791 12.6794 150.36 -27.8005 200.403 -27.8005C250.447 -27.8004 291.015 12.6795 291.015 62.614ZM280.895 58.4217C280.895 102.784 244.854 138.746 200.395 138.746C155.936 138.746 119.895 102.784 119.895 58.4217C119.895 14.0597 155.936 -21.9029 200.395 -21.903C244.854 -21.903 280.895 14.0596 280.895 58.4217ZM272.202 55.3391C272.202 94.9141 240.049 126.996 200.388 126.996C160.727 126.996 128.575 94.914 128.575 55.3391C128.575 15.7641 160.727 -16.3181 200.388 -16.3182C240.049 -16.3182 272.202 15.7641 272.202 55.3391ZM263.918 52.6951C263.918 87.7011 235.478 116.079 200.395 116.079C165.313 116.079 136.873 87.701 136.873 52.6951C136.873 17.6893 165.313 -10.6881 200.395 -10.6883C235.478 -10.6883 263.918 17.6892 263.918 52.6951ZM255.485 50.1863C255.485 80.545 230.82 105.155 200.395 105.155C169.97 105.155 145.306 80.5449 145.306 50.1863C145.306 19.8275 169.97 -4.78333 200.395 -4.78348C230.82 -4.78348 255.485 19.8275 255.485 50.1863ZM248.388 48.3247C248.388 74.7723 226.901 96.2123 200.395 96.2123C173.89 96.2122 152.403 74.7722 152.403 48.3247C152.403 21.877 173.89 0.436432 200.395 0.436279C226.901 0.436279 248.388 21.8769 248.388 48.3247ZM240.88 46.7903C240.88 69.1009 222.755 87.1872 200.395 87.1872C178.036 87.187 159.91 69.1008 159.91 46.7903C159.91 24.4799 178.036 6.39359 200.395 6.39343C222.755 6.39343 240.88 24.4798 240.88 46.7903ZM233.634 45.517C233.634 63.8343 218.753 78.6834 200.395 78.6834C182.038 78.6833 167.156 63.8342 167.156 45.517C167.156 27.1998 182.038 12.3507 200.395 12.3506C218.753 12.3506 233.634 27.1997 233.634 45.517ZM226.641 44.4967C226.641 58.9606 214.891 70.6858 200.395 70.6858C185.9 70.6856 174.149 58.9605 174.149 44.4967C174.149 30.0331 185.9 18.3079 200.395 18.3077C214.891 18.3077 226.641 30.033 226.641 44.4967ZM219.888 43.715C219.888 54.457 211.161 63.1652 200.395 63.1652C189.63 63.165 180.903 54.4569 180.903 43.715C180.903 32.9731 189.63 24.265 200.395 24.2649C211.161 24.2649 219.888 32.973 219.888 43.715ZM213.157 42.9478C213.157 49.9803 207.443 55.6817 200.395 55.6817C193.348 55.6815 187.634 49.9802 187.634 42.9478C187.634 35.9156 193.348 30.2149 200.395 30.2147C207.443 30.2147 213.157 35.9155 213.157 42.9478ZM206.224 42.9478C206.224 46.1597 203.614 48.7639 200.395 48.7639C197.176 48.7638 194.567 46.1596 194.567 42.9478C194.567 39.7361 197.177 37.1326 200.395 37.1325C203.614 37.1325 206.224 39.736 206.224 42.9478ZM206.97 42.9478C206.97 39.3248 204.026 36.3878 200.395 36.3878C196.764 36.388 193.821 39.3249 193.821 42.9478C193.821 46.5709 196.764 49.5084 200.395 49.5085C204.026 49.5085 206.97 46.571 206.97 42.9478ZM213.903 42.9478C213.903 35.5042 207.855 29.4701 200.395 29.4701C192.935 29.4702 186.888 35.5043 186.888 42.9478C186.888 50.3915 192.935 56.4262 200.395 56.4263C207.855 56.4263 213.903 50.3915 213.903 42.9478ZM220.634 43.715C220.634 32.5618 211.573 23.5202 200.395 23.5202C189.218 23.5204 180.156 32.5619 180.156 43.715C180.156 54.8682 189.218 63.9097 200.395 63.9098C211.573 63.9098 220.634 54.8682 220.634 43.715ZM227.388 44.4967C227.388 29.6217 215.303 17.5631 200.395 17.5631C185.488 17.5632 173.403 29.6218 173.403 44.4967C173.403 59.3717 185.488 71.4303 200.395 71.4304C215.303 71.4304 227.388 59.3718 227.388 44.4967ZM234.38 45.517C234.38 26.7885 219.165 11.6059 200.395 11.6059C181.626 11.6061 166.41 26.7885 166.41 45.517C166.41 64.2454 181.626 79.4279 200.395 79.4281C219.165 79.4281 234.38 64.2455 234.38 45.517ZM241.627 46.7903C241.627 24.0685 223.167 5.64877 200.395 5.64877C177.624 5.64893 159.164 24.0686 159.164 46.7903C159.164 69.512 177.624 87.9317 200.395 87.9318C223.167 87.9318 241.627 69.5121 241.627 46.7903ZM249.134 48.3247C249.134 21.4656 227.313 -0.30835 200.395 -0.30835C173.478 -0.308197 151.657 21.4657 151.657 48.3247C151.657 75.1835 173.478 96.9568 200.395 96.957C227.313 96.957 249.134 75.1836 249.134 48.3247ZM256.231 50.1863C256.231 19.4162 231.233 -5.52814 200.395 -5.52814C169.558 -5.52798 144.56 19.4163 144.56 50.1863C144.56 80.9561 169.558 105.9 200.395 105.9C231.232 105.9 256.231 80.9562 256.231 50.1863ZM264.664 52.6951C264.664 17.278 235.89 -11.4329 200.395 -11.4329C164.901 -11.4328 136.127 17.278 136.127 52.6951C136.127 88.1123 164.901 116.824 200.395 116.824C235.89 116.824 264.664 88.1124 264.664 52.6951ZM272.948 55.3391C272.948 15.3528 240.462 -17.0628 200.388 -17.0628C160.314 -17.0628 127.829 15.3528 127.829 55.3391C127.829 95.3253 160.314 127.74 200.388 127.74C240.461 127.74 272.948 95.3253 272.948 55.3391ZM281.642 58.4217C281.642 13.6484 245.266 -22.6476 200.395 -22.6476C155.524 -22.6475 119.149 13.6485 119.149 58.4217C119.149 103.195 155.524 139.491 200.395 139.491C245.266 139.491 281.642 103.195 281.642 58.4217ZM291.761 62.614C291.761 12.2683 250.859 -28.545 200.403 -28.5452C149.948 -28.5452 109.045 12.2682 109.045 62.614C109.045 112.96 149.948 153.773 200.403 153.773C250.859 153.773 291.761 112.96 291.761 62.614ZM302.38 67.2011C302.38 10.999 256.72 -34.5619 200.395 -34.5619C144.071 -34.5618 98.4108 10.9991 98.4108 67.2011C98.4108 123.403 144.071 168.964 200.395 168.964C256.72 168.964 302.38 123.403 302.38 67.2011ZM313.851 72.3169C313.851 9.78967 263.052 -40.8987 200.388 -40.8987C137.724 -40.8987 86.9253 9.7897 86.9253 72.3169C86.9253 134.844 137.724 185.532 200.388 185.532C263.052 185.532 313.851 134.844 313.851 72.3169ZM327.09 79.1975C327.09 9.37878 270.366 -47.2209 200.395 -47.2209C130.424 -47.2207 73.7016 9.37888 73.7016 79.1975C73.7017 149.016 130.424 205.615 200.395 205.615C270.366 205.615 327.09 149.016 327.09 79.1975ZM339.91 86.4651C339.91 9.58096 277.447 -52.7461 200.395 -52.7461C123.343 -52.7459 60.8809 9.58105 60.8809 86.4651C60.881 163.349 123.343 225.676 200.395 225.676C277.447 225.676 339.91 163.349 339.91 86.4651ZM356.672 96.0858C356.672 9.96912 286.708 -59.8426 200.403 -59.8427C114.098 -59.8427 44.1343 9.96902 44.1343 96.0858C44.1344 182.203 114.099 252.014 200.403 252.014C286.708 252.014 356.671 182.202 356.672 96.0858ZM375.127 108.023C375.127 11.7314 296.897 -66.3285 200.395 -66.3285C103.894 -66.3284 25.6642 11.7315 25.6642 108.023C25.6643 204.314 103.894 282.373 200.395 282.373C296.897 282.373 375.127 204.314 375.127 108.023Z" fill="#DCD0B4"/>
<path d="M200.836 205.243V-205.867H200.09V205.243H200.836Z" fill="#DCD0B4"/>
<path d="M215.919 -91.3566C225.996 -119.314 247.952 -161.48 268.43 -194.666L268.112 -194.861L267.795 -195.056C247.303 -161.849 225.318 -119.633 215.216 -91.6082L215.919 -91.3566ZM185.516 -91.5864C175.376 -119.597 153.339 -161.783 132.803 -194.967L132.485 -194.772L132.168 -194.576C152.692 -161.413 174.699 -119.276 184.814 -91.3333L185.516 -91.5864ZM230.479 -87.4799C256.005 -115.746 299.26 -146.647 328.956 -159.589L328.657 -160.271C298.86 -147.285 255.518 -116.32 229.924 -87.9788L230.202 -87.7294L230.479 -87.4799ZM170.822 -87.9417C145.184 -116.253 101.812 -147.158 71.9924 -160.107L71.695 -159.424C101.413 -146.52 144.698 -115.679 170.268 -87.4429L170.822 -87.9417ZM244.257 -80.8676C259.941 -90.6044 283.737 -97.8417 307.865 -102.198C331.989 -106.553 356.392 -108.018 373.267 -106.243L373.306 -106.614L373.345 -106.984C356.377 -108.768 331.899 -107.293 307.732 -102.93C283.57 -98.5677 259.665 -91.3103 243.863 -81.5003L244.06 -81.1839L244.257 -80.8676ZM156.884 -81.4406C141.071 -91.2321 117.158 -98.4603 92.9906 -102.792C68.8189 -107.124 44.3394 -108.568 27.3715 -106.761L27.4502 -106.02C44.3254 -107.817 68.7303 -106.383 92.8587 -102.059C116.992 -97.7335 140.796 -90.5262 156.491 -80.808L156.884 -81.4406ZM397.156 -42.5861C377.395 -55.7709 322.484 -81.6642 255.774 -73.2801L255.867 -72.5413C322.351 -80.8968 377.083 -55.0826 396.74 -41.9666L397.156 -42.5861ZM4.05131 -41.7215C23.6938 -54.8672 78.3884 -80.7481 144.887 -72.4744L144.934 -72.8438L144.979 -73.2132C78.2542 -81.5152 23.3815 -55.5543 3.6359 -42.3396L4.05131 -41.7215ZM397.448 25.6497L397.764 25.452C372.924 -13.9388 324.254 -54.9904 267.298 -61.7389L267.254 -61.3687L267.21 -60.9993C323.881 -54.2845 372.376 -13.4101 397.132 25.8483L397.448 25.6497ZM3.74959 26.1006C28.4542 -13.1948 76.8964 -54.1214 133.56 -60.9179L133.515 -61.2873L133.471 -61.6567C76.5228 -54.8261 27.9049 -13.7231 3.11701 25.705L3.74959 26.1006ZM94.6697 162.344C148.554 124.722 187.176 66.3266 200.454 43.5946C213.766 66.3163 252.461 124.651 306.391 162.202L306.605 161.898L306.818 161.592C253.887 124.736 215.64 67.779 201.761 44.3436L201.806 44.3189C201.782 44.2746 201.757 44.2304 201.733 44.1859C225.912 59.4383 290.312 85.0478 370.149 67.3483L369.987 66.6218C291.79 83.9577 228.463 59.6164 203.455 44.3756L203.567 44.1589C202.805 43.7644 202.021 43.3444 201.217 42.9009C201.23 42.8933 201.244 42.8853 201.257 42.8776C242.821 43.8144 297.21 25.923 332.032 -6.76111L331.52 -7.30359C297.196 24.9131 243.731 42.7109 202.509 42.1555C225.77 28.5648 263.199 -3.08704 285.953 -43.7104L285.301 -44.074C262.297 -3.00192 224.224 28.8776 201.157 42.0763C207.013 31.1003 215.629 13.9044 223.532 -4.36139C232.087 -24.1323 239.824 -45.1886 242.317 -60.9688L241.948 -61.0262L241.58 -61.0844C239.102 -45.4034 231.399 -24.4207 222.847 -4.65662C214.932 13.6353 206.303 30.8549 200.453 41.8116C194.589 30.8625 185.937 13.6554 178 -4.62534C169.423 -24.3782 161.693 -45.3518 159.197 -61.0328L158.829 -60.9746L158.46 -60.9157C160.972 -45.1356 168.735 -24.089 177.315 -4.32938C185.241 13.9251 193.878 31.1085 199.749 42.077C176.665 28.9051 138.546 -2.92264 115.49 -43.97L114.839 -43.6064C137.644 -3.00616 175.121 28.5956 198.399 42.1584C157.176 42.7741 103.685 25.0416 69.3156 -7.13269L68.8047 -6.58948C103.672 26.051 158.086 43.8755 199.65 42.8784C199.664 42.8863 199.678 42.8937 199.692 42.9016C198.886 43.3476 198.1 43.7696 197.336 44.1662L197.449 44.3851C172.457 59.6585 109.163 84.0707 30.9541 66.8371L30.8732 67.2007L30.7931 67.5643C110.647 85.1604 175.014 59.4736 199.175 44.1895C199.151 44.2329 199.128 44.2765 199.105 44.3196L199.149 44.3436C185.305 67.7899 147.128 124.808 94.242 161.733L94.4555 162.039L94.6697 162.344Z" fill="#DCD0B4"/>
<path d="M285.925 -6.89117C285.925 40.2427 247.632 78.4525 200.396 78.4526C153.159 78.4526 114.866 40.2428 114.866 -6.89117C114.866 -54.025 153.159 -92.2342 200.396 -92.2342C247.632 -92.2341 285.925 -54.0249 285.925 -6.89117ZM287.418 -6.89117C287.418 -54.8474 248.457 -93.7234 200.396 -93.7235C152.335 -93.7235 113.373 -54.8475 113.373 -6.89117C113.373 41.0653 152.335 79.9419 200.396 79.9419C248.457 79.9417 287.418 41.0652 287.418 -6.89117Z" fill="#DCD0B4"/>
<path d="M331.03 -6.86148C331.03 65.1164 272.553 123.466 200.418 123.466C128.283 123.466 69.806 65.1162 69.806 -6.86148C69.8062 -78.8391 128.283 -137.188 200.418 -137.189C272.552 -137.189 331.03 -78.8391 331.03 -6.86148ZM332.522 -6.86148C332.522 -79.6617 273.377 -138.678 200.418 -138.678C127.459 -138.678 68.3136 -79.6616 68.3134 -6.86148C68.3134 65.9388 127.458 124.955 200.418 124.956C273.377 124.956 332.522 65.9389 332.522 -6.86148Z" fill="#DCD0B4"/>
<path d="M208.381 -6.89108C208.381 -2.49069 204.806 1.07669 200.396 1.07675C195.986 1.07675 192.41 -2.49066 192.41 -6.89108C192.411 -11.2914 195.986 -14.8589 200.396 -14.8589C204.806 -14.8588 208.381 -11.2914 208.381 -6.89108ZM209.5 -6.89108C209.5 -11.9083 205.424 -15.9758 200.396 -15.9759C195.367 -15.9759 191.291 -11.9083 191.291 -6.89108C191.291 -1.87378 195.367 2.19373 200.396 2.19373C205.424 2.19366 209.5 -1.87381 209.5 -6.89108Z" fill="#DCD0B4"/>
<path d="M399.343 -6.86081C399.343 102.763 310.281 191.631 200.418 191.631C90.5544 191.631 1.49271 102.763 1.49254 -6.86081C1.49254 -116.485 90.5543 -205.353 200.418 -205.353C310.281 -205.353 399.343 -116.485 399.343 -6.86081ZM400.836 -6.86081C400.836 -117.307 311.105 -206.842 200.418 -206.842C89.73 -206.842 0 -117.307 0 -6.86081C0.000172361 103.586 89.7301 193.12 200.418 193.12C311.105 193.12 400.836 103.586 400.836 -6.86081Z" fill="#DCD0B4"/>
<path d="M103.064 182.607L108.734 265.802L177.313 218.362L177.936 219.142L116.423 275.45L196.274 299.489L196.053 300.461L113.68 287.476L144.67 364.893L143.771 365.326L102.565 292.823L61.3594 365.326L60.46 364.893L91.4492 287.476L9.07812 300.461L8.85547 299.489L88.7061 275.45L27.1943 219.142L27.8164 218.362L96.3955 265.803L102.066 182.607H103.064ZM97.2734 267.627L33.2832 223.359L90.6797 275.901L16.1719 298.331L93.0322 286.214L64.1162 358.449L102.565 290.8L141.016 358.454L112.099 286.214L188.959 298.331L114.45 275.901L171.847 223.359L107.856 267.627L102.565 189.997L97.2734 267.627Z" fill="#DCD0B4"/>
<path d="M134.988 286.298L112.711 287.007L116.977 308.624L116.03 306.683L112.151 287.024L106.533 287.204L102.891 291.434L116.032 306.683L116.979 308.624L102.529 291.854L88.0844 308.629L89.0314 306.687L102.166 291.434L98.5214 287.206L92.9035 287.029L89.0314 306.687L88.0844 308.629L92.3415 287.009L70.0625 286.309L72.1888 285.828L92.4477 286.467L93.5209 281.014L90.1577 276.562L72.1888 285.828L70.0625 286.309L89.8213 276.12L76.488 258.471L78.1939 259.814L90.3192 275.862L95.302 273.293L96.727 267.919L78.1939 259.816L76.488 258.474L96.8708 267.386L102.517 246.079V248.234L97.3797 267.609L102.52 269.856L107.66 267.606L102.515 248.234V246.079L108.171 267.381L128.549 258.46L126.843 259.805L108.312 267.917L109.739 273.289L114.725 275.858L126.845 259.805L128.551 258.46L115.222 276.114L134.986 286.296L132.859 285.817L114.888 276.558L111.527 281.009L112.603 286.462L132.859 285.817L134.986 286.296L134.988 286.298ZM108.627 283.786L110.919 280.874L110.133 277.275L109.255 273.676L105.903 272.032L102.522 270.473L99.1388 272.034L95.791 273.678L94.917 277.268L94.1316 280.876L96.4261 283.791L98.7914 286.648L102.522 286.692L106.263 286.646L108.629 283.786H108.627ZM114.393 276.304L109.992 274.037L110.671 277.15L111.423 280.238L114.393 276.306V276.304ZM107.803 268.142L103.265 270.13L106.142 271.54L109.062 272.887L107.803 268.142ZM97.2403 268.144L95.9813 272.889L98.8954 271.544L101.778 270.13L97.2381 268.144H97.2403ZM90.6555 276.306L93.6249 280.238L94.3772 277.148L95.0542 274.039L90.6533 276.308L90.6555 276.306ZM93.0075 286.484L97.9683 286.639L95.9946 284.132L93.9568 281.667L93.0075 286.482V286.484ZM102.526 291.012L105.743 287.276L102.522 287.239L99.3091 287.278L102.529 291.012H102.526ZM112.043 286.482L111.094 281.667L109.06 284.127L107.082 286.639L112.043 286.482Z" fill="#5374DF"/>
<path d="M103 18.8811L102 18.8811L102 18.3821L103 18.3821L103 18.8811ZM103 20.8792L102 20.8792L102 19.8801L103 19.8801L103 20.8792ZM103 22.8772L102 22.8772L102 21.8782L103 21.8782L103 22.8772ZM103 24.8752L102 24.8752L102 23.8762L103 23.8762L103 24.8752ZM103 26.8733L102 26.8733L102 25.8743L103 25.8743L103 26.8733ZM103 28.8704L102 28.8704L102 27.8713L103 27.8713L103 28.8704ZM103 30.8684L102 30.8684L102 29.8694L103 29.8694L103 30.8684ZM103 32.8665L102 32.8665L102 31.8674L103 31.8674L103 32.8665ZM103 34.8645L102 34.8645L102 33.8655L103 33.8655L103 34.8645ZM103 36.8616L102 36.8616L102 35.8625L103 35.8625L103 36.8616ZM103 38.8596L102 38.8596L102 37.8606L103 37.8606L103 38.8596ZM103 40.8577L102 40.8577L102 39.8586L103 39.8586L103 40.8577ZM103 42.8557L102 42.8557L102 41.8567L103 41.8567L103 42.8557ZM103 44.8528L102 44.8528L102 43.8547L103 43.8547L103 44.8528ZM103 46.8508L102 46.8508L102 45.8518L103 45.8518L103 46.8508ZM103 48.8489L102 48.8489L102 47.8499L103 47.8499L103 48.8489ZM103 50.8469L102 50.8469L102 49.8479L103 49.8479L103 50.8469ZM103 52.845L102 52.845L102 51.8459L103 51.8459L103 52.845ZM103 54.842L102 54.842L102 53.843L103 53.843L103 54.842ZM103 56.8401L102 56.8401L102 55.8411L103 55.8411L103 56.8401ZM103 58.8381L102 58.8381L102 57.8391L103 57.8391L103 58.8381ZM103 60.8362L102 60.8362L102 59.8372L103 59.8372L103 60.8362ZM103 62.8333L102 62.8333L102 61.8352L103 61.8352L103 62.8333ZM103 64.8313L102 64.8313L102 63.8323L103 63.8323L103 64.8313ZM103 66.8293L102 66.8293L102 65.8303L103 65.8303L103 66.8293ZM103 68.8274L102 68.8274L102 67.8284L103 67.8284L103 68.8274ZM103 70.8245L102 70.8245L102 69.8264L103 69.8264L103 70.8245ZM103 72.8225L102 72.8225L102 71.8235L103 71.8235L103 72.8225ZM103 74.8206L102 74.8206L102 73.8215L103 73.8215L103 74.8206ZM103 76.8186L102 76.8186L102 75.8196L103 75.8196L103 76.8186ZM103 78.8167L102 78.8167L102 77.8176L103 77.8176L103 78.8167ZM103 80.8137L102 80.8137L102 79.8147L103 79.8147L103 80.8137ZM103 82.8118L102 82.8118L102 81.8127L103 81.8127L103 82.8118ZM103 84.8098L102 84.8098L102 83.8108L103 83.8108L103 84.8098ZM103 86.8079L102 86.8079L102 85.8088L103 85.8088L103 86.8079ZM103 88.8049L102 88.8049L102 87.8069L103 87.8069L103 88.8049ZM103 90.803L102 90.803L102 89.804L103 89.804L103 90.803ZM103 92.801L102 92.801L102 91.802L103 91.802L103 92.801ZM103 94.7991L102 94.7991L102 93.8L103 93.8L103 94.7991ZM103 96.7961L102 96.7961L102 95.7981L103 95.7981L103 96.7961ZM103 98.7942L102 98.7942L102 97.7952L103 97.7952L103 98.7942ZM103 100.792L102 100.792L102 99.7932L103 99.7932L103 100.792ZM103 102.79L102 102.79L102 101.791L103 101.791L103 102.79ZM103 104.788L102 104.788L102 103.789L103 103.789L103 104.788ZM103 106.785L102 106.785L102 105.786L103 105.786L103 106.785ZM103 108.783L102 108.783L102 107.784L103 107.784L103 108.783ZM103 110.781L102 110.781L102 109.782L103 109.782L103 110.781ZM103 112.78L102 112.78L102 111.781L103 111.781L103 112.78ZM103 114.777L102 114.777L102 113.779L103 113.779L103 114.777ZM103 116.775L102 116.775L102 115.776L103 115.776L103 116.775ZM103 118.773L102 118.773L102 117.774L103 117.774L103 118.773ZM103 120.771L102 120.771L102 119.772L103 119.772L103 120.771ZM103 122.768L102 122.768L102 121.77L103 121.77L103 122.768ZM103 124.766L102 124.766L102 123.767L103 123.767L103 124.766ZM103 126.764L102 126.764L102 125.765L103 125.765L103 126.764ZM103 128.762L102 128.762L102 127.763L103 127.763L103 128.762ZM103 130.76L102 130.76L102 129.761L103 129.761L103 130.76ZM103 132.757L102 132.757L102 131.758L103 131.758L103 132.757ZM103 134.755L102 134.755L102 133.756L103 133.756L103 134.755ZM103 136.753L102 136.753L102 135.754L103 135.754L103 136.753ZM103 138.751L102 138.751L102 137.752L103 137.752L103 138.751ZM103 140.748L102 140.748L102 139.749L103 139.749L103 140.748ZM103 142.746L102 142.746L102 141.747L103 141.747L103 142.746ZM103 144.744L102 144.744L102 143.745L103 143.745L103 144.744ZM103 146.742L102 146.742L102 145.743L103 145.743L103 146.742ZM103 148.74L102 148.74L102 147.741L103 147.741L103 148.74ZM103 150.738L102 150.738L102 149.739L103 149.739L103 150.738ZM103 152.736L102 152.736L102 151.737L103 151.737L103 152.736ZM103 154.734L102 154.734L102 153.735L103 153.735L103 154.734ZM103 156.732L102 156.732L102 155.733L103 155.733L103 156.732ZM103 158.729L102 158.729L102 157.73L103 157.73L103 158.729ZM103 160.727L102 160.727L102 159.728L103 159.728L103 160.727ZM103 162.725L102 162.725L102 161.726L103 161.726L103 162.725ZM103 164.723L102 164.723L102 163.724L103 163.724L103 164.723ZM103 166.72L102 166.72L102 165.722L103 165.722L103 166.72ZM103 168.718L102 168.718L102 167.719L103 167.719L103 168.718ZM103 170.716L102 170.716L102 169.717L103 169.717L103 170.716ZM103 172.714L102 172.714L102 171.715L103 171.715L103 172.714ZM103 174.712L102 174.712L102 173.713L103 173.713L103 174.712ZM103 176.709L102 176.709L102 175.71L103 175.71L103 176.709ZM103 178.707L102 178.707L102 177.708L103 177.708L103 178.707ZM103 180.705L102 180.705L102 179.706L103 179.706L103 180.705ZM103 182.203L102 182.203L102 181.704L103 181.704L103 182.203Z" fill="#DCD0B4"/>
<path d="M197.68 223.84C197.68 226.513 195.513 228.68 192.84 228.68C190.167 228.68 188 226.513 188 223.84C188 221.167 190.167 219 192.84 219C195.513 219 197.68 221.167 197.68 223.84Z" fill="#B62518"/>
<path d="M184.213 223.606C184.213 225.046 183.046 226.213 181.606 226.213C180.167 226.213 179 225.046 179 223.606C179 222.167 180.167 221 181.606 221C183.046 221 184.213 222.167 184.213 223.606Z" fill="#33811C"/>
<path d="M174.723 222.862C174.723 223.89 173.89 224.723 172.862 224.723C171.833 224.723 171 223.89 171 222.862C171 221.833 171.833 221 172.862 221C173.89 221 174.723 221.833 174.723 222.862Z" fill="#FFC72D"/>
<path d="M102.384 2.19768L104.26 12.9584C104.279 13.0686 104.407 13.1218 104.498 13.0574L113.451 6.77249C113.671 6.61905 113.938 6.88634 113.783 7.10413L107.485 16.0372C107.42 16.1288 107.474 16.2562 107.584 16.2748L118.368 18.147C118.632 18.1928 118.632 18.5715 118.368 18.6173L107.584 20.4895C107.474 20.5081 107.42 20.6355 107.485 20.7271L113.783 29.6602C113.937 29.8792 113.669 30.1465 113.451 29.9918L104.498 23.7068C104.407 23.6425 104.279 23.6957 104.26 23.8058L102.384 34.5666C102.338 34.8302 101.959 34.8302 101.913 34.5666L100.036 23.8058C100.018 23.6957 99.8901 23.6425 99.7983 23.7068L90.8457 29.9918C90.6262 30.1452 90.3584 29.8779 90.5134 29.6602L96.8121 20.7271C96.8765 20.6355 96.8232 20.5081 96.7128 20.4895L85.9286 18.6173C85.6644 18.5715 85.6644 18.1928 85.9286 18.147L96.7128 16.2748C96.8232 16.2562 96.8765 16.1288 96.8121 16.0372L90.5121 7.10413C90.3584 6.8851 90.6262 6.61781 90.8445 6.77249L99.7971 13.0574C99.8888 13.1218 100.017 13.0686 100.035 12.9584L101.913 2.19768C101.959 1.93411 102.338 1.93411 102.384 2.19768Z" fill="#F8F3E7"/>
<path d="M102.398 34.4815L102.384 34.5664C102.341 34.8134 102.005 34.8293 101.925 34.6133L101.913 34.5664L101.897 34.4815L102.147 34.5244L102.398 34.4815ZM101.913 2.19723C101.959 1.93426 102.338 1.93425 102.384 2.19723L104.261 12.958C104.277 13.0544 104.377 13.1078 104.463 13.0762L104.498 13.0576L104.759 12.873L105.246 12.792L105.245 12.7861V12.7871L105.246 12.792L104.759 12.873L113.451 6.77243C113.671 6.61917 113.938 6.88671 113.783 7.10447L107.484 16.0371C107.42 16.1287 107.474 16.2558 107.584 16.2744L118.368 18.1475C118.632 18.1933 118.632 18.5714 118.368 18.6172L107.584 20.4893L107.545 20.501C107.462 20.5391 107.428 20.6475 107.484 20.7275L113.783 29.6602C113.937 29.8791 113.669 30.1464 113.451 29.9922L104.498 23.707C104.406 23.6429 104.279 23.6958 104.261 23.8057L102.398 34.4815L102.147 34.5244L101.897 34.4815L100.036 23.8057C100.017 23.6957 99.8896 23.6427 99.7979 23.707L90.8457 29.9922L90.8037 30.0156C90.5941 30.1115 90.3684 29.8642 90.5137 29.6602L96.8125 20.7275C96.869 20.6472 96.8346 20.5389 96.751 20.501L96.7129 20.4893L86.0127 18.6309L85.9287 18.6172C85.6811 18.5743 85.6654 18.2388 85.8818 18.1592L85.9287 18.1475L96.7129 16.2744C96.8231 16.2558 96.8768 16.1286 96.8125 16.0371L90.5615 7.17478L90.5117 7.10447C90.3579 6.88544 90.6265 6.61775 90.8447 6.77243L99.5293 12.8691L99.7969 13.0576C99.8887 13.1219 100.017 13.0681 100.035 12.958L101.913 2.19723ZM101.021 13.124C100.888 13.9105 100.031 14.3088 99.3555 13.957L99.2227 13.876L93.8525 10.1064L97.6289 15.4609H97.6299C98.1181 16.1541 97.7149 17.1157 96.8828 17.2588L96.8838 17.2598H96.8809L96.8789 17.2607L96.8779 17.2598L90.4199 18.3818L96.8779 19.5029H96.8809L96.8838 19.5039H96.8828C97.715 19.6468 98.1179 20.6095 97.6299 21.3027L97.6289 21.3037L93.8525 26.6592L99.2246 22.8877C99.9131 22.4054 100.877 22.7987 101.022 23.6338L102.147 30.0957L103.275 23.6338C103.42 22.7987 104.384 22.4054 105.072 22.8877L105.073 22.8887L110.442 26.6582L106.667 21.3037V21.3027C106.179 20.6091 106.582 19.6451 107.415 19.5029L113.876 18.3818L107.418 17.2598V17.2607C107.417 17.2606 107.416 17.2599 107.415 17.2598H107.413V17.2588C106.582 17.1152 106.179 16.1539 106.667 15.4609L110.442 10.1054L105.073 13.876H105.072C104.382 14.3597 103.416 13.9639 103.274 13.125V13.124L102.147 6.66599L101.021 13.124Z" fill="#092686"/>
<path d="M102.257 11.0256L103.11 15.9169C103.119 15.967 103.177 15.9912 103.218 15.9619L107.288 13.1051C107.388 13.0354 107.509 13.1569 107.439 13.2558L104.576 17.3163C104.546 17.358 104.571 17.4159 104.621 17.4243L109.523 18.2754C109.643 18.2962 109.643 18.4683 109.523 18.4891L104.621 19.3401C104.571 19.3485 104.546 19.4065 104.576 19.4481L107.439 23.5086C107.509 23.6081 107.387 23.7296 107.288 23.6593L103.218 20.8025C103.177 20.7733 103.119 20.7975 103.11 20.8475L102.257 25.7388C102.236 25.8586 102.064 25.8586 102.043 25.7388L101.19 20.8475C101.182 20.7975 101.124 20.7733 101.082 20.8025L97.0126 23.6593C96.9128 23.7291 96.7911 23.6076 96.8616 23.5086L99.7246 19.4481C99.7539 19.4065 99.7297 19.3485 99.6795 19.3401L94.7776 18.4891C94.6575 18.4683 94.6575 18.2962 94.7776 18.2754L99.6795 17.4243C99.7297 17.4159 99.7539 17.358 99.7246 17.3163L96.861 13.2558C96.7911 13.1563 96.9128 13.0348 97.0121 13.1051L101.081 15.9619C101.123 15.9912 101.181 15.967 101.19 15.9169L102.043 11.0256C102.064 10.9058 102.236 10.9058 102.257 11.0256Z" fill="#092686"/>
<path d="M151.056 58.0719L151.738 61.9849C151.745 62.0249 151.791 62.0443 151.825 62.0209L155.08 59.7355C155.16 59.6797 155.257 59.7768 155.201 59.856L152.911 63.1044C152.887 63.1377 152.907 63.1841 152.947 63.1908L156.868 63.8716C156.964 63.8883 156.964 64.026 156.868 64.0426L152.947 64.7235C152.907 64.7302 152.887 64.7766 152.911 64.8099L155.201 68.0582C155.257 68.1379 155.16 68.2351 155.08 68.1788L151.825 65.8934C151.791 65.87 151.745 65.8893 151.738 65.9294L151.056 69.8424C151.039 69.9382 150.901 69.9382 150.884 69.8424L150.202 65.9294C150.195 65.8893 150.149 65.87 150.116 65.8934L146.86 68.1788C146.78 68.2346 146.683 68.1374 146.739 68.0582L149.03 64.8099C149.053 64.7766 149.034 64.7302 148.994 64.7235L145.072 64.0426C144.976 64.026 144.976 63.8883 145.072 63.8716L148.994 63.1908C149.034 63.1841 149.053 63.1377 149.03 63.1044L146.739 59.856C146.683 59.7764 146.78 59.6792 146.86 59.7355L150.115 62.0209C150.148 62.0443 150.195 62.0249 150.202 61.9849L150.884 58.0719C150.901 57.976 151.039 57.976 151.056 58.0719Z" fill="#092686"/>
</g>
<defs>
<clipPath id="clip0_4122_5112">
<rect width="200" height="377" fill="white"/>
</clipPath>
</defs>
</svg>
