<svg width="247" height="256" viewBox="0 0 247 256" fill="none" xmlns="http://www.w3.org/2000/svg">
<g clip-path="url(#clip0_4121_3238)">
<path d="M159.713 95.8859C158.513 95.5502 157.262 96.2541 156.927 97.4537C156.591 98.6534 157.295 99.9041 158.495 100.24C159.694 100.575 160.945 99.8716 161.281 98.6719C161.616 97.4723 160.913 96.2216 159.713 95.8859ZM158.587 99.9095C157.569 99.6248 156.979 98.5657 157.262 97.5548C157.545 96.5438 158.606 95.9468 159.617 96.2296C160.628 96.5125 161.225 97.5734 160.942 98.5844C160.659 99.5953 159.598 100.192 158.587 99.9095ZM313.157 124.14C315.086 109.818 314.749 97.2819 313.947 87.6537C313.739 84.5795 313.451 81.5048 313.055 78.4287C311.451 65.9017 308.353 53.7269 303.815 42.0503C298.21 24.2905 290.172 9.82499 282.532 0.223625C268.797 -17.0495 251.631 -30.7113 231.492 -40.3943C217.176 -47.2779 204.045 -50.8937 194.306 -53.0447C179.792 -56.4444 165.049 -57.7278 150.3 -56.8838C131.781 -57.0073 115.633 -53.8369 104.191 -49.5674C83.5216 -41.8482 65.2206 -29.738 49.792 -13.5828C39.852 -3.17379 32.7744 7.13495 27.7648 15.377C19.8249 27.9881 13.7569 41.6752 9.67603 56.2599C9.52705 56.7923 9.38967 57.3353 9.24743 57.8696C3.22518 75.7047 1.18674 92.3143 1.72546 104.674C2.68056 126.714 8.54228 147.867 19.1439 167.534C26.1871 180.595 34.0621 190.734 40.4607 198.098C47.0338 205.904 54.3638 213.057 62.4155 219.474C66.5519 222.768 70.8322 225.833 75.2478 228.675C90.0486 239.567 104.864 246.46 116.578 249.737L116.746 249.784C138.01 255.683 159.933 256.65 181.911 252.647C196.812 249.934 209.1 245.444 218.138 241.585C223.954 239.186 229.649 236.419 235.195 233.298C242.984 228.915 250.311 223.923 257.149 218.365C272.281 207.556 283.536 195.458 290.299 185.236C302.482 166.836 310.173 146.284 313.155 124.147L313.157 124.14ZM312.93 79.9926L312.817 80.0047C313.152 82.86 313.498 86.169 313.764 89.8408C314.631 106.457 312.798 123.291 308.184 139.783C299.472 170.92 281.684 197.949 257.113 217.948C246.014 225.904 232.813 233.162 217.741 238.458C199.236 244.959 173.794 249.787 145.437 243.554C174.87 246.382 204.429 240.191 230.744 225.388C245.752 216.943 258.904 206.146 269.823 193.482C272.575 190.662 275.338 187.125 278.043 183.013C283.474 175.398 288.168 167.242 292.066 158.638C308.048 132.761 311.563 105.969 311.08 85.6669C310.75 71.81 308.581 58.8342 305.321 47.1372C309.073 57.8308 311.61 68.8387 312.923 79.9907L312.93 79.9926ZM101.966 232.168C101.452 231.901 100.945 231.635 100.462 231.362L100.391 231.487C71.5979 218.889 47.7661 197.417 32.083 169.548C24.5837 156.222 19.3102 142.058 16.2888 127.506C16.1294 125.427 16.0236 123.311 15.9695 121.167C16.4528 123.388 16.991 125.646 17.5898 127.921C22.3903 146.27 29.9771 163.465 38.9582 176.327C51.1871 193.84 69.5944 208.336 90.7062 217.789C95.8345 221.746 101.517 225.567 107.807 229.188C116.421 234.141 124.923 237.858 133.239 240.577C127.428 239.867 121.975 238.864 117.043 237.607C111.888 236.056 106.858 234.242 101.966 232.168ZM13.8843 85.3222C13.9866 84.6968 14.0919 84.0867 14.2136 83.4957L14.0549 83.4659C14.9047 75.2081 16.464 66.9599 18.7458 58.8049C29.2138 21.3928 53.5999 -9.71213 87.4191 -28.8174C89.2089 -29.552 91.0451 -30.2446 92.9094 -30.9076C90.9449 -29.7567 88.9654 -28.5519 86.9891 -27.2807C71.0158 -17.0483 57.0161 -4.51941 47.552 8.00674C34.673 25.0497 26.5739 47.0347 24.108 70.029C21.9294 76.1271 20.0495 82.7159 18.5493 89.8178C16.4972 99.5414 15.598 108.781 15.5767 117.532C14.353 111.231 13.5895 105.232 13.3057 99.7531C13.2593 94.9582 13.4512 90.1428 13.8805 85.3357L13.8843 85.3222ZM126.016 -43.9333C126.754 -44.0537 127.481 -44.1557 128.194 -44.2394L128.174 -44.4267C151.132 -49.4418 175.11 -48.8011 198.375 -42.2914C221.641 -35.7817 240.693 -24.8911 257.296 -9.73709C258.676 -8.12287 260.03 -6.44313 261.362 -4.71136C259.652 -6.2363 257.883 -7.7561 256.05 -9.25729C241.384 -21.2822 225.141 -30.7326 210.303 -35.858C190.126 -42.8336 166.705 -43.7475 144.073 -38.9899C137.6 -39.1804 130.757 -38.9295 123.535 -38.1594C113.656 -37.1084 104.594 -35.1092 96.261 -32.4189C101.62 -35.389 106.844 -37.8805 111.764 -39.8032C116.456 -41.4267 121.214 -42.7986 126.021 -43.9247L126.016 -43.9333ZM284.221 23.3269C284.45 23.7832 284.676 24.2463 284.885 24.697L284.993 24.6474C285.372 25.2913 285.752 25.9353 286.114 26.5889C305.204 60.5129 309.947 99.8481 299.458 137.334C297.416 144.633 294.838 151.688 291.773 158.461C290.722 160.166 289.615 161.862 288.451 163.556C289.372 161.459 290.266 159.304 291.132 157.09C298.038 139.422 302 121.054 302.298 105.368C302.699 84.0122 296.326 61.4662 284.81 41.4055C282.988 35.1908 280.637 28.7627 277.673 22.1341C273.634 13.0899 268.953 5.09408 263.833 -1.98507C268.212 2.10356 272.107 6.20928 275.407 10.2067C278.553 14.3934 281.501 18.7649 284.223 23.3201L284.221 23.3269ZM290.653 160.88C288.066 166.334 285.149 171.593 281.935 176.638C283.921 173.124 285.844 169.317 287.68 165.274C288.714 163.812 289.706 162.345 290.66 160.882L290.653 160.88ZM123.568 -37.8087C130.234 -38.5162 136.574 -38.7845 142.604 -38.6742C130.247 -35.9398 118.151 -31.512 106.974 -25.4607C93.4158 -18.1207 81.855 -8.77569 72.6262 2.31196C69.4077 6.17878 66.5084 10.2294 63.9185 14.4466C49.3495 25.5298 34.2201 42.5899 24.6127 68.615C27.2491 46.2061 35.2545 24.8417 47.83 8.20806C57.2693 -4.28142 71.2393 -16.7823 87.1781 -26.9953C89.7024 -28.6146 92.2167 -30.1203 94.7065 -31.5385C103.464 -34.5021 113.058 -36.6869 123.575 -37.8068L123.568 -37.8087ZM285.175 108.825C284.298 98.7906 281.952 88.9699 278.132 79.4784C271.954 64.1308 263.528 51.2354 253.268 41.2792C252.148 37.7245 250.833 34.1661 249.3 30.6339C243.033 16.1481 233.591 2.77954 221.983 -8.01909C218.517 -11.2417 214.529 -14.5452 210.002 -17.7447C214.498 -16.6177 218.944 -15.1846 223.317 -13.4378C236.672 -8.10239 249.099 -0.0249916 260.232 10.5753C269.77 19.6539 277.946 30.1973 284.471 41.5506C292.322 68.3472 290.328 91.1611 285.168 108.823L285.175 108.825ZM155.346 138.53C164.945 150.845 182.653 155.451 201.28 150.721C198.761 158.323 194.412 165.892 188.593 172.665C184.091 177.895 178.922 182.473 173.249 186.307C168.648 185.609 164.18 184.54 159.868 183.094C145.481 178.254 132.936 169.17 124.546 157.521C123.902 156.628 123.297 155.725 122.708 154.819C125.517 154.805 128.257 154.569 130.892 154.114C141.743 152.238 150.197 146.856 155.344 138.537L155.346 138.53ZM155.316 137.911C151.664 133.067 148.773 126.233 152.457 122.598C153.571 121.5 155.062 121.103 156.37 121.469C156.815 121.594 157.228 121.804 157.611 122.1C159.978 123.976 160.606 129.108 155.318 137.904L155.316 137.911ZM155.537 138.213C161.023 129.152 160.316 123.809 157.824 121.832C156.189 120.532 153.829 120.758 152.205 122.353C151.324 123.218 147.342 128.049 155.115 138.24C150.026 146.532 141.634 151.902 130.828 153.77C128.141 154.231 125.345 154.459 122.471 154.469C112.151 138.239 111.033 119.975 119.817 107.099C130.13 109.512 134.993 107.196 136.099 104.206C136.827 102.251 135.89 100.07 133.871 99.0258C132.78 98.4588 126.955 96.1604 119.667 106.701C110.209 104.425 102.503 98.0977 97.3954 88.4056C96.1228 85.9929 95.0454 83.4022 94.1518 80.674C106.3 65.9557 123.149 59.2456 138.03 63.4094C138.144 63.4415 138.266 63.4755 138.387 63.5094C139.278 74.0639 142.988 77.9725 146.163 78.1051C148.246 78.1937 150.029 76.6285 150.402 74.3856C150.604 73.1703 150.987 66.9185 138.715 63.2452C137.957 53.5417 141.591 44.268 149.234 36.4066C151.132 34.4524 153.265 32.6218 155.584 30.9306C173.477 37.9937 185.107 52.1127 185.58 67.6953C175.819 71.8027 173.245 76.5331 174.101 79.6067C174.664 81.6176 176.702 82.8273 178.948 82.4891C180.169 82.3075 186.232 80.741 185.928 67.9309C194.92 64.2112 204.871 64.8009 214.7 69.6441C217.147 70.8449 219.543 72.3074 221.87 73.9905C220.677 93.1911 210.852 108.618 196.175 113.879C189.253 105.866 183.955 104.878 181.303 106.643C179.569 107.801 179.046 110.111 180.061 112.146C180.616 113.253 183.972 118.531 196.067 114.292C202.381 121.698 204.894 131.34 203.333 142.189C202.942 144.885 202.294 147.618 201.413 150.351C182.787 155.154 165.074 150.568 155.538 138.235L155.537 138.213ZM95.7908 34.9995C99.9206 32.8629 104.172 31.0948 108.506 29.7348C122.99 25.1901 138.484 25.1649 152.116 29.6624C153.161 30.0056 154.183 30.3788 155.193 30.7703C152.932 32.4343 150.851 34.2357 148.986 36.1484C141.305 44.0426 137.636 53.3647 138.357 63.1231C138.276 63.1005 138.202 63.0797 138.128 63.059C123.173 58.8744 106.259 65.5589 94.0275 80.2613C91.5977 72.6339 90.6629 63.9495 91.3996 55.0569C91.9647 48.1802 93.4583 41.4398 95.7889 35.0062L95.7908 34.9995ZM91.0457 55.0233C90.3001 64.0514 91.2654 72.8607 93.762 80.5867C93.0238 81.4848 92.3002 82.4088 91.6027 83.3691C83.0701 95.0077 78.2868 109.817 78.1319 125.072C78.0831 129.506 78.4306 133.978 79.1463 138.459C70.3456 131.498 63.0188 122.645 57.7862 112.439C54.0092 105.081 51.3815 97.1221 49.903 88.6925C53.2705 78.6829 57.9856 69.6753 63.7879 62.2364C72.9305 50.5215 83.6706 41.3828 95.3355 35.25C93.0631 41.6054 91.6027 48.2533 91.0438 55.03L91.0457 55.0233ZM78.4799 125.075C78.6362 109.893 83.3987 95.1578 91.8855 83.5791C92.5334 82.6921 93.2093 81.8347 93.8882 80.9927C94.77 83.6594 95.8404 86.1973 97.0838 88.5583C102.221 98.3021 109.971 104.679 119.453 106.997C110.71 119.936 111.799 138.198 122.054 154.454C114.044 154.407 105.505 152.614 97.2685 149.169C90.9053 146.509 84.9594 143.007 79.5548 138.791C78.7981 134.197 78.4298 129.617 78.4732 125.073L78.4799 125.075ZM120.038 106.776C123.25 102.18 128.281 97.6798 132.655 98.9036C133.012 99.0036 133.372 99.1477 133.722 99.3256C135.581 100.289 136.446 102.29 135.787 104.075C134.733 106.905 130.045 109.089 120.045 106.778L120.038 106.776ZM138.744 63.6093C147.935 66.3988 150.592 71.1102 150.057 74.3182C149.713 76.3803 148.08 77.8274 146.177 77.7455C143.16 77.6207 139.633 73.836 138.744 63.6093ZM155.924 30.6769C162.427 26.0067 170.395 22.4369 179.087 20.3849C185.796 18.7956 192.668 18.1312 199.513 18.3677C202.828 21.6354 205.818 25.1318 208.452 28.8339C217.25 41.2082 222.056 55.9249 221.999 70.2838C221.996 71.3875 221.953 72.473 221.898 73.5548C219.615 71.9206 217.261 70.4915 214.866 69.3125C204.982 64.4542 194.981 63.836 185.927 67.5454C185.396 51.939 173.784 37.8036 155.931 30.6788L155.924 30.6769ZM178.897 82.126C176.825 82.4402 174.947 81.3334 174.436 79.4972C173.623 76.5878 176.131 72.0644 185.587 68.0606C185.776 77.6701 182.113 81.6451 178.897 82.126ZM195.826 113.984C190.091 115.963 182.695 116.604 180.378 111.973C179.442 110.098 179.912 107.977 181.502 106.917C182.547 106.221 184.045 105.986 185.918 106.51C188.54 107.244 191.902 109.464 195.832 113.986L195.826 113.984ZM203.682 142.214C205.251 131.309 202.747 121.611 196.421 114.144C211.101 108.818 220.951 93.4059 222.212 74.2241C228.662 78.9648 234.516 85.4429 239.155 93.0707C242.738 98.9643 245.495 105.295 247.388 111.878C245.301 116.04 242.902 119.962 240.194 123.615C231.145 135.8 218.628 144.928 204.96 149.309C203.913 149.648 202.864 149.943 201.821 150.218C202.671 147.542 203.298 144.861 203.682 142.214ZM239.461 92.8874C234.752 85.1455 228.796 78.5882 222.236 73.802C222.305 72.6442 222.343 71.4702 222.347 70.2867C222.41 55.8567 217.575 41.0593 208.734 28.6295C206.162 25.0174 203.261 21.5965 200.05 18.3946C211.26 18.8494 222.393 21.71 232.622 26.8904C239.999 30.6262 246.807 35.5177 252.954 41.4674C256.115 51.5451 257.596 61.6032 257.269 71.0319C256.755 85.8807 253.443 99.5902 247.607 111.409C245.707 104.926 242.98 98.6977 239.447 92.8836L239.461 92.8874ZM232.782 26.579C222.38 21.314 211.058 18.4295 199.667 18.0256C190.157 8.66422 177.997 1.16312 163.855 -3.97857C155.135 -7.15228 145.296 -8.84421 134.938 -9.01726C147.412 -15.4977 162.026 -19.4173 178.238 -20.5279C188.701 -21.2485 199.025 -20.3802 209.076 -17.9675C213.897 -14.6273 218.114 -11.1511 221.757 -7.7554C233.328 3.01843 242.739 16.342 248.99 30.7798C250.429 34.1039 251.681 37.4483 252.751 40.7927C246.7 35.0155 240.019 30.2463 232.788 26.5809L232.782 26.579ZM163.729 -3.65775C177.693 1.41955 189.71 8.80798 199.141 18.0092C192.393 17.8145 185.623 18.4784 179.001 20.0412C170.185 22.1237 162.102 25.7633 155.531 30.5233C154.451 30.0976 153.348 29.7018 152.217 29.3273C138.514 24.8244 122.951 24.8375 108.397 29.399C104.168 30.7228 100.019 32.4327 95.9813 34.5005C99.8844 23.9794 106.037 14.2765 114.125 6.1474C119.958 0.286869 126.717 -4.67507 134.278 -8.68584C144.842 -8.57158 154.863 -6.87969 163.735 -3.65586L163.729 -3.65775ZM113.874 5.90267C105.653 14.1691 99.4156 24.0444 95.502 34.7588C83.6565 40.9138 72.7641 50.1551 63.507 62.0197C57.7963 69.3389 53.1456 78.1683 49.7788 87.9674C47.4668 74.1012 48.258 58.9884 52.2151 43.2354C54.7637 33.0621 58.7808 23.5103 64.1747 14.6999C68.8447 11.152 73.4536 8.21198 77.8 5.79445C91.6186 -1.87962 107.202 -6.71971 122.869 -8.19365C126.475 -8.53641 130.043 -8.69342 133.55 -8.67896C126.181 -4.70867 119.585 0.167782 113.87 5.91615L113.874 5.90267ZM51.8781 43.1411C47.8534 59.1877 47.0887 74.5695 49.5423 88.657C48.3571 92.1916 47.335 95.8445 46.4932 99.6061C43.0485 115.008 42.8304 131.371 45.8727 146.939C46.7826 151.583 48.0675 156.601 49.8487 161.845C46.8674 158.293 44.1214 154.523 41.6039 150.534C33.9331 138.366 28.6334 124.528 25.8502 109.411C23.4702 96.4635 23.054 83.1205 24.4439 70.1012C33.8432 43.8071 48.8685 26.5216 63.4221 15.2597C58.2368 23.8959 54.3569 33.2171 51.8714 43.1393L51.8781 43.1411ZM46.2127 146.867C43.1841 131.354 43.3957 115.04 46.8359 99.6801C47.6289 96.1448 48.5771 92.7038 49.6769 89.3705C51.1746 97.602 53.7782 105.387 57.4727 112.598C62.7908 122.967 70.2548 131.952 79.2386 138.986C81.4275 152.149 86.8565 165.369 95.2779 177.841C100.472 185.537 107.432 192.688 115.711 198.914C101.811 196.827 87.6816 191.406 73.9199 182.773C65.0345 177.206 57.1894 170.44 50.4786 162.581C48.5458 157.047 47.1786 151.752 46.2194 146.869L46.2127 146.867ZM95.5652 177.645C87.2514 165.334 81.8734 152.296 79.6508 139.305C84.9935 143.43 90.8679 146.876 97.1405 149.496C105.501 152.991 114.174 154.8 122.288 154.81C122.915 155.792 123.574 156.762 124.264 157.725C132.694 169.437 145.301 178.56 159.76 183.427C161.015 183.851 162.287 184.243 163.574 184.603C166.58 185.444 169.663 186.111 172.803 186.604C163.462 192.82 152.779 197.055 141.455 198.879C133.289 200.192 124.905 200.237 116.433 199.036C107.955 192.74 100.839 185.472 95.5633 177.652L95.5652 177.645ZM141.513 199.215C153.02 197.362 163.874 193.037 173.331 186.665C186.526 188.649 200.774 187.57 215.241 183.42C224.163 180.859 233.114 176.452 241.603 170.499C235.324 183.073 225.798 194.833 213.339 205.257C205.293 211.988 196.436 217.359 186.884 221.314C181.021 221.439 175.561 221.111 170.628 220.508C154.935 218.595 139.484 213.349 125.941 205.338C122.824 203.492 119.843 201.524 117.014 199.453C125.307 200.567 133.515 200.502 141.513 199.215ZM215.145 183.088C200.866 187.189 186.803 188.283 173.76 186.378C179.339 182.568 184.427 178.047 188.863 172.893C194.775 166.023 199.172 158.336 201.694 150.619C202.816 150.322 203.944 150.006 205.079 149.64C218.818 145.236 231.398 136.067 240.492 123.822C243.139 120.261 245.486 116.441 247.54 112.401C250.571 123.205 251.294 134.672 249.526 146.001C248.258 154.171 245.702 162.162 241.939 169.844C233.331 175.96 224.224 180.483 215.154 183.083L215.145 183.088ZM249.861 146.051C251.653 134.532 250.896 122.874 247.764 111.911C253.727 99.9751 257.111 86.0892 257.627 71.052C257.948 61.7743 256.518 51.8977 253.483 41.9933C263.5 51.8527 271.744 64.5444 277.811 79.6138C281.724 89.3423 284.09 99.4301 284.907 109.731C283.219 115.349 281.214 120.435 279.116 124.949C272.445 139.282 262.682 152.357 250.876 162.759C248.157 165.153 245.368 167.381 242.52 169.433C246.143 161.886 248.623 154.062 249.866 146.06L249.861 146.051ZM260.478 10.3173C249.311 -0.314548 236.854 -8.41485 223.452 -13.7634C218.778 -15.6307 214.032 -17.1333 209.22 -18.298C194.173 -28.7289 173.273 -37.8472 145.555 -38.9384C167.683 -43.35 190.476 -42.3433 210.182 -35.5286C224.979 -30.4145 241.186 -20.9889 255.822 -8.98687C258.144 -7.07979 260.366 -5.15004 262.492 -3.21785C268.007 4.18984 273.04 12.6403 277.35 22.2763C280.085 28.3975 282.295 34.3428 284.053 40.1109C277.634 29.2089 269.686 19.0708 260.48 10.3106L260.478 10.3173ZM208.292 -18.5141C198.476 -20.781 188.41 -21.5844 178.207 -20.8854C161.699 -19.7558 146.836 -15.7243 134.196 -9.043C130.47 -9.07548 126.678 -8.92301 122.84 -8.55785C107.127 -7.075 91.4956 -2.21926 77.6358 5.47234C73.4963 7.77338 69.123 10.5467 64.6854 13.8617C67.1432 9.93464 69.8805 6.15121 72.8937 2.52488C82.0976 -8.52611 93.6154 -17.8469 107.137 -25.1607C118.716 -31.4267 131.273 -35.9435 144.085 -38.6449C171.995 -37.8267 193.076 -28.8834 208.285 -18.5159L208.292 -18.5141ZM23.9498 71.5036C22.7296 84.098 23.2048 96.9707 25.5074 109.468C28.2994 124.631 33.6099 138.508 41.305 150.719C43.9883 154.973 46.9414 158.989 50.1546 162.752C56.1989 180.031 67.7484 199.687 89.5245 216.87C69.0251 207.435 51.1789 193.22 39.2474 176.124C30.2876 163.29 22.7183 146.136 17.9287 127.827C17.1707 124.926 16.508 122.073 15.9293 119.259C15.82 110.013 16.7008 100.216 18.8908 89.8698C20.2758 83.3097 21.9862 77.1968 23.9517 71.4968L23.9498 71.5036ZM50.7815 163.472C57.3891 171.077 65.058 177.641 73.7264 183.075C87.7437 191.859 102.14 197.341 116.298 199.362C119.289 201.58 122.45 203.685 125.768 205.645C139.354 213.684 154.852 218.943 170.587 220.86C175.288 221.434 180.458 221.762 185.996 221.683C181.696 223.416 177.263 224.872 172.695 226.028C158.749 229.561 143.956 230.327 128.716 228.301C115.663 226.567 102.848 222.836 90.8997 217.487C68.7993 200.425 57.0029 180.794 50.7901 163.467L50.7815 163.472ZM128.663 228.65C143.951 230.682 158.788 229.913 172.774 226.37C177.654 225.134 182.381 223.564 186.953 221.667C205.257 221.259 227.516 216.353 250.59 200.949C235.284 217.524 216.249 230.104 196.3 236.18C181.326 240.739 162.671 242.634 143.778 241.534C140.776 241.356 137.845 241.102 134.991 240.784C126.175 238.033 117.136 234.16 107.979 228.887C102.169 225.546 96.881 222.032 92.0698 218.396C103.666 223.443 116.059 226.969 128.656 228.648L128.663 228.65ZM187.834 221.296C197.103 217.364 205.721 212.094 213.567 205.532C226.256 194.911 235.912 182.918 242.214 170.081C245.253 167.923 248.224 165.564 251.117 163.016C262.961 152.58 272.749 139.469 279.439 125.091C281.44 120.796 283.347 115.981 284.987 110.691C285.307 115.315 285.316 119.984 285.01 124.687C284.062 139.036 280.218 153.346 273.583 167.216C267.898 179.092 260.391 190.13 251.613 199.84C228.551 215.589 206.245 220.743 187.849 221.293L187.834 221.296ZM273.882 167.365C280.542 153.459 284.398 139.109 285.346 124.708C285.676 119.685 285.645 114.705 285.259 109.772C290.527 92.2415 292.742 69.5476 285.213 42.8482C296.247 62.527 302.332 84.5199 301.941 105.37C301.646 121.021 297.689 139.346 290.801 156.976C289.706 159.772 288.556 162.481 287.372 165.1C282.031 172.632 275.555 180.035 267.719 187.108C262.741 191.602 257.764 195.544 252.823 198.994C261.207 189.523 268.393 178.83 273.882 167.365ZM262.751 -3.44327C261.637 -4.93974 260.502 -6.39092 259.356 -7.80166C263.599 -3.77284 267.603 0.515886 271.353 5.06076C268.735 2.23529 265.862 -0.610882 262.758 -3.44138L262.751 -3.44327ZM94.5663 -31.8684C92.9926 -31.3349 91.4354 -30.7822 89.9129 -30.1981C94.8607 -32.8688 99.9207 -35.2393 105.071 -37.3084C101.654 -35.7208 98.1361 -33.9 94.5663 -31.8684ZM15.5834 119.3C15.6024 121.18 15.6731 123.031 15.7715 124.861C14.6477 118.878 13.909 112.843 13.5451 106.768C14.0024 110.769 14.6801 114.97 15.5767 119.298L15.5834 119.3ZM134.899 241.114C136.102 241.487 137.303 241.845 138.503 242.18C138.975 242.312 139.45 242.431 139.924 242.556C134.419 241.815 128.921 240.764 123.465 239.383C127.091 240.085 130.917 240.668 134.901 241.107L134.899 241.114ZM136.754 241.313C139.045 241.54 141.382 241.736 143.755 241.877C162.688 242.988 181.384 241.076 196.396 236.512C216.827 230.295 236.307 217.272 251.819 200.116C257.166 196.459 262.555 192.24 267.942 187.374C275.295 180.733 281.455 173.808 286.603 166.76C283.823 172.719 280.835 178.126 277.769 182.798C275.196 186.41 272.453 189.901 269.558 193.262C268.955 193.886 268.344 194.485 267.739 195.035L267.868 195.173C257.311 206.979 244.771 217.097 230.565 225.091C203.473 240.338 172.933 246.422 142.636 242.915C140.683 242.441 138.718 241.906 136.744 241.325L136.754 241.313ZM282.261 0.438525C289.158 9.11242 296.382 21.7587 301.837 37.2237C299.62 32.0321 297.119 26.943 294.317 21.9729C284.434 4.41138 271.47 -10.8366 255.781 -23.3366C242.025 -34.3003 226.68 -42.729 210.048 -48.48C216.605 -46.4057 223.804 -43.6938 231.344 -40.0724C251.433 -30.418 268.557 -16.7896 282.259 0.445264L282.261 0.438525ZM189.432 -53.7544L189.42 -53.714C190.922 -53.4175 192.547 -53.0717 194.265 -52.6927C196.455 -52.1817 198.64 -51.6284 200.817 -51.0193C240.642 -39.8762 273.735 -13.8945 294.022 22.1446C297.677 28.6396 300.829 35.321 303.485 42.1396C307.578 55.0943 310.366 69.8058 310.744 85.6745C311.207 105.317 307.93 131.056 293.178 156.144C295.774 150.111 297.992 143.872 299.793 137.435C310.308 99.8547 305.562 60.4312 286.423 26.4209C285.806 25.3255 285.179 24.2417 284.535 23.1675C282.493 19.0642 279.494 14.6132 275.695 10.011C270.239 2.75772 264.173 -3.92499 257.55 -9.97113C237.92 -32.9781 213.65 -44.5217 194.275 -50.3134C193.396 -50.5739 192.522 -50.8258 191.646 -51.071C179.056 -54.5936 166.749 -56.322 155.237 -56.7599C166.613 -57.0288 178.07 -56.0322 189.43 -53.7477L189.432 -53.7544ZM50.0414 -13.3313C65.4298 -29.4469 83.6858 -41.526 104.308 -49.2297C114.615 -53.0824 128.747 -56.0323 144.989 -56.473C143.147 -56.3053 141.306 -56.1154 139.459 -55.8765C119.56 -53.3268 100.567 -47.0279 83.0052 -37.1453C65.4437 -27.2628 50.1957 -14.2983 37.6957 1.38996C37.182 2.03111 36.6886 2.67791 36.1865 3.32956C40.0412 -1.97987 44.6103 -7.6345 50.0395 -13.3246L50.0414 -13.3313ZM24.0505 22.2882L24.1257 22.3311C25.5052 19.8683 27.1375 17.0474 29.0415 13.9828C42.4994 -6.89521 60.9194 -24.3136 83.1818 -36.8416C103.969 -48.5395 126.678 -55.1577 149.815 -56.5254C162.817 -56.4774 177 -54.8054 191.558 -50.7321C192.428 -50.4888 193.309 -50.2351 194.181 -49.9764C212.906 -44.3811 236.218 -33.3889 255.456 -11.8362C239.226 -26.0867 219.88 -36.6305 198.474 -42.6197C174.414 -49.352 149.603 -49.8189 125.935 -44.2683C121.647 -43.5642 116.827 -42.1583 111.664 -40.1439C103.368 -37.276 95.2679 -33.6488 87.4551 -29.2579C87.3947 -29.2239 87.3325 -29.1832 87.2721 -29.1492C59.0536 -17.6192 40.4121 2.01918 28.8542 18.7559C21.0885 29.9913 15.2772 41.5919 11.0521 52.8223C14.3244 42.0883 18.6964 31.8656 24.0524 22.2815L24.0505 22.2882ZM19.4526 167.366C8.88004 147.751 3.03207 126.653 2.07725 104.664C1.5916 93.5685 3.18779 79.059 7.88331 63.3163C3.74001 81.2411 2.8171 99.5 5.14902 117.71C7.69879 137.61 13.9976 156.603 23.8802 174.164C26.2635 178.4 28.8306 182.497 31.5613 186.452C27.5264 180.977 23.3597 174.622 19.4458 167.364L19.4526 167.366ZM45.2986 203.093L45.3579 203.037C43.8183 201.371 42.1102 199.476 40.2943 197.369C34.2906 190.151 28.8874 182.346 24.184 173.988C4.17616 138.434 -0.977831 97.2972 9.5863 57.9571C13.8926 45.216 20.2267 31.8505 29.1389 18.9591C40.3144 2.78399 58.1217 -16.1067 84.8179 -27.7284C52.1781 -8.4748 28.6524 22.1006 18.4107 58.7039C15.9516 67.4924 14.3372 76.3792 13.539 85.2837C12.8725 89.4576 12.682 94.3461 12.9634 99.73C13.0559 109.087 14.0548 118.4 15.9545 127.558C18.3029 157.735 31.1528 181.366 43.4335 197.448C51.9543 208.604 61.4669 217.929 71.1074 225.525C61.7056 219.05 53.0596 211.536 45.3053 203.095L45.2986 203.093ZM181.849 252.296C159.925 256.292 138.05 255.331 116.842 249.441L116.674 249.394C106.14 246.446 93.091 240.564 79.8055 231.476C91.465 238.401 104.003 243.77 117.287 247.487C137.459 253.131 158.13 254.656 178.736 252.021C187.026 250.961 195.154 249.238 203.093 246.888C196.797 248.949 189.69 250.87 181.849 252.296ZM235.022 232.981C231.339 235.053 227.594 236.956 223.796 238.713L223.783 238.68C221.905 239.55 219.797 240.487 217.496 241.463C185.797 254.447 150.898 256.528 117.388 247.152C102.473 242.978 88.5045 236.723 75.7889 228.637C64.6591 220.494 53.5178 210.08 43.6995 197.224C31.8448 181.698 19.4602 159.105 16.5554 130.371C19.661 143.973 24.743 157.211 31.7763 169.71C47.7651 198.122 72.1995 219.908 101.724 232.435C105.31 234.295 109.649 235.931 114.575 237.31C115.31 237.515 116.077 237.708 116.838 237.899C117.796 238.189 118.763 238.474 119.726 238.744C127.295 240.861 134.946 242.348 142.605 243.234C172.139 250.429 198.7 245.499 217.85 238.772C230.826 234.212 242.414 228.196 252.483 221.536C246.958 225.696 241.136 229.517 235.012 232.963L235.022 232.981ZM261.293 214.852C268.258 208.763 274.684 202.058 280.506 194.756C293.451 178.516 302.877 160.049 308.521 139.877C311.949 127.625 313.844 115.19 314.23 102.696C314.227 109.2 313.852 116.384 312.815 124.088C309.84 146.177 302.171 166.676 290.014 185.033C283.934 194.218 274.206 204.933 261.293 214.852Z" fill="#FFC72D"/>
<path d="M186.687 208.127L189.461 215.108C189.488 215.176 189.565 215.208 189.632 215.18L196.529 212.205C196.697 212.133 196.867 212.303 196.794 212.471L193.82 219.368C193.792 219.435 193.823 219.512 193.891 219.539L200.873 222.312C201.042 222.38 201.042 222.62 200.873 222.688L193.891 225.461C193.823 225.489 193.792 225.565 193.82 225.632L196.794 232.529C196.867 232.697 196.697 232.867 196.529 232.795L189.632 229.82C189.565 229.792 189.487 229.824 189.461 229.892L186.687 236.873C186.62 237.042 186.379 237.042 186.312 236.873L183.538 229.892C183.511 229.824 183.434 229.792 183.367 229.82L176.47 232.795C176.302 232.867 176.132 232.697 176.205 232.529L179.179 225.632C179.207 225.565 179.176 225.488 179.108 225.461L172.127 222.686C171.958 222.619 171.958 222.378 172.127 222.311L179.109 219.537C179.177 219.51 179.208 219.434 179.18 219.367L176.206 212.469C176.133 212.302 176.303 212.132 176.471 212.204L183.368 215.179C183.435 215.207 183.513 215.175 183.539 215.107L186.312 208.127C186.379 207.958 186.62 207.958 186.687 208.127Z" fill="#E93F30"/>
</g>
<defs>
<clipPath id="clip0_4121_3238">
<rect width="247" height="256" fill="white"/>
</clipPath>
</defs>
</svg>
