<svg width="268" height="560" viewBox="0 0 268 560" fill="none" xmlns="http://www.w3.org/2000/svg">
<g clip-path="url(#clip0_4121_3233)">
<path d="M501.67 206.841C501.67 335.6 397.289 439.98 268.53 439.98C139.77 439.98 35.3902 335.6 35.39 206.841C35.39 78.0813 139.77 -26.2996 268.53 -26.2998C397.289 -26.2998 501.67 78.0811 501.67 206.841ZM476.94 190.811C476.94 305.907 383.636 399.211 268.54 399.211C153.444 399.211 60.14 305.907 60.14 190.811C60.14 75.7144 153.444 -17.5898 268.54 -17.5898C383.636 -17.5896 476.94 75.7145 476.94 190.811ZM454.48 177.891C454.48 280.588 371.227 363.841 268.53 363.841C165.833 363.841 82.5805 280.588 82.5804 177.891C82.5804 75.1934 165.832 -8.05939 268.53 -8.05957C371.227 -8.05957 454.48 75.1933 454.48 177.891ZM437.3 168.131C437.3 261.34 361.739 336.9 268.53 336.9C175.321 336.9 99.7603 261.34 99.7601 168.131C99.7601 74.9219 175.321 -0.639465 268.53 -0.639648C361.739 -0.639648 437.3 74.9218 437.3 168.131ZM419.56 158.891C419.56 242.308 351.937 309.931 268.52 309.931C185.103 309.931 117.48 242.308 117.48 158.891C117.48 75.4736 185.103 7.85065 268.52 7.85059C351.937 7.85059 419.56 75.4735 419.56 158.891ZM404.19 152.021C404.19 226.943 343.453 287.681 268.53 287.681C193.607 287.68 132.87 226.943 132.87 152.021C132.87 77.0977 193.607 16.3605 268.53 16.3604C343.453 16.3604 404.19 77.0976 404.19 152.021ZM389.96 145.86C389.96 212.919 335.599 267.28 268.54 267.28C201.482 267.28 147.12 212.919 147.12 145.86C147.121 78.802 201.482 24.4404 268.54 24.4404C335.599 24.4406 389.96 78.8021 389.96 145.86ZM376.4 140.23C376.4 199.805 328.105 248.101 268.53 248.101C208.955 248.1 160.66 199.805 160.66 140.23C160.66 80.6556 208.955 32.3605 268.53 32.3604C328.105 32.3604 376.4 80.6555 376.4 140.23ZM364.75 136.091C364.75 189.237 321.666 232.32 268.52 232.32C215.374 232.32 172.291 189.237 172.29 136.091C172.29 82.9445 215.374 39.8604 268.52 39.8604C321.666 39.8604 364.75 82.9445 364.75 136.091ZM353.65 132.54C353.65 179.551 315.54 217.66 268.53 217.66C221.519 217.66 183.41 179.55 183.41 132.54C183.41 85.5299 221.519 47.4211 268.53 47.4209C315.54 47.4209 353.65 85.5298 353.65 132.54ZM342.35 129.171C342.35 169.94 309.299 202.99 268.53 202.99C227.76 202.99 194.711 169.94 194.71 129.171C194.71 88.4014 227.76 55.3508 268.53 55.3506C309.299 55.3506 342.35 88.4012 342.35 129.171ZM332.84 126.671C332.84 162.188 304.047 190.98 268.53 190.98C233.013 190.98 204.22 162.188 204.22 126.671C204.22 91.1536 233.012 62.3605 268.53 62.3604C304.047 62.3604 332.84 91.1535 332.84 126.671ZM322.78 124.61C322.78 154.572 298.491 178.86 268.53 178.86C238.568 178.86 214.28 154.572 214.28 124.61C214.28 94.6491 238.568 70.3605 268.53 70.3604C298.491 70.3604 322.78 94.649 322.78 124.61ZM313.07 122.9C313.07 147.499 293.128 167.44 268.53 167.44C243.931 167.44 223.99 147.499 223.99 122.9C223.99 98.3018 243.931 78.3605 268.53 78.3604C293.128 78.3604 313.07 98.3017 313.07 122.9ZM303.7 121.53C303.7 140.954 287.954 156.7 268.53 156.7C249.106 156.7 233.36 140.954 233.36 121.53C233.36 102.107 249.106 86.3605 268.53 86.3604C287.953 86.3604 303.699 102.107 303.7 121.53ZM294.65 120.48C294.65 134.906 282.955 146.601 268.53 146.601C254.104 146.6 242.41 134.906 242.41 120.48C242.41 106.055 254.104 94.3605 268.53 94.3604C282.955 94.3604 294.65 106.055 294.65 120.48ZM285.63 119.45C285.63 128.894 277.974 136.551 268.53 136.551C259.086 136.551 251.43 128.894 251.43 119.45C251.43 110.006 259.086 102.351 268.53 102.351C277.974 102.351 285.63 110.006 285.63 119.45ZM276.34 119.45C276.34 123.764 272.843 127.261 268.53 127.261C264.216 127.261 260.72 123.763 260.72 119.45C260.72 115.137 264.217 111.641 268.53 111.641C272.843 111.641 276.34 115.137 276.34 119.45ZM277.34 119.45C277.34 114.585 273.395 110.641 268.53 110.641C263.664 110.641 259.72 114.585 259.72 119.45C259.72 124.316 263.664 128.261 268.53 128.261C273.395 128.261 277.34 124.316 277.34 119.45ZM286.63 119.45C286.63 109.454 278.526 101.351 268.53 101.351C258.534 101.351 250.43 109.454 250.43 119.45C250.43 129.446 258.533 137.551 268.53 137.551C278.526 137.551 286.63 129.447 286.63 119.45ZM295.65 120.48C295.65 105.503 283.508 93.3604 268.53 93.3604C253.552 93.3605 241.41 105.503 241.41 120.48C241.41 135.458 253.552 147.6 268.53 147.601C283.508 147.601 295.65 135.458 295.65 120.48ZM304.7 121.53C304.699 101.554 288.506 85.3604 268.53 85.3604C248.554 85.3605 232.36 101.554 232.36 121.53C232.36 141.506 248.554 157.7 268.53 157.7C288.506 157.7 304.7 141.506 304.7 121.53ZM314.07 122.9C314.07 97.7494 293.681 77.3604 268.53 77.3604C243.379 77.3605 222.99 97.7495 222.99 122.9C222.99 148.051 243.379 168.44 268.53 168.44C293.681 168.44 314.07 148.051 314.07 122.9ZM323.78 124.61C323.78 94.0967 299.043 69.3604 268.53 69.3604C238.016 69.3605 213.28 94.0968 213.28 124.61C213.28 155.124 238.016 179.86 268.53 179.86C299.043 179.86 323.78 155.124 323.78 124.61ZM333.84 126.671C333.84 90.6012 304.599 61.3604 268.53 61.3604C232.46 61.3605 203.22 90.6013 203.22 126.671C203.22 162.74 232.46 191.98 268.53 191.98C304.599 191.98 333.84 162.74 333.84 126.671ZM343.35 129.171C343.35 87.8489 309.852 54.3506 268.53 54.3506C227.208 54.3508 193.71 87.8491 193.71 129.171C193.711 170.493 227.208 203.99 268.53 203.99C309.851 203.99 343.35 170.493 343.35 129.171ZM354.65 132.54C354.65 84.9775 316.092 46.4209 268.53 46.4209C220.967 46.4211 182.41 84.9776 182.41 132.54C182.41 180.103 220.967 218.66 268.53 218.66C316.092 218.66 354.65 180.103 354.65 132.54ZM365.75 136.091C365.75 82.3922 322.219 38.8604 268.52 38.8604C214.821 38.8604 171.29 82.3922 171.29 136.091C171.291 189.789 214.821 233.32 268.52 233.32C322.218 233.32 365.75 189.789 365.75 136.091ZM377.4 140.23C377.4 80.1032 328.657 31.3604 268.53 31.3604C208.403 31.3605 159.66 80.1033 159.66 140.23C159.66 200.358 208.403 249.1 268.53 249.101C328.657 249.101 377.4 200.358 377.4 140.23ZM390.96 145.86C390.96 78.2498 336.151 23.4406 268.54 23.4404C200.93 23.4404 146.121 78.2497 146.12 145.86C146.12 213.471 200.93 268.28 268.54 268.28C336.151 268.28 390.96 213.471 390.96 145.86ZM405.19 152.021C405.19 76.5453 344.005 15.3604 268.53 15.3604C193.055 15.3605 131.87 76.5454 131.87 152.021C131.87 227.496 193.055 288.68 268.53 288.681C344.005 288.681 405.19 227.496 405.19 152.021ZM420.56 158.891C420.56 74.9213 352.489 6.85059 268.52 6.85059C184.551 6.85065 116.48 74.9213 116.48 158.891C116.48 242.86 184.551 310.931 268.52 310.931C352.489 310.931 420.56 242.86 420.56 158.891ZM438.3 168.131C438.3 74.3695 362.291 -1.63965 268.53 -1.63965C174.768 -1.63947 98.7601 74.3696 98.7601 168.131C98.7603 261.892 174.769 337.9 268.53 337.9C362.291 337.9 438.3 261.892 438.3 168.131ZM455.48 177.891C455.48 74.641 371.779 -9.05957 268.53 -9.05957C165.28 -9.05939 81.5804 74.6411 81.5804 177.891C81.5805 281.14 165.28 364.841 268.53 364.841C371.779 364.841 455.48 281.14 455.48 177.891ZM477.94 190.811C477.94 75.1622 384.189 -18.5896 268.54 -18.5898C152.892 -18.5898 59.14 75.1621 59.14 190.811C59.14 306.459 152.892 400.211 268.54 400.211C384.189 400.211 477.94 306.459 477.94 190.811ZM502.67 206.841C502.67 77.5289 397.842 -27.2998 268.53 -27.2998C139.218 -27.2996 34.39 77.529 34.39 206.841C34.3902 336.152 139.218 440.98 268.53 440.98C397.841 440.98 502.67 336.153 502.67 206.841Z" fill="#DCD0B4"/>
<path d="M269.12 337.4V-214.689H268.12V337.4H269.12Z" fill="#DCD0B4"/>
<path d="M289.331 -60.9107C302.835 -98.455 332.255 -155.081 359.696 -199.647L359.271 -199.91L358.845 -200.171C331.386 -155.577 301.926 -98.8842 288.39 -61.2486L289.331 -60.9107ZM248.591 -61.2193C235.004 -98.8348 205.475 -155.488 177.956 -200.052L177.53 -199.79L177.106 -199.527C204.607 -154.991 234.097 -98.4037 247.65 -60.8794L248.591 -61.2193ZM308.842 -55.7046C343.046 -93.6642 401.009 -135.161 440.801 -152.542L440.4 -153.458C400.472 -136.018 342.394 -94.4349 308.099 -56.3745L308.471 -56.0396L308.842 -55.7046ZM228.901 -56.3247C194.546 -94.345 136.428 -135.848 96.4698 -153.238L96.0713 -152.321C135.893 -134.991 193.895 -93.5743 228.159 -55.6548L228.901 -56.3247ZM327.305 -46.8247C348.321 -59.9005 380.207 -69.6197 412.539 -75.4692C444.865 -81.3177 477.565 -83.2853 500.178 -80.9019L500.23 -81.3999L500.282 -81.897C477.545 -84.2935 444.745 -82.3116 412.361 -76.4526C379.983 -70.5947 347.951 -60.8485 326.776 -47.6743L327.04 -47.2495L327.305 -46.8247ZM210.225 -47.5943C189.035 -60.7434 156.992 -70.4504 124.607 -76.2671C92.2173 -82.0848 59.4148 -84.0237 36.6778 -81.5972L36.7832 -80.6021C59.396 -83.0154 92.0986 -81.09 124.431 -75.2827C156.769 -69.4744 188.667 -59.7955 209.697 -46.7447L210.225 -47.5943ZM532.189 4.58444C505.709 -13.1217 432.129 -47.8944 342.737 -36.6353L342.862 -35.6431C431.95 -46.864 505.291 -12.1974 531.632 5.41647L532.189 4.58444ZM5.42875 5.74557C31.7497 -11.9081 105.041 -46.6642 194.148 -35.5533L194.211 -36.0493L194.273 -36.5454C104.861 -47.6944 31.3312 -12.8308 4.87211 4.9155L5.42875 5.74557ZM532.58 96.2202L533.004 95.9546C499.718 43.0558 434.5 -12.0735 358.18 -21.1363L358.12 -20.6392L358.062 -20.1431C434.001 -11.1256 498.983 43.7657 532.157 96.4868L532.58 96.2202ZM5.02445 96.8257C38.1287 44.0548 103.041 -10.9066 178.971 -20.0337L178.91 -20.5298L178.851 -21.0259C102.541 -11.8529 37.3926 43.3454 4.1768 96.2944L5.02445 96.8257ZM126.857 279.79C199.062 229.267 250.816 150.846 268.608 120.319C286.447 150.832 338.298 229.171 410.564 279.6L410.851 279.191L411.137 278.781C340.209 229.286 288.958 152.797 270.359 121.325L270.42 121.291C270.388 121.232 270.355 121.173 270.322 121.113C302.723 141.596 389.018 175.987 495.999 152.218L495.782 151.243C390.999 174.523 306.141 141.835 272.63 121.368L272.78 121.077C271.759 120.547 270.709 119.983 269.631 119.387C269.649 119.377 269.667 119.366 269.685 119.356C325.38 120.614 398.261 96.5872 444.923 52.6948L444.237 51.9663C398.243 95.231 326.599 119.132 271.362 118.386C302.532 100.135 352.687 57.6288 383.177 3.07468L382.304 2.5864C351.478 57.7431 300.46 100.555 269.55 118.28C277.398 103.54 288.943 80.4471 299.533 55.9174C310.996 29.3666 321.364 1.08948 324.704 -20.1021L324.21 -20.1792L323.717 -20.2574C320.397 0.801056 310.075 28.9793 298.615 55.521C288.01 80.0856 276.446 103.21 268.607 117.924C260.749 103.221 249.156 80.1127 238.52 55.563C227.027 29.0363 216.669 0.870392 213.324 -20.188L212.831 -20.1099L212.337 -20.0308C215.703 1.16074 226.105 29.4248 237.602 55.9604C248.223 80.4748 259.796 103.551 267.664 118.281C236.731 100.592 185.652 57.8495 154.757 2.72604L153.885 3.21432C184.443 57.7374 234.662 100.176 265.855 118.39C210.616 119.217 138.938 95.4034 92.8829 52.1958L92.1983 52.9253C138.921 96.759 211.835 120.696 267.531 119.357C267.55 119.368 267.569 119.378 267.588 119.388C266.507 119.987 265.454 120.554 264.43 121.086L264.582 121.38C231.092 141.891 146.278 174.675 41.4786 151.532L41.3702 152.02L41.2627 152.508C148.266 176.139 234.519 141.643 266.895 121.118C266.863 121.176 266.832 121.234 266.801 121.292L266.859 121.325C248.308 152.811 197.152 229.382 126.284 278.97L126.57 279.38L126.857 279.79Z" fill="#DCD0B4"/>
<path d="M383.14 52.5201C383.14 115.817 331.828 167.13 268.53 167.13C205.233 167.13 153.92 115.818 153.92 52.5201C153.92 -10.777 205.233 -62.0892 268.53 -62.0892C331.827 -62.0891 383.14 -10.7769 383.14 52.5201ZM385.14 52.5201C385.14 -11.8815 332.932 -64.0891 268.53 -64.0892C204.129 -64.0892 151.92 -11.8816 151.92 52.5201C151.92 116.922 204.128 169.13 268.53 169.13C332.932 169.13 385.14 116.922 385.14 52.5201Z" fill="#DCD0B4"/>
<path d="M443.58 52.56C443.58 149.221 365.22 227.58 268.56 227.58C171.899 227.58 93.54 149.221 93.54 52.56C93.5403 -44.1005 171.899 -122.459 268.56 -122.46C365.22 -122.46 443.58 -44.1006 443.58 52.56ZM445.58 52.56C445.58 -45.2052 366.325 -124.46 268.56 -124.46C170.794 -124.459 91.5403 -45.2051 91.54 52.56C91.54 150.325 170.794 229.58 268.56 229.58C366.325 229.58 445.58 150.325 445.58 52.56Z" fill="#DCD0B4"/>
<path d="M279.23 52.5203C279.23 58.4297 274.44 63.2204 268.53 63.2205C262.621 63.2205 257.83 58.4297 257.83 52.5203C257.83 46.6109 262.621 41.8201 268.53 41.8201C274.439 41.8202 279.23 46.611 279.23 52.5203ZM280.73 52.5203C280.73 45.7826 275.268 40.3202 268.53 40.3201C261.792 40.3201 256.33 45.7825 256.33 52.5203C256.33 59.2581 261.792 64.7205 268.53 64.7205C275.268 64.7204 280.73 59.2581 280.73 52.5203Z" fill="#DCD0B4"/>
<path d="M535.12 52.5609C535.12 199.778 415.776 319.12 268.56 319.12C121.343 319.12 2.00023 199.778 2 52.5609C2 -94.6559 121.343 -213.999 268.56 -214C415.777 -214 535.12 -94.6561 535.12 52.5609ZM537.12 52.5609C537.12 -95.7607 416.881 -216 268.56 -216C120.238 -215.999 0 -95.7605 0 52.5609C0.000230964 200.882 120.238 321.12 268.56 321.12C416.881 321.12 537.12 200.882 537.12 52.5609Z" fill="#DCD0B4"/>
<path d="M161.999 314.966L169.625 426.993L261.857 363.111L262.48 363.891L179.75 439.713L287.145 472.082L286.922 473.055L176.139 455.569L217.817 559.814L216.919 560.247L161.5 462.62L106.081 560.247L105.183 559.814L146.86 455.569L36.0781 473.055L35.8555 472.082L143.249 439.713L60.5195 363.891L61.1426 363.111L153.374 426.993L161.001 314.966H161.999ZM154.253 428.818L66.6006 368.108L145.221 440.164L43.1631 470.924L148.442 454.308L108.838 553.363L161.5 460.596L214.161 553.363L174.558 454.308L279.836 470.924L177.779 440.164L256.398 368.108L168.747 428.818L161.5 322.363L154.253 428.818Z" fill="#DCD0B4"/>
<path d="M205 454.012L175.149 454.964L180.865 483.994L179.596 481.387L174.399 454.987L166.871 455.228L161.991 460.909L179.599 481.387L180.868 483.994L161.504 461.473L142.149 484L143.418 481.393L161.018 460.909L156.135 455.231L148.607 454.993L143.418 481.393L142.149 484L147.854 454.966L118 454.027L120.849 453.381L147.996 454.238L149.434 446.915L144.928 440.937L120.849 453.381L118 454.027L144.477 440.344L126.61 416.643L128.896 418.445L145.144 439.997L151.821 436.547L153.73 429.33L128.896 418.448L126.61 416.646L153.923 428.614L161.49 400V402.895L154.605 428.913L161.493 431.932L168.38 428.91L161.487 402.895V400L169.065 428.608L196.372 416.628L194.086 418.434L169.255 429.327L171.167 436.542L177.847 439.992L194.089 418.434L196.375 416.628L178.514 440.335L204.997 454.009L202.148 453.366L178.067 440.931L173.563 446.909L175.004 454.232L202.148 453.366L204.997 454.009L205 454.012ZM169.676 450.638L172.747 446.727L171.695 441.894L170.518 437.061L166.026 434.853L161.496 432.76L156.962 434.856L152.476 437.064L151.305 441.885L150.253 446.73L153.327 450.644L156.497 454.482L161.496 454.541L166.509 454.479L169.679 450.638H169.676ZM177.402 440.591L171.505 437.546L172.415 441.727L173.423 445.873L177.402 440.594V440.591ZM168.573 429.63L162.492 432.299L166.346 434.193L170.26 436.001L168.573 429.63ZM154.418 429.633L152.731 436.004L156.636 434.198L160.499 432.299L154.415 429.633H154.418ZM145.595 440.594L149.574 445.873L150.582 441.724L151.489 437.549L145.592 440.596L145.595 440.594ZM148.746 454.262L155.394 454.47L152.749 451.102L150.018 447.793L148.746 454.259V454.262ZM161.501 460.343L165.812 455.325L161.496 455.275L157.19 455.328L161.504 460.343H161.501ZM174.254 454.259L172.982 447.793L170.257 451.096L167.606 454.47L174.254 454.259Z" fill="#5374DF"/>
<path d="M161.801 95.5L160.801 95.5L160.801 95L161.801 95L161.801 95.5ZM161.801 97.5L160.801 97.5L160.801 96.5L161.801 96.5L161.801 97.5ZM161.801 99.5L160.801 99.5L160.801 98.5L161.801 98.5L161.801 99.5ZM161.801 101.5L160.801 101.5L160.801 100.5L161.801 100.5L161.801 101.5ZM161.801 103.5L160.801 103.5L160.801 102.5L161.801 102.5L161.801 103.5ZM161.801 105.5L160.801 105.5L160.801 104.5L161.801 104.5L161.801 105.5ZM161.801 107.5L160.801 107.5L160.801 106.5L161.801 106.5L161.801 107.5ZM161.801 109.5L160.801 109.5L160.801 108.5L161.801 108.5L161.801 109.5ZM161.801 111.5L160.801 111.5L160.801 110.5L161.801 110.5L161.801 111.5ZM161.801 113.5L160.801 113.5L160.801 112.5L161.801 112.5L161.801 113.5ZM161.801 115.5L160.801 115.5L160.801 114.5L161.801 114.5L161.801 115.5ZM161.801 117.5L160.801 117.5L160.801 116.5L161.801 116.5L161.801 117.5ZM161.801 119.5L160.801 119.5L160.801 118.5L161.801 118.5L161.801 119.5ZM161.801 121.5L160.801 121.5L160.801 120.5L161.801 120.5L161.801 121.5ZM161.801 123.5L160.801 123.5L160.801 122.5L161.801 122.5L161.801 123.5ZM161.801 125.5L160.801 125.5L160.801 124.5L161.801 124.5L161.801 125.5ZM161.801 127.5L160.801 127.5L160.801 126.5L161.801 126.5L161.801 127.5ZM161.801 129.5L160.801 129.5L160.801 128.5L161.801 128.5L161.801 129.5ZM161.801 131.5L160.801 131.5L160.801 130.5L161.801 130.5L161.801 131.5ZM161.801 133.5L160.801 133.5L160.801 132.5L161.801 132.5L161.801 133.5ZM161.801 135.5L160.801 135.5L160.801 134.5L161.801 134.5L161.801 135.5ZM161.801 137.5L160.801 137.5L160.801 136.5L161.801 136.5L161.801 137.5ZM161.801 139.5L160.801 139.5L160.801 138.5L161.801 138.5L161.801 139.5ZM161.801 141.5L160.801 141.5L160.801 140.5L161.801 140.5L161.801 141.5ZM161.801 143.5L160.801 143.5L160.801 142.5L161.801 142.5L161.801 143.5ZM161.801 145.5L160.801 145.5L160.801 144.5L161.801 144.5L161.801 145.5ZM161.801 147.5L160.801 147.5L160.801 146.5L161.801 146.5L161.801 147.5ZM161.801 149.5L160.801 149.5L160.801 148.5L161.801 148.5L161.801 149.5ZM161.801 151.5L160.801 151.5L160.801 150.5L161.801 150.5L161.801 151.5ZM161.801 153.5L160.801 153.5L160.801 152.5L161.801 152.5L161.801 153.5ZM161.801 155.5L160.801 155.5L160.801 154.5L161.801 154.5L161.801 155.5ZM161.801 157.5L160.801 157.5L160.801 156.5L161.801 156.5L161.801 157.5ZM161.801 159.5L160.801 159.5L160.801 158.5L161.801 158.5L161.801 159.5ZM161.801 161.5L160.801 161.5L160.801 160.5L161.801 160.5L161.801 161.5ZM161.801 163.5L160.801 163.5L160.801 162.5L161.801 162.5L161.801 163.5ZM161.801 165.5L160.801 165.5L160.801 164.5L161.801 164.5L161.801 165.5ZM161.801 167.5L160.801 167.5L160.801 166.5L161.801 166.5L161.801 167.5ZM161.801 169.5L160.801 169.5L160.801 168.5L161.801 168.5L161.801 169.5ZM161.801 171.5L160.801 171.5L160.801 170.5L161.801 170.5L161.801 171.5ZM161.801 173.5L160.801 173.5L160.801 172.5L161.801 172.5L161.801 173.5ZM161.801 175.5L160.801 175.5L160.801 174.5L161.801 174.5L161.801 175.5ZM161.801 177.5L160.801 177.5L160.801 176.5L161.801 176.5L161.801 177.5ZM161.801 179.5L160.801 179.5L160.801 178.5L161.801 178.5L161.801 179.5ZM161.801 181.5L160.801 181.5L160.801 180.5L161.801 180.5L161.801 181.5ZM161.801 183.5L160.801 183.5L160.801 182.5L161.801 182.5L161.801 183.5ZM161.801 185.5L160.801 185.5L160.801 184.5L161.801 184.5L161.801 185.5ZM161.801 187.5L160.801 187.5L160.801 186.5L161.801 186.5L161.801 187.5ZM161.801 189.5L160.801 189.5L160.801 188.5L161.801 188.5L161.801 189.5ZM161.801 191.5L160.801 191.5L160.801 190.5L161.801 190.5L161.801 191.5ZM161.801 193.5L160.801 193.5L160.801 192.5L161.801 192.5L161.801 193.5ZM161.801 195.5L160.801 195.5L160.801 194.5L161.801 194.5L161.801 195.5ZM161.801 197.5L160.801 197.5L160.801 196.5L161.801 196.5L161.801 197.5ZM161.801 199.5L160.801 199.5L160.801 198.5L161.801 198.5L161.801 199.5ZM161.801 201.5L160.801 201.5L160.801 200.5L161.801 200.5L161.801 201.5ZM161.801 203.5L160.801 203.5L160.801 202.5L161.801 202.5L161.801 203.5ZM161.801 205.5L160.801 205.5L160.801 204.5L161.801 204.5L161.801 205.5ZM161.801 207.5L160.801 207.5L160.801 206.5L161.801 206.5L161.801 207.5ZM161.801 209.5L160.801 209.5L160.801 208.5L161.801 208.5L161.801 209.5ZM161.801 211.5L160.801 211.5L160.801 210.5L161.801 210.5L161.801 211.5ZM161.801 213.5L160.801 213.5L160.801 212.5L161.801 212.5L161.801 213.5ZM161.801 215.5L160.801 215.5L160.801 214.5L161.801 214.5L161.801 215.5ZM161.801 217.5L160.801 217.5L160.801 216.5L161.801 216.5L161.801 217.5ZM161.801 219.5L160.801 219.5L160.801 218.5L161.801 218.5L161.801 219.5ZM161.801 221.5L160.801 221.5L160.801 220.5L161.801 220.5L161.801 221.5ZM161.801 223.5L160.801 223.5L160.801 222.5L161.801 222.5L161.801 223.5ZM161.801 225.5L160.801 225.5L160.801 224.5L161.801 224.5L161.801 225.5ZM161.801 227.5L160.801 227.5L160.801 226.5L161.801 226.5L161.801 227.5ZM161.801 229.5L160.801 229.5L160.801 228.5L161.801 228.5L161.801 229.5ZM161.801 231.5L160.801 231.5L160.801 230.5L161.801 230.5L161.801 231.5ZM161.801 233.5L160.801 233.5L160.801 232.5L161.801 232.5L161.801 233.5ZM161.801 235.5L160.801 235.5L160.801 234.5L161.801 234.5L161.801 235.5ZM161.801 237.5L160.801 237.5L160.801 236.5L161.801 236.5L161.801 237.5ZM161.801 239.5L160.801 239.5L160.801 238.5L161.801 238.5L161.801 239.5ZM161.801 241.5L160.801 241.5L160.801 240.5L161.801 240.5L161.801 241.5ZM161.801 243.5L160.801 243.5L160.801 242.5L161.801 242.5L161.801 243.5ZM161.801 245.5L160.801 245.5L160.801 244.5L161.801 244.5L161.801 245.5ZM161.801 247.5L160.801 247.5L160.801 246.5L161.801 246.5L161.801 247.5ZM161.801 249.5L160.801 249.5L160.801 248.5L161.801 248.5L161.801 249.5ZM161.801 251.5L160.801 251.5L160.801 250.5L161.801 250.5L161.801 251.5ZM161.801 253.5L160.801 253.5L160.801 252.5L161.801 252.5L161.801 253.5ZM161.801 255.5L160.801 255.5L160.801 254.5L161.801 254.5L161.801 255.5ZM161.801 257.5L160.801 257.5L160.801 256.5L161.801 256.5L161.801 257.5ZM161.801 259.5L160.801 259.5L160.801 258.5L161.801 258.5L161.801 259.5ZM161.801 261.5L160.801 261.5L160.801 260.5L161.801 260.5L161.801 261.5ZM161.801 263.5L160.801 263.5L160.801 262.5L161.801 262.5L161.801 263.5ZM161.801 265.5L160.801 265.5L160.801 264.5L161.801 264.5L161.801 265.5ZM161.801 267.5L160.801 267.5L160.801 266.5L161.801 266.5L161.801 267.5ZM161.801 269.5L160.801 269.5L160.801 268.5L161.801 268.5L161.801 269.5ZM161.801 271.5L160.801 271.5L160.801 270.5L161.801 270.5L161.801 271.5ZM161.801 273.5L160.801 273.5L160.801 272.5L161.801 272.5L161.801 273.5ZM161.801 275.5L160.801 275.5L160.801 274.5L161.801 274.5L161.801 275.5ZM161.801 277.5L160.801 277.5L160.801 276.5L161.801 276.5L161.801 277.5ZM161.801 279.5L160.801 279.5L160.801 278.5L161.801 278.5L161.801 279.5ZM161.801 281.5L160.801 281.5L160.801 280.5L161.801 280.5L161.801 281.5ZM161.801 283.5L160.801 283.5L160.801 282.5L161.801 282.5L161.801 283.5ZM161.801 285.5L160.801 285.5L160.801 284.5L161.801 284.5L161.801 285.5ZM161.801 287.5L160.801 287.5L160.801 286.5L161.801 286.5L161.801 287.5ZM161.801 289.5L160.801 289.5L160.801 288.5L161.801 288.5L161.801 289.5ZM161.801 291.5L160.801 291.5L160.801 290.5L161.801 290.5L161.801 291.5ZM161.801 293.5L160.801 293.5L160.801 292.5L161.801 292.5L161.801 293.5ZM161.801 295.5L160.801 295.5L160.801 294.5L161.801 294.5L161.801 295.5ZM161.801 297.5L160.801 297.5L160.801 296.5L161.801 296.5L161.801 297.5ZM161.801 299.5L160.801 299.5L160.801 298.5L161.801 298.5L161.801 299.5ZM161.801 301.5L160.801 301.5L160.801 300.5L161.801 300.5L161.801 301.5ZM161.801 303.5L160.801 303.5L160.801 302.5L161.801 302.5L161.801 303.5ZM161.801 305.5L160.801 305.5L160.801 304.5L161.801 304.5L161.801 305.5ZM161.801 307.5L160.801 307.5L160.801 306.5L161.801 306.5L161.801 307.5ZM161.801 309.5L160.801 309.5L160.801 308.5L161.801 308.5L161.801 309.5ZM161.801 311.5L160.801 311.5L160.801 310.5L161.801 310.5L161.801 311.5ZM161.801 313.5L160.801 313.5L160.801 312.5L161.801 312.5L161.801 313.5ZM161.801 315L160.801 315L160.801 314.5L161.801 314.5L161.801 315Z" fill="#DCD0B4"/>
<path d="M267 364.5C267 368.09 264.09 371 260.5 371C256.91 371 254 368.09 254 364.5C254 360.91 256.91 358 260.5 358C264.09 358 267 360.91 267 364.5Z" fill="#B62518"/>
<path d="M244 362C244 363.933 242.433 365.5 240.5 365.5C238.567 365.5 237 363.933 237 362C237 360.067 238.567 358.5 240.5 358.5C242.433 358.5 244 360.067 244 362Z" fill="#33811C"/>
<path d="M226 359C226 360.381 224.881 361.5 223.5 361.5C222.119 361.5 221 360.381 221 359C221 357.619 222.119 356.5 223.5 356.5C224.881 356.5 226 357.619 226 359Z" fill="#FFC72D"/>
<path d="M161.316 73.2655L163.83 87.7164C163.855 87.8643 164.026 87.9357 164.149 87.8493L176.146 79.4091C176.44 79.203 176.799 79.562 176.591 79.8545L168.151 91.8509C168.064 91.9739 168.136 92.145 168.284 92.17L182.735 94.6843C183.088 94.7457 183.088 95.2543 182.735 95.3157L168.284 97.83C168.136 97.855 168.064 98.0261 168.151 98.1491L176.591 110.146C176.797 110.44 176.438 110.799 176.146 110.591L164.149 102.151C164.026 102.064 163.855 102.136 163.83 102.284L161.316 116.735C161.254 117.088 160.746 117.088 160.684 116.735L158.17 102.284C158.145 102.136 157.974 102.064 157.851 102.151L145.854 110.591C145.56 110.797 145.201 110.438 145.409 110.146L153.849 98.1491C153.936 98.0261 153.864 97.855 153.716 97.83L139.265 95.3157C138.912 95.2543 138.912 94.7457 139.265 94.6843L153.716 92.17C153.864 92.145 153.936 91.9739 153.849 91.8509L145.407 79.8545C145.201 79.5603 145.56 79.2014 145.853 79.4091L157.849 87.8493C157.972 87.9357 158.143 87.8643 158.168 87.7164L160.684 73.2655C160.746 72.9115 161.254 72.9115 161.316 73.2655Z" fill="#F8F3E7"/>
<path d="M160.684 73.2655C160.746 72.9115 161.254 72.9115 161.315 73.2655L163.83 87.7166C163.852 87.846 163.986 87.9165 164.101 87.8739L164.149 87.8495L176.145 79.409C176.439 79.203 176.798 79.5619 176.591 79.8543L168.15 91.8504C168.064 91.9733 168.135 92.1446 168.283 92.1698L182.734 94.6844L182.797 94.701C183.087 94.8079 183.066 95.2576 182.734 95.3153L168.283 97.8299L168.231 97.8455C168.12 97.8968 168.075 98.0418 168.15 98.1493L176.591 110.145C176.797 110.439 176.438 110.798 176.145 110.591L164.149 102.15C164.026 102.064 163.855 102.135 163.83 102.283L161.315 116.734C161.254 117.088 160.746 117.088 160.684 116.734L158.17 102.283C158.145 102.135 157.973 102.064 157.85 102.15L145.854 110.591L145.799 110.623C145.518 110.752 145.214 110.42 145.409 110.145L153.602 98.4989L153.849 98.1493C153.925 98.0418 153.88 97.8968 153.768 97.8455L153.717 97.8299L139.265 95.3153C138.912 95.2538 138.912 94.7459 139.265 94.6844L153.717 92.1698C153.864 92.1446 153.936 91.9733 153.849 91.8504L145.471 79.9452L145.407 79.8543C145.201 79.5603 145.56 79.2015 145.852 79.409L157.849 87.8495C157.957 87.9246 158.101 87.8795 158.152 87.7684L158.168 87.7166L160.684 73.2655ZM159.153 87.8817L159.154 87.8827C159.007 88.7571 157.998 89.1759 157.274 88.6678L157.273 88.6668L148.475 82.4764L154.667 91.2752L154.668 91.2762C155.175 91.9985 154.758 93.0042 153.887 93.1541L153.888 93.1551L153.883 93.1561L153.882 93.1551L143.286 94.9998L153.882 96.8436H153.884L153.888 96.8446C154.759 96.9944 155.175 98.0012 154.668 98.7235L154.667 98.7245L148.474 107.524L157.276 101.332C157.998 100.825 159.005 101.241 159.155 102.112L161 112.713L162.845 102.112C162.995 101.241 164.001 100.825 164.723 101.332L164.724 101.333L173.524 107.524L167.333 98.7245L167.332 98.7235C166.824 98.0006 167.242 96.9922 168.115 96.8436L178.713 94.9998L168.117 93.1551H168.112C167.241 93.0045 166.825 91.9973 167.333 91.2752L173.524 82.4745L164.724 88.6668L164.723 88.6678C164 89.1757 162.991 88.757 162.844 87.8827L160.999 77.284L159.153 87.8817Z" fill="#092686"/>
<path d="M161.144 85.1207L162.286 91.6893C162.298 91.7565 162.376 91.789 162.431 91.7497L167.884 87.9132C168.018 87.8196 168.181 87.9827 168.087 88.1157L164.25 93.5686C164.211 93.6245 164.244 93.7023 164.311 93.7136L170.879 94.8565C171.04 94.8844 171.04 95.1156 170.879 95.1435L164.311 96.2864C164.244 96.2977 164.211 96.3755 164.25 96.4314L168.087 101.884C168.18 102.018 168.017 102.181 167.884 102.087L162.431 98.2503C162.376 98.211 162.298 98.2435 162.286 98.3107L161.144 104.879C161.116 105.04 160.884 105.04 160.856 104.879L159.714 98.3107C159.702 98.2435 159.624 98.211 159.569 98.2503L154.116 102.087C153.982 102.18 153.819 102.017 153.913 101.884L157.75 96.4314C157.789 96.3755 157.756 96.2977 157.689 96.2864L151.121 95.1435C150.96 95.1156 150.96 94.8844 151.121 94.8565L157.689 93.7136C157.756 93.7023 157.789 93.6245 157.75 93.5686L153.912 88.1157C153.819 87.982 153.982 87.8188 154.115 87.9132L159.568 91.7497C159.624 91.789 159.702 91.7565 159.713 91.6893L160.856 85.1207C160.884 84.9598 161.116 84.9598 161.144 85.1207Z" fill="#092686"/>
<path d="M239.115 156.097L240.029 161.351C240.038 161.405 240.1 161.431 240.145 161.4L244.507 158.331C244.614 158.256 244.745 158.386 244.669 158.493L241.6 162.855C241.569 162.9 241.595 162.962 241.649 162.971L246.903 163.885C247.032 163.908 247.032 164.092 246.903 164.115L241.649 165.029C241.595 165.038 241.569 165.1 241.6 165.145L244.669 169.507C244.744 169.614 244.614 169.745 244.507 169.669L240.145 166.6C240.1 166.569 240.038 166.595 240.029 166.649L239.115 171.903C239.092 172.032 238.908 172.032 238.885 171.903L237.971 166.649C237.962 166.595 237.9 166.569 237.855 166.6L233.493 169.669C233.386 169.744 233.255 169.614 233.331 169.507L236.4 165.145C236.431 165.1 236.405 165.038 236.351 165.029L231.097 164.115C230.968 164.092 230.968 163.908 231.097 163.885L236.351 162.971C236.405 162.962 236.431 162.9 236.4 162.855L233.33 158.493C233.255 158.386 233.386 158.255 233.492 158.331L237.854 161.4C237.899 161.431 237.961 161.405 237.97 161.351L238.885 156.097C238.908 155.968 239.092 155.968 239.115 156.097Z" fill="#092686"/>
</g>
<defs>
<clipPath id="clip0_4121_3233">
<rect width="268" height="560" fill="white"/>
</clipPath>
</defs>
</svg>
