<svg width="400" height="382" viewBox="0 0 400 382" fill="none" xmlns="http://www.w3.org/2000/svg">
<g clip-path="url(#clip0_4122_4406)">
<path d="M520.917 113.987C520.917 180.586 466.903 234.576 400.275 234.576C333.646 234.576 279.633 180.586 279.633 113.987C279.633 47.3868 333.646 -6.60333 400.275 -6.60342C466.903 -6.60342 520.917 47.3867 520.917 113.987ZM508.12 105.695C508.12 165.227 459.838 213.488 400.28 213.488C340.722 213.488 292.441 165.228 292.441 105.695C292.441 46.1626 340.722 -2.09827 400.28 -2.09827C459.838 -2.09816 508.12 46.1626 508.12 105.695ZM496.497 99.0123C496.497 152.132 453.417 195.193 400.275 195.193C347.133 195.193 304.053 152.132 304.053 99.0123C304.053 45.8931 347.133 2.83127 400.275 2.83118C453.417 2.83118 496.497 45.893 496.497 99.0123ZM487.608 93.9642C487.607 142.176 448.507 181.259 400.275 181.259C352.043 181.259 312.943 142.176 312.943 93.9642C312.943 45.7526 352.043 6.66916 400.275 6.66907C448.507 6.66907 487.608 45.7526 487.608 93.9642ZM478.428 89.1847C478.428 132.331 443.435 167.309 400.27 167.309C357.104 167.309 322.112 132.331 322.112 89.1847C322.112 46.038 357.104 11.0606 400.27 11.0606C443.435 11.0606 478.428 46.038 478.428 89.1847ZM470.474 85.6312C470.474 124.384 439.045 155.8 400.275 155.8C361.505 155.8 330.076 124.384 330.076 85.6312C330.076 46.8781 361.505 15.4623 400.275 15.4622C439.045 15.4622 470.474 46.878 470.474 85.6312ZM463.111 82.4449C463.111 117.13 434.981 145.248 400.28 145.248C365.58 145.248 337.45 117.13 337.45 82.4449C337.45 47.7596 365.58 19.6415 400.28 19.6415C434.981 19.6416 463.111 47.7596 463.111 82.4449ZM456.094 79.5329C456.094 110.348 431.103 135.328 400.275 135.328C369.447 135.328 344.456 110.347 344.456 79.5329C344.456 48.7184 369.447 23.7381 400.275 23.738C431.103 23.738 456.094 48.7183 456.094 79.5329ZM450.066 77.3917C450.066 104.881 427.771 127.166 400.27 127.166C372.769 127.166 350.475 104.881 350.474 77.3917C350.474 49.9023 372.768 27.6174 400.27 27.6173C427.771 27.6173 450.066 49.9022 450.066 77.3917ZM444.321 75.5551C444.321 99.8709 424.601 119.583 400.275 119.583C375.949 119.583 356.228 99.8708 356.228 75.5551C356.228 51.2395 375.949 31.5281 400.275 31.528C424.601 31.528 444.321 51.2395 444.321 75.5551ZM438.474 73.8125C438.474 94.9001 421.372 111.995 400.275 111.995C379.178 111.995 362.076 94.9001 362.076 73.8125C362.076 52.7248 379.178 35.6296 400.275 35.6295C421.372 35.6295 438.474 52.7247 438.474 73.8125ZM433.553 72.5193C433.553 90.8903 418.654 105.783 400.275 105.783C381.896 105.783 366.997 90.8903 366.997 72.5193C366.997 54.1483 381.896 39.2554 400.275 39.2553C418.654 39.2553 433.553 54.1483 433.553 72.5193ZM428.347 71.4536C428.347 86.9509 415.779 99.5139 400.275 99.5139C384.771 99.5138 372.202 86.9508 372.202 71.4536C372.202 55.9563 384.771 43.3933 400.275 43.3932C415.779 43.3932 428.347 55.9563 428.347 71.4536ZM423.323 70.5691C423.323 83.2926 413.004 93.607 400.275 93.607C387.546 93.6069 377.227 83.2925 377.227 70.5691C377.227 57.8457 387.546 47.5312 400.275 47.5311C413.004 47.5311 423.323 57.8456 423.323 70.5691ZM418.474 69.8604C418.474 79.9072 410.326 88.0517 400.275 88.0517C390.224 88.0517 382.076 79.9072 382.076 69.8604C382.076 59.8137 390.224 51.6692 400.275 51.6691C410.326 51.6691 418.474 59.8136 418.474 69.8604ZM413.791 69.3174C413.791 76.779 407.74 82.8278 400.275 82.8278C392.81 82.8277 386.759 76.7789 386.759 69.3174C386.759 61.8559 392.81 55.8071 400.275 55.807C407.74 55.807 413.791 61.8559 413.791 69.3174ZM409.124 68.7845C409.124 73.6694 405.162 77.6296 400.275 77.6296C395.388 77.6295 391.426 73.6693 391.426 68.7845C391.426 63.8998 395.388 59.94 400.275 59.9399C405.162 59.9399 409.124 63.8997 409.124 68.7845ZM404.317 68.7845C404.317 71.0155 402.507 72.8244 400.275 72.8244C398.043 72.8244 396.234 71.0155 396.234 68.7845C396.234 66.5536 398.043 64.7452 400.275 64.7451C402.507 64.7451 404.316 66.5535 404.317 68.7845ZM404.834 68.7845C404.834 66.2679 402.793 64.2278 400.275 64.2278C397.757 64.2279 395.716 66.2679 395.716 68.7845C395.716 71.3011 397.757 73.3416 400.275 73.3417C402.793 73.3417 404.834 71.3012 404.834 68.7845ZM409.641 68.7845C409.641 63.614 405.448 59.4226 400.275 59.4226C395.102 59.4227 390.909 63.6141 390.909 68.7845C390.909 73.955 395.102 78.1468 400.275 78.1469C405.448 78.1469 409.641 73.955 409.641 68.7845ZM414.309 69.3174C414.309 61.5702 408.025 55.2898 400.275 55.2898C392.524 55.2899 386.241 61.5703 386.241 69.3174C386.241 77.0646 392.524 83.345 400.275 83.345C408.025 83.345 414.309 77.0646 414.309 69.3174ZM418.992 69.8604C418.991 59.528 410.612 51.1518 400.275 51.1518C389.938 51.1519 381.558 59.528 381.558 69.8604C381.558 80.1928 389.938 88.5689 400.275 88.569C410.612 88.569 418.992 80.1929 418.992 69.8604ZM423.84 70.5691C423.84 57.56 413.29 47.0139 400.275 47.0139C387.26 47.014 376.71 57.56 376.709 70.5691C376.709 83.5782 387.26 94.1242 400.275 94.1243C413.29 94.1243 423.84 83.5782 423.84 70.5691ZM428.865 71.4536C428.865 55.6706 416.065 42.876 400.275 42.876C384.485 42.8761 371.685 55.6707 371.685 71.4536C371.685 87.2365 384.485 100.031 400.275 100.031C416.065 100.031 428.865 87.2365 428.865 71.4536ZM434.071 72.5193C434.071 53.8626 418.94 38.738 400.275 38.738C381.61 38.7381 366.479 53.8627 366.479 72.5193C366.48 91.1759 381.61 106.3 400.275 106.3C418.94 106.3 434.071 91.176 434.071 72.5193ZM438.992 73.8125C438.992 52.439 421.658 35.1123 400.275 35.1123C378.892 35.1124 361.559 52.4391 361.559 73.8125C361.559 95.1857 378.892 112.512 400.275 112.512C421.657 112.512 438.992 95.1858 438.992 73.8125ZM444.839 75.5551C444.839 50.9538 424.887 31.0107 400.275 31.0107C375.663 31.0108 355.711 50.9538 355.711 75.5551C355.711 100.156 375.663 120.1 400.275 120.1C424.887 120.1 444.839 100.157 444.839 75.5551ZM450.583 77.3917C450.583 49.6166 428.057 27.1001 400.27 27.1001C372.483 27.1001 349.957 49.6166 349.957 77.3917C349.957 105.167 372.483 127.683 400.27 127.683C428.057 127.683 450.583 105.167 450.583 77.3917ZM456.611 79.5329C456.611 48.4326 431.389 23.2208 400.275 23.2208C369.161 23.2209 343.938 48.4327 343.938 79.5329C343.938 110.633 369.161 135.845 400.275 135.845C431.389 135.845 456.611 110.633 456.611 79.5329ZM463.628 82.4449C463.628 47.474 435.266 19.1244 400.28 19.1243C365.294 19.1243 336.932 47.4739 336.932 82.4449C336.932 117.416 365.294 145.766 400.28 145.766C435.266 145.765 463.628 117.416 463.628 82.4449ZM470.992 85.6312C470.992 46.5923 439.331 14.9449 400.275 14.9449C361.219 14.945 329.559 46.5924 329.559 85.6312C329.559 124.67 361.219 156.317 400.275 156.318C439.331 156.318 470.992 124.67 470.992 85.6312ZM478.945 89.1847C478.945 45.7523 443.721 10.5433 400.27 10.5433C356.819 10.5434 321.594 45.7523 321.594 89.1847C321.595 132.617 356.819 167.826 400.27 167.826C443.721 167.826 478.945 132.617 478.945 89.1847ZM488.125 93.9642C488.125 45.4669 448.793 6.15182 400.275 6.15182C351.757 6.15192 312.425 45.4669 312.425 93.9642C312.425 142.461 351.757 181.776 400.275 181.776C448.793 181.776 488.125 142.461 488.125 93.9642ZM497.015 99.0123C497.015 45.6073 453.703 2.31393 400.275 2.31393C346.847 2.31403 303.535 45.6074 303.535 99.0123C303.535 152.417 346.847 195.711 400.275 195.711C453.703 195.711 497.015 152.417 497.015 99.0123ZM508.637 105.695C508.637 45.877 460.124 -2.6154 400.28 -2.61551C340.436 -2.61551 291.923 45.8769 291.923 105.695C291.923 165.513 340.436 214.006 400.28 214.006C460.124 214.005 508.637 165.513 508.637 105.695ZM521.434 113.987C521.434 47.1011 467.189 -7.12067 400.275 -7.12067C333.361 -7.12057 279.116 47.1011 279.116 113.987C279.116 180.872 333.361 235.093 400.275 235.093C467.189 235.093 521.434 180.872 521.434 113.987Z" fill="#DCD0B4"/>
<path d="M400.58 181.517V-104.046H400.063V181.517H400.58Z" fill="#DCD0B4"/>
<path d="M411.039 -24.5056C418.026 -43.925 433.251 -73.2146 447.45 -96.2657L447.23 -96.4016L447.01 -96.537C432.801 -73.471 417.556 -44.147 410.552 -24.6804L411.039 -24.5056ZM389.957 -24.6652C382.927 -44.1216 367.646 -73.4249 353.406 -96.4754L353.186 -96.3395L352.966 -96.2036C367.197 -73.1679 382.457 -43.8986 389.471 -24.4894L389.957 -24.6652ZM421.135 -21.8128C438.835 -41.4471 468.828 -62.9111 489.419 -71.9008L489.212 -72.3747C468.55 -63.3541 438.497 -41.8457 420.75 -22.1593L420.943 -21.9861L421.135 -21.8128ZM379.769 -22.1335C361.991 -41.7992 331.917 -63.2663 311.24 -72.261L311.034 -71.7867C331.64 -62.8228 361.654 -41.4006 379.385 -21.787L379.769 -22.1335ZM430.689 -17.2198C441.564 -23.9831 458.064 -29.0103 474.795 -32.0359C491.522 -35.061 508.443 -36.0787 520.145 -34.8459L520.172 -35.1035L520.199 -35.3606C508.433 -36.6001 491.46 -35.575 474.703 -32.5446C457.948 -29.5146 441.372 -24.4734 430.415 -17.6592L430.552 -17.4395L430.689 -17.2198ZM370.104 -17.6178C359.139 -24.4191 342.558 -29.4399 325.8 -32.4486C309.04 -35.4577 292.065 -36.4606 280.3 -35.2055L280.354 -34.6908C292.056 -35.9391 308.978 -34.9432 325.709 -31.9394C342.442 -28.9351 358.949 -23.9288 369.831 -17.1783L370.104 -17.6178ZM536.709 9.37119C523.007 0.212814 484.932 -17.773 438.675 -11.9494L438.739 -11.4362C484.839 -17.2401 522.79 0.690948 536.421 9.80154L536.709 9.37119ZM264.129 9.97177C277.75 0.840576 315.675 -17.1367 361.785 -11.3897L361.818 -11.6463L361.849 -11.9029C315.582 -17.6696 277.533 0.363281 263.841 9.54242L264.129 9.97177ZM536.912 56.769L537.131 56.6316C519.907 29.2701 486.159 0.75502 446.666 -3.93262L446.635 -3.67552L446.604 -3.41891C485.9 1.2453 519.526 29.6374 536.693 56.9069L536.912 56.769ZM263.92 57.0822C281.051 29.7869 314.64 1.35857 353.931 -3.36235L353.9 -3.61894L353.869 -3.87555C314.381 0.869095 280.67 29.42 263.482 56.8074L263.92 57.0822ZM326.965 151.719C364.328 125.586 391.109 85.0238 400.316 69.2338C409.546 85.0166 436.377 125.537 473.773 151.621L473.921 151.409L474.069 151.197C437.366 125.596 410.846 86.0326 401.222 69.7541L401.253 69.7369C401.236 69.7061 401.219 69.6754 401.202 69.6445C417.969 80.2391 462.623 98.0279 517.982 85.7335L517.87 85.2289C463.649 97.2707 419.737 80.3628 402.397 69.7763L402.474 69.6258C401.946 69.3517 401.402 69.06 400.845 68.7519C400.854 68.7466 400.863 68.7411 400.872 68.7357C429.693 69.3864 467.406 56.9588 491.552 34.2558L491.197 33.879C467.397 56.2573 430.324 68.6199 401.741 68.2342C417.87 58.7938 443.823 36.8079 459.601 8.59027L459.149 8.33772C443.197 36.8671 416.798 59.0111 400.803 68.1791C404.864 60.555 410.838 48.6105 416.318 35.9227C422.25 22.1896 427.615 7.56345 429.343 -3.39771L429.087 -3.43761L428.832 -3.47801C427.115 7.41426 421.773 21.9892 415.843 35.7177C410.355 48.4235 404.371 60.3846 400.315 67.9952C396.249 60.3898 390.25 48.4375 384.746 35.7394C378.798 22.0187 373.439 7.45013 371.708 -3.44215L371.453 -3.40175L371.197 -3.36082C372.939 7.60031 378.321 22.2196 384.271 35.945C389.767 48.6248 395.755 60.5607 399.827 68.1796C383.82 59.0302 357.389 36.9221 341.401 8.40994L340.95 8.66251C356.763 36.8641 382.75 58.8152 398.891 68.2362C370.306 68.6638 333.216 56.3465 309.384 33.9977L309.03 34.3751C333.207 57.0477 370.938 69.4289 399.758 68.7363C399.768 68.7418 399.778 68.7469 399.788 68.7524C399.228 69.0622 398.683 69.3553 398.153 69.6308L398.232 69.7829C380.902 80.392 337.014 97.3492 282.784 85.3784L282.728 85.631L282.672 85.8835C338.043 98.1061 382.676 80.2636 399.429 69.647C399.412 69.6771 399.396 69.7074 399.38 69.7374L399.411 69.7541C389.811 86.0403 363.34 125.646 326.668 151.295L326.816 151.507L326.965 151.719Z" fill="#DCD0B4"/>
<path d="M459.581 34.1655C459.581 66.9055 433.029 93.4466 400.275 93.4467C367.521 93.4467 340.968 66.9055 340.968 34.1655C340.969 1.4256 367.521 -25.1152 400.275 -25.1152C433.029 -25.1151 459.581 1.42566 459.581 34.1655ZM460.616 34.1655C460.616 0.854324 433.601 -26.1496 400.275 -26.1497C366.95 -26.1497 339.934 0.854263 339.934 34.1655C339.934 67.4769 366.95 94.4812 400.275 94.4812C433.601 94.4811 460.616 67.4768 460.616 34.1655Z" fill="#DCD0B4"/>
<path d="M490.857 34.1861C490.857 84.1831 450.309 124.714 400.29 124.714C350.272 124.714 309.724 84.183 309.724 34.1861C309.724 -15.8107 350.272 -56.3411 400.29 -56.3412C450.309 -56.3412 490.857 -15.8108 490.857 34.1861ZM491.892 34.1861C491.892 -16.3821 450.88 -57.3757 400.29 -57.3757C349.7 -57.3756 308.689 -16.382 308.689 34.1861C308.689 84.7544 349.7 125.748 400.29 125.748C450.88 125.748 491.892 84.7545 491.892 34.1861Z" fill="#DCD0B4"/>
<path d="M405.812 34.1656C405.812 37.2222 403.333 39.7001 400.275 39.7002C397.217 39.7002 394.738 37.2222 394.738 34.1656C394.738 31.109 397.217 28.631 400.275 28.631C403.333 28.631 405.812 31.109 405.812 34.1656ZM406.588 34.1656C406.588 30.6805 403.762 27.8552 400.275 27.8551C396.789 27.8551 393.962 30.6805 393.962 34.1656C393.962 37.6507 396.789 40.476 400.275 40.476C403.762 40.476 406.588 37.6507 406.588 34.1656Z" fill="#DCD0B4"/>
<path d="M538.226 34.1866C538.226 110.333 476.47 172.062 400.29 172.062C324.111 172.062 262.355 110.333 262.355 34.1866C262.355 -41.9601 324.111 -103.689 400.29 -103.69C476.47 -103.69 538.226 -41.9601 538.226 34.1866ZM539.261 34.1866C539.261 -42.5315 477.041 -104.724 400.29 -104.724C323.539 -104.724 261.32 -42.5314 261.32 34.1866C261.32 110.904 323.539 173.097 400.29 173.097C477.041 173.097 539.261 110.905 539.261 34.1866Z" fill="#DCD0B4"/>
<path d="M405.905 209.371C423.173 209.371 437.222 223.414 437.222 240.674C437.222 257.935 423.173 271.978 405.905 271.978C388.637 271.978 374.588 257.935 374.588 240.674C374.588 223.414 388.637 209.371 405.905 209.371ZM405.905 208.854C388.327 208.854 374.071 223.098 374.071 240.674C374.071 258.25 388.322 272.495 405.905 272.495C423.489 272.495 437.74 258.25 437.74 240.674C437.74 223.098 423.489 208.854 405.905 208.854Z" fill="#DCD0B4"/>
<path d="M405.905 178.052C418.852 178.052 429.388 188.381 429.388 201.085C429.388 213.788 418.852 224.117 405.905 224.117C392.958 224.117 382.423 213.788 382.423 201.085C382.423 188.381 392.958 178.052 405.905 178.052ZM405.905 177.535C392.653 177.535 381.905 188.076 381.905 201.085C381.905 214.093 392.648 224.635 405.905 224.635C419.163 224.635 429.905 214.093 429.905 201.085C429.905 188.076 419.163 177.535 405.905 177.535Z" fill="#DCD0B4"/>
<path d="M405.905 142.926C430.216 142.926 449.993 162.54 449.993 186.643C449.993 210.747 430.216 230.361 405.905 230.361C381.595 230.361 361.817 210.747 361.817 186.643C361.817 162.54 381.595 142.926 405.905 142.926ZM405.905 142.409C381.269 142.409 361.3 162.214 361.3 186.643C361.3 211.073 381.269 230.878 405.905 230.878C430.542 230.878 450.511 211.073 450.511 186.643C450.511 162.214 430.542 142.409 405.905 142.409Z" fill="#DCD0B4"/>
<path d="M405.905 196.869C411.39 196.869 415.851 201.328 415.851 206.811C415.851 212.293 411.39 216.752 405.905 216.752C400.42 216.752 395.959 212.293 395.959 206.811C395.959 201.328 400.42 196.869 405.905 196.869ZM405.905 196.352C400.125 196.352 395.442 201.033 395.442 206.811C395.442 212.588 400.125 217.269 405.905 217.269C411.685 217.269 416.368 212.588 416.368 206.811C416.368 201.033 411.685 196.352 405.905 196.352Z" fill="#DCD0B4"/>
<path d="M405.905 257.567C418.852 257.567 429.388 267.897 429.388 280.6C429.388 293.304 418.852 303.633 405.905 303.633C392.958 303.633 382.423 293.304 382.423 280.6C382.423 267.897 392.958 257.567 405.905 257.567ZM405.905 257.05C392.653 257.05 381.905 267.592 381.905 280.6C381.905 293.609 392.648 304.15 405.905 304.15C419.163 304.15 429.905 293.609 429.905 280.6C429.905 267.592 419.163 257.05 405.905 257.05Z" fill="#DCD0B4"/>
<path d="M405.905 251.319C430.216 251.319 449.993 270.933 449.993 295.036C449.993 319.14 430.216 338.754 405.905 338.754C381.595 338.754 361.817 319.14 361.817 295.036C361.817 270.933 381.595 251.319 405.905 251.319ZM405.905 250.802C381.269 250.802 361.3 270.607 361.3 295.036C361.3 319.466 381.269 339.271 405.905 339.271C430.542 339.271 450.511 319.466 450.511 295.036C450.511 270.607 430.542 250.802 405.905 250.802Z" fill="#DCD0B4"/>
<path d="M405.388 246.488C427.954 246.488 449.165 253.528 465.113 266.309C481.031 279.064 489.791 296.014 489.791 314.035C489.791 332.055 481.025 349.005 465.113 361.761C449.165 374.542 427.954 381.581 405.388 381.581C382.821 381.581 361.61 374.542 345.662 361.761C329.745 349.005 320.984 332.055 320.984 314.035C320.984 296.014 329.75 279.064 345.662 266.309C361.61 253.528 382.821 246.488 405.388 246.488ZM405.388 245.971C358.485 245.971 320.461 276.442 320.461 314.035C320.461 351.628 358.485 382.098 405.388 382.098C452.291 382.098 490.314 351.628 490.314 314.035C490.314 276.442 452.291 245.971 405.388 245.971Z" fill="#DCD0B4"/>
<path d="M405.905 264.928C411.39 264.928 415.851 269.386 415.851 274.869C415.851 280.352 411.39 284.811 405.905 284.811C400.42 284.811 395.959 280.352 395.959 274.869C395.959 269.386 400.42 264.928 405.905 264.928ZM405.905 264.411C400.125 264.411 395.442 269.092 395.442 274.869C395.442 280.647 400.125 285.328 405.905 285.328C411.685 285.328 416.368 280.647 416.368 274.869C416.368 269.092 411.685 264.411 405.905 264.411Z" fill="#DCD0B4"/>
<path d="M405.904 209.112L405.958 209.365C393.023 212.132 381.949 225.398 381.749 240.693C381.641 248.8 384.86 256.225 389.53 261.825C394.202 267.429 400.307 271.182 405.94 271.975L405.904 272.231L405.868 272.487C400.076 271.672 393.864 267.832 389.132 262.156C384.397 256.477 381.122 248.935 381.231 240.686C381.435 225.165 392.663 211.679 405.85 208.859L405.904 209.112Z" fill="#DCD0B4"/>
<path d="M406.066 208.859C419.253 211.679 430.481 225.165 430.685 240.686C430.794 248.935 427.519 256.477 422.784 262.156C418.052 267.832 411.84 271.672 406.048 272.487L405.976 271.975C411.61 271.182 417.714 267.429 422.387 261.825C427.056 256.225 430.275 248.8 430.167 240.693C429.967 225.398 418.893 212.132 405.958 209.365L406.066 208.859Z" fill="#DCD0B4"/>
<path d="M406.01 209.349C397.352 213.193 388.248 225.374 388.099 240.692C387.94 256.944 397.741 268.384 406.009 271.994L405.802 272.468C397.344 268.775 387.42 257.146 387.582 240.687C387.733 225.188 396.937 212.811 405.8 208.876L406.01 209.349Z" fill="#DCD0B4"/>
<path d="M406.119 208.876C414.982 212.811 424.187 225.188 424.338 240.687C424.499 257.146 414.575 268.775 406.118 272.468L405.911 271.994C414.178 268.384 423.98 256.944 423.82 240.692C423.671 225.374 414.568 213.193 405.909 209.349L406.119 208.876Z" fill="#DCD0B4"/>
<path d="M406.089 209.296C399.542 215.808 393.155 225.352 393.006 240.677C392.926 248.815 394.562 254.85 397.029 259.748C399.499 264.652 402.807 268.43 406.098 272.058L405.715 272.405C402.423 268.776 399.071 264.953 396.567 259.981C394.06 255.004 392.408 248.888 392.489 240.672C392.639 225.179 399.106 215.513 405.724 208.929L406.089 209.296Z" fill="#DCD0B4"/>
<path d="M406.197 208.929C412.814 215.513 419.281 225.179 419.432 240.672C419.513 248.888 417.86 255.004 415.353 259.981C412.849 264.953 409.497 268.776 406.206 272.405L405.823 272.058C409.113 268.43 412.421 264.652 414.891 259.748C417.359 254.85 418.994 248.815 418.915 240.677C418.765 225.352 412.378 215.808 405.832 209.296L406.197 208.929Z" fill="#DCD0B4"/>
<path d="M405.905 209.112L406.122 209.253C401.889 215.762 397.75 225.319 397.652 240.676C397.6 248.829 398.661 254.877 400.26 259.785C401.859 264.694 404.001 268.474 406.129 272.101L405.682 272.362C403.552 268.731 401.385 264.911 399.767 259.945C398.149 254.978 397.083 248.874 397.135 240.673C397.233 225.212 401.404 215.559 405.688 208.971L405.905 209.112Z" fill="#DCD0B4"/>
<path d="M406.231 208.971C410.515 215.559 414.687 225.212 414.785 240.673C414.837 248.874 413.77 254.978 412.152 259.945C410.534 264.911 408.368 268.732 406.238 272.362L405.791 272.101C407.919 268.474 410.061 264.694 411.66 259.785C413.26 254.877 414.32 248.829 414.268 240.676C414.17 225.32 410.031 215.762 405.798 209.253L406.231 208.971Z" fill="#DCD0B4"/>
<path d="M406.153 209.192C404.035 215.713 401.959 225.291 401.912 240.675C401.86 256.999 404.033 264.918 406.155 272.159L405.659 272.304C403.527 265.031 401.343 257.06 401.395 240.674C401.441 225.24 403.525 215.608 405.661 209.032L406.153 209.192Z" fill="#DCD0B4"/>
<path d="M406.26 209.032C408.396 215.608 410.48 225.24 410.527 240.674C410.578 257.06 408.394 265.031 406.262 272.304L405.766 272.159C407.888 264.918 410.061 256.999 410.009 240.675C409.963 225.291 407.886 215.713 405.768 209.192L406.26 209.032Z" fill="#DCD0B4"/>
<path d="M378.63 213.299C387.11 207.932 397.694 206.376 405.98 208.865L405.831 209.36C397.704 206.919 387.273 208.441 378.907 213.736C370.551 219.024 364.266 228.068 364.395 240.672C364.531 254.146 371.146 263.302 379.596 268.461C388.059 273.628 398.354 274.78 405.822 272.245L405.989 272.735C398.358 275.325 387.905 274.14 379.327 268.903C370.735 263.658 364.016 254.343 363.877 240.677C363.747 227.874 370.14 218.672 378.63 213.299Z" fill="#DCD0B4"/>
<path d="M406.023 208.865C414.309 206.376 424.893 207.932 433.373 213.299C441.863 218.672 448.256 227.874 448.126 240.677C447.987 254.343 441.267 263.658 432.676 268.903C424.098 274.14 413.645 275.325 406.014 272.735L406.181 272.245C413.649 274.78 423.943 273.628 432.407 268.461C440.857 263.302 447.472 254.146 447.608 240.672C447.736 228.068 441.452 219.024 433.096 213.736C424.73 208.441 414.299 206.919 406.172 209.36L406.023 208.865Z" fill="#DCD0B4"/>
<path d="M350.246 240.078C350.427 214.758 378.362 194.135 406.027 208.884L405.784 209.341C378.267 194.671 350.508 215.45 350.764 240.672C350.901 254.144 358.527 266.031 369.189 272.556C379.846 279.077 393.52 280.234 405.765 272.273L405.906 272.49L406.047 272.707C393.614 280.79 379.724 279.609 368.919 272.997C358.12 266.387 350.386 254.344 350.247 240.677L350.246 240.078Z" fill="#DCD0B4"/>
<path d="M405.975 208.884C433.859 194.019 462.016 215.085 461.755 240.677C461.617 254.344 453.883 266.388 443.083 272.997C432.278 279.609 418.389 280.79 405.956 272.707L406.097 272.49L406.238 272.273C418.483 280.234 432.157 279.077 442.813 272.556C453.475 266.031 461.102 254.144 461.238 240.672C461.495 215.45 433.736 194.671 406.219 209.341L405.975 208.884Z" fill="#DCD0B4"/>
<path d="M332.197 240.669C332.197 230.835 335.557 219.486 342.252 210.59C348.952 201.687 358.998 195.235 372.352 195.235C378.801 195.235 384.25 195.943 389.583 198.013C394.915 200.083 400.115 203.507 406.079 208.916L405.731 209.299C399.798 203.917 394.65 200.535 389.395 198.495C384.141 196.456 378.762 195.752 372.352 195.752C359.186 195.752 349.284 202.106 342.665 210.901C336.042 219.702 332.714 230.941 332.714 240.669C332.714 262.951 347.484 285.114 371.415 285.581C378.658 285.723 383.887 285.396 388.974 283.546C394.062 281.696 399.032 278.313 405.731 272.298L405.905 272.49L406.078 272.682C399.36 278.714 394.331 282.148 389.151 284.032C383.971 285.916 378.662 286.241 371.405 286.098C347.098 285.624 332.197 263.128 332.197 240.669Z" fill="#DCD0B4"/>
<path d="M479.286 240.669C479.286 230.941 475.957 219.702 469.334 210.901C462.715 202.106 452.813 195.752 439.648 195.752C433.238 195.752 427.858 196.456 422.604 198.495C417.349 200.535 412.202 203.917 406.269 209.299L405.921 208.916C411.885 203.507 417.085 200.083 422.417 198.013C427.75 195.943 433.199 195.235 439.648 195.235C453.002 195.235 463.048 201.687 469.748 210.59C476.443 219.486 479.803 230.835 479.803 240.669C479.803 263.128 464.901 285.624 440.595 286.098C433.338 286.241 428.029 285.916 422.848 284.032C417.668 282.148 412.64 278.714 405.922 272.682L406.268 272.298C412.968 278.313 417.937 281.696 423.025 283.546C428.112 285.396 433.342 285.723 440.584 285.581C464.515 285.114 479.286 262.951 479.286 240.669Z" fill="#DCD0B4"/>
<path d="M293.185 241.155C293.185 209.233 315.482 177.525 351.806 177.271C370.156 177.141 383.451 184.392 392.3 192.013C401.142 199.628 405.552 207.619 406.142 209.006L405.904 209.107L405.666 209.208C405.107 207.895 400.744 199.968 391.962 192.404C383.188 184.847 370.009 177.659 351.81 177.788C315.845 178.04 293.702 209.437 293.702 241.155C293.702 272.839 320.614 303.617 357.868 303.617C372.12 303.617 384.096 296.806 392.505 289.481C396.709 285.82 400.015 282.036 402.262 278.923C403.386 277.366 404.243 275.98 404.814 274.864C405.1 274.306 405.312 273.819 405.451 273.414C405.592 273.005 405.65 272.699 405.645 272.496L405.905 272.49L406.163 272.483C406.17 272.778 406.088 273.153 405.941 273.583C405.791 274.017 405.568 274.528 405.275 275.1C404.688 276.245 403.816 277.653 402.682 279.225C400.412 282.37 397.079 286.184 392.845 289.872C384.38 297.245 372.288 304.135 357.868 304.135C320.317 304.135 293.185 273.113 293.185 241.155Z" fill="#DCD0B4"/>
<path d="M518.298 241.155C518.298 209.437 496.155 178.04 460.189 177.788C441.991 177.659 428.812 184.847 420.037 192.404C411.256 199.968 406.893 207.895 406.334 209.208L406.096 209.107L405.858 209.006C406.448 207.619 410.858 199.628 419.7 192.013C428.548 184.392 441.844 177.141 460.193 177.271C496.517 177.525 518.815 209.233 518.815 241.155C518.815 273.113 491.683 304.135 454.132 304.135C439.712 304.135 427.62 297.245 419.155 289.872C414.921 286.184 411.588 282.37 409.318 279.225C408.183 277.653 407.311 276.245 406.725 275.1C406.432 274.528 406.209 274.017 406.059 273.583C405.912 273.153 405.83 272.778 405.837 272.483L406.096 272.49L406.354 272.496C406.349 272.699 406.408 273.005 406.548 273.414C406.687 273.819 406.9 274.306 407.186 274.864C407.757 275.98 408.614 277.366 409.738 278.923C411.985 282.036 415.291 285.82 419.495 289.481C427.904 296.806 439.88 303.617 454.132 303.617C491.385 303.617 518.297 272.839 518.298 241.155Z" fill="#DCD0B4"/>
<path d="M226.133 241.161C226.133 204.342 238.538 179.982 256.601 164.832C274.655 149.689 298.33 143.774 320.829 143.774C356.741 143.774 378.083 158.567 390.441 174.137C396.617 181.919 400.546 189.889 402.931 196.296C405.313 202.693 406.164 207.554 406.164 209.117H405.646C405.646 207.645 404.82 202.852 402.447 196.476C400.077 190.11 396.172 182.19 390.036 174.459C377.771 159.005 356.575 144.291 320.829 144.291C298.412 144.291 274.868 150.185 256.933 165.228C239.006 180.264 226.65 204.468 226.65 241.161C226.65 257.029 231.409 281.025 246.686 301.047C261.953 321.056 287.743 337.121 329.864 337.119C361.075 337.119 380.038 321.948 391.194 306.277C396.775 298.439 400.402 290.475 402.628 284.222C403.74 281.096 404.502 278.399 404.982 276.362C405.223 275.344 405.392 274.491 405.5 273.833C405.609 273.169 405.652 272.719 405.646 272.496L405.905 272.49L406.164 272.483C406.171 272.759 406.12 273.251 406.011 273.916C405.901 274.588 405.729 275.453 405.486 276.48C405.002 278.536 404.234 281.251 403.115 284.395C400.877 290.682 397.23 298.691 391.616 306.577C380.383 322.355 361.276 337.636 329.864 337.636C287.592 337.639 261.645 321.506 246.275 301.361C230.913 281.228 226.133 257.113 226.133 241.161Z" fill="#DCD0B4"/>
<path d="M585.353 241.155C585.353 204.463 572.997 180.26 555.07 165.224C537.135 150.181 513.591 144.286 491.174 144.286C455.428 144.286 434.232 159 421.967 174.454C415.831 182.185 411.926 190.105 409.556 196.471C407.183 202.847 406.356 207.64 406.356 209.112H405.839C405.839 207.549 406.69 202.688 409.072 196.291C411.457 189.884 415.386 181.913 421.562 174.132C433.92 158.562 455.262 143.769 491.174 143.769C513.673 143.769 537.348 149.684 555.402 164.827C573.465 179.977 585.87 204.337 585.87 241.155C585.87 257.108 581.09 281.223 565.728 301.356C550.358 321.502 524.411 337.636 482.139 337.636C450.727 337.636 431.62 322.355 420.387 306.577C414.773 298.692 411.126 290.683 408.888 284.396C407.769 281.252 407.001 278.537 406.517 276.481C406.274 275.453 406.102 274.588 405.992 273.916C405.883 273.251 405.832 272.759 405.839 272.483L406.097 272.49L406.356 272.496C406.351 272.719 406.394 273.169 406.503 273.833C406.611 274.491 406.78 275.344 407.02 276.362C407.501 278.399 408.262 281.096 409.375 284.222C411.601 290.475 415.228 298.439 420.809 306.277C431.965 321.948 450.928 337.119 482.139 337.119C524.26 337.119 550.05 321.052 565.317 301.042C580.593 281.02 585.353 257.024 585.353 241.155Z" fill="#DCD0B4"/>
<path d="M406.164 208.854V272.49H405.646V208.854H406.164Z" fill="#DCD0B4"/>
<path d="M405.388 100.104C427.954 100.104 449.165 107.143 465.113 119.924C481.031 132.68 489.791 149.63 489.791 167.65C489.791 185.671 481.025 202.621 465.113 215.376C449.165 228.157 427.954 235.197 405.388 235.197C382.821 235.197 361.61 228.157 345.662 215.376C329.745 202.621 320.984 185.671 320.984 167.65C320.984 149.63 329.75 132.68 345.662 119.924C361.61 107.143 382.821 100.104 405.388 100.104ZM405.388 99.5864C358.485 99.5864 320.461 130.057 320.461 167.65C320.461 205.243 358.485 235.714 405.388 235.714C452.291 235.714 490.314 205.243 490.314 167.65C490.314 130.057 452.291 99.5864 405.388 99.5864Z" fill="#DCD0B4"/>
<path d="M179.772 -45.112C197.04 -45.112 211.089 -31.0689 211.089 -13.8086C211.089 3.45178 197.04 17.4949 179.772 17.4949C162.505 17.4949 148.455 3.45178 148.455 -13.8086C148.455 -31.0689 162.505 -45.112 179.772 -45.112ZM179.772 -45.6292C162.194 -45.6292 147.938 -31.3844 147.938 -13.8086C147.938 3.7673 162.189 18.0121 179.772 18.0121C197.356 18.0121 211.607 3.7673 211.607 -13.8086C211.607 -31.3844 197.356 -45.6292 179.772 -45.6292Z" fill="#DCD0B4"/>
<path d="M179.772 -76.431C192.719 -76.431 203.255 -66.1017 203.255 -53.3982C203.255 -40.6948 192.719 -30.3655 179.772 -30.3655C166.825 -30.3655 156.29 -40.6948 156.29 -53.3982C156.29 -66.1017 166.825 -76.431 179.772 -76.431ZM179.772 -76.9482C166.52 -76.9482 155.772 -66.4068 155.772 -53.3982C155.772 -40.3896 166.515 -29.8482 179.772 -29.8482C193.03 -29.8482 203.772 -40.3896 203.772 -53.3982C203.772 -66.4068 193.03 -76.9482 179.772 -76.9482Z" fill="#DCD0B4"/>
<path d="M179.772 -111.557C204.083 -111.557 223.86 -91.943 223.86 -67.8396C223.86 -43.7361 204.083 -24.1223 179.772 -24.1223C155.462 -24.1223 135.684 -43.7361 135.684 -67.8396C135.684 -91.943 155.462 -111.557 179.772 -111.557ZM179.772 -112.074C155.136 -112.074 135.167 -92.2689 135.167 -67.8396C135.167 -43.4103 155.136 -23.6051 179.772 -23.6051C204.409 -23.6051 224.378 -43.4103 224.378 -67.8396C224.378 -92.2689 204.409 -112.074 179.772 -112.074Z" fill="#DCD0B4"/>
<path d="M179.772 -57.6137C185.257 -57.6137 189.718 -53.1551 189.718 -47.6723C189.718 -42.1896 185.257 -37.731 179.772 -37.731C174.287 -37.731 169.827 -42.1896 169.827 -47.6723C169.827 -53.1551 174.287 -57.6137 179.772 -57.6137ZM179.772 -58.131C173.992 -58.131 169.309 -53.4499 169.309 -47.6723C169.309 -41.8948 173.992 -37.2137 179.772 -37.2137C185.552 -37.2137 190.235 -41.8948 190.235 -47.6723C190.235 -53.4499 185.552 -58.131 179.772 -58.131Z" fill="#DCD0B4"/>
<path d="M179.772 3.08453C192.719 3.08453 203.255 13.4138 203.255 26.1173C203.255 38.8207 192.719 49.1501 179.772 49.1501C166.825 49.1501 156.29 38.8207 156.29 26.1173C156.29 13.4138 166.825 3.08453 179.772 3.08453ZM179.772 2.56729C166.52 2.56729 155.772 13.1087 155.772 26.1173C155.772 39.1259 166.515 49.6673 179.772 49.6673C193.03 49.6673 203.772 39.1259 203.772 26.1173C203.772 13.1087 193.03 2.56729 179.772 2.56729Z" fill="#DCD0B4"/>
<path d="M179.772 -3.16373C204.083 -3.16373 223.86 16.4501 223.86 40.5535C223.86 64.657 204.083 84.2708 179.772 84.2708C155.462 84.2708 135.684 64.657 135.684 40.5535C135.684 16.4501 155.462 -3.16373 179.772 -3.16373ZM179.772 -3.68097C155.136 -3.68097 135.167 16.1242 135.167 40.5535C135.167 64.9828 155.136 84.788 179.772 84.788C204.409 84.788 224.378 64.9828 224.378 40.5535C224.378 16.1242 204.409 -3.68097 179.772 -3.68097Z" fill="#DCD0B4"/>
<path d="M179.255 -7.99477C201.821 -7.99477 223.032 -0.955124 238.981 11.8259C254.898 24.5811 263.658 41.5311 263.658 59.5518C263.658 77.5725 254.893 94.5225 238.981 107.278C223.032 120.059 201.821 127.098 179.255 127.098C156.688 127.098 135.477 120.059 119.529 107.278C103.612 94.5225 94.8512 77.5725 94.8512 59.5518C94.8512 41.5311 103.617 24.5811 119.529 11.8259C135.477 -0.955124 156.688 -7.99477 179.255 -7.99477ZM179.255 -8.51201C132.352 -8.51201 94.3286 21.9587 94.3286 59.5518C94.3286 97.1449 132.352 127.616 179.255 127.616C226.158 127.616 264.181 97.1449 264.181 59.5518C264.181 21.9587 226.158 -8.51201 179.255 -8.51201Z" fill="#DCD0B4"/>
<path d="M179.772 10.4449C185.257 10.4449 189.718 14.9035 189.718 20.3863C189.718 25.869 185.257 30.3277 179.772 30.3277C174.287 30.3277 169.827 25.869 169.827 20.3863C169.827 14.9035 174.287 10.4449 179.772 10.4449ZM179.772 9.92764C173.992 9.92764 169.309 14.6087 169.309 20.3863C169.309 26.1639 173.992 30.8449 179.772 30.8449C185.552 30.8449 190.235 26.1639 190.235 20.3863C190.235 14.6087 185.552 9.92764 179.772 9.92764Z" fill="#DCD0B4"/>
<path d="M179.771 -45.3706L179.825 -45.1176C166.89 -42.3513 155.816 -29.0853 155.616 -13.7896C155.508 -5.6832 158.727 1.7417 163.397 7.34203C168.07 12.9462 174.174 16.6992 179.807 17.4924L179.771 17.7485L179.735 18.0046C173.943 17.1891 167.731 13.3488 162.999 7.67339C158.264 1.99397 154.989 -5.54791 155.098 -13.7967C155.302 -29.3181 166.531 -42.8037 179.717 -45.6237L179.771 -45.3706Z" fill="#DCD0B4"/>
<path d="M179.934 -45.6237C193.12 -42.8037 204.349 -29.3181 204.552 -13.7967C204.662 -5.54791 201.387 1.99397 196.651 7.67339C191.919 13.3488 185.707 17.1891 179.915 18.0046L179.844 17.4924C185.477 16.6992 191.581 12.9462 196.254 7.34203C200.923 1.7417 204.142 -5.68321 204.035 -13.7896C203.834 -29.0853 192.761 -42.3513 179.825 -45.1176L179.934 -45.6237Z" fill="#DCD0B4"/>
<path d="M179.878 -45.1342C171.219 -41.2899 162.116 -29.1088 161.966 -13.7906C161.807 2.46065 171.609 13.9013 179.876 17.5116L179.669 17.9854C171.212 14.2922 161.287 2.66341 161.449 -13.7957C161.6 -29.2947 170.804 -41.672 179.667 -45.607L179.878 -45.1342Z" fill="#DCD0B4"/>
<path d="M179.987 -45.607C188.849 -41.672 198.054 -29.2946 198.205 -13.7957C198.366 2.66341 188.442 14.2922 179.985 17.9854L179.778 17.5116C188.045 13.9013 197.847 2.46065 197.688 -13.7906C197.538 -29.1088 188.435 -41.2899 179.776 -45.1342L179.987 -45.607Z" fill="#DCD0B4"/>
<path d="M179.956 -45.1873C173.409 -38.6744 167.022 -29.1309 166.873 -13.8063C166.793 -5.66753 168.429 0.366699 170.897 5.26549C173.366 10.1689 176.674 13.9469 179.965 17.5747L179.582 17.9222C176.29 14.2932 172.939 10.4698 170.434 5.49783C167.928 0.52121 166.275 -5.59497 166.356 -13.8113C166.507 -29.3036 172.973 -38.9703 179.591 -45.554L179.956 -45.1873Z" fill="#DCD0B4"/>
<path d="M180.064 -45.554C186.682 -38.9703 193.148 -29.3036 193.299 -13.8113C193.38 -5.59499 191.727 0.52121 189.221 5.49783C186.716 10.4698 183.365 14.2932 180.073 17.9222L179.69 17.5747C182.981 13.9469 186.289 10.1689 188.758 5.26549C191.226 0.366699 192.862 -5.66753 192.782 -13.8063C192.632 -29.1309 186.246 -38.6744 179.699 -45.1873L180.064 -45.554Z" fill="#DCD0B4"/>
<path d="M179.772 -45.3706L179.99 -45.2297C175.757 -38.7208 171.617 -29.1634 171.519 -13.8068C171.468 -5.65358 172.528 0.393616 174.127 5.30185C175.726 10.2112 177.868 13.9916 179.996 17.6176L179.55 17.8793C177.419 14.2486 175.252 10.4279 173.635 5.46198C172.016 0.494812 170.95 -5.60841 171.002 -13.8103C171.1 -29.2708 175.271 -38.924 179.556 -45.5116L179.772 -45.3706Z" fill="#DCD0B4"/>
<path d="M180.098 -45.5116C184.383 -38.9239 188.554 -29.2708 188.653 -13.8103C188.705 -5.60841 187.638 0.494812 186.019 5.46198C184.401 10.4278 182.236 14.2486 180.105 17.8793L179.658 17.6176C181.786 13.9915 183.928 10.2113 185.528 5.30185C187.127 0.393616 188.187 -5.65358 188.135 -13.8068C188.037 -29.1634 183.898 -38.7208 179.665 -45.2297L180.098 -45.5116Z" fill="#DCD0B4"/>
<path d="M180.02 -45.2908C177.902 -38.77 175.826 -29.1916 175.779 -13.8078C175.728 2.51588 177.9 10.4354 180.022 17.6757L179.526 17.8212C177.394 10.5478 175.21 2.57732 175.262 -13.8093C175.308 -29.2427 177.392 -38.8747 179.528 -45.4504L180.02 -45.2908Z" fill="#DCD0B4"/>
<path d="M180.128 -45.4504C182.263 -38.8747 184.347 -29.2427 184.394 -13.8093C184.446 2.57732 182.261 10.5478 180.13 17.8212L179.633 17.6757C181.755 10.4354 183.928 2.51588 183.876 -13.8078C183.83 -29.1916 181.753 -38.77 179.635 -45.2908L180.128 -45.4504Z" fill="#DCD0B4"/>
<path d="M152.497 -41.1842C160.977 -46.5508 171.561 -48.1064 179.847 -45.6181L179.699 -45.1226C171.571 -47.5635 161.141 -46.0421 152.774 -40.7473C144.418 -35.4588 138.134 -26.4147 138.262 -13.8108C138.398 -0.336868 145.013 8.81909 153.464 13.9783C161.927 19.1452 172.221 20.2974 179.69 17.7621L179.856 18.2521C172.225 20.8425 161.772 19.657 153.194 14.4198C144.603 9.17465 137.883 -0.140198 137.745 -13.8058C137.614 -26.6087 144.007 -35.8111 152.497 -41.1842Z" fill="#DCD0B4"/>
<path d="M179.89 -45.6181C188.176 -48.1065 198.76 -46.5508 207.24 -41.1842C215.73 -35.8111 222.123 -26.6087 221.993 -13.8058C221.855 -0.140198 215.135 9.17465 206.544 14.4198C197.965 19.657 187.512 20.8425 179.881 18.2521L180.048 17.7621C187.516 20.2974 197.811 19.1452 206.274 13.9783C214.724 8.81909 221.339 -0.336868 221.475 -13.8108C221.604 -26.4147 215.319 -35.4588 206.963 -40.7473C198.597 -46.0421 188.167 -47.5635 180.039 -45.1226L179.89 -45.6181Z" fill="#DCD0B4"/>
<path d="M124.114 -14.4048C124.294 -39.7249 152.229 -60.3478 179.895 -45.5989L179.651 -45.1423C152.134 -59.8119 124.375 -39.0331 124.632 -13.8113C124.768 -0.338699 132.395 11.5479 143.057 18.0728C153.714 24.5945 167.387 25.7512 179.632 17.7899L179.773 18.0071L179.914 18.2238C167.481 26.3073 153.591 25.126 142.786 18.5137C131.987 11.9046 124.253 -0.138977 124.115 -13.8058L124.114 -14.4048Z" fill="#DCD0B4"/>
<path d="M179.843 -45.5989C207.726 -60.4639 235.883 -39.3978 235.623 -13.8058C235.484 -0.13887 227.75 11.9046 216.95 18.5137C206.146 25.126 192.256 26.3072 179.823 18.2238L179.964 18.0071L180.105 17.7899C192.35 25.7512 206.024 24.5945 216.681 18.0728C227.343 11.5479 234.969 -0.338699 235.105 -13.8113C235.362 -39.0331 207.603 -59.8119 180.086 -45.1423L179.843 -45.5989Z" fill="#DCD0B4"/>
<path d="M106.064 -13.8139C106.064 -23.6475 109.424 -34.997 116.119 -43.8932C122.819 -52.7956 132.865 -59.2482 146.219 -59.2483C152.668 -59.2483 158.117 -58.5402 163.45 -56.4701C168.782 -54.4004 173.982 -50.9755 179.946 -45.5671L179.598 -45.1842C173.665 -50.5655 168.518 -53.948 163.263 -55.9877C158.009 -58.027 152.629 -58.731 146.219 -58.731C133.053 -58.7309 123.151 -52.3768 116.533 -43.582C109.909 -34.7809 106.582 -23.5422 106.581 -13.8139C106.581 8.46823 121.352 30.6312 145.283 31.0983C152.525 31.2404 157.755 30.9133 162.842 29.0631C167.929 27.2127 172.899 23.8297 179.599 17.8147L179.772 18.0071L179.945 18.1996C173.227 24.231 168.198 27.6651 163.018 29.5491C157.838 31.4333 152.529 31.7579 145.273 31.6155C120.966 31.1411 106.064 8.64543 106.064 -13.8139Z" fill="#DCD0B4"/>
<path d="M253.153 -13.8139C253.153 -23.5423 249.825 -34.7808 243.201 -43.582C236.583 -52.3768 226.68 -58.731 213.515 -58.731C207.105 -58.731 201.725 -58.0271 196.471 -55.9877C191.216 -53.948 186.069 -50.5654 180.136 -45.1842L179.789 -45.5671C185.752 -50.9755 190.952 -54.4004 196.284 -56.4701C201.617 -58.5401 207.066 -59.2482 213.515 -59.2483C226.869 -59.2483 236.915 -52.7957 243.615 -43.8932C250.31 -34.997 253.67 -23.6475 253.67 -13.8139C253.67 8.6454 238.769 31.1411 214.462 31.6155C207.205 31.7579 201.896 31.4333 196.715 29.5491C191.535 27.6651 186.507 24.2308 179.79 18.1996L180.135 17.8147C186.835 23.8297 191.804 27.2126 196.892 29.0631C201.979 30.9133 207.209 31.2404 214.452 31.0983C238.383 30.6312 253.153 8.46822 253.153 -13.8139Z" fill="#DCD0B4"/>
<path d="M67.0521 -13.3274C67.0521 -45.25 89.3496 -76.9575 125.674 -77.2123C144.023 -77.3421 157.319 -70.0909 166.167 -62.4699C175.009 -54.855 179.419 -46.8639 180.009 -45.4772L179.771 -45.3757L179.533 -45.2747C178.974 -46.5882 174.611 -54.5151 165.83 -62.0784C157.055 -69.6359 143.876 -76.8238 125.678 -76.695C89.712 -76.4429 67.5695 -45.0461 67.5695 -13.3274C67.5696 18.3562 94.4816 49.1345 131.735 49.1345C145.987 49.1345 157.963 42.3228 166.372 34.9983C170.576 31.3372 173.882 27.5532 176.129 24.4398C177.253 22.8828 178.11 21.497 178.681 20.3811C178.967 19.8231 179.18 19.3359 179.319 18.9315C179.459 18.5221 179.518 18.2161 179.513 18.0132L179.772 18.0071L180.03 18.0005C180.037 18.2953 179.955 18.6702 179.808 19.0997C179.658 19.5342 179.435 20.0447 179.142 20.6171C178.556 21.7621 177.684 23.1703 176.549 24.7424C174.279 27.8873 170.946 31.7012 166.712 35.3887C158.247 42.7616 146.156 49.6518 131.735 49.6518C94.1842 49.6518 67.0522 18.6302 67.0521 -13.3274Z" fill="#DCD0B4"/>
<path d="M292.165 -13.3274C292.165 -45.0461 270.022 -76.4429 234.057 -76.695C215.858 -76.8238 202.68 -69.6359 193.905 -62.0784C185.123 -54.5151 180.76 -46.5883 180.201 -45.2747L179.963 -45.3757L179.725 -45.4772C180.315 -46.8641 184.726 -54.8551 193.567 -62.4699C202.416 -70.0908 215.711 -77.3421 234.06 -77.2123C270.384 -76.9576 292.682 -45.2501 292.682 -13.3274C292.682 18.6301 265.55 49.6517 227.999 49.6518C213.579 49.6518 201.487 42.7616 193.022 35.3887C188.788 31.7012 185.455 27.8873 183.185 24.7424C182.05 23.1703 181.178 21.7621 180.592 20.6171C180.299 20.0447 180.076 19.5342 179.927 19.0997C179.779 18.6702 179.697 18.2953 179.704 18.0005L179.963 18.0071L180.222 18.0132C180.217 18.2162 180.275 18.5221 180.416 18.9315C180.555 19.3359 180.767 19.823 181.053 20.3811C181.624 21.497 182.481 22.8828 183.605 24.4398C185.852 27.5532 189.158 31.3372 193.362 34.9983C201.771 42.3228 213.747 49.1345 227.999 49.1345C265.253 49.1344 292.165 18.3562 292.165 -13.3274Z" fill="#DCD0B4"/>
<path d="M0 -13.3224C0 -50.1406 12.4048 -74.5006 30.4677 -89.6508C48.5225 -104.794 72.1974 -110.709 94.696 -110.709C130.608 -110.709 151.95 -95.9161 164.309 -80.3455C170.484 -72.5644 174.413 -64.5937 176.798 -58.187C179.18 -51.79 180.031 -46.9292 180.031 -45.3656H179.514C179.514 -46.8381 178.687 -51.6311 176.314 -58.0067C173.944 -64.3726 170.039 -72.2934 163.903 -80.0243C151.638 -95.4778 130.442 -110.191 94.696 -110.191C72.2788 -110.191 48.7351 -104.298 30.8002 -89.2548C12.8735 -74.2189 0.517464 -50.0145 0.517464 -13.3224C0.517493 2.5461 5.2766 26.5422 20.553 46.564C35.82 66.5732 61.6098 82.6386 103.731 82.636C134.942 82.636 153.905 67.4651 165.062 51.7945C170.642 43.956 174.269 35.9917 176.495 29.739C177.607 26.613 178.369 23.9165 178.85 21.8793C179.09 20.8607 179.259 20.008 179.367 19.3502C179.476 18.6862 179.519 18.2357 179.514 18.0132L179.772 18.0066L180.031 18.0005C180.038 18.2758 179.987 18.768 179.878 19.4335C179.768 20.1054 179.596 20.9698 179.353 21.9975C178.869 24.0534 178.101 26.7685 176.982 29.9122C174.745 36.1993 171.097 44.2084 165.483 52.094C154.25 67.8717 135.143 83.1532 103.731 83.1532C61.4587 83.1558 35.5126 67.0231 20.1417 46.8777C4.78046 26.7448 2.8381e-05 2.62984 0 -13.3224Z" fill="#DCD0B4"/>
<path d="M359.22 -13.3274C359.22 -50.0194 346.864 -74.2234 328.937 -89.2594C311.002 -104.302 287.459 -110.197 265.041 -110.197C229.295 -110.197 208.099 -95.4829 195.834 -80.0293C189.698 -72.2984 185.793 -64.3776 183.423 -58.0117C181.05 -51.6361 180.224 -46.8432 180.224 -45.3706H179.706C179.706 -46.9343 180.557 -51.795 182.939 -58.192C185.324 -64.5988 189.253 -72.5694 195.429 -80.3506C207.787 -95.9212 229.129 -110.714 265.041 -110.714C287.54 -110.714 311.215 -104.799 329.27 -89.6559C347.333 -74.5056 359.737 -50.1457 359.737 -13.3274C359.737 2.62477 354.957 26.7396 339.596 46.8731C324.225 67.0192 298.279 83.1532 256.006 83.1532C224.595 83.1532 205.487 67.8721 194.254 52.0945C188.64 44.209 184.993 36.1998 182.755 29.9127C181.636 26.769 180.869 24.0539 180.384 21.998C180.142 20.9702 179.969 20.1054 179.859 19.4335C179.75 18.7679 179.699 18.2758 179.706 18.0005L179.964 18.0071L180.224 18.0132C180.218 18.2357 180.261 18.6862 180.37 19.3502C180.478 20.0081 180.648 20.8607 180.888 21.8793C181.368 23.9164 182.129 26.6131 183.242 29.739C185.468 35.9917 189.095 43.956 194.676 51.7945C205.832 67.4651 224.795 82.636 256.006 82.636C298.127 82.636 323.917 66.5693 339.184 46.5594C354.461 26.5371 359.22 2.54102 359.22 -13.3274Z" fill="#DCD0B4"/>
<path d="M180.031 -45.6292V18.0071H179.514V-45.6292H180.031Z" fill="#DCD0B4"/>
<path d="M179.255 -154.379C201.821 -154.379 223.032 -147.34 238.981 -134.559C254.898 -121.803 263.658 -104.853 263.658 -86.8327C263.658 -68.812 254.893 -51.862 238.981 -39.1068C223.032 -26.3258 201.821 -19.2861 179.255 -19.2861C156.688 -19.2861 135.477 -26.3258 119.529 -39.1068C103.612 -51.862 94.8512 -68.812 94.8512 -86.8327C94.8512 -104.853 103.617 -121.803 119.529 -134.559C135.477 -147.34 156.688 -154.379 179.255 -154.379ZM179.255 -154.896C132.352 -154.896 94.3286 -124.426 94.3286 -86.8327C94.3286 -49.2396 132.352 -18.7689 179.255 -18.7689C226.158 -18.7689 264.181 -49.2396 264.181 -86.8327C264.181 -124.426 226.158 -154.896 179.255 -154.896Z" fill="#DCD0B4"/>
<path d="M315.652 59.0836L317.475 63.6694C317.492 63.7141 317.543 63.7348 317.587 63.7162L322.119 61.7626C322.23 61.7151 322.341 61.8266 322.294 61.9367L320.339 66.4674C320.321 66.5114 320.341 66.5624 320.386 66.5796L324.974 68.4018C325.085 68.4458 325.085 68.6041 324.974 68.6481L320.386 70.4703C320.341 70.4882 320.321 70.5385 320.339 70.5825L322.294 75.1132C322.341 75.2233 322.23 75.3348 322.119 75.2873L317.587 73.3337C317.543 73.3151 317.492 73.3358 317.475 73.3805L315.652 77.9663C315.608 78.0778 315.449 78.0778 315.405 77.9663L313.582 73.3805C313.564 73.3358 313.514 73.3151 313.47 73.3337L308.937 75.2873C308.827 75.3348 308.716 75.2233 308.763 75.1132L310.718 70.5825C310.736 70.5385 310.715 70.4875 310.671 70.4703L306.084 68.6474C305.972 68.6034 305.972 68.4451 306.084 68.4011L310.671 66.5789C310.716 66.561 310.737 66.5107 310.718 66.4667L308.764 61.936C308.716 61.8259 308.828 61.7144 308.938 61.7619L313.471 63.7155C313.515 63.7341 313.566 63.7134 313.583 63.6687L315.405 59.0836C315.449 58.9721 315.608 58.9721 315.652 59.0836Z" fill="#B62518"/>
<path d="M315.614 62.1163L316.852 65.2292C316.864 65.2595 316.898 65.2735 316.928 65.2609L320.005 63.9348C320.08 63.9026 320.155 63.9782 320.123 64.053L318.796 67.1284C318.784 67.1583 318.798 67.1929 318.828 67.2046L321.942 68.4415C322.018 68.4714 322.018 68.5788 321.942 68.6087L318.828 69.8456C318.798 69.8578 318.784 69.8919 318.796 69.9217L320.123 72.9972C320.155 73.0719 320.08 73.1476 320.005 73.1154L316.928 71.7893C316.898 71.7766 316.863 71.7907 316.852 71.821L315.614 74.9338C315.584 75.0095 315.477 75.0095 315.447 74.9338L314.209 71.821C314.197 71.7907 314.163 71.7766 314.133 71.7893L311.056 73.1154C310.982 73.1476 310.906 73.0719 310.938 72.9972L312.265 69.9217C312.277 69.8919 312.263 69.8573 312.233 69.8456L309.119 68.6082C309.044 68.5783 309.044 68.4709 309.119 68.441L312.234 67.2041C312.264 67.192 312.278 67.1579 312.265 67.128L310.939 64.0525C310.906 63.9778 310.982 63.9021 311.057 63.9343L314.134 65.2604C314.164 65.2731 314.198 65.259 314.21 65.2287L315.447 62.1163C315.477 62.0407 315.584 62.0407 315.614 62.1163Z" fill="#F8F3E7"/>
<path d="M211.924 8.56765L212.271 9.43924C212.274 9.44774 212.284 9.45167 212.292 9.44813L213.154 9.07682C213.175 9.06779 213.196 9.08898 213.187 9.10991L212.815 9.97104C212.812 9.97941 212.816 9.98909 212.824 9.99236L213.696 10.3387C213.717 10.3471 213.717 10.3771 213.696 10.3855L212.824 10.7318C212.816 10.7352 212.812 10.7448 212.815 10.7532L213.187 11.6143C213.196 11.6352 213.175 11.6564 213.154 11.6474L212.292 11.2761C212.284 11.2725 212.274 11.2765 212.271 11.285L211.924 12.1566C211.916 12.1777 211.886 12.1777 211.877 12.1566L211.531 11.285C211.528 11.2765 211.518 11.2725 211.51 11.2761L210.648 11.6474C210.627 11.6564 210.606 11.6352 210.615 11.6143L210.987 10.7532C210.99 10.7448 210.986 10.7351 210.978 10.7318L210.106 10.3854C210.085 10.377 210.085 10.3469 210.106 10.3386L210.978 9.99223C210.986 9.98882 210.99 9.97928 210.987 9.97091L210.615 9.10978C210.606 9.08885 210.627 9.06766 210.648 9.07669L211.51 9.448C211.518 9.45154 211.528 9.44761 211.531 9.43911L211.877 8.56765C211.886 8.54646 211.916 8.54646 211.924 8.56765Z" fill="#1C4AC7"/>
<path d="M400.773 172.504L402.625 199.916L425.049 184.285L404.937 202.835L431.043 210.758L404.111 206.477L414.243 231.987L400.773 208.099L387.3 231.987L397.432 206.477L370.5 210.758L396.608 202.835L376.496 184.285L398.919 199.916L400.773 172.504Z" fill="#FFC72D"/>
<path d="M400.69 37.1319L406.317 58.327C406.347 58.439 406.477 58.493 406.577 58.435L425.551 47.4246C425.709 47.3327 425.885 47.5106 425.793 47.6665L414.778 66.6328C414.72 66.7347 414.772 66.8626 414.886 66.8926L436.091 72.5177C436.267 72.5637 436.267 72.8136 436.091 72.8596L414.886 78.4847C414.774 78.5147 414.72 78.6446 414.778 78.7445L425.793 97.7108C425.885 97.8687 425.707 98.0446 425.551 97.9527L406.577 86.9423C406.475 86.8844 406.347 86.9363 406.317 87.0503L400.69 108.245C400.644 108.421 400.394 108.421 400.348 108.245L394.72 87.0503C394.69 86.9383 394.56 86.8844 394.46 86.9423L375.486 97.9527C375.328 98.0446 375.152 97.8667 375.244 97.7108L386.259 78.7445C386.317 78.6426 386.265 78.5147 386.151 78.4847L364.944 72.8616C364.769 72.8156 364.769 72.5657 364.944 72.5197L386.149 66.8946C386.261 66.8647 386.315 66.7347 386.257 66.6348L375.242 47.6665C375.15 47.5086 375.328 47.3327 375.484 47.4246L394.458 58.435C394.56 58.493 394.688 58.441 394.718 58.327L400.346 37.1319C400.392 36.956 400.642 36.956 400.688 37.1319H400.69Z" fill="#FFC72D"/>
<path d="M400.518 38.5172L405.813 58.461C405.895 58.7668 406.171 58.9807 406.489 58.9807C406.611 58.9807 406.733 58.9487 406.839 58.8868L424.692 48.5281L414.328 66.3729C414.218 66.5628 414.202 66.7867 414.286 66.9906C414.37 67.1925 414.54 67.3424 414.752 67.3984L434.705 72.6917L414.752 77.9849C414.54 78.0409 414.37 78.1888 414.286 78.3927C414.202 78.5966 414.218 78.8205 414.328 79.0104L424.692 96.8552L406.839 86.4966C406.733 86.4346 406.611 86.4026 406.489 86.4026C406.173 86.4026 405.895 86.6165 405.813 86.9223L400.518 106.866L395.222 86.9223C395.14 86.6165 394.864 86.4026 394.546 86.4026C394.424 86.4026 394.302 86.4346 394.196 86.4966L376.344 96.8552L386.707 79.0104C386.817 78.8205 386.833 78.5946 386.749 78.3927C386.665 78.1908 386.495 78.0409 386.283 77.9849L366.33 72.6897L386.283 67.3964C386.495 67.3404 386.665 67.1925 386.749 66.9886C386.833 66.7867 386.817 66.5608 386.707 66.3709L376.344 48.5261L394.196 58.8848C394.302 58.9467 394.424 58.9787 394.546 58.9787C394.862 58.9787 395.14 58.7648 395.222 58.459L400.518 38.5172ZM400.518 37C400.444 37 400.37 37.044 400.346 37.1319L394.718 58.327C394.696 58.409 394.624 58.459 394.546 58.459C394.516 58.459 394.486 58.451 394.458 58.435L375.484 47.4246C375.454 47.4067 375.424 47.3987 375.394 47.3987C375.27 47.3987 375.168 47.5386 375.242 47.6665L386.257 66.6328C386.315 66.7347 386.263 66.8627 386.149 66.8926L364.944 72.5177C364.769 72.5637 364.769 72.8136 364.944 72.8596L386.149 78.4847C386.261 78.5147 386.315 78.6446 386.257 78.7445L375.242 97.7108C375.168 97.8387 375.27 97.9787 375.394 97.9787C375.424 97.9787 375.454 97.9707 375.484 97.9527L394.458 86.9423C394.486 86.9263 394.516 86.9183 394.546 86.9183C394.622 86.9183 394.696 86.9683 394.718 87.0503L400.346 108.245C400.37 108.333 400.444 108.377 400.518 108.377C400.592 108.377 400.666 108.333 400.69 108.245L406.317 87.0503C406.339 86.9683 406.411 86.9183 406.489 86.9183C406.519 86.9183 406.549 86.9263 406.577 86.9423L425.551 97.9527C425.581 97.9707 425.611 97.9787 425.641 97.9787C425.765 97.9787 425.867 97.8387 425.793 97.7108L414.778 78.7445C414.72 78.6426 414.772 78.5147 414.886 78.4847L436.091 72.8596C436.267 72.8136 436.267 72.5637 436.091 72.5177L414.886 66.8926C414.774 66.8627 414.72 66.7327 414.778 66.6328L425.793 47.6665C425.867 47.5386 425.765 47.3987 425.641 47.3987C425.611 47.3987 425.581 47.4067 425.551 47.4246L406.577 58.435C406.549 58.451 406.519 58.459 406.489 58.459C406.413 58.459 406.339 58.409 406.317 58.327L400.69 37.1319C400.666 37.044 400.592 37 400.518 37Z" fill="#E93F30"/>
<path d="M421.167 52.4603L409.552 72.6079C409.512 72.6759 409.512 72.7599 409.552 72.8278L421.079 93.0454C421.191 93.2413 420.973 93.4572 420.777 93.3453L400.611 81.7192C400.543 81.6793 400.459 81.6793 400.391 81.7192L380.174 93.2253C379.978 93.3373 379.762 93.1194 379.874 92.9235L391.489 72.7758C391.529 72.7079 391.529 72.6239 391.489 72.556L379.962 52.3383C379.85 52.1424 380.068 51.9266 380.264 52.0385L400.431 63.6645C400.499 63.7045 400.583 63.7045 400.651 63.6645L420.867 52.1584C421.063 52.0465 421.279 52.2644 421.167 52.4603Z" fill="#FFC72D"/>
<path d="M380.963 53.0418L400.169 64.1141C400.281 64.1781 400.409 64.2141 400.539 64.2141C400.669 64.2141 400.795 64.1801 400.905 64.1161L420.16 53.1578L409.097 72.3479C408.967 72.5758 408.965 72.8576 409.097 73.0855L420.074 92.3396L400.867 81.2673C400.755 81.2033 400.627 81.1674 400.497 81.1674C400.367 81.1674 400.241 81.2013 400.131 81.2653L380.877 92.2237L391.94 73.0335C392.07 72.8057 392.072 72.5238 391.94 72.2959L380.963 53.0418ZM380.153 52.0063C379.999 52.0063 379.871 52.1783 379.963 52.3362L391.49 72.5538C391.528 72.6218 391.528 72.7057 391.49 72.7737L379.875 92.9213C379.783 93.0792 379.909 93.2532 380.065 93.2532C380.101 93.2532 380.139 93.2432 380.175 93.2232L400.391 81.7171C400.425 81.6971 400.463 81.6891 400.501 81.6891C400.539 81.6891 400.577 81.6991 400.611 81.7191L420.778 93.3451C420.814 93.3671 420.852 93.3751 420.888 93.3751C421.042 93.3751 421.17 93.2032 421.078 93.0453L409.55 72.8276C409.512 72.7597 409.512 72.6757 409.55 72.6078L421.166 52.4601C421.258 52.3022 421.132 52.1283 420.976 52.1283C420.94 52.1283 420.902 52.1383 420.866 52.1583L400.649 63.6644C400.615 63.6843 400.577 63.6923 400.539 63.6923C400.501 63.6923 400.463 63.6823 400.429 63.6624L380.263 52.0363C380.227 52.0143 380.189 52.0063 380.153 52.0063Z" fill="#E93F30"/>
<path d="M386.542 58.6469L400.137 66.4849C400.257 66.5549 400.395 66.5909 400.535 66.5909C400.675 66.5909 400.809 66.5549 400.929 66.4869L414.56 58.7289L406.729 72.3139C406.589 72.5578 406.587 72.8616 406.729 73.1055L414.5 86.7345L400.905 78.8965C400.785 78.8266 400.647 78.7906 400.507 78.7906C400.367 78.7906 400.233 78.8266 400.113 78.8945L386.482 86.6525L394.314 73.0675C394.454 72.8236 394.456 72.5198 394.314 72.2759L386.542 58.6469ZM385.878 57.7034C385.684 57.7034 385.528 57.9193 385.64 58.1152L393.86 72.5318C393.908 72.6158 393.908 72.7197 393.86 72.8057L385.576 87.1743C385.462 87.3722 385.62 87.5881 385.814 87.5881C385.858 87.5881 385.906 87.5761 385.952 87.5501L400.369 79.3443C400.411 79.3203 400.459 79.3083 400.505 79.3083C400.553 79.3083 400.599 79.3203 400.643 79.3443L415.024 87.634C415.07 87.66 415.118 87.672 415.162 87.672C415.356 87.672 415.512 87.4561 415.4 87.2602L407.181 72.8436C407.133 72.7597 407.133 72.6557 407.181 72.5698L415.464 58.2012C415.578 58.0033 415.42 57.7874 415.226 57.7874C415.182 57.7874 415.134 57.7994 415.088 57.8254L400.671 66.0311C400.629 66.0551 400.581 66.0671 400.535 66.0671C400.489 66.0671 400.441 66.0551 400.397 66.0311L386.016 57.7414C385.97 57.7154 385.922 57.7034 385.878 57.7034Z" fill="#E93F30"/>
<path d="M391.31 63.4365L400.135 68.5239C400.255 68.5938 400.393 68.6298 400.531 68.6298C400.669 68.6298 400.805 68.5938 400.923 68.5259L409.772 63.4904L404.689 72.3099C404.549 72.5518 404.549 72.8556 404.689 73.0975L409.734 81.945L400.909 76.8576C400.789 76.7876 400.651 76.7516 400.513 76.7516C400.375 76.7516 400.239 76.7876 400.121 76.8556L391.272 81.891L396.356 73.0715C396.496 72.8296 396.496 72.5258 396.356 72.2839L391.31 63.4365ZM390.636 62.487C390.446 62.487 390.29 62.6989 390.4 62.8948L395.9 72.5398C395.948 72.6238 395.948 72.7257 395.9 72.8097L390.358 82.4227C390.246 82.6186 390.402 82.8325 390.592 82.8325C390.636 82.8325 390.682 82.8205 390.728 82.7945L400.373 77.3053C400.415 77.2814 400.461 77.2694 400.507 77.2694C400.553 77.2694 400.601 77.2814 400.643 77.3053L410.264 82.8525C410.31 82.8785 410.356 82.8905 410.4 82.8905C410.59 82.8905 410.746 82.6786 410.636 82.4827L405.137 72.8376C405.089 72.7537 405.089 72.6517 405.137 72.5678L410.678 62.9547C410.79 62.7588 410.634 62.5449 410.444 62.5449C410.4 62.5449 410.354 62.5569 410.308 62.5829L400.663 68.0721C400.621 68.0961 400.575 68.1081 400.529 68.1081C400.483 68.1081 400.435 68.0961 400.393 68.0721L390.772 62.5249C390.726 62.499 390.68 62.487 390.636 62.487Z" fill="#E93F30"/>
<path d="M400.733 43.7908L406.83 66.2313C406.85 66.3072 406.91 66.3652 406.986 66.3872L429.455 72.4781C429.673 72.536 429.673 72.8439 429.455 72.9039L406.986 78.9947C406.91 79.0147 406.852 79.0747 406.83 79.1506L400.733 101.591C400.675 101.807 400.367 101.807 400.307 101.591L394.209 79.1506C394.189 79.0747 394.129 79.0167 394.054 78.9947L371.585 72.9039C371.367 72.8459 371.367 72.538 371.585 72.4781L394.054 66.3872C394.129 66.3672 394.187 66.3072 394.209 66.2313L400.307 43.7908C400.365 43.5749 400.673 43.5749 400.733 43.7908Z" fill="#FFC72D"/>
<path d="M400.519 44.9962L406.326 66.3692C406.394 66.6231 406.594 66.821 406.848 66.8909L428.247 72.692L406.848 78.493C406.594 78.5609 406.396 78.7608 406.326 79.0147L400.519 100.388L394.711 79.0147C394.643 78.7628 394.443 78.5629 394.189 78.493L372.791 72.692L394.189 66.8909C394.443 66.823 394.641 66.6231 394.711 66.3692L400.519 44.9962ZM400.519 43.6289C400.427 43.6289 400.335 43.6829 400.307 43.7908L394.209 66.2313C394.189 66.3072 394.13 66.3652 394.054 66.3872L371.585 72.4781C371.367 72.536 371.367 72.8439 371.585 72.9039L394.054 78.9947C394.13 79.0147 394.187 79.0747 394.209 79.1506L400.307 101.591C400.337 101.699 400.429 101.753 400.519 101.753C400.609 101.753 400.703 101.699 400.731 101.591L406.828 79.1506C406.848 79.0747 406.908 79.0167 406.984 78.9947L429.453 72.9039C429.671 72.8459 429.671 72.538 429.453 72.4781L406.984 66.3872C406.908 66.3672 406.85 66.3072 406.828 66.2313L400.731 43.7908C400.701 43.6829 400.609 43.6289 400.519 43.6289Z" fill="#E93F30"/>
<path d="M400.519 52.8962L404.631 68.0264C404.705 68.2983 404.919 68.5122 405.191 68.5861L420.337 72.692L405.191 76.7979C404.919 76.8719 404.705 77.0858 404.631 77.3576L400.519 92.4878L396.407 77.3576C396.333 77.0858 396.119 76.8719 395.847 76.7979L380.701 72.692L395.847 68.5861C396.119 68.5122 396.333 68.2983 396.407 68.0264L400.519 52.8962ZM400.519 51.6828C400.405 51.6828 400.291 51.7508 400.253 51.8847L395.903 67.8885C395.877 67.9824 395.803 68.0564 395.709 68.0824L379.687 72.4262C379.417 72.5001 379.417 72.8839 379.687 72.9559L395.709 77.2996C395.803 77.3256 395.877 77.3996 395.903 77.4935L400.253 93.4973C400.289 93.6332 400.405 93.6992 400.519 93.6992C400.633 93.6992 400.747 93.6312 400.785 93.4973L405.135 77.4935C405.161 77.3996 405.235 77.3256 405.329 77.2996L421.351 72.9559C421.621 72.8819 421.621 72.4981 421.351 72.4262L405.329 68.0824C405.235 68.0564 405.161 67.9824 405.135 67.8885L400.785 51.8847C400.749 51.7488 400.633 51.6828 400.519 51.6828Z" fill="#E93F30"/>
<path d="M400.519 59.6448L403.189 69.4677C403.263 69.7376 403.477 69.9515 403.747 70.0254L413.58 72.6901L403.747 75.3547C403.477 75.4287 403.263 75.6425 403.189 75.9124L400.519 85.7354L397.849 75.9124C397.775 75.6425 397.561 75.4287 397.291 75.3547L387.458 72.6901L397.291 70.0254C397.561 69.9515 397.775 69.7376 397.849 69.4677L400.519 59.6448ZM400.519 58.4234C400.405 58.4234 400.293 58.4894 400.257 58.6233L397.347 69.3298C397.321 69.4237 397.249 69.4957 397.155 69.5217L386.436 72.4282C386.168 72.5002 386.168 72.88 386.436 72.9519L397.155 75.8584C397.249 75.8844 397.321 75.9564 397.347 76.0503L400.257 86.7568C400.293 86.8908 400.407 86.9567 400.519 86.9567C400.631 86.9567 400.745 86.8908 400.781 86.7568L403.691 76.0503C403.717 75.9564 403.789 75.8844 403.883 75.8584L414.602 72.9519C414.87 72.88 414.87 72.5002 414.602 72.4282L403.883 69.5217C403.789 69.4957 403.717 69.4237 403.691 69.3298L400.781 58.6233C400.745 58.4894 400.631 58.4234 400.519 58.4234Z" fill="#E93F30"/>
<path d="M400.518 81.3294C405.292 81.3294 409.162 77.4613 409.162 72.6898C409.162 67.9184 405.292 64.0503 400.518 64.0503C395.745 64.0503 391.875 67.9184 391.875 72.6898C391.875 77.4613 395.745 81.3294 400.518 81.3294Z" fill="#FFC72D"/>
<path d="M400.518 64.572C404.996 64.572 408.64 68.2142 408.64 72.6898C408.64 77.1655 404.996 80.8077 400.518 80.8077C396.041 80.8077 392.397 77.1655 392.397 72.6898C392.397 68.2142 396.041 64.572 400.518 64.572ZM400.518 64.0503C395.745 64.0503 391.875 67.9183 391.875 72.6898C391.875 77.4614 395.745 81.3294 400.518 81.3294C405.292 81.3294 409.162 77.4614 409.162 72.6898C409.162 67.9183 405.292 64.0503 400.518 64.0503Z" fill="#E93F30"/>
<path d="M400.518 67.6963C403.274 67.6963 405.514 69.9372 405.514 72.6897C405.514 75.4423 403.272 77.6832 400.518 77.6832C397.765 77.6832 395.523 75.4423 395.523 72.6897C395.523 69.9372 397.765 67.6963 400.518 67.6963ZM400.518 67.1746C397.471 67.1746 395.001 69.6433 395.001 72.6897C395.001 75.7362 397.471 78.2049 400.518 78.2049C403.566 78.2049 406.036 75.7362 406.036 72.6897C406.036 69.6433 403.566 67.1746 400.518 67.1746Z" fill="#E93F30"/>
<path d="M400.519 74.295C401.405 74.295 402.124 73.5764 402.124 72.6899C402.124 71.8034 401.405 71.0847 400.519 71.0847C399.632 71.0847 398.913 71.8034 398.913 72.6899C398.913 73.5764 399.632 74.295 400.519 74.295Z" fill="#E93F30"/>
<path d="M400.518 30.0971L407.118 54.9553C407.22 55.3365 407.564 55.6031 407.96 55.6031C408.112 55.6031 408.264 55.5632 408.397 55.486L430.647 42.5748L417.731 64.8168C417.594 65.0535 417.574 65.3325 417.679 65.5867C417.783 65.8383 417.995 66.0252 418.26 66.0949L443.128 72.6926L418.26 79.2902C417.995 79.3599 417.783 79.5443 417.679 79.7984C417.574 80.0526 417.594 80.3316 417.731 80.5683L430.647 102.81L408.397 89.8991C408.264 89.8219 408.112 89.782 407.96 89.782C407.566 89.782 407.22 90.0486 407.118 90.4298L400.518 115.288L393.917 90.4298C393.815 90.0486 393.471 89.782 393.075 89.782C392.923 89.782 392.771 89.8219 392.639 89.8991L370.388 102.81L383.304 80.5683C383.441 80.3316 383.461 80.0501 383.356 79.7984C383.252 79.5468 383.04 79.3599 382.776 79.2902L357.907 72.6901L382.776 66.0925C383.04 66.0227 383.252 65.8383 383.356 65.5842C383.461 65.3325 383.441 65.051 383.304 64.8143L370.388 42.5723L392.639 55.4835C392.771 55.5607 392.923 55.6006 393.075 55.6006C393.469 55.6006 393.815 55.334 393.917 54.9528L400.518 30.0971ZM400.518 28.2061C400.425 28.2061 400.333 28.2609 400.303 28.3705L393.289 54.7883C393.262 54.8905 393.172 54.9528 393.075 54.9528C393.037 54.9528 393 54.9428 392.965 54.9229L369.316 41.1995C369.278 41.177 369.241 41.1671 369.204 41.1671C369.049 41.1671 368.922 41.3415 369.014 41.5009L382.743 65.1407C382.815 65.2678 382.751 65.4272 382.609 65.4646L356.18 72.4758C355.961 72.5331 355.961 72.8445 356.18 72.9018L382.609 79.913C382.748 79.9504 382.815 80.1124 382.743 80.2369L369.014 103.877C368.922 104.036 369.049 104.211 369.204 104.211C369.241 104.211 369.278 104.201 369.316 104.178L392.965 90.4548C393 90.4348 393.037 90.4249 393.075 90.4249C393.17 90.4249 393.262 90.4871 393.289 90.5893L400.303 117.007C400.333 117.117 400.425 117.172 400.518 117.172C400.61 117.172 400.702 117.117 400.732 117.007L407.746 90.5893C407.773 90.4871 407.863 90.4249 407.96 90.4249C407.998 90.4249 408.035 90.4348 408.07 90.4548L431.719 104.178C431.757 104.201 431.794 104.211 431.831 104.211C431.986 104.211 432.113 104.036 432.021 103.877L418.292 80.2369C418.22 80.1099 418.284 79.9504 418.427 79.913L444.855 72.9018C445.074 72.8445 445.074 72.5331 444.855 72.4758L418.427 65.4646C418.287 65.4272 418.22 65.2653 418.292 65.1407L432.021 41.5009C432.113 41.3415 431.986 41.1671 431.831 41.1671C431.794 41.1671 431.757 41.177 431.719 41.1995L408.07 54.9229C408.035 54.9428 407.998 54.9528 407.96 54.9528C407.866 54.9528 407.773 54.8905 407.746 54.7883L400.732 28.3705C400.702 28.2609 400.61 28.2061 400.518 28.2061Z" fill="#E93F30"/>
<path d="M180.079 4.41357L180.903 16.5702L190.869 9.63802L181.93 17.865L193.533 21.3783L181.563 19.48L186.067 30.7929L180.079 20.199L174.092 30.7929L178.595 19.48L166.625 21.3783L178.229 17.865L169.29 9.63802L179.255 16.5702L180.079 4.41357Z" fill="#AF8103"/>
</g>
<defs>
<clipPath id="clip0_4122_4406">
<rect width="400" height="382" fill="white"/>
</clipPath>
</defs>
</svg>
