<svg width="283" height="215" viewBox="0 0 283 215" fill="none" xmlns="http://www.w3.org/2000/svg">
<g clip-path="url(#clip0_4122_6558)">
<path d="M316.647 83.4241L444.876 45.3752L444.022 42.4987L322.119 78.6706L335.454 49.5044L332.726 48.2576L316.647 83.4241Z" fill="#27376E"/>
<path d="M332.778 49.7847L335.421 48.3654L320.244 20.1085L444.208 48.3938L444.877 45.4692L314.479 15.7172L332.778 49.7847Z" fill="#27376E"/>
<path d="M333.463 45.4563L318.979 16.8419L316.303 18.1965L333.766 52.6995L383.966 -71.2767L381.185 -72.4025L333.463 45.4563Z" fill="#27376E"/>
<path d="M279.471 12.1756L317.526 19.1095L318.064 16.1576L286.501 10.4065L385.914 -68.8779L384.043 -71.2238L279.471 12.1756Z" fill="#27376E"/>
<path d="M252.177 -94.9169L314.575 15.8722L283.158 9.36093L282.549 12.2983L320.427 20.1491L254.791 -96.3883L252.177 -94.9169Z" fill="#27376E"/>
<path d="M254.887 37.3368L284.033 11.9098L282.061 9.64888L257.888 30.7371L257.886 -96.414L254.885 -96.4141L254.887 37.3368Z" fill="#27376E"/>
<path d="M154.136 -8.09704L279.664 12.1997L254.988 32.6999L256.905 35.0076L286.655 10.2912L154.615 -11.0578L154.136 -8.09704Z" fill="#27376E"/>
<path d="M154.656 -11.1424L259.23 72.2492L257.522 33.6116L254.526 33.7446L255.943 65.789L156.526 -13.4888L154.656 -11.1424Z" fill="#27376E"/>
<path d="M158.87 120.47L160.886 122.692L255.028 37.2112L255.672 69.2817L258.671 69.2216L257.895 30.5567L158.87 120.47Z" fill="#27376E"/>
<path d="M256.19 70.2843L282.134 89.162L158.164 117.463L158.832 120.387L289.234 90.6193L257.955 67.8583L256.19 70.2843Z" fill="#27376E"/>
<path d="M264.364 199.143L267.358 198.951L259.212 72.0604L284.69 91.5582L286.514 89.1754L255.795 65.6686L264.364 199.143Z" fill="#27376E"/>
<path d="M285.008 88.8792L285.803 91.772L316.738 83.2604L261.569 197.824L264.272 199.126L322.303 78.6176L285.008 88.8792Z" fill="#27376E"/>
<path d="M391.642 165.732L393.359 163.271L289.074 90.5107L320.195 82.7568L319.47 79.8466L281.945 89.1961L391.642 165.732Z" fill="#27376E"/>
<path d="M318.309 80.832L321.067 82.0124L333.691 52.5261L388.877 167.093L391.58 165.791L333.53 45.2799L318.309 80.832Z" fill="#27376E"/>
<path d="M255.566 -93.5108C217.156 -83.4314 184.973 -59.0024 164.94 -24.7146C144.907 9.57322 139.428 49.6048 149.508 88.0143C159.587 126.424 184.016 158.607 218.304 178.64C252.592 198.673 292.624 204.151 331.033 194.072C369.443 183.992 401.626 159.563 421.659 125.276C441.692 90.9879 447.18 50.9537 437.103 12.5539C427.026 -25.8459 402.594 -58.0389 368.307 -78.0718C334.019 -98.1048 293.975 -103.59 255.566 -93.5108ZM254.804 -96.4126C335.821 -117.673 418.744 -69.2244 440.005 11.7924C461.265 92.8093 412.824 175.72 331.807 196.981C250.79 218.241 167.879 169.8 146.618 88.7829C125.358 7.76605 173.787 -75.1521 254.804 -96.4126Z" fill="#27376E"/>
<path d="M252.362 -105.718C210.693 -94.7827 175.779 -68.2723 154.038 -31.0758C132.298 6.12071 126.359 49.5607 137.294 91.2298C148.229 132.899 174.739 167.813 211.936 189.554C249.13 211.285 292.572 217.233 334.241 206.298C375.911 195.363 410.825 168.853 432.566 131.656C454.294 94.4526 460.244 51.0197 449.31 9.35062C438.375 -32.3185 411.862 -67.2426 374.668 -88.9735C337.474 -110.704 294.041 -116.655 252.362 -105.718ZM251.601 -108.619C339.369 -131.651 429.179 -79.1791 452.211 8.58915C475.243 96.3574 422.771 186.168 335.003 209.2C247.235 232.232 157.424 179.76 134.392 91.9913C111.36 4.22301 163.842 -85.5897 251.601 -108.619Z" fill="#27376E"/>
<circle cx="9" cy="9" r="9" transform="matrix(-1 0 0 1 171.586 110)" fill="#E93F30"/>
<circle cx="5" cy="5" r="5" transform="matrix(-1 0 0 1 151.586 123)" fill="#F7EED8"/>
<path d="M197.55 -19.64L131.94 -17.53L144.5 46.91L141.71 41.12L130.29 -17.47L113.74 -16.94L103.01 -4.33L141.71 41.12L144.5 46.91L101.94 -3.07001L59.4 46.93L62.19 41.14L100.88 -4.32001L90.15 -16.93L73.6 -17.46L62.2 41.14L59.41 46.93L71.95 -17.51L6.34 -19.6L12.6 -21.03L72.27 -19.13L75.43 -35.38L65.52 -48.65L12.6 -21.03L6.34 -19.6L64.54 -49.97L25.26 -102.57L30.28 -98.57L66 -50.74L80.68 -58.4L84.88 -74.42L30.29 -98.58L25.27 -102.58L85.3 -76.01L101.94 -139.51L101.94 -133.09L86.81 -75.34L101.95 -68.64L117.09 -75.35L101.94 -133.09L101.94 -139.51L118.6 -76.01L178.62 -102.6L173.6 -98.59L119.02 -74.41L123.22 -58.4L137.9 -50.74L173.6 -98.59L178.62 -102.6L139.36 -49.98L197.57 -19.63L191.31 -21.06L138.38 -48.66L128.48 -35.39L131.65 -19.14L191.32 -21.06L197.58 -19.63L197.55 -19.64ZM119.9 -27.13L126.65 -35.81L124.34 -46.53L121.75 -57.26L111.88 -62.16L101.92 -66.8L91.95 -62.15L82.09 -57.25L79.51 -46.55L77.19 -35.8L83.95 -27.11L90.91 -18.59L101.9 -18.46L112.92 -18.6L119.89 -27.13L119.9 -27.13ZM136.89 -49.44L123.93 -56.2L125.93 -46.92L128.15 -37.72L136.89 -49.44ZM117.48 -73.76L104.11 -67.84L112.58 -63.63L121.18 -59.62L117.47 -73.76L117.48 -73.76ZM86.37 -73.76L82.66 -59.62L91.25 -63.63L99.74 -67.85L86.37 -73.77L86.37 -73.76ZM66.97 -49.42L75.72 -37.7L77.94 -46.91L79.94 -56.18L66.98 -49.42L66.97 -49.42ZM73.9 -19.09L88.51 -18.62L82.69 -26.09L76.68 -33.43L73.89 -19.08L73.9 -19.09ZM101.94 -5.59L111.42 -16.72L101.93 -16.83L92.47 -16.71L101.95 -5.58L101.94 -5.59ZM129.97 -19.1L127.17 -33.45L121.18 -26.12L115.36 -18.63L129.97 -19.1ZM101.93 -138.66C127.9 -138.66 152.31 -128.55 170.67 -110.19C189.03 -91.83 199.14 -67.42 199.14 -41.45C199.14 -15.48 189.03 8.92999 170.67 27.29C152.31 45.65 127.9 55.76 101.93 55.76C75.96 55.76 51.55 45.65 33.19 27.29C14.83 8.92999 4.72 -15.48 4.72 -41.45C4.72 -67.42 14.83 -91.83 33.19 -110.19C51.55 -128.55 75.96 -138.66 101.93 -138.66ZM101.93 -140.29C47.34 -140.29 3.09 -96.04 3.09 -41.45C3.09 13.14 47.34 57.39 101.93 57.39C156.52 57.39 200.77 13.14 200.77 -41.45C200.77 -96.04 156.52 -140.29 101.93 -140.29ZM101.93 -149.25C130.72 -149.25 157.79 -138.04 178.15 -117.68C198.51 -97.32 209.72 -70.25 209.72 -41.46C209.72 -12.67 198.51 14.4 178.15 34.76C157.79 55.12 130.72 66.33 101.93 66.33C73.14 66.33 46.07 55.12 25.71 34.76C5.35001 14.4 -5.86 -12.67 -5.86 -41.46C-5.86 -70.25 5.35 -97.32 25.71 -117.68C46.07 -138.04 73.14 -149.25 101.93 -149.25ZM101.93 -150.88C41.5 -150.88 -7.5 -101.89 -7.5 -41.45C-7.5 18.99 41.49 67.98 101.93 67.98C162.37 67.98 211.36 18.99 211.36 -41.45C211.36 -101.89 162.37 -150.88 101.93 -150.88ZM96.98 -146.52C97.95 -146.57 98.58 -146.06 98.62 -145.2L97.64 -145.15C97.63 -145.47 97.38 -145.65 97.01 -145.63C96.61 -145.61 96.36 -145.42 96.37 -145.12C96.38 -144.85 96.53 -144.72 96.85 -144.67L97.53 -144.56C98.34 -144.43 98.74 -144.07 98.78 -143.35C98.82 -142.48 98.17 -141.88 97.13 -141.83C96.12 -141.78 95.45 -142.29 95.41 -143.14L96.39 -143.19C96.41 -142.86 96.66 -142.69 97.1 -142.71C97.54 -142.73 97.82 -142.92 97.8 -143.21C97.79 -143.46 97.67 -143.58 97.36 -143.63L96.66 -143.74C95.85 -143.87 95.41 -144.3 95.38 -145.04C95.34 -145.86 96 -146.47 96.97 -146.51L96.98 -146.52ZM99.51 -146.52L100.5 -146.54L100.54 -143.79C100.54 -143.22 100.87 -142.92 101.42 -142.93C101.98 -142.93 102.29 -143.27 102.28 -143.82L102.24 -146.57L103.23 -146.59L103.28 -143.77C103.3 -142.7 102.58 -141.99 101.44 -141.97C100.31 -141.95 99.57 -142.63 99.56 -143.71L99.51 -146.53L99.51 -146.52ZM104.26 -142.03L104.44 -146.54L105.42 -146.5L107.2 -143.55L107.32 -146.42L108.3 -146.38L108.12 -141.87L107.14 -141.91L105.35 -144.85L105.23 -141.99L104.25 -142.03L104.26 -142.03ZM176.6 -115.45L177.33 -114.68L176.26 -112.49C176.13 -112.22 175.98 -111.97 175.77 -111.63C176.16 -111.84 176.4 -111.95 176.67 -112.07L178.91 -113.03L179.62 -112.28L175.2 -110.37L174.5 -111.11L176.61 -115.45L176.6 -115.45ZM176.74 -108.7L180.14 -111.67L182.03 -109.51L181.34 -108.91L180.1 -110.33L179.43 -109.75L180.53 -108.5L179.88 -107.93L178.78 -109.18L178.08 -108.57L179.32 -107.15L178.63 -106.55L176.74 -108.71L176.74 -108.7ZM179.21 -105.87L182.73 -108.7L183.34 -107.94L182.29 -104.66L184.53 -106.46L185.14 -105.7L181.62 -102.87L181.01 -103.63L182.06 -106.91L179.82 -105.12L179.21 -105.88L179.21 -105.87ZM185.86 -104.74L186.44 -103.94L184.22 -102.32C183.76 -101.99 183.69 -101.55 184.02 -101.1C184.35 -100.65 184.8 -100.58 185.25 -100.91L187.47 -102.53L188.05 -101.73L185.77 -100.07C184.9 -99.44 183.91 -99.62 183.24 -100.54C182.58 -101.45 182.71 -102.44 183.58 -103.08L185.86 -104.74ZM189.57 -99.64C190.11 -98.83 190 -98.03 189.29 -97.55L188.75 -98.37C189.01 -98.55 189.04 -98.85 188.84 -99.16C188.62 -99.5 188.32 -99.61 188.07 -99.44C187.84 -99.29 187.81 -99.1 187.93 -98.8L188.19 -98.16C188.5 -97.4 188.39 -96.86 187.8 -96.47C187.07 -95.99 186.22 -96.24 185.65 -97.11C185.09 -97.95 185.18 -98.79 185.89 -99.26L186.43 -98.44C186.16 -98.26 186.14 -97.95 186.38 -97.59C186.63 -97.22 186.93 -97.08 187.17 -97.24C187.38 -97.38 187.42 -97.55 187.31 -97.83L187.04 -98.48C186.73 -99.24 186.88 -99.84 187.5 -100.25C188.18 -100.7 189.05 -100.45 189.58 -99.64L189.57 -99.64ZM199.74 -2.85001L195.5 -4.42L195.83 -5.32001L199.46 -5.41001L196.77 -7.85001L197.11 -8.76L201.35 -7.19001L201.02 -6.29L200.13 -6.62C199.21 -6.95999 199.01 -7.03 198.72 -7.2L200.71 -5.44001L200.4 -4.59L197.75 -4.55001C198.08 -4.49001 198.44 -4.36 198.91 -4.19001L200.1 -3.75L199.77 -2.85001L199.74 -2.85001ZM201.72 -8.33001L197.41 -9.7L198.28 -12.43L199.15 -12.15L198.58 -10.36L199.42 -10.09L199.93 -11.68L200.76 -11.42L200.25 -9.83001L201.14 -9.55001L201.71 -11.34L202.58 -11.06L201.71 -8.33001L201.72 -8.33001ZM202.89 -12.1L198.53 -13.29L198.99 -14.97C199.28 -16.03 199.96 -16.49 200.86 -16.24C201.43 -16.09 201.76 -15.73 201.87 -15.18L203.81 -15.47L203.52 -14.43L201.82 -14.19L201.62 -13.45L203.14 -13.03L202.88 -12.08L202.89 -12.1ZM200.79 -13.7L200.99 -14.42C201.1 -14.84 200.96 -15.14 200.59 -15.24C200.23 -15.34 199.96 -15.17 199.85 -14.74L199.65 -14.01L200.8 -13.7L200.79 -13.7ZM201.8 -16.67C200.42 -16.98 199.72 -18.06 200.01 -19.38C200.26 -20.48 201.07 -21.13 202.09 -21.05L201.86 -20.03C201.39 -20 201.05 -19.68 200.94 -19.15C200.78 -18.44 201.19 -17.89 202.03 -17.7C202.86 -17.51 203.48 -17.84 203.64 -18.55C203.76 -19.09 203.58 -19.55 203.18 -19.77L203.41 -20.77C204.36 -20.39 204.82 -19.43 204.57 -18.32C204.27 -17 203.21 -16.37 201.82 -16.68L201.8 -16.67ZM200.67 -22.08L200.84 -23.05L203.55 -22.57C204.11 -22.47 204.47 -22.72 204.56 -23.27C204.66 -23.82 204.39 -24.19 203.85 -24.29L201.14 -24.77L201.31 -25.74L204.08 -25.25C205.14 -25.06 205.7 -24.22 205.5 -23.11C205.3 -22 204.5 -21.4 203.44 -21.59L200.67 -22.08ZM205.93 -26.12L201.45 -26.7L201.67 -28.43C201.81 -29.52 202.42 -30.07 203.35 -29.95C203.93 -29.87 204.31 -29.57 204.5 -29.04L206.38 -29.6L206.24 -28.53L204.58 -28.06L204.48 -27.3L206.05 -27.1L205.92 -26.12L205.93 -26.12ZM203.63 -27.42L203.73 -28.16C203.79 -28.59 203.6 -28.87 203.22 -28.92C202.84 -28.97 202.61 -28.76 202.55 -28.32L202.45 -27.57L203.63 -27.42ZM201.94 -30.42L202.04 -31.52L203.56 -32.14C203.71 -32.2 203.82 -32.24 203.94 -32.28C203.84 -32.34 203.72 -32.4 203.58 -32.49L202.19 -33.37L202.28 -34.44L204.93 -32.67L206.64 -32.52L206.55 -31.54L204.84 -31.69L201.92 -30.42L201.94 -30.42ZM138.55 57.12L136.89 52.93L137.78 52.58L140.27 55.21L140.27 51.58L141.18 51.22L142.84 55.41L141.95 55.76L141.6 54.88C141.24 53.97 141.16 53.77 141.08 53.44L141.1 56.09L140.26 56.42L138.47 54.48C138.64 54.77 138.79 55.12 138.97 55.58L139.44 56.75L138.55 57.1L138.55 57.12ZM145.77 54.18C144.58 54.72 143.37 54.23 142.79 52.98C142.21 51.73 142.64 50.48 143.82 49.93C145.01 49.38 146.23 49.87 146.81 51.13C147.39 52.39 146.96 53.63 145.77 54.18ZM144.23 50.79C143.56 51.1 143.38 51.75 143.74 52.53C144.1 53.32 144.72 53.61 145.38 53.3C146.04 53 146.22 52.33 145.86 51.55C145.5 50.77 144.89 50.48 144.23 50.78L144.23 50.79ZM150.4 51.91C149.24 52.51 148.01 52.08 147.37 50.86C146.73 49.64 147.09 48.37 148.25 47.77C149.41 47.17 150.65 47.59 151.29 48.82C151.93 50.05 151.56 51.31 150.4 51.92L150.4 51.91ZM148.7 48.61C148.05 48.95 147.9 49.61 148.3 50.37C148.7 51.14 149.33 51.4 149.98 51.06C150.62 50.73 150.77 50.05 150.37 49.29C149.97 48.53 149.34 48.27 148.7 48.6L148.7 48.61ZM153.18 50.35L150.91 46.45L151.75 45.96L154.84 47.48L153.39 45L154.23 44.51L156.5 48.41L155.66 48.9L152.57 47.38L154.01 49.86L153.17 50.35L153.18 50.35ZM49.68 44.41C50.51 44.92 50.75 45.69 50.3 46.42L49.46 45.91C49.63 45.64 49.52 45.35 49.21 45.15C48.87 44.94 48.55 44.96 48.4 45.22C48.26 45.45 48.31 45.64 48.54 45.87L49.05 46.34C49.65 46.9 49.78 47.43 49.41 48.04C48.95 48.79 48.08 48.91 47.19 48.37C46.33 47.84 46.06 47.04 46.5 46.32L47.34 46.83C47.17 47.11 47.28 47.4 47.66 47.62C48.04 47.85 48.37 47.85 48.52 47.6C48.65 47.39 48.62 47.22 48.39 47.01L47.87 46.53C47.27 45.97 47.15 45.36 47.54 44.73C47.97 44.03 48.86 43.9 49.69 44.4L49.68 44.41ZM49.13 49.47L52.73 46.31L53.57 46.78L52.78 51.5L51.86 50.99L52.05 50L50.78 49.29L50.04 49.96L49.14 49.46L49.13 49.47ZM51.43 48.71L52.21 49.14L52.4 48.14C52.43 47.98 52.47 47.8 52.51 47.7C52.44 47.78 52.32 47.91 52.19 48.02L51.44 48.71L51.43 48.71ZM54.86 47.48L58.03 49.09L57.62 49.91L56.48 49.33L54.85 52.54L53.97 52.09L55.6 48.88L54.46 48.3L54.87 47.48L54.86 47.48ZM58.6 49.36L59.5 49.77L58.36 52.28C58.12 52.8 58.28 53.21 58.79 53.44C59.3 53.67 59.72 53.51 59.95 53L61.09 50.49L61.99 50.9L60.82 53.47C60.38 54.45 59.42 54.78 58.39 54.31C57.36 53.84 56.99 52.91 57.43 51.93L58.6 49.36ZM61.21 55.48L62.9 51.29L64.52 51.94C65.54 52.35 65.92 53.07 65.57 53.94C65.35 54.48 64.96 54.77 64.41 54.83L64.48 56.79L63.48 56.39L63.44 54.67L62.73 54.39L62.14 55.86L61.22 55.49L61.21 55.48ZM63.04 53.58L63.74 53.86C64.14 54.02 64.46 53.91 64.6 53.55C64.74 53.2 64.6 52.92 64.19 52.75L63.49 52.47L63.05 53.57L63.04 53.58ZM65.36 57.13L66.85 52.87L67.77 53.19L68.62 56.53L69.57 53.82L70.49 54.14L69 58.4L68.08 58.08L67.23 54.74L66.28 57.45L65.36 57.13ZM-1.14 -31.95L-1.04 -31L-1.36 -30.97C-1.6 -30.94 -1.8 -30.79 -1.76 -30.41C-1.72 -30.05 -1.52 -29.93 -1.22 -29.96L1.95 -30.3L2.05 -29.32L-1.18 -28.98C-1.95 -28.9 -2.58 -29.41 -2.68 -30.31C-2.79 -31.3 -2.25 -31.84 -1.47 -31.92L-1.15 -31.95L-1.14 -31.95ZM2.17 -28.36L2.32 -27.38L-0.399997 -26.98C-0.959997 -26.9 -1.22 -26.54 -1.14 -25.99C-1.06 -25.43 -0.689996 -25.17 -0.139997 -25.25L2.58 -25.65L2.73 -24.67L-0.0599971 -24.26C-1.12 -24.1 -1.92 -24.72 -2.08 -25.85C-2.25 -26.97 -1.67 -27.79 -0.599998 -27.94L2.19 -28.35L2.17 -28.36ZM0.120001 -22.17L-1.35 -21.88L-1.54 -22.85L2.9 -23.71L3.25 -21.91C3.43 -21 2.95 -20.28 2.06 -20.11C1.17 -19.94 0.460001 -20.43 0.290001 -21.33L0.130002 -22.16L0.120001 -22.17ZM2.22 -22.58L0.980002 -22.34L1.1 -21.73C1.19 -21.26 1.44 -21.07 1.85 -21.15C2.26 -21.23 2.42 -21.5 2.33 -21.97L2.21 -22.58L2.22 -22.58ZM-0.489997 -17.75L-0.709999 -18.72L3.7 -19.71L3.92 -18.74L-0.489997 -17.75ZM4.06 -18.05L4.95 -14.61L4.06 -14.38L3.74 -15.62L0.250003 -14.72L2.48603e-06 -15.68L3.49 -16.58L3.17 -17.82L4.06 -18.05ZM0.810002 -12.67L5.14001 -13.96L5.96001 -11.21L5.08 -10.95L4.54 -12.75L3.69 -12.5L4.17 -10.9L3.34 -10.65L2.86 -12.25L1.97 -11.98L2.51 -10.18L1.63 -9.92L0.810002 -12.67ZM1.96 -8.89999L6.24 -10.36L6.81 -8.71001C7.17 -7.67001 6.87001 -6.91 5.98001 -6.61C5.43001 -6.42 4.95001 -6.52 4.55001 -6.91L3.11 -5.58L2.76 -6.60001L4.04 -7.75L3.79 -8.47L2.29 -7.96001L1.97 -8.89999L1.96 -8.89999ZM4.59 -8.76L4.83 -8.05C4.97 -7.64 5.26 -7.47 5.62001 -7.60001C5.98001 -7.72 6.1 -8.01999 5.96001 -8.42999L5.71001 -9.14999L4.58 -8.76L4.59 -8.76ZM17.67 -96.46L13.95 -99.02L14.49 -99.81L18.03 -99.01L16.02 -102.03L16.57 -102.83L20.29 -100.27L19.75 -99.48L18.97 -100.02C18.16 -100.57 17.99 -100.69 17.74 -100.93L19.23 -98.74L18.72 -98L16.14 -98.62C16.45 -98.48 16.76 -98.27 17.17 -97.99L18.21 -97.27L17.67 -96.48L17.67 -96.46ZM20.64 -100.74L18.03 -104.76L18.61 -105.53L23.17 -104.07L22.53 -103.24L21.58 -103.56L20.7 -102.4L21.26 -101.57L20.64 -100.75L20.64 -100.74ZM20.22 -103.12L20.76 -103.83L19.8 -104.16C19.65 -104.21 19.48 -104.28 19.38 -104.33C19.45 -104.25 19.56 -104.11 19.66 -103.97L20.23 -103.13L20.22 -103.12ZM23.56 -104.53L20.09 -107.42L21.21 -108.76C21.91 -109.6 22.72 -109.74 23.44 -109.15C23.89 -108.77 24.05 -108.32 23.93 -107.77L25.82 -107.23L25.13 -106.4L23.48 -106.89L22.99 -106.3L24.21 -105.29L23.58 -104.53L23.56 -104.53ZM22.31 -106.86L22.79 -107.44C23.07 -107.77 23.06 -108.11 22.76 -108.35C22.47 -108.59 22.16 -108.54 21.88 -108.2L21.4 -107.62L22.32 -106.86L22.31 -106.86ZM23.84 -111.93C24.49 -112.65 25.3 -112.74 25.93 -112.17L25.27 -111.44C25.03 -111.65 24.73 -111.61 24.48 -111.33C24.21 -111.03 24.17 -110.72 24.4 -110.52C24.6 -110.34 24.8 -110.35 25.06 -110.54L25.62 -110.95C26.28 -111.44 26.83 -111.47 27.36 -110.99C28.01 -110.41 27.97 -109.52 27.28 -108.75C26.61 -108 25.76 -107.88 25.13 -108.45L25.79 -109.18C26.04 -108.96 26.33 -109.02 26.63 -109.34C26.93 -109.67 26.98 -110 26.77 -110.19C26.58 -110.36 26.41 -110.36 26.17 -110.18L25.6 -109.76C24.94 -109.27 24.32 -109.27 23.77 -109.76C23.16 -110.31 23.19 -111.21 23.84 -111.93ZM101.93 -178.37C106.64 -178.37 110.46 -174.54 110.46 -169.84C110.46 -165.14 106.63 -161.31 101.93 -161.31C97.23 -161.31 93.4 -165.14 93.4 -169.84C93.4 -174.54 97.23 -178.37 101.93 -178.37ZM101.93 -180C96.32 -180 91.77 -175.45 91.77 -169.84C91.77 -164.23 96.32 -159.68 101.93 -159.68C107.54 -159.68 112.09 -164.23 112.09 -169.84C112.09 -175.45 107.54 -180 101.93 -180ZM101.93 -171.36C101.09 -171.36 100.41 -170.68 100.41 -169.84C100.41 -169 101.09 -168.32 101.93 -168.32C102.77 -168.32 103.45 -169 103.45 -169.84C103.45 -170.68 102.77 -171.36 101.93 -171.36ZM200.79 -131.27C203.19 -131.27 205.15 -129.32 205.15 -126.91C205.15 -124.5 203.2 -122.55 200.79 -122.55C198.38 -122.55 196.43 -124.5 196.43 -126.91C196.43 -129.32 198.38 -131.27 200.79 -131.27ZM200.79 -132.9C197.48 -132.9 194.8 -130.22 194.8 -126.91C194.8 -123.6 197.48 -120.92 200.79 -120.92C204.1 -120.92 206.78 -123.6 206.78 -126.91C206.78 -130.22 204.1 -132.9 200.79 -132.9ZM201.6 -120.92L199.97 -120.92L199.97 -110.63L201.6 -110.63L201.6 -120.92ZM206.34 -117.08L195.26 -117.08L195.26 -115.45L206.34 -115.45L206.34 -117.08ZM225.59 -20.72C227.99 -20.72 229.95 -18.77 229.95 -16.36C229.95 -13.95 228 -12 225.59 -12C223.18 -12 221.23 -13.95 221.23 -16.36C221.23 -18.77 223.18 -20.72 225.59 -20.72ZM225.59 -22.35C222.28 -22.35 219.6 -19.67 219.6 -16.36C219.6 -13.05 222.28 -10.37 225.59 -10.37C228.9 -10.37 231.58 -13.05 231.58 -16.36C231.58 -19.67 228.9 -22.35 225.59 -22.35ZM226.41 -10.38L224.78 -10.38L224.78 -0.0900002L226.41 -0.0900002L226.41 -10.38ZM231.15 -6.54L220.07 -6.54L220.07 -4.91001L231.15 -4.91001L231.15 -6.54ZM231.37 -26.93L229.74 -26.93C229.74 -24.64 227.88 -22.78 225.59 -22.78C223.3 -22.78 221.44 -24.64 221.44 -26.93L219.81 -26.93C219.81 -23.75 222.4 -21.15 225.59 -21.15C228.78 -21.15 231.37 -23.74 231.37 -26.93ZM1.4 -124.46C3.8 -124.46 5.75 -122.51 5.75 -120.11C5.75 -117.71 3.8 -115.76 1.4 -115.76C-0.999999 -115.76 -2.95 -117.71 -2.95 -120.11C-2.95 -122.51 -0.999999 -124.46 1.4 -124.46ZM1.4 -126.09C-1.9 -126.09 -4.58 -123.41 -4.58 -120.11C-4.58 -116.81 -1.9 -114.13 1.4 -114.13C4.7 -114.13 7.38 -116.81 7.38 -120.11C7.38 -123.41 4.7 -126.09 1.4 -126.09ZM11.33 -128.82L10.2 -130L4.34 -124.38L5.47 -123.2L11.33 -128.82ZM11.58 -130.22L5.87 -130.22L5.87 -128.59L9.95 -128.59L9.95 -124.39L11.58 -124.39L11.58 -130.22ZM-18.35 -7.10001L-13.79 -7.10001L-13.79 -8.73L-18.35 -8.73L-18.35 -13.51L-19.98 -13.51L-19.98 -8.73L-25.1 -8.73C-22.31 -13.09 -21.02 -15.29 -21.02 -18.6C-21.02 -20.16 -21.45 -21.47 -22.26 -22.38C-23 -23.2 -24.02 -23.66 -25.12 -23.66C-27.03 -23.66 -29 -22.19 -29 -19.73L-27.37 -19.73C-27.37 -21.22 -26.21 -22.03 -25.11 -22.03C-24.47 -22.03 -23.89 -21.77 -23.46 -21.29C-22.92 -20.69 -22.63 -19.76 -22.63 -18.6C-22.63 -15.55 -23.91 -13.55 -27.02 -8.72L-28.06 -7.10001L-19.96 -7.10001L-19.96 -2.32001L-18.33 -2.32001L-18.33 -7.10001L-18.35 -7.10001ZM52.57 79.33C53 78.64 53.45 77.93 53.75 77.04C55.04 73.26 53.73 71.32 52.83 70.49C51.52 69.29 49.47 68.99 47.74 69.75C47.32 69.93 46.94 70.17 46.61 70.45L46.61 67.73L50.07 67.73L50.07 66.1L46.61 66.1L46.61 63.08L44.98 63.08L44.98 66.1L41.52 66.1L41.52 67.73L44.98 67.73L44.98 74.11L46.61 74.11C46.61 72.79 47.26 71.74 48.39 71.24C49.54 70.73 50.88 70.92 51.72 71.69C52.76 72.65 52.93 74.36 52.2 76.51C51.96 77.22 51.58 77.82 51.18 78.46C50.27 79.9 49.25 81.54 49.25 84.95L50.88 84.95C50.88 82.01 51.74 80.64 52.56 79.32L52.57 79.33ZM165.1 84.93C165.1 84.93 165.07 84.93 165.05 84.93C152.71 84.8 151.38 77.15 151.38 73.87C151.38 70.59 152.36 68.13 154.29 66.29C157.62 63.13 162.74 63.03 164.78 63.13L164.74 64.76C161.98 64.76 158.89 68.73 158.89 74.03C158.89 76.13 159.75 78.47 161.24 80.46C162.7 82.4 164.21 83.28 165.07 83.3C165.08 83.3 165.09 83.3 165.11 83.3L165.11 84.93L165.1 84.93ZM160.64 65.03C158.86 65.37 156.89 66.06 155.41 67.47C153.81 68.99 153 71.14 153 73.87C153 79.94 157.24 82.18 161.27 82.95C159.1 80.84 157.26 77.37 157.26 74.04C157.26 70.4 158.63 67.04 160.64 65.04L160.64 65.03Z" fill="#9EB5FF"/>
</g>
<defs>
<clipPath id="clip0_4122_6558">
<rect width="283" height="215" fill="white"/>
</clipPath>
</defs>
</svg>
