<svg width="238" height="356" viewBox="0 0 238 356" fill="none" xmlns="http://www.w3.org/2000/svg">
<g clip-path="url(#clip0_4121_3236)">
<path d="M271.647 83.4241L399.876 45.3752L399.022 42.4987L277.119 78.6706L290.454 49.5044L287.726 48.2576L271.647 83.4241Z" fill="#27376E"/>
<path d="M287.778 49.7847L290.421 48.3654L275.244 20.1085L399.208 48.3938L399.877 45.4692L269.479 15.7171L287.778 49.7847Z" fill="#27376E"/>
<path d="M288.463 45.4563L273.979 16.8419L271.303 18.1965L288.766 52.6995L338.966 -71.2767L336.185 -72.4025L288.463 45.4563Z" fill="#27376E"/>
<path d="M234.471 12.1756L272.526 19.1095L273.064 16.1576L241.501 10.4065L340.914 -68.8779L339.043 -71.2238L234.471 12.1756Z" fill="#27376E"/>
<path d="M207.177 -94.9169L269.575 15.8722L238.158 9.36091L237.549 12.2983L275.427 20.1491L209.791 -96.3883L207.177 -94.9169Z" fill="#27376E"/>
<path d="M209.887 37.3368L239.033 11.9097L237.061 9.64887L212.888 30.737L212.886 -96.414L209.885 -96.4141L209.887 37.3368Z" fill="#27376E"/>
<path d="M109.136 -8.09706L234.664 12.1997L209.988 32.6999L211.905 35.0076L241.655 10.2912L109.615 -11.0578L109.136 -8.09706Z" fill="#27376E"/>
<path d="M109.656 -11.1424L214.23 72.2492L212.522 33.6116L209.526 33.7446L210.943 65.789L111.526 -13.4888L109.656 -11.1424Z" fill="#27376E"/>
<path d="M113.87 120.47L115.886 122.691L210.028 37.2112L210.672 69.2817L213.671 69.2216L212.895 30.5567L113.87 120.47Z" fill="#27376E"/>
<path d="M211.19 70.2843L237.134 89.1619L113.164 117.463L113.832 120.387L244.234 90.6193L212.955 67.8583L211.19 70.2843Z" fill="#27376E"/>
<path d="M219.364 199.143L222.358 198.951L214.212 72.0604L239.69 91.5582L241.514 89.1754L210.795 65.6686L219.364 199.143Z" fill="#27376E"/>
<path d="M240.008 88.8792L240.803 91.772L271.738 83.2604L216.569 197.824L219.272 199.126L277.303 78.6176L240.008 88.8792Z" fill="#27376E"/>
<path d="M346.642 165.732L348.359 163.271L244.074 90.5107L275.195 82.7568L274.47 79.8465L236.945 89.196L346.642 165.732Z" fill="#27376E"/>
<path d="M273.309 80.832L276.067 82.0123L288.691 52.5261L343.877 167.093L346.58 165.791L288.53 45.2799L273.309 80.832Z" fill="#27376E"/>
<path d="M210.566 -93.5108C172.156 -83.4314 139.973 -59.0024 119.94 -24.7146C99.9068 9.57321 94.4285 49.6048 104.508 88.0143C114.587 126.424 139.016 158.607 173.304 178.64C207.592 198.673 247.624 204.151 286.033 194.072C324.443 183.992 356.626 159.563 376.659 125.276C396.692 90.9878 402.18 50.9537 392.103 12.5539C382.026 -25.8459 357.594 -58.0389 323.307 -78.0718C289.019 -98.1048 248.975 -103.59 210.566 -93.5108ZM209.804 -96.4126C290.821 -117.673 373.744 -69.2244 395.005 11.7924C416.265 92.8093 367.824 175.72 286.807 196.981C205.79 218.241 122.879 169.8 101.618 88.7829C80.3579 7.76604 128.787 -75.1521 209.804 -96.4126Z" fill="#27376E"/>
<path d="M207.362 -105.718C165.693 -94.7827 130.779 -68.2723 109.038 -31.0758C87.2975 6.1207 81.3593 49.5606 92.2941 91.2298C103.229 132.899 129.739 167.813 166.936 189.554C204.13 211.285 247.572 217.233 289.241 206.298C330.911 195.363 365.825 168.853 387.566 131.656C409.294 94.4525 415.244 51.0197 404.31 9.35061C393.375 -32.3185 366.862 -67.2426 329.668 -88.9735C292.474 -110.704 249.041 -116.655 207.362 -105.718ZM206.601 -108.619C294.369 -131.651 384.179 -79.1791 407.211 8.58913C430.243 96.3574 377.771 186.168 290.003 209.2C202.235 232.232 112.424 179.759 89.3923 91.9912C66.3602 4.22299 118.842 -85.5897 206.601 -108.619Z" fill="#27376E"/>
<path d="M235.546 -19.64L169.936 -17.53L182.496 46.91L179.706 41.12L168.286 -17.47L151.736 -16.94L141.006 -4.33L179.706 41.12L182.496 46.91L139.936 -3.07001L97.3961 46.93L100.186 41.14L138.876 -4.32001L128.146 -16.93L111.596 -17.46L100.196 41.14L97.4061 46.93L109.946 -17.51L44.3361 -19.6L50.5961 -21.03L110.266 -19.13L113.426 -35.38L103.516 -48.65L50.5961 -21.03L44.3361 -19.6L102.536 -49.97L63.2561 -102.57L68.2761 -98.57L103.996 -50.74L118.676 -58.4L122.876 -74.42L68.2861 -98.58L63.2661 -102.58L123.296 -76.01L139.936 -139.51L139.936 -133.09L124.806 -75.34L139.946 -68.64L155.086 -75.35L139.936 -133.09L139.936 -139.51L156.596 -76.01L216.616 -102.6L211.596 -98.59L157.016 -74.41L161.216 -58.4L175.896 -50.74L211.596 -98.59L216.616 -102.6L177.356 -49.98L235.566 -19.63L229.306 -21.06L176.376 -48.66L166.476 -35.39L169.646 -19.14L229.316 -21.06L235.576 -19.63L235.546 -19.64ZM157.896 -27.13L164.646 -35.81L162.336 -46.53L159.746 -57.26L149.876 -62.16L139.916 -66.8L129.946 -62.15L120.086 -57.25L117.506 -46.55L115.186 -35.8L121.946 -27.11L128.906 -18.59L139.896 -18.46L150.916 -18.6L157.886 -27.13L157.896 -27.13ZM174.886 -49.44L161.926 -56.2L163.926 -46.92L166.146 -37.72L174.886 -49.44ZM155.476 -73.76L142.106 -67.84L150.576 -63.63L159.176 -59.62L155.466 -73.76L155.476 -73.76ZM124.366 -73.76L120.656 -59.62L129.246 -63.63L137.736 -67.85L124.366 -73.77L124.366 -73.76ZM104.966 -49.42L113.716 -37.7L115.936 -46.91L117.936 -56.18L104.976 -49.42L104.966 -49.42ZM111.896 -19.09L126.506 -18.62L120.686 -26.09L114.676 -33.43L111.886 -19.08L111.896 -19.09ZM139.936 -5.59L149.416 -16.72L139.926 -16.83L130.466 -16.71L139.946 -5.58L139.936 -5.59ZM167.966 -19.1L165.166 -33.45L159.176 -26.12L153.356 -18.63L167.966 -19.1ZM139.926 -138.66C165.896 -138.66 190.306 -128.55 208.666 -110.19C227.026 -91.83 237.136 -67.42 237.136 -41.45C237.136 -15.48 227.026 8.92999 208.666 27.29C190.306 45.65 165.896 55.76 139.926 55.76C113.956 55.76 89.5461 45.65 71.1861 27.29C52.8261 8.92999 42.7161 -15.48 42.7161 -41.45C42.7161 -67.42 52.8261 -91.83 71.1861 -110.19C89.5461 -128.55 113.956 -138.66 139.926 -138.66ZM139.926 -140.29C85.3361 -140.29 41.0861 -96.04 41.0861 -41.45C41.0861 13.14 85.3361 57.39 139.926 57.39C194.516 57.39 238.766 13.14 238.766 -41.45C238.766 -96.04 194.516 -140.29 139.926 -140.29ZM139.926 -149.25C168.716 -149.25 195.786 -138.04 216.146 -117.68C236.506 -97.32 247.716 -70.25 247.716 -41.46C247.716 -12.67 236.506 14.4 216.146 34.76C195.786 55.12 168.716 66.33 139.926 66.33C111.136 66.33 84.0661 55.12 63.7061 34.76C43.3461 14.4 32.1361 -12.67 32.1361 -41.46C32.1361 -70.25 43.3461 -97.32 63.7061 -117.68C84.0661 -138.04 111.136 -149.25 139.926 -149.25ZM139.926 -150.88C79.4961 -150.88 30.4961 -101.89 30.4961 -41.45C30.4961 18.99 79.4861 67.98 139.926 67.98C200.366 67.98 249.356 18.99 249.356 -41.45C249.356 -101.89 200.366 -150.88 139.926 -150.88ZM134.976 -146.52C135.946 -146.57 136.576 -146.06 136.616 -145.2L135.636 -145.15C135.626 -145.47 135.376 -145.65 135.006 -145.63C134.606 -145.61 134.356 -145.42 134.366 -145.12C134.376 -144.85 134.526 -144.72 134.846 -144.67L135.526 -144.56C136.336 -144.43 136.736 -144.07 136.776 -143.35C136.816 -142.48 136.166 -141.88 135.126 -141.83C134.116 -141.78 133.446 -142.29 133.406 -143.14L134.386 -143.19C134.406 -142.86 134.656 -142.69 135.096 -142.71C135.536 -142.73 135.816 -142.92 135.796 -143.21C135.786 -143.46 135.666 -143.58 135.356 -143.63L134.656 -143.74C133.846 -143.87 133.406 -144.3 133.376 -145.04C133.336 -145.86 133.996 -146.47 134.966 -146.51L134.976 -146.52ZM137.506 -146.52L138.496 -146.54L138.536 -143.79C138.536 -143.22 138.866 -142.92 139.416 -142.93C139.976 -142.93 140.286 -143.27 140.276 -143.82L140.236 -146.57L141.226 -146.59L141.276 -143.77C141.296 -142.7 140.576 -141.99 139.436 -141.97C138.306 -141.95 137.566 -142.63 137.556 -143.71L137.506 -146.53L137.506 -146.52ZM142.256 -142.03L142.436 -146.54L143.416 -146.5L145.196 -143.55L145.316 -146.42L146.296 -146.38L146.116 -141.87L145.136 -141.91L143.346 -144.85L143.226 -141.99L142.246 -142.03L142.256 -142.03ZM214.596 -115.45L215.326 -114.68L214.256 -112.49C214.126 -112.22 213.976 -111.97 213.766 -111.63C214.156 -111.84 214.396 -111.95 214.666 -112.07L216.906 -113.03L217.616 -112.28L213.196 -110.37L212.496 -111.11L214.606 -115.45L214.596 -115.45ZM214.736 -108.7L218.136 -111.67L220.026 -109.51L219.336 -108.91L218.096 -110.33L217.426 -109.75L218.526 -108.5L217.876 -107.93L216.776 -109.18L216.076 -108.57L217.316 -107.15L216.626 -106.55L214.736 -108.71L214.736 -108.7ZM217.206 -105.87L220.726 -108.7L221.336 -107.94L220.286 -104.66L222.526 -106.46L223.136 -105.7L219.616 -102.87L219.006 -103.63L220.056 -106.91L217.816 -105.12L217.206 -105.88L217.206 -105.87ZM223.856 -104.74L224.436 -103.94L222.216 -102.32C221.756 -101.99 221.686 -101.55 222.016 -101.1C222.346 -100.65 222.796 -100.58 223.246 -100.91L225.466 -102.53L226.046 -101.73L223.766 -100.07C222.896 -99.44 221.906 -99.62 221.236 -100.54C220.576 -101.45 220.706 -102.44 221.576 -103.08L223.856 -104.74ZM227.566 -99.64C228.106 -98.83 227.996 -98.03 227.286 -97.55L226.746 -98.37C227.006 -98.55 227.036 -98.85 226.836 -99.16C226.616 -99.5 226.316 -99.61 226.066 -99.44C225.836 -99.29 225.806 -99.1 225.926 -98.8L226.186 -98.16C226.496 -97.4 226.386 -96.86 225.796 -96.47C225.066 -95.99 224.216 -96.24 223.646 -97.11C223.086 -97.95 223.176 -98.79 223.886 -99.26L224.426 -98.44C224.156 -98.26 224.136 -97.95 224.376 -97.59C224.626 -97.22 224.926 -97.08 225.166 -97.24C225.376 -97.38 225.416 -97.55 225.306 -97.83L225.036 -98.48C224.726 -99.24 224.876 -99.84 225.496 -100.25C226.176 -100.7 227.046 -100.45 227.576 -99.64L227.566 -99.64ZM237.736 -2.85001L233.496 -4.42L233.826 -5.32001L237.456 -5.41001L234.766 -7.85001L235.106 -8.76L239.346 -7.19001L239.016 -6.29L238.126 -6.62C237.206 -6.95999 237.006 -7.03 236.716 -7.2L238.706 -5.44001L238.396 -4.59L235.746 -4.55001C236.076 -4.49001 236.436 -4.36 236.906 -4.19001L238.096 -3.75L237.766 -2.85001L237.736 -2.85001ZM239.716 -8.33001L235.406 -9.7L236.276 -12.43L237.146 -12.15L236.576 -10.36L237.416 -10.09L237.926 -11.68L238.756 -11.42L238.246 -9.83001L239.136 -9.55001L239.706 -11.34L240.576 -11.06L239.706 -8.33001L239.716 -8.33001ZM240.886 -12.1L236.526 -13.29L236.986 -14.97C237.276 -16.03 237.956 -16.49 238.856 -16.24C239.426 -16.09 239.756 -15.73 239.866 -15.18L241.806 -15.47L241.516 -14.43L239.816 -14.19L239.616 -13.45L241.136 -13.03L240.876 -12.08L240.886 -12.1ZM238.786 -13.7L238.986 -14.42C239.096 -14.84 238.956 -15.14 238.586 -15.24C238.226 -15.34 237.956 -15.17 237.846 -14.74L237.646 -14.01L238.796 -13.7L238.786 -13.7ZM239.796 -16.67C238.416 -16.98 237.716 -18.06 238.006 -19.38C238.256 -20.48 239.066 -21.13 240.086 -21.05L239.856 -20.03C239.386 -20 239.046 -19.68 238.936 -19.15C238.776 -18.44 239.186 -17.89 240.026 -17.7C240.856 -17.51 241.476 -17.84 241.636 -18.55C241.756 -19.09 241.576 -19.55 241.176 -19.77L241.406 -20.77C242.356 -20.39 242.816 -19.43 242.566 -18.32C242.266 -17 241.206 -16.37 239.816 -16.68L239.796 -16.67ZM238.666 -22.08L238.836 -23.05L241.546 -22.57C242.106 -22.47 242.466 -22.72 242.556 -23.27C242.656 -23.82 242.386 -24.19 241.846 -24.29L239.136 -24.77L239.306 -25.74L242.076 -25.25C243.136 -25.06 243.696 -24.22 243.496 -23.11C243.296 -22 242.496 -21.4 241.436 -21.59L238.666 -22.08ZM243.926 -26.12L239.446 -26.7L239.666 -28.43C239.806 -29.52 240.416 -30.07 241.346 -29.95C241.926 -29.87 242.306 -29.57 242.496 -29.04L244.376 -29.6L244.236 -28.53L242.576 -28.06L242.476 -27.3L244.046 -27.1L243.916 -26.12L243.926 -26.12ZM241.626 -27.42L241.726 -28.16C241.786 -28.59 241.596 -28.87 241.216 -28.92C240.836 -28.97 240.606 -28.76 240.546 -28.32L240.446 -27.57L241.626 -27.42ZM239.936 -30.42L240.036 -31.52L241.556 -32.14C241.706 -32.2 241.816 -32.24 241.936 -32.28C241.836 -32.34 241.716 -32.4 241.576 -32.49L240.186 -33.37L240.276 -34.44L242.926 -32.67L244.636 -32.52L244.546 -31.54L242.836 -31.69L239.916 -30.42L239.936 -30.42ZM176.546 57.12L174.886 52.93L175.776 52.58L178.266 55.21L178.266 51.58L179.176 51.22L180.836 55.41L179.946 55.76L179.596 54.88C179.236 53.97 179.156 53.77 179.076 53.44L179.096 56.09L178.256 56.42L176.466 54.48C176.636 54.77 176.786 55.12 176.966 55.58L177.436 56.75L176.546 57.1L176.546 57.12ZM183.766 54.18C182.576 54.72 181.366 54.23 180.786 52.98C180.206 51.73 180.636 50.48 181.816 49.93C183.006 49.38 184.226 49.87 184.806 51.13C185.386 52.39 184.956 53.63 183.766 54.18ZM182.226 50.79C181.556 51.1 181.376 51.75 181.736 52.53C182.096 53.32 182.716 53.61 183.376 53.3C184.036 53 184.216 52.33 183.856 51.55C183.496 50.77 182.886 50.48 182.226 50.78L182.226 50.79ZM188.396 51.91C187.236 52.51 186.006 52.08 185.366 50.86C184.726 49.64 185.086 48.37 186.246 47.77C187.406 47.17 188.646 47.59 189.286 48.82C189.926 50.05 189.556 51.31 188.396 51.92L188.396 51.91ZM186.696 48.61C186.046 48.95 185.896 49.61 186.296 50.37C186.696 51.14 187.326 51.4 187.976 51.06C188.616 50.73 188.766 50.05 188.366 49.29C187.966 48.53 187.336 48.27 186.696 48.6L186.696 48.61ZM191.176 50.35L188.906 46.45L189.746 45.96L192.836 47.48L191.386 45L192.226 44.51L194.496 48.41L193.656 48.9L190.566 47.38L192.006 49.86L191.166 50.35L191.176 50.35ZM87.6761 44.41C88.5061 44.92 88.7461 45.69 88.2961 46.42L87.4561 45.91C87.6261 45.64 87.5161 45.35 87.2061 45.15C86.8661 44.94 86.5461 44.96 86.3961 45.22C86.2561 45.45 86.3061 45.64 86.5361 45.87L87.0461 46.34C87.6461 46.9 87.7761 47.43 87.4061 48.04C86.9461 48.79 86.0761 48.91 85.1861 48.37C84.3261 47.84 84.0561 47.04 84.4961 46.32L85.3361 46.83C85.1661 47.11 85.2761 47.4 85.6561 47.62C86.0361 47.85 86.3661 47.85 86.5161 47.6C86.6461 47.39 86.6161 47.22 86.3861 47.01L85.8661 46.53C85.2661 45.97 85.1461 45.36 85.5361 44.73C85.9661 44.03 86.8561 43.9 87.6861 44.4L87.6761 44.41ZM87.1261 49.47L90.7261 46.31L91.5661 46.78L90.7761 51.5L89.8561 50.99L90.0461 50L88.7761 49.29L88.0361 49.96L87.1361 49.46L87.1261 49.47ZM89.4261 48.71L90.2061 49.14L90.3961 48.14C90.4261 47.98 90.4661 47.8 90.5061 47.7C90.4361 47.78 90.3161 47.91 90.1861 48.02L89.4361 48.71L89.4261 48.71ZM92.8561 47.48L96.0261 49.09L95.6161 49.91L94.4761 49.33L92.8461 52.54L91.9661 52.09L93.5961 48.88L92.4561 48.3L92.8661 47.48L92.8561 47.48ZM96.5961 49.36L97.4961 49.77L96.3561 52.28C96.1161 52.8 96.2761 53.21 96.7861 53.44C97.2961 53.67 97.7161 53.51 97.9461 53L99.0861 50.49L99.9861 50.9L98.8161 53.47C98.3761 54.45 97.4161 54.78 96.3861 54.31C95.3561 53.84 94.9861 52.91 95.4261 51.93L96.5961 49.36ZM99.2061 55.48L100.896 51.29L102.516 51.94C103.536 52.35 103.916 53.07 103.566 53.94C103.346 54.48 102.956 54.77 102.406 54.83L102.476 56.79L101.476 56.39L101.436 54.67L100.726 54.39L100.136 55.86L99.2161 55.49L99.2061 55.48ZM101.036 53.58L101.736 53.86C102.136 54.02 102.456 53.91 102.596 53.55C102.736 53.2 102.596 52.92 102.186 52.75L101.486 52.47L101.046 53.57L101.036 53.58ZM103.356 57.13L104.846 52.87L105.766 53.19L106.616 56.53L107.566 53.82L108.486 54.14L106.996 58.4L106.076 58.08L105.226 54.74L104.276 57.45L103.356 57.13ZM36.8561 -31.95L36.9561 -31L36.6361 -30.97C36.3961 -30.94 36.1961 -30.79 36.2361 -30.41C36.2761 -30.05 36.4761 -29.93 36.7761 -29.96L39.9461 -30.3L40.0461 -29.32L36.8161 -28.98C36.0461 -28.9 35.4161 -29.41 35.3161 -30.31C35.2061 -31.3 35.7461 -31.84 36.5261 -31.92L36.8461 -31.95L36.8561 -31.95ZM40.1661 -28.36L40.3161 -27.38L37.5961 -26.98C37.0361 -26.9 36.7761 -26.54 36.8561 -25.99C36.9361 -25.43 37.3061 -25.17 37.8561 -25.25L40.5761 -25.65L40.7261 -24.67L37.9361 -24.26C36.8761 -24.1 36.0761 -24.72 35.9161 -25.85C35.7461 -26.97 36.3261 -27.79 37.3961 -27.94L40.1861 -28.35L40.1661 -28.36ZM38.1161 -22.17L36.6461 -21.88L36.4561 -22.85L40.8961 -23.71L41.2461 -21.91C41.4261 -21 40.9461 -20.28 40.0561 -20.11C39.1661 -19.94 38.4561 -20.43 38.2861 -21.33L38.1261 -22.16L38.1161 -22.17ZM40.2161 -22.58L38.9761 -22.34L39.0961 -21.73C39.1861 -21.26 39.4361 -21.07 39.8461 -21.15C40.2561 -21.23 40.4161 -21.5 40.3261 -21.97L40.2061 -22.58L40.2161 -22.58ZM37.5061 -17.75L37.2861 -18.72L41.6961 -19.71L41.9161 -18.74L37.5061 -17.75ZM42.0561 -18.05L42.9461 -14.61L42.0561 -14.38L41.7361 -15.62L38.2461 -14.72L37.9961 -15.68L41.4861 -16.58L41.1661 -17.82L42.0561 -18.05ZM38.8061 -12.67L43.1361 -13.96L43.9561 -11.21L43.0761 -10.95L42.5361 -12.75L41.6861 -12.5L42.1661 -10.9L41.3361 -10.65L40.8561 -12.25L39.9661 -11.98L40.5061 -10.18L39.6261 -9.92L38.8061 -12.67ZM39.9561 -8.89999L44.2361 -10.36L44.8061 -8.71001C45.1661 -7.67001 44.8661 -6.91 43.9761 -6.61C43.4261 -6.42 42.9461 -6.52 42.5461 -6.91L41.1061 -5.58L40.7561 -6.60001L42.0361 -7.75L41.7861 -8.47L40.2861 -7.96001L39.9661 -8.89999L39.9561 -8.89999ZM42.5861 -8.76L42.8261 -8.05C42.9661 -7.64 43.2561 -7.47 43.6161 -7.60001C43.9761 -7.72 44.0961 -8.01999 43.9561 -8.42999L43.7061 -9.14999L42.5761 -8.76L42.5861 -8.76ZM55.6661 -96.46L51.9461 -99.02L52.4861 -99.81L56.0261 -99.01L54.0161 -102.03L54.5661 -102.83L58.2861 -100.27L57.7461 -99.48L56.9661 -100.02C56.1561 -100.57 55.9861 -100.69 55.7361 -100.93L57.2261 -98.74L56.7161 -98L54.1361 -98.62C54.4461 -98.48 54.7561 -98.27 55.1661 -97.99L56.2061 -97.27L55.6661 -96.48L55.6661 -96.46ZM58.6361 -100.74L56.0261 -104.76L56.6061 -105.53L61.1661 -104.07L60.5261 -103.24L59.5761 -103.56L58.6961 -102.4L59.2561 -101.57L58.6361 -100.75L58.6361 -100.74ZM58.2161 -103.12L58.7561 -103.83L57.7961 -104.16C57.6461 -104.21 57.4761 -104.28 57.3761 -104.33C57.4461 -104.25 57.5561 -104.11 57.6561 -103.97L58.2261 -103.13L58.2161 -103.12ZM61.5561 -104.53L58.0861 -107.42L59.2061 -108.76C59.9061 -109.6 60.7161 -109.74 61.4361 -109.15C61.8861 -108.77 62.0461 -108.32 61.9261 -107.77L63.8161 -107.23L63.1261 -106.4L61.4761 -106.89L60.9861 -106.3L62.2061 -105.29L61.5761 -104.53L61.5561 -104.53ZM60.3061 -106.86L60.7861 -107.44C61.0661 -107.77 61.0561 -108.11 60.7561 -108.35C60.4661 -108.59 60.1561 -108.54 59.8761 -108.2L59.3961 -107.62L60.3161 -106.86L60.3061 -106.86ZM61.8361 -111.93C62.4861 -112.65 63.2961 -112.74 63.9261 -112.17L63.2661 -111.44C63.0261 -111.65 62.7261 -111.61 62.4761 -111.33C62.2061 -111.03 62.1661 -110.72 62.3961 -110.52C62.5961 -110.34 62.7961 -110.35 63.0561 -110.54L63.6161 -110.95C64.2761 -111.44 64.8261 -111.47 65.3561 -110.99C66.0061 -110.41 65.9661 -109.52 65.2761 -108.75C64.6061 -108 63.7561 -107.88 63.1261 -108.45L63.7861 -109.18C64.0361 -108.96 64.3261 -109.02 64.6261 -109.34C64.9261 -109.67 64.9761 -110 64.7661 -110.19C64.5761 -110.36 64.4061 -110.36 64.1661 -110.18L63.5961 -109.76C62.9361 -109.27 62.3161 -109.27 61.7661 -109.76C61.1561 -110.31 61.1861 -111.21 61.8361 -111.93ZM139.926 -178.37C144.636 -178.37 148.456 -174.54 148.456 -169.84C148.456 -165.14 144.626 -161.31 139.926 -161.31C135.226 -161.31 131.396 -165.14 131.396 -169.84C131.396 -174.54 135.226 -178.37 139.926 -178.37ZM139.926 -180C134.316 -180 129.766 -175.45 129.766 -169.84C129.766 -164.23 134.316 -159.68 139.926 -159.68C145.536 -159.68 150.086 -164.23 150.086 -169.84C150.086 -175.45 145.536 -180 139.926 -180ZM139.926 -171.36C139.086 -171.36 138.406 -170.68 138.406 -169.84C138.406 -169 139.086 -168.32 139.926 -168.32C140.766 -168.32 141.446 -169 141.446 -169.84C141.446 -170.68 140.766 -171.36 139.926 -171.36ZM238.786 -131.27C241.186 -131.27 243.146 -129.32 243.146 -126.91C243.146 -124.5 241.196 -122.55 238.786 -122.55C236.376 -122.55 234.426 -124.5 234.426 -126.91C234.426 -129.32 236.376 -131.27 238.786 -131.27ZM238.786 -132.9C235.476 -132.9 232.796 -130.22 232.796 -126.91C232.796 -123.6 235.476 -120.92 238.786 -120.92C242.096 -120.92 244.776 -123.6 244.776 -126.91C244.776 -130.22 242.096 -132.9 238.786 -132.9ZM239.596 -120.92L237.966 -120.92L237.966 -110.63L239.596 -110.63L239.596 -120.92ZM244.336 -117.08L233.256 -117.08L233.256 -115.45L244.336 -115.45L244.336 -117.08ZM263.586 -20.72C265.986 -20.72 267.946 -18.77 267.946 -16.36C267.946 -13.95 265.996 -12 263.586 -12C261.176 -12 259.226 -13.95 259.226 -16.36C259.226 -18.77 261.176 -20.72 263.586 -20.72ZM263.586 -22.35C260.276 -22.35 257.596 -19.67 257.596 -16.36C257.596 -13.05 260.276 -10.37 263.586 -10.37C266.896 -10.37 269.576 -13.05 269.576 -16.36C269.576 -19.67 266.896 -22.35 263.586 -22.35ZM264.406 -10.38L262.776 -10.38L262.776 -0.0900002L264.406 -0.0900002L264.406 -10.38ZM269.146 -6.54L258.066 -6.54L258.066 -4.91001L269.146 -4.91001L269.146 -6.54ZM269.366 -26.93L267.736 -26.93C267.736 -24.64 265.876 -22.78 263.586 -22.78C261.296 -22.78 259.436 -24.64 259.436 -26.93L257.806 -26.93C257.806 -23.75 260.396 -21.15 263.586 -21.15C266.776 -21.15 269.366 -23.74 269.366 -26.93ZM39.3961 -124.46C41.7961 -124.46 43.7461 -122.51 43.7461 -120.11C43.7461 -117.71 41.7961 -115.76 39.3961 -115.76C36.9961 -115.76 35.0461 -117.71 35.0461 -120.11C35.0461 -122.51 36.9961 -124.46 39.3961 -124.46ZM39.3961 -126.09C36.0961 -126.09 33.4161 -123.41 33.4161 -120.11C33.4161 -116.81 36.0961 -114.13 39.3961 -114.13C42.6961 -114.13 45.3761 -116.81 45.3761 -120.11C45.3761 -123.41 42.6961 -126.09 39.3961 -126.09ZM49.3261 -128.82L48.1961 -130L42.3361 -124.38L43.4661 -123.2L49.3261 -128.82ZM49.5761 -130.22L43.8661 -130.22L43.8661 -128.59L47.9461 -128.59L47.9461 -124.39L49.5761 -124.39L49.5761 -130.22ZM19.6461 -7.10001L24.2061 -7.10001L24.2061 -8.73L19.6461 -8.73L19.6461 -13.51L18.0161 -13.51L18.0161 -8.73L12.8961 -8.73C15.6861 -13.09 16.9761 -15.29 16.9761 -18.6C16.9761 -20.16 16.5461 -21.47 15.7361 -22.38C14.9961 -23.2 13.9761 -23.66 12.8761 -23.66C10.9661 -23.66 8.9961 -22.19 8.9961 -19.73L10.6261 -19.73C10.6261 -21.22 11.7861 -22.03 12.8861 -22.03C13.5261 -22.03 14.1061 -21.77 14.5361 -21.29C15.0761 -20.69 15.3661 -19.76 15.3661 -18.6C15.3661 -15.55 14.0861 -13.55 10.9761 -8.72L9.9361 -7.10001L18.0361 -7.10001L18.0361 -2.32001L19.6661 -2.32001L19.6661 -7.10001L19.6461 -7.10001ZM90.5661 79.33C90.9961 78.64 91.4461 77.93 91.7461 77.04C93.0361 73.26 91.7261 71.32 90.8261 70.49C89.5161 69.29 87.4661 68.99 85.7361 69.75C85.3161 69.93 84.9361 70.17 84.6061 70.45L84.6061 67.73L88.0661 67.73L88.0661 66.1L84.6061 66.1L84.6061 63.08L82.9761 63.08L82.9761 66.1L79.5161 66.1L79.5161 67.73L82.9761 67.73L82.9761 74.11L84.6061 74.11C84.6061 72.79 85.2561 71.74 86.3861 71.24C87.5361 70.73 88.8761 70.92 89.7161 71.69C90.7561 72.65 90.9261 74.36 90.1961 76.51C89.9561 77.22 89.5761 77.82 89.1761 78.46C88.2661 79.9 87.2461 81.54 87.2461 84.95L88.8761 84.95C88.8761 82.01 89.7361 80.64 90.5561 79.32L90.5661 79.33ZM203.096 84.93C203.096 84.93 203.066 84.93 203.046 84.93C190.706 84.8 189.376 77.15 189.376 73.87C189.376 70.59 190.356 68.13 192.286 66.29C195.616 63.13 200.736 63.03 202.776 63.13L202.736 64.76C199.976 64.76 196.886 68.73 196.886 74.03C196.886 76.13 197.746 78.47 199.236 80.46C200.696 82.4 202.206 83.28 203.066 83.3C203.076 83.3 203.086 83.3 203.106 83.3L203.106 84.93L203.096 84.93ZM198.636 65.03C196.856 65.37 194.886 66.06 193.406 67.47C191.806 68.99 190.996 71.14 190.996 73.87C190.996 79.94 195.236 82.18 199.266 82.95C197.096 80.84 195.256 77.37 195.256 74.04C195.256 70.4 196.626 67.04 198.636 65.04L198.636 65.03Z" fill="#9EB5FF"/>
<path d="M108.586 119C108.586 123.971 112.615 128 117.586 128C122.557 128 126.586 123.971 126.586 119C126.586 114.029 122.557 110 117.586 110C112.615 110 108.586 114.029 108.586 119Z" fill="#E93F30"/>
<path d="M96.5859 128C96.5859 130.761 98.8245 133 101.586 133C104.347 133 106.586 130.761 106.586 128C106.586 125.239 104.347 123 101.586 123C98.8245 123 96.5859 125.239 96.5859 128Z" fill="#F7EED8"/>
<path d="M304.551 356.062C305.854 356.072 307.161 356.067 308.471 356.042L310.304 355.994C311.001 355.972 311.696 355.942 312.389 355.909L312.342 354.913C311.05 354.973 309.753 355.016 308.452 355.042C307.15 355.067 305.852 355.075 304.558 355.065L304.551 356.062Z" fill="#9EB5FF"/>
<path d="M323.939 353.896C321.385 354.226 318.808 354.488 316.212 354.68L316.285 355.674C318.9 355.481 321.495 355.216 324.068 354.884L323.939 353.896Z" fill="#9EB5FF"/>
<path d="M292.842 355.493C295.426 355.725 298.029 355.888 300.649 355.979L300.683 354.982C298.081 354.892 295.496 354.731 292.93 354.5L292.842 355.493Z" fill="#9EB5FF"/>
<path d="M335.418 351.927C332.898 352.467 330.354 352.94 327.785 353.344L327.94 354.33C330.527 353.923 333.09 353.447 335.627 352.902L335.418 351.927Z" fill="#9EB5FF"/>
<path d="M281.214 353.963C283.77 354.408 286.349 354.784 288.95 355.09L289.008 354.596L289.065 354.099C286.483 353.795 283.922 353.422 281.384 352.98L281.214 353.963Z" fill="#9EB5FF"/>
<path d="M346.693 349.012C344.225 349.761 341.727 350.445 339.203 351.06L339.441 352.028C341.983 351.409 344.498 350.722 346.983 349.968L346.838 349.491L346.693 349.012Z" fill="#9EB5FF"/>
<path d="M269.752 351.473C272.265 352.129 274.805 352.718 277.37 353.238L277.567 352.261C275.021 351.745 272.499 351.159 270.003 350.507L269.752 351.473Z" fill="#9EB5FF"/>
<path d="M357.684 345.172C355.284 346.124 352.852 347.013 350.389 347.836L350.547 348.308L350.546 348.309L350.614 348.511L350.705 348.783C353.186 347.954 355.635 347.057 358.051 346.097L357.684 345.172Z" fill="#9EB5FF"/>
<path d="M258.541 348.036C260.993 348.901 263.475 349.702 265.987 350.434L266.126 349.954L266.266 349.475C263.773 348.749 261.307 347.955 258.872 347.097L258.541 348.036Z" fill="#9EB5FF"/>
<path d="M368.319 340.428C366.006 341.577 363.656 342.665 361.273 343.688L361.668 344.606C364.068 343.575 366.433 342.478 368.762 341.321L368.319 340.428Z" fill="#9EB5FF"/>
<path d="M247.652 343.681C250.025 344.746 252.431 345.75 254.869 346.686L255.048 346.221L255.227 345.755C252.806 344.825 250.416 343.829 248.06 342.771L247.652 343.681Z" fill="#9EB5FF"/>
<path d="M378.525 334.818C376.314 336.156 374.062 337.434 371.772 338.652L372.241 339.532C374.546 338.306 376.814 337.019 379.042 335.672L378.525 334.818Z" fill="#9EB5FF"/>
<path d="M237.16 338.436C239.439 339.696 241.755 340.894 244.107 342.029L244.54 341.132C242.205 340.004 239.905 338.814 237.644 337.563L237.16 338.436Z" fill="#9EB5FF"/>
<path d="M388.231 328.385C386.136 329.901 383.997 331.361 381.818 332.763L382.358 333.602C384.553 332.19 386.707 330.721 388.817 329.194L388.231 328.385Z" fill="#9EB5FF"/>
<path d="M227.14 332.344C229.308 333.788 231.518 335.172 233.767 336.497L233.88 336.304L234.019 336.069L234.272 335.638C232.04 334.322 229.846 332.947 227.694 331.513L227.14 332.344Z" fill="#9EB5FF"/>
<path d="M397.374 321.173C395.411 322.857 393.4 324.489 391.344 326.065L391.952 326.856C394.022 325.269 396.048 323.627 398.026 321.931L397.374 321.173Z" fill="#9EB5FF"/>
<path d="M217.966 325.055L217.656 325.446C219.698 327.064 221.787 328.625 223.917 330.13L224.492 329.316C222.377 327.821 220.304 326.269 218.276 324.663L217.966 325.055Z" fill="#9EB5FF"/>
<path d="M405.895 313.234C404.076 315.075 402.206 316.865 400.288 318.604L400.624 318.974L400.623 318.975L400.958 319.343C402.89 317.592 404.774 315.789 406.606 313.935L405.895 313.234Z" fill="#9EB5FF"/>
<path d="M208.77 317.791C210.674 319.572 212.627 321.299 214.625 322.974L215.266 322.209C213.281 320.546 211.342 318.83 209.453 317.062L208.77 317.791Z" fill="#9EB5FF"/>
<path d="M413.735 304.622C412.073 306.606 410.355 308.545 408.587 310.435L409.317 311.117C411.098 309.214 412.826 307.261 414.501 305.262L413.735 304.622Z" fill="#9EB5FF"/>
<path d="M200.545 309.431C202.296 311.363 204.098 313.247 205.952 315.08L206.654 314.37C204.813 312.55 203.023 310.68 201.284 308.761L200.545 309.431Z" fill="#9EB5FF"/>
<path d="M420.841 295.396C419.347 297.511 417.794 299.584 416.188 301.611L416.581 301.921L416.973 302.232C418.59 300.19 420.151 298.101 421.656 295.971L421.25 295.684L420.841 295.396Z" fill="#9EB5FF"/>
<path d="M193.032 300.425C194.619 302.495 196.26 304.522 197.956 306.499L198.335 306.175L198.715 305.849C197.03 303.885 195.399 301.875 193.823 299.819L193.032 300.425Z" fill="#9EB5FF"/>
<path d="M427.165 285.615C425.849 287.848 424.472 290.042 423.038 292.194L423.87 292.747C425.314 290.58 426.699 288.37 428.024 286.122L427.595 285.869L427.165 285.615Z" fill="#9EB5FF"/>
<path d="M186.286 290.831C187.698 293.026 189.167 295.181 190.694 297.291L191.098 296.998L191.503 296.705C189.986 294.611 188.526 292.472 187.124 290.292L186.286 290.831Z" fill="#9EB5FF"/>
<path d="M180.355 280.714C181.582 283.02 182.869 285.288 184.216 287.516L184.642 287.258L185.069 286.999C183.732 284.788 182.453 282.536 181.236 280.247L180.355 280.714Z" fill="#9EB5FF"/>
<path d="M432.657 275.348C431.53 277.683 430.339 279.982 429.089 282.244L429.528 282.486L429.527 282.487L429.963 282.726C431.223 280.449 432.42 278.132 433.555 275.781L432.657 275.348Z" fill="#9EB5FF"/>
<path d="M437.28 264.66C436.35 267.082 435.355 269.472 434.297 271.827L435.207 272.235C436.273 269.863 437.276 267.457 438.213 265.018L437.28 264.66Z" fill="#9EB5FF"/>
<path d="M175.871 271.485C176.729 273.425 177.626 275.343 178.566 277.236L179.012 277.015L179.459 276.793C178.465 274.791 177.52 272.761 176.62 270.706L175.871 271.485Z" fill="#9EB5FF"/>
<path d="M441 253.622C440.274 256.115 439.48 258.581 438.622 261.015L439.563 261.348C440.428 258.895 441.228 256.412 441.96 253.901L441.479 253.762L441 253.622Z" fill="#9EB5FF"/>
<path d="M443.786 242.32C443.27 244.867 442.684 247.389 442.032 249.884L442.999 250.136C443.656 247.623 444.245 245.083 444.765 242.518L443.786 242.32Z" fill="#9EB5FF"/>
<path d="M445.625 230.822C445.321 233.404 444.947 235.966 444.505 238.504L445.489 238.674C445.934 236.118 446.311 233.538 446.617 230.938L445.625 230.822Z" fill="#9EB5FF"/>
<path d="M446.508 219.204C446.418 221.807 446.256 224.392 446.025 226.957L447.02 227.046C447.252 224.462 447.414 221.859 447.505 219.239L446.508 219.204Z" fill="#9EB5FF"/>
<path d="M446.438 207.545C446.499 208.838 446.542 210.135 446.567 211.436C446.592 212.738 446.6 214.036 446.59 215.33L447.589 215.337C447.599 214.034 447.592 212.727 447.567 211.417C447.541 210.106 447.497 208.8 447.437 207.499L446.438 207.545Z" fill="#9EB5FF"/>
<path d="M445.421 195.949C445.751 198.503 446.014 201.08 446.206 203.676L447.201 203.603C447.007 200.988 446.744 198.393 446.411 195.82L445.421 195.949Z" fill="#9EB5FF"/>
<path d="M443.941 184.365L443.452 184.47C443.993 186.989 444.467 189.534 444.871 192.102L445.857 191.947C445.45 189.361 444.973 186.798 444.429 184.261L443.941 184.365Z" fill="#9EB5FF"/>
<path d="M440.538 173.195C441.286 175.663 441.97 178.16 442.585 180.685L443.555 180.447C442.936 177.905 442.248 175.39 441.494 172.905L440.538 173.195Z" fill="#9EB5FF"/>
<path d="M436.697 162.204C437.649 164.604 438.538 167.036 439.361 169.499L439.834 169.341L440.309 169.183C439.48 166.702 438.584 164.252 437.624 161.835L436.697 162.204Z" fill="#9EB5FF"/>
<path d="M431.954 151.569C433.103 153.882 434.19 156.232 435.214 158.615L435.674 158.417L436.132 158.22C435.101 155.82 434.005 153.455 432.847 151.126L431.954 151.569Z" fill="#9EB5FF"/>
<path d="M176.207 156.126C175.141 158.498 174.138 160.905 173.201 163.343L174.133 163.702C175.063 161.281 176.058 158.89 177.116 156.534L176.207 156.126Z" fill="#9EB5FF"/>
<path d="M426.344 141.363C427.681 143.574 428.961 145.826 430.178 148.115L431.059 147.647C429.833 145.342 428.546 143.074 427.199 140.847L426.344 141.363Z" fill="#9EB5FF"/>
<path d="M181.452 145.634C180.192 147.912 178.994 150.229 177.859 152.581L178.756 153.014C179.883 150.679 181.074 148.379 182.324 146.117L181.452 145.634Z" fill="#9EB5FF"/>
<path d="M419.91 131.657C421.427 133.752 422.888 135.89 424.29 138.07L425.129 137.529C423.742 135.373 422.3 133.257 420.802 131.184L420.72 131.071L419.91 131.657Z" fill="#9EB5FF"/>
<path d="M187.544 135.614C186.1 137.782 184.716 139.992 183.391 142.24L184.249 142.747C185.565 140.514 186.941 138.321 188.375 136.168L187.544 135.614Z" fill="#9EB5FF"/>
<path d="M412.698 122.514C414.383 124.477 416.014 126.488 417.59 128.543L418.382 127.936C416.795 125.866 415.154 123.84 413.457 121.862L412.698 122.514Z" fill="#9EB5FF"/>
<path d="M194.442 126.129C192.824 128.172 191.263 130.26 189.758 132.391L190.572 132.967C192.067 130.851 193.618 128.779 195.225 126.751L194.442 126.129Z" fill="#9EB5FF"/>
<path d="M404.759 113.993C406.6 115.812 408.391 117.682 410.13 119.6L410.501 119.264L410.87 118.929C409.119 116.997 407.315 115.114 405.461 113.282L404.759 113.993Z" fill="#9EB5FF"/>
<path d="M202.097 117.244C200.316 119.147 198.588 121.1 196.914 123.098L197.295 123.419L197.296 123.418L197.679 123.74C199.341 121.755 201.058 119.817 202.826 117.927L202.097 117.244Z" fill="#9EB5FF"/>
<path d="M396.148 106.152C398.133 107.815 400.071 109.532 401.96 111.301L402.643 110.571C400.74 108.79 398.788 107.061 396.789 105.387L396.148 106.152Z" fill="#9EB5FF"/>
<path d="M210.457 109.017C208.525 110.769 206.64 112.572 204.808 114.425L205.518 115.128C207.338 113.288 209.208 111.496 211.126 109.757L210.457 109.017Z" fill="#9EB5FF"/>
<path d="M386.921 99.0465C389.036 100.541 391.109 102.093 393.137 103.7L393.758 102.916C391.716 101.298 389.627 99.7368 387.497 98.2314L386.921 99.0465Z" fill="#9EB5FF"/>
<path d="M219.462 101.505C217.392 103.093 215.366 104.733 213.388 106.429L214.039 107.189C216.002 105.505 218.013 103.874 220.069 102.298L219.765 101.9L219.462 101.505Z" fill="#9EB5FF"/>
<path d="M377.141 92.7231C379.373 94.0392 381.567 95.4159 383.719 96.8496L384.273 96.0174C382.106 94.5736 379.897 93.1887 377.648 91.8635L377.141 92.7231Z" fill="#9EB5FF"/>
<path d="M229.055 94.7587C226.86 96.1706 224.707 97.6405 222.597 99.1676L223.182 99.9776C225.277 98.4611 227.416 97 229.595 95.598L229.325 95.1774L229.055 94.7587Z" fill="#9EB5FF"/>
<path d="M366.873 87.2307C369.208 88.358 371.509 89.5487 373.77 90.7991L374.252 89.9244C371.975 88.6651 369.659 87.4677 367.307 86.3324L366.873 87.2307Z" fill="#9EB5FF"/>
<path d="M239.173 88.8291C236.868 90.0551 234.6 91.3418 232.373 92.6888L232.889 93.5442C235.1 92.2066 237.351 90.9272 239.641 89.7098L239.173 88.8291Z" fill="#9EB5FF"/>
<path d="M356.186 82.6079C358.607 83.538 360.998 84.5329 363.353 85.5909L363.762 84.6805C361.389 83.615 358.983 82.6116 356.544 81.675L356.186 82.6079Z" fill="#9EB5FF"/>
<path d="M249.746 83.7559C247.346 84.7868 244.981 85.8832 242.652 87.0402L243.095 87.9341C245.408 86.7852 247.757 85.6978 250.14 84.6742L249.746 83.7559Z" fill="#9EB5FF"/>
<path d="M345.289 78.4044L345.148 78.8877C347.641 79.6137 350.107 80.4072 352.542 81.2656L352.874 80.3244C350.421 79.4597 347.939 78.6593 345.427 77.928L345.289 78.4044Z" fill="#9EB5FF"/>
<path d="M260.709 79.5787C258.228 80.4072 255.779 81.3038 253.362 82.2633L253.73 83.1909C256.13 82.2384 258.562 81.3494 261.025 80.5268L260.709 79.5787Z" fill="#9EB5FF"/>
<path d="M333.846 76.1015C336.392 76.6179 338.914 77.2037 341.41 77.8558L341.662 76.8888C339.149 76.232 336.609 75.6429 334.044 75.1228L333.846 76.1015Z" fill="#9EB5FF"/>
<path d="M271.974 76.3322C269.432 76.9518 266.917 77.6394 264.431 78.3936L264.72 79.3501C267.188 78.6012 269.686 77.9177 272.21 77.3024L271.974 76.3322Z" fill="#9EB5FF"/>
<path d="M322.405 73.7663L322.348 74.2626C324.93 74.5664 327.491 74.9408 330.029 75.3827L330.15 74.6937L330.2 74.3987C327.644 73.9536 325.065 73.5768 322.464 73.2709L322.405 73.7663Z" fill="#9EB5FF"/>
<path d="M283.473 74.0306C280.887 74.4376 278.324 74.9146 275.787 75.459L275.995 76.4355C278.515 75.8951 281.059 75.4212 283.627 75.0171L283.473 74.0306Z" fill="#9EB5FF"/>
<path d="M310.731 73.3794C313.333 73.4699 315.917 73.6319 318.483 73.8622L318.573 72.8681C315.989 72.6361 313.386 72.4736 310.765 72.3824L310.731 73.3794Z" fill="#9EB5FF"/>
<path d="M295.129 72.6871C292.514 72.8803 289.92 73.1441 287.347 73.4765L287.407 73.953L287.474 74.4664C290.028 74.1363 292.605 73.8738 295.201 73.682L295.129 72.6871Z" fill="#9EB5FF"/>
<path d="M302.943 72.3209C301.632 72.3465 300.326 72.3903 299.025 72.451L299.071 73.4493C300.363 73.389 301.661 73.3461 302.962 73.3207C304.264 73.2954 305.562 73.2878 306.855 73.2976L306.863 72.2983C305.56 72.2883 304.254 72.2954 302.943 72.3209Z" fill="#9EB5FF"/>
<path d="M139.22 231.644L124.566 216.99L139.22 202.337V181.654H159.923L174.576 167L189.23 181.654H209.932V202.356L224.586 217.01L209.932 231.663V252.366H189.23L174.576 267.02L159.923 252.366H139.22V231.663V231.644ZM131.474 217.01L139.22 224.756V209.263L131.474 217.01ZM144.098 229.634L161.952 247.488H187.201L205.054 229.634V204.385L187.201 186.532H161.952L144.098 204.385V229.634ZM144.098 186.532V197.478L155.044 186.532H144.098ZM174.576 173.907L166.83 181.654H182.323L174.576 173.907ZM205.054 186.532H194.108L205.054 197.478V186.532ZM217.679 217.01L209.932 209.263V224.756L217.679 217.01ZM205.054 247.488V236.541L194.108 247.488H205.054ZM174.576 260.112L182.323 252.366H166.83L174.576 260.112ZM155.064 247.488L144.118 236.541V247.488H155.064ZM174.576 206.005C180.644 206.005 185.562 210.922 185.562 216.99C185.562 223.059 180.644 227.976 174.576 227.976C168.508 227.976 163.591 223.059 163.591 216.99C163.591 210.922 168.508 206.005 174.576 206.005ZM174.576 223.117C177.952 223.117 180.683 220.366 180.683 217.01C180.683 213.654 177.932 210.902 174.576 210.902C171.22 210.902 168.469 213.654 168.469 217.01C168.469 220.366 171.22 223.117 174.576 223.117Z" fill="#F7EED8"/>
</g>
<defs>
<clipPath id="clip0_4121_3236">
<rect width="238" height="356" fill="white"/>
</clipPath>
</defs>
</svg>
