<svg width="200" height="377" viewBox="0 0 200 377" fill="none" xmlns="http://www.w3.org/2000/svg">
<g clip-path="url(#clip0_4122_5175)">
<path d="M374.381 108.023C374.381 203.902 296.484 281.628 200.395 281.628C104.306 281.628 26.4106 203.902 26.4104 108.023C26.4104 12.1428 104.306 -65.5837 200.395 -65.5839C296.485 -65.5839 374.381 12.1426 374.381 108.023ZM355.925 96.0858C355.925 181.791 286.296 251.27 200.403 251.27C114.511 251.27 44.8806 181.791 44.8806 96.0858C44.8806 10.3803 114.511 -59.0981 200.403 -59.0981C286.296 -59.0979 355.925 10.3804 355.925 96.0858ZM339.164 86.4651C339.164 162.938 277.035 224.932 200.395 224.932C123.756 224.931 61.6272 162.938 61.6272 86.4651C61.6272 9.99231 123.756 -52.0013 200.395 -52.0014C277.035 -52.0014 339.164 9.99222 339.164 86.4651ZM326.343 79.1975C326.343 148.605 269.954 204.871 200.395 204.871C130.836 204.87 74.448 148.605 74.4478 79.1975C74.4478 9.79013 130.836 -46.4761 200.395 -46.4762C269.954 -46.4762 326.343 9.79004 326.343 79.1975ZM313.104 72.3169C313.104 134.433 262.639 184.788 200.388 184.788C138.136 184.788 87.6716 134.433 87.6715 72.3169C87.6715 10.201 138.136 -40.154 200.388 -40.154C262.64 -40.154 313.104 10.2009 313.104 72.3169ZM301.634 67.2011C301.634 122.992 256.308 168.219 200.395 168.219C144.483 168.219 99.1571 122.992 99.1571 67.2011C99.1571 11.4103 144.483 -33.8171 200.395 -33.8173C256.308 -33.8173 301.634 11.4102 301.634 67.2011ZM291.015 62.614C291.015 112.548 250.447 153.028 200.403 153.028C150.36 153.028 109.791 112.549 109.791 62.614C109.791 12.6794 150.36 -27.8005 200.403 -27.8005C250.447 -27.8004 291.015 12.6795 291.015 62.614ZM280.895 58.4217C280.895 102.784 244.854 138.746 200.395 138.746C155.936 138.746 119.895 102.784 119.895 58.4217C119.895 14.0597 155.936 -21.9029 200.395 -21.903C244.854 -21.903 280.895 14.0596 280.895 58.4217ZM272.202 55.3391C272.202 94.9141 240.049 126.996 200.388 126.996C160.727 126.996 128.575 94.914 128.575 55.3391C128.575 15.7641 160.727 -16.3181 200.388 -16.3182C240.049 -16.3182 272.202 15.7641 272.202 55.3391ZM263.918 52.6951C263.918 87.7011 235.478 116.079 200.395 116.079C165.313 116.079 136.873 87.701 136.873 52.6951C136.873 17.6893 165.313 -10.6881 200.395 -10.6883C235.478 -10.6883 263.918 17.6892 263.918 52.6951ZM255.485 50.1863C255.485 80.545 230.82 105.155 200.395 105.155C169.97 105.155 145.306 80.5449 145.306 50.1863C145.306 19.8275 169.97 -4.78333 200.395 -4.78348C230.82 -4.78348 255.485 19.8275 255.485 50.1863ZM248.388 48.3247C248.388 74.7723 226.901 96.2123 200.395 96.2123C173.89 96.2122 152.403 74.7722 152.403 48.3247C152.403 21.877 173.89 0.436432 200.395 0.436279C226.901 0.436279 248.388 21.8769 248.388 48.3247ZM240.88 46.7903C240.88 69.1009 222.755 87.1872 200.395 87.1872C178.036 87.187 159.91 69.1008 159.91 46.7903C159.91 24.4799 178.036 6.39359 200.395 6.39343C222.755 6.39343 240.88 24.4798 240.88 46.7903ZM233.634 45.517C233.634 63.8343 218.753 78.6834 200.395 78.6834C182.038 78.6833 167.156 63.8342 167.156 45.517C167.156 27.1998 182.038 12.3507 200.395 12.3506C218.753 12.3506 233.634 27.1997 233.634 45.517ZM226.641 44.4967C226.641 58.9606 214.891 70.6858 200.395 70.6858C185.9 70.6856 174.149 58.9605 174.149 44.4967C174.149 30.0331 185.9 18.3079 200.395 18.3077C214.891 18.3077 226.641 30.033 226.641 44.4967ZM219.888 43.715C219.888 54.457 211.161 63.1652 200.395 63.1652C189.63 63.165 180.903 54.4569 180.903 43.715C180.903 32.9731 189.63 24.265 200.395 24.2649C211.161 24.2649 219.888 32.973 219.888 43.715ZM213.157 42.9478C213.157 49.9803 207.443 55.6817 200.395 55.6817C193.348 55.6815 187.634 49.9802 187.634 42.9478C187.634 35.9156 193.348 30.2149 200.395 30.2147C207.443 30.2147 213.157 35.9155 213.157 42.9478ZM206.224 42.9478C206.224 46.1597 203.614 48.7639 200.395 48.7639C197.176 48.7638 194.567 46.1596 194.567 42.9478C194.567 39.7361 197.177 37.1326 200.395 37.1325C203.614 37.1325 206.224 39.736 206.224 42.9478ZM206.97 42.9478C206.97 39.3248 204.026 36.3878 200.395 36.3878C196.764 36.388 193.821 39.3249 193.821 42.9478C193.821 46.5709 196.764 49.5084 200.395 49.5085C204.026 49.5085 206.97 46.571 206.97 42.9478ZM213.903 42.9478C213.903 35.5042 207.855 29.4701 200.395 29.4701C192.935 29.4702 186.888 35.5043 186.888 42.9478C186.888 50.3915 192.935 56.4262 200.395 56.4263C207.855 56.4263 213.903 50.3915 213.903 42.9478ZM220.634 43.715C220.634 32.5618 211.573 23.5202 200.395 23.5202C189.218 23.5204 180.156 32.5619 180.156 43.715C180.156 54.8682 189.218 63.9097 200.395 63.9098C211.573 63.9098 220.634 54.8682 220.634 43.715ZM227.388 44.4967C227.388 29.6217 215.303 17.5631 200.395 17.5631C185.488 17.5632 173.403 29.6218 173.403 44.4967C173.403 59.3717 185.488 71.4303 200.395 71.4304C215.303 71.4304 227.388 59.3718 227.388 44.4967ZM234.38 45.517C234.38 26.7885 219.165 11.6059 200.395 11.6059C181.626 11.6061 166.41 26.7885 166.41 45.517C166.41 64.2454 181.626 79.4279 200.395 79.4281C219.165 79.4281 234.38 64.2455 234.38 45.517ZM241.627 46.7903C241.627 24.0685 223.167 5.64877 200.395 5.64877C177.624 5.64893 159.164 24.0686 159.164 46.7903C159.164 69.512 177.624 87.9317 200.395 87.9318C223.167 87.9318 241.627 69.5121 241.627 46.7903ZM249.134 48.3247C249.134 21.4656 227.313 -0.30835 200.395 -0.30835C173.478 -0.308197 151.657 21.4657 151.657 48.3247C151.657 75.1835 173.478 96.9568 200.395 96.957C227.313 96.957 249.134 75.1836 249.134 48.3247ZM256.231 50.1863C256.231 19.4162 231.233 -5.52814 200.395 -5.52814C169.558 -5.52798 144.56 19.4163 144.56 50.1863C144.56 80.9561 169.558 105.9 200.395 105.9C231.232 105.9 256.231 80.9562 256.231 50.1863ZM264.664 52.6951C264.664 17.278 235.89 -11.4329 200.395 -11.4329C164.901 -11.4328 136.127 17.278 136.127 52.6951C136.127 88.1123 164.901 116.824 200.395 116.824C235.89 116.824 264.664 88.1124 264.664 52.6951ZM272.948 55.3391C272.948 15.3528 240.462 -17.0628 200.388 -17.0628C160.314 -17.0628 127.829 15.3528 127.829 55.3391C127.829 95.3253 160.314 127.74 200.388 127.74C240.461 127.74 272.948 95.3253 272.948 55.3391ZM281.642 58.4217C281.642 13.6484 245.266 -22.6476 200.395 -22.6476C155.524 -22.6475 119.149 13.6485 119.149 58.4217C119.149 103.195 155.524 139.491 200.395 139.491C245.266 139.491 281.642 103.195 281.642 58.4217ZM291.761 62.614C291.761 12.2683 250.859 -28.545 200.403 -28.5452C149.948 -28.5452 109.045 12.2682 109.045 62.614C109.045 112.96 149.948 153.773 200.403 153.773C250.859 153.773 291.761 112.96 291.761 62.614ZM302.38 67.2011C302.38 10.999 256.72 -34.5619 200.395 -34.5619C144.071 -34.5618 98.4108 10.9991 98.4108 67.2011C98.4108 123.403 144.071 168.964 200.395 168.964C256.72 168.964 302.38 123.403 302.38 67.2011ZM313.851 72.3169C313.851 9.78967 263.052 -40.8987 200.388 -40.8987C137.724 -40.8987 86.9253 9.7897 86.9253 72.3169C86.9253 134.844 137.724 185.532 200.388 185.532C263.052 185.532 313.851 134.844 313.851 72.3169ZM327.09 79.1975C327.09 9.37878 270.366 -47.2209 200.395 -47.2209C130.424 -47.2207 73.7016 9.37888 73.7016 79.1975C73.7017 149.016 130.424 205.615 200.395 205.615C270.366 205.615 327.09 149.016 327.09 79.1975ZM339.91 86.4651C339.91 9.58096 277.447 -52.7461 200.395 -52.7461C123.343 -52.7459 60.8809 9.58105 60.8809 86.4651C60.881 163.349 123.343 225.676 200.395 225.676C277.447 225.676 339.91 163.349 339.91 86.4651ZM356.672 96.0858C356.672 9.96912 286.708 -59.8426 200.403 -59.8427C114.098 -59.8427 44.1343 9.96902 44.1343 96.0858C44.1344 182.203 114.099 252.014 200.403 252.014C286.708 252.014 356.671 182.202 356.672 96.0858ZM375.127 108.023C375.127 11.7314 296.897 -66.3285 200.395 -66.3285C103.894 -66.3284 25.6642 11.7315 25.6642 108.023C25.6643 204.314 103.894 282.373 200.395 282.373C296.897 282.373 375.127 204.314 375.127 108.023Z" fill="#DCD0B4"/>
<path d="M200.836 205.243V-205.867H200.09V205.243H200.836Z" fill="#DCD0B4"/>
<path d="M215.919 -91.3566C225.996 -119.314 247.952 -161.48 268.43 -194.666L268.112 -194.861L267.795 -195.056C247.303 -161.849 225.318 -119.633 215.216 -91.6082L215.919 -91.3566ZM185.516 -91.5864C175.376 -119.597 153.339 -161.783 132.803 -194.967L132.485 -194.772L132.168 -194.576C152.692 -161.413 174.699 -119.276 184.814 -91.3333L185.516 -91.5864ZM230.479 -87.4799C256.005 -115.746 299.26 -146.647 328.956 -159.589L328.657 -160.271C298.86 -147.285 255.518 -116.32 229.924 -87.9788L230.202 -87.7294L230.479 -87.4799ZM170.822 -87.9417C145.184 -116.253 101.812 -147.158 71.9924 -160.107L71.695 -159.424C101.413 -146.52 144.698 -115.679 170.268 -87.4429L170.822 -87.9417ZM244.257 -80.8676C259.941 -90.6044 283.737 -97.8417 307.865 -102.198C331.989 -106.553 356.392 -108.018 373.267 -106.243L373.306 -106.614L373.345 -106.984C356.377 -108.768 331.899 -107.293 307.732 -102.93C283.57 -98.5677 259.665 -91.3103 243.863 -81.5003L244.06 -81.1839L244.257 -80.8676ZM156.884 -81.4406C141.071 -91.2321 117.158 -98.4603 92.9906 -102.792C68.8189 -107.124 44.3394 -108.568 27.3715 -106.761L27.4502 -106.02C44.3254 -107.817 68.7303 -106.383 92.8587 -102.059C116.992 -97.7335 140.796 -90.5262 156.491 -80.808L156.884 -81.4406ZM397.156 -42.5861C377.395 -55.7709 322.484 -81.6642 255.774 -73.2801L255.867 -72.5413C322.351 -80.8968 377.083 -55.0826 396.74 -41.9666L397.156 -42.5861ZM4.05131 -41.7215C23.6938 -54.8672 78.3884 -80.7481 144.887 -72.4744L144.934 -72.8438L144.979 -73.2132C78.2542 -81.5152 23.3815 -55.5543 3.6359 -42.3396L4.05131 -41.7215ZM397.448 25.6497L397.764 25.452C372.924 -13.9388 324.254 -54.9904 267.298 -61.7389L267.254 -61.3687L267.21 -60.9993C323.881 -54.2845 372.376 -13.4101 397.132 25.8483L397.448 25.6497ZM3.74959 26.1006C28.4542 -13.1948 76.8964 -54.1214 133.56 -60.9179L133.515 -61.2873L133.471 -61.6567C76.5228 -54.8261 27.9049 -13.7231 3.11701 25.705L3.74959 26.1006ZM94.6697 162.344C148.554 124.722 187.176 66.3266 200.454 43.5946C213.766 66.3163 252.461 124.651 306.391 162.202L306.605 161.898L306.818 161.592C253.887 124.736 215.64 67.779 201.761 44.3436L201.806 44.3189C201.782 44.2746 201.757 44.2304 201.733 44.1859C225.912 59.4383 290.312 85.0478 370.149 67.3483L369.987 66.6218C291.79 83.9577 228.463 59.6164 203.455 44.3756L203.567 44.1589C202.805 43.7644 202.021 43.3444 201.217 42.9009C201.23 42.8933 201.244 42.8853 201.257 42.8776C242.821 43.8144 297.21 25.923 332.032 -6.76111L331.52 -7.30359C297.196 24.9131 243.731 42.7109 202.509 42.1555C225.77 28.5648 263.199 -3.08704 285.953 -43.7104L285.301 -44.074C262.297 -3.00192 224.224 28.8776 201.157 42.0763C207.013 31.1003 215.629 13.9044 223.532 -4.36139C232.087 -24.1323 239.824 -45.1886 242.317 -60.9688L241.948 -61.0262L241.58 -61.0844C239.102 -45.4034 231.399 -24.4207 222.847 -4.65662C214.932 13.6353 206.303 30.8549 200.453 41.8116C194.589 30.8625 185.937 13.6554 178 -4.62534C169.423 -24.3782 161.693 -45.3518 159.197 -61.0328L158.829 -60.9746L158.46 -60.9157C160.972 -45.1356 168.735 -24.089 177.315 -4.32938C185.241 13.9251 193.878 31.1085 199.749 42.077C176.665 28.9051 138.546 -2.92264 115.49 -43.97L114.839 -43.6064C137.644 -3.00616 175.121 28.5956 198.399 42.1584C157.176 42.7741 103.685 25.0416 69.3156 -7.13269L68.8047 -6.58948C103.672 26.051 158.086 43.8755 199.65 42.8784C199.664 42.8863 199.678 42.8937 199.692 42.9016C198.886 43.3476 198.1 43.7696 197.336 44.1662L197.449 44.3851C172.457 59.6585 109.163 84.0707 30.9541 66.8371L30.8732 67.2007L30.7931 67.5643C110.647 85.1604 175.014 59.4736 199.175 44.1895C199.151 44.2329 199.128 44.2765 199.105 44.3196L199.149 44.3436C185.305 67.7899 147.128 124.808 94.242 161.733L94.4555 162.039L94.6697 162.344Z" fill="#DCD0B4"/>
<path d="M285.925 -6.89117C285.925 40.2427 247.632 78.4525 200.396 78.4526C153.159 78.4526 114.866 40.2428 114.866 -6.89117C114.866 -54.025 153.159 -92.2342 200.396 -92.2342C247.632 -92.2341 285.925 -54.0249 285.925 -6.89117ZM287.418 -6.89117C287.418 -54.8474 248.457 -93.7234 200.396 -93.7235C152.335 -93.7235 113.373 -54.8475 113.373 -6.89117C113.373 41.0653 152.335 79.9419 200.396 79.9419C248.457 79.9417 287.418 41.0652 287.418 -6.89117Z" fill="#DCD0B4"/>
<path d="M331.03 -6.86148C331.03 65.1164 272.553 123.466 200.418 123.466C128.283 123.466 69.806 65.1162 69.806 -6.86148C69.8062 -78.8391 128.283 -137.188 200.418 -137.189C272.552 -137.189 331.03 -78.8391 331.03 -6.86148ZM332.522 -6.86148C332.522 -79.6617 273.377 -138.678 200.418 -138.678C127.459 -138.678 68.3136 -79.6616 68.3134 -6.86148C68.3134 65.9388 127.458 124.955 200.418 124.956C273.377 124.956 332.522 65.9389 332.522 -6.86148Z" fill="#DCD0B4"/>
<path d="M208.381 -6.89108C208.381 -2.49069 204.806 1.07669 200.396 1.07675C195.986 1.07675 192.41 -2.49066 192.41 -6.89108C192.411 -11.2914 195.986 -14.8589 200.396 -14.8589C204.806 -14.8588 208.381 -11.2914 208.381 -6.89108ZM209.5 -6.89108C209.5 -11.9083 205.424 -15.9758 200.396 -15.9759C195.367 -15.9759 191.291 -11.9083 191.291 -6.89108C191.291 -1.87378 195.367 2.19373 200.396 2.19373C205.424 2.19366 209.5 -1.87381 209.5 -6.89108Z" fill="#DCD0B4"/>
<path d="M399.343 -6.86081C399.343 102.763 310.281 191.631 200.418 191.631C90.5544 191.631 1.49271 102.763 1.49254 -6.86081C1.49254 -116.485 90.5543 -205.353 200.418 -205.353C310.281 -205.353 399.343 -116.485 399.343 -6.86081ZM400.836 -6.86081C400.836 -117.307 311.105 -206.842 200.418 -206.842C89.73 -206.842 0 -117.307 0 -6.86081C0.000172361 103.586 89.7301 193.12 200.418 193.12C311.105 193.12 400.836 103.586 400.836 -6.86081Z" fill="#DCD0B4"/>
<path d="M121.064 190.607L126.734 273.802L195.313 226.362L195.936 227.142L134.423 283.45L214.274 307.489L214.053 308.461L131.68 295.476L162.67 372.893L161.771 373.326L120.565 300.823L79.3594 373.326L78.46 372.893L109.449 295.476L27.0781 308.461L26.8555 307.489L106.706 283.45L45.1943 227.142L45.8164 226.362L114.396 273.803L120.066 190.607H121.064ZM115.273 275.627L51.2832 231.359L108.68 283.901L34.1719 306.331L111.032 294.214L82.1162 366.449L120.565 298.8L159.016 366.454L130.099 294.214L206.959 306.331L132.45 283.901L189.847 231.359L125.856 275.627L120.565 197.997L115.273 275.627Z" fill="#DCD0B4"/>
<path d="M152.988 294.298L130.711 295.007L134.977 316.624L134.03 314.683L130.151 295.024L124.533 295.204L120.891 299.434L134.032 314.683L134.979 316.624L120.529 299.854L106.084 316.629L107.031 314.687L120.166 299.434L116.521 295.206L110.904 295.029L107.031 314.687L106.084 316.629L110.342 295.009L88.0625 294.309L90.1888 293.828L110.448 294.467L111.521 289.014L108.158 284.562L90.1888 293.828L88.0625 294.309L107.821 284.12L94.488 266.471L96.1939 267.814L108.319 283.862L113.302 281.293L114.727 275.919L96.1939 267.816L94.488 266.474L114.871 275.386L120.517 254.079V256.234L115.38 275.609L120.52 277.856L125.66 275.606L120.515 256.234V254.079L126.171 275.381L146.549 266.46L144.843 267.805L126.312 275.917L127.739 281.289L132.725 283.858L144.845 267.805L146.551 266.46L133.222 284.114L152.986 294.296L150.859 293.817L132.888 284.558L129.527 289.009L130.603 294.462L150.859 293.817L152.986 294.296L152.988 294.298ZM126.627 291.786L128.919 288.874L128.133 285.275L127.255 281.676L123.903 280.032L120.522 278.473L117.139 280.034L113.791 281.678L112.917 285.268L112.132 288.876L114.426 291.791L116.791 294.648L120.522 294.692L124.263 294.646L126.629 291.786H126.627ZM132.393 284.304L127.992 282.037L128.671 285.15L129.423 288.238L132.393 284.306V284.304ZM125.803 276.142L121.265 278.13L124.142 279.54L127.062 280.887L125.803 276.142ZM115.24 276.144L113.981 280.889L116.895 279.544L119.778 278.13L115.238 276.144H115.24ZM108.656 284.306L111.625 288.238L112.377 285.148L113.054 282.039L108.653 284.308L108.656 284.306ZM111.008 294.484L115.968 294.639L113.995 292.132L111.957 289.667L111.008 294.482V294.484ZM120.526 299.012L123.743 295.276L120.522 295.239L117.309 295.278L120.529 299.012H120.526ZM130.043 294.482L129.094 289.667L127.06 292.127L125.082 294.639L130.043 294.482Z" fill="#5374DF"/>
<path d="M121 26.8811L120 26.8811L120 26.3821L121 26.3821L121 26.8811ZM121 28.8792L120 28.8792L120 27.8801L121 27.8801L121 28.8792ZM121 30.8772L120 30.8772L120 29.8782L121 29.8782L121 30.8772ZM121 32.8752L120 32.8752L120 31.8762L121 31.8762L121 32.8752ZM121 34.8733L120 34.8733L120 33.8743L121 33.8743L121 34.8733ZM121 36.8704L120 36.8704L120 35.8713L121 35.8713L121 36.8704ZM121 38.8684L120 38.8684L120 37.8694L121 37.8694L121 38.8684ZM121 40.8665L120 40.8665L120 39.8674L121 39.8674L121 40.8665ZM121 42.8645L120 42.8645L120 41.8655L121 41.8655L121 42.8645ZM121 44.8616L120 44.8616L120 43.8625L121 43.8625L121 44.8616ZM121 46.8596L120 46.8596L120 45.8606L121 45.8606L121 46.8596ZM121 48.8577L120 48.8577L120 47.8586L121 47.8586L121 48.8577ZM121 50.8557L120 50.8557L120 49.8567L121 49.8567L121 50.8557ZM121 52.8528L120 52.8528L120 51.8547L121 51.8547L121 52.8528ZM121 54.8508L120 54.8508L120 53.8518L121 53.8518L121 54.8508ZM121 56.8489L120 56.8489L120 55.8499L121 55.8499L121 56.8489ZM121 58.8469L120 58.8469L120 57.8479L121 57.8479L121 58.8469ZM121 60.845L120 60.845L120 59.8459L121 59.8459L121 60.845ZM121 62.842L120 62.842L120 61.843L121 61.843L121 62.842ZM121 64.8401L120 64.8401L120 63.8411L121 63.8411L121 64.8401ZM121 66.8381L120 66.8381L120 65.8391L121 65.8391L121 66.8381ZM121 68.8362L120 68.8362L120 67.8372L121 67.8372L121 68.8362ZM121 70.8333L120 70.8333L120 69.8352L121 69.8352L121 70.8333ZM121 72.8313L120 72.8313L120 71.8323L121 71.8323L121 72.8313ZM121 74.8293L120 74.8293L120 73.8303L121 73.8303L121 74.8293ZM121 76.8274L120 76.8274L120 75.8284L121 75.8284L121 76.8274ZM121 78.8245L120 78.8245L120 77.8264L121 77.8264L121 78.8245ZM121 80.8225L120 80.8225L120 79.8235L121 79.8235L121 80.8225ZM121 82.8206L120 82.8206L120 81.8215L121 81.8215L121 82.8206ZM121 84.8186L120 84.8186L120 83.8196L121 83.8196L121 84.8186ZM121 86.8167L120 86.8167L120 85.8176L121 85.8176L121 86.8167ZM121 88.8137L120 88.8137L120 87.8147L121 87.8147L121 88.8137ZM121 90.8118L120 90.8118L120 89.8127L121 89.8127L121 90.8118ZM121 92.8098L120 92.8098L120 91.8108L121 91.8108L121 92.8098ZM121 94.8079L120 94.8079L120 93.8088L121 93.8088L121 94.8079ZM121 96.8049L120 96.8049L120 95.8069L121 95.8069L121 96.8049ZM121 98.803L120 98.803L120 97.804L121 97.804L121 98.803ZM121 100.801L120 100.801L120 99.802L121 99.802L121 100.801ZM121 102.799L120 102.799L120 101.8L121 101.8L121 102.799ZM121 104.796L120 104.796L120 103.798L121 103.798L121 104.796ZM121 106.794L120 106.794L120 105.795L121 105.795L121 106.794ZM121 108.792L120 108.792L120 107.793L121 107.793L121 108.792ZM121 110.79L120 110.79L120 109.791L121 109.791L121 110.79ZM121 112.788L120 112.788L120 111.789L121 111.789L121 112.788ZM121 114.785L120 114.785L120 113.786L121 113.786L121 114.785ZM121 116.783L120 116.783L120 115.784L121 115.784L121 116.783ZM121 118.781L120 118.781L120 117.782L121 117.782L121 118.781ZM121 120.78L120 120.78L120 119.781L121 119.781L121 120.78ZM121 122.777L120 122.777L120 121.779L121 121.779L121 122.777ZM121 124.775L120 124.775L120 123.776L121 123.776L121 124.775ZM121 126.773L120 126.773L120 125.774L121 125.774L121 126.773ZM121 128.771L120 128.771L120 127.772L121 127.772L121 128.771ZM121 130.768L120 130.768L120 129.77L121 129.77L121 130.768ZM121 132.766L120 132.766L120 131.767L121 131.767L121 132.766ZM121 134.764L120 134.764L120 133.765L121 133.765L121 134.764ZM121 136.762L120 136.762L120 135.763L121 135.763L121 136.762ZM121 138.76L120 138.76L120 137.761L121 137.761L121 138.76ZM121 140.757L120 140.757L120 139.758L121 139.758L121 140.757ZM121 142.755L120 142.755L120 141.756L121 141.756L121 142.755ZM121 144.753L120 144.753L120 143.754L121 143.754L121 144.753ZM121 146.751L120 146.751L120 145.752L121 145.752L121 146.751ZM121 148.748L120 148.748L120 147.749L121 147.749L121 148.748ZM121 150.746L120 150.746L120 149.747L121 149.747L121 150.746ZM121 152.744L120 152.744L120 151.745L121 151.745L121 152.744ZM121 154.742L120 154.742L120 153.743L121 153.743L121 154.742ZM121 156.74L120 156.74L120 155.741L121 155.741L121 156.74ZM121 158.738L120 158.738L120 157.739L121 157.739L121 158.738ZM121 160.736L120 160.736L120 159.737L121 159.737L121 160.736ZM121 162.734L120 162.734L120 161.735L121 161.735L121 162.734ZM121 164.732L120 164.732L120 163.733L121 163.733L121 164.732ZM121 166.729L120 166.729L120 165.73L121 165.73L121 166.729ZM121 168.727L120 168.727L120 167.728L121 167.728L121 168.727ZM121 170.725L120 170.725L120 169.726L121 169.726L121 170.725ZM121 172.723L120 172.723L120 171.724L121 171.724L121 172.723ZM121 174.72L120 174.72L120 173.722L121 173.722L121 174.72ZM121 176.718L120 176.718L120 175.719L121 175.719L121 176.718ZM121 178.716L120 178.716L120 177.717L121 177.717L121 178.716ZM121 180.714L120 180.714L120 179.715L121 179.715L121 180.714ZM121 182.712L120 182.712L120 181.713L121 181.713L121 182.712ZM121 184.709L120 184.709L120 183.71L121 183.71L121 184.709ZM121 186.707L120 186.707L120 185.708L121 185.708L121 186.707ZM121 188.705L120 188.705L120 187.706L121 187.706L121 188.705ZM121 190.203L120 190.203L120 189.704L121 189.704L121 190.203Z" fill="#DCD0B4"/>
<path d="M197.68 223.84C197.68 226.513 195.513 228.68 192.84 228.68C190.167 228.68 188 226.513 188 223.84C188 221.167 190.167 219 192.84 219C195.513 219 197.68 221.167 197.68 223.84Z" fill="#B62518"/>
<path d="M184.213 223.606C184.213 225.046 183.046 226.213 181.606 226.213C180.167 226.213 179 225.046 179 223.606C179 222.167 180.167 221 181.606 221C183.046 221 184.213 222.167 184.213 223.606Z" fill="#33811C"/>
<path d="M174.723 222.862C174.723 223.89 173.89 224.723 172.862 224.723C171.833 224.723 171 223.89 171 222.862C171 221.833 171.833 221 172.862 221C173.89 221 174.723 221.833 174.723 222.862Z" fill="#FFC72D"/>
<path d="M120.384 10.1977L122.26 20.9584C122.279 21.0686 122.407 21.1218 122.498 21.0574L131.451 14.7725C131.671 14.6191 131.938 14.8863 131.783 15.1041L125.485 24.0372C125.42 24.1288 125.474 24.2562 125.584 24.2748L136.368 26.147C136.632 26.1928 136.632 26.5715 136.368 26.6173L125.584 28.4895C125.474 28.5081 125.42 28.6355 125.485 28.7271L131.783 37.6602C131.937 37.8792 131.669 38.1465 131.451 37.9918L122.498 31.7068C122.407 31.6425 122.279 31.6957 122.26 31.8058L120.384 42.5666C120.338 42.8302 119.959 42.8302 119.913 42.5666L118.036 31.8058C118.018 31.6957 117.89 31.6425 117.798 31.7068L108.846 37.9918C108.626 38.1452 108.358 37.8779 108.513 37.6602L114.812 28.7271C114.877 28.6355 114.823 28.5081 114.713 28.4895L103.929 26.6173C103.664 26.5715 103.664 26.1928 103.929 26.147L114.713 24.2748C114.823 24.2562 114.877 24.1288 114.812 24.0372L108.512 15.1041C108.358 14.8851 108.626 14.6178 108.844 14.7725L117.797 21.0574C117.889 21.1218 118.017 21.0686 118.035 20.9584L119.913 10.1977C119.959 9.93411 120.338 9.93411 120.384 10.1977Z" fill="#F8F3E7"/>
<path d="M120.398 42.4815L120.384 42.5664C120.341 42.8134 120.005 42.8293 119.925 42.6133L119.913 42.5664L119.897 42.4815L120.147 42.5244L120.398 42.4815ZM119.913 10.1972C119.959 9.93426 120.338 9.93425 120.384 10.1972L122.261 20.958C122.277 21.0544 122.377 21.1078 122.463 21.0762L122.498 21.0576L122.759 20.873L123.246 20.792L123.245 20.7861V20.7871L123.246 20.792L122.759 20.873L131.451 14.7724C131.671 14.6192 131.938 14.8867 131.783 15.1045L125.484 24.0371C125.42 24.1287 125.474 24.2558 125.584 24.2744L136.368 26.1475C136.632 26.1933 136.632 26.5714 136.368 26.6172L125.584 28.4893L125.545 28.501C125.462 28.5391 125.428 28.6475 125.484 28.7275L131.783 37.6602C131.937 37.8791 131.669 38.1464 131.451 37.9922L122.498 31.707C122.406 31.6429 122.279 31.6958 122.261 31.8057L120.398 42.4815L120.147 42.5244L119.897 42.4815L118.036 31.8057C118.017 31.6957 117.89 31.6427 117.798 31.707L108.846 37.9922L108.804 38.0156C108.594 38.1115 108.368 37.8642 108.514 37.6602L114.813 28.7275C114.869 28.6472 114.835 28.5389 114.751 28.501L114.713 28.4893L104.013 26.6309L103.929 26.6172C103.681 26.5743 103.665 26.2388 103.882 26.1592L103.929 26.1475L114.713 24.2744C114.823 24.2558 114.877 24.1286 114.813 24.0371L108.562 15.1748L108.512 15.1045C108.358 14.8854 108.626 14.6178 108.845 14.7724L117.529 20.8691L117.797 21.0576C117.889 21.1219 118.017 21.0681 118.035 20.958L119.913 10.1972ZM119.021 21.124C118.888 21.9105 118.031 22.3088 117.355 21.957L117.223 21.876L111.853 18.1064L115.629 23.4609H115.63C116.118 24.1541 115.715 25.1157 114.883 25.2588L114.884 25.2598H114.881L114.879 25.2607L114.878 25.2598L108.42 26.3818L114.878 27.5029H114.881L114.884 27.5039H114.883C115.715 27.6468 116.118 28.6095 115.63 29.3027L115.629 29.3037L111.853 34.6592L117.225 30.8877C117.913 30.4054 118.877 30.7987 119.022 31.6338L120.147 38.0957L121.275 31.6338C121.42 30.7987 122.384 30.4054 123.072 30.8877L123.073 30.8887L128.442 34.6582L124.667 29.3037V29.3027C124.179 28.6091 124.582 27.6451 125.415 27.5029L131.876 26.3818L125.418 25.2598V25.2607C125.417 25.2606 125.416 25.2599 125.415 25.2598H125.413V25.2588C124.582 25.1152 124.179 24.1539 124.667 23.4609L128.442 18.1054L123.073 21.876H123.072C122.382 22.3597 121.416 21.9639 121.274 21.125V21.124L120.147 14.666L119.021 21.124Z" fill="#092686"/>
<path d="M120.257 19.0256L121.11 23.9169C121.119 23.967 121.177 23.9912 121.218 23.9619L125.288 21.1051C125.388 21.0354 125.509 21.1569 125.439 21.2558L122.576 25.3163C122.546 25.358 122.571 25.4159 122.621 25.4243L127.523 26.2754C127.643 26.2962 127.643 26.4683 127.523 26.4891L122.621 27.3401C122.571 27.3485 122.546 27.4065 122.576 27.4481L125.439 31.5086C125.509 31.6081 125.387 31.7296 125.288 31.6593L121.218 28.8025C121.177 28.7733 121.119 28.7975 121.11 28.8475L120.257 33.7388C120.236 33.8586 120.064 33.8586 120.043 33.7388L119.19 28.8475C119.182 28.7975 119.124 28.7733 119.082 28.8025L115.013 31.6593C114.913 31.7291 114.791 31.6076 114.862 31.5086L117.725 27.4481C117.754 27.4065 117.73 27.3485 117.679 27.3401L112.778 26.4891C112.657 26.4683 112.657 26.2962 112.778 26.2754L117.679 25.4243C117.73 25.4159 117.754 25.358 117.725 25.3163L114.861 21.2558C114.791 21.1563 114.913 21.0348 115.012 21.1051L119.081 23.9619C119.123 23.9912 119.181 23.967 119.19 23.9169L120.043 19.0256C120.064 18.9058 120.236 18.9058 120.257 19.0256Z" fill="#092686"/>
<path d="M179.056 71.0719L179.738 74.9849C179.745 75.0249 179.791 75.0443 179.825 75.0209L183.08 72.7355C183.16 72.6797 183.257 72.7768 183.201 72.856L180.911 76.1044C180.887 76.1377 180.907 76.1841 180.947 76.1908L184.868 76.8716C184.964 76.8883 184.964 77.026 184.868 77.0426L180.947 77.7235C180.907 77.7302 180.887 77.7766 180.911 77.8099L183.201 81.0582C183.257 81.1379 183.16 81.2351 183.08 81.1788L179.825 78.8934C179.791 78.87 179.745 78.8893 179.738 78.9294L179.056 82.8424C179.039 82.9382 178.901 82.9382 178.884 82.8424L178.202 78.9294C178.195 78.8893 178.149 78.87 178.116 78.8934L174.86 81.1788C174.78 81.2346 174.683 81.1374 174.739 81.0582L177.03 77.8099C177.053 77.7766 177.034 77.7302 176.994 77.7235L173.072 77.0426C172.976 77.026 172.976 76.8883 173.072 76.8716L176.994 76.1908C177.034 76.1841 177.053 76.1377 177.03 76.1044L174.739 72.856C174.683 72.7764 174.78 72.6792 174.86 72.7355L178.115 75.0209C178.148 75.0443 178.195 75.0249 178.202 74.9849L178.884 71.0719C178.901 70.976 179.039 70.976 179.056 71.0719Z" fill="#092686"/>
</g>
<defs>
<clipPath id="clip0_4122_5175">
<rect width="200" height="377" fill="white"/>
</clipPath>
</defs>
</svg>
