<svg width="400" height="190" viewBox="0 0 400 190" fill="none" xmlns="http://www.w3.org/2000/svg">
<g clip-path="url(#clip0_4122_3822)">
<path d="M367.183 304.419C367.183 397.121 292.033 472.27 199.331 472.27C106.629 472.27 31.4796 397.121 31.4794 304.419C31.4794 211.717 106.629 136.567 199.331 136.567C292.033 136.567 367.183 211.717 367.183 304.419ZM349.378 292.878C349.378 375.742 282.203 442.918 199.339 442.918C116.474 442.918 49.2985 375.742 49.2985 292.878C49.2985 210.013 116.474 142.838 199.339 142.838C282.203 142.838 349.378 210.013 349.378 292.878ZM333.208 283.576C333.208 357.514 273.269 417.453 199.331 417.453C125.393 417.453 65.4547 357.514 65.4547 283.576C65.4547 209.638 125.393 149.699 199.331 149.699C273.269 149.699 333.208 209.638 333.208 283.576ZM320.839 276.549C320.839 343.656 266.438 398.057 199.331 398.057C132.224 398.057 77.8235 343.656 77.8234 276.549C77.8234 209.442 132.224 155.041 199.331 155.041C266.438 155.041 320.839 209.442 320.839 276.549ZM308.067 269.897C308.067 329.954 259.381 378.639 199.324 378.639C139.267 378.639 90.581 329.954 90.5809 269.897C90.5809 209.84 139.267 161.154 199.324 161.154C259.381 161.154 308.067 209.84 308.067 269.897ZM297.001 264.95C297.001 318.892 253.272 362.62 199.331 362.62C145.389 362.62 101.662 318.892 101.662 264.95C101.662 211.009 145.389 167.28 199.331 167.28C253.272 167.28 297.001 211.009 297.001 264.95ZM286.756 260.515C286.756 308.795 247.618 347.933 199.339 347.933C151.059 347.933 111.921 308.795 111.921 260.515C111.921 212.236 151.059 173.098 199.339 173.098C247.618 173.098 286.756 212.236 286.756 260.515ZM276.993 256.462C276.993 299.354 242.223 334.124 199.331 334.124C156.439 334.124 121.669 299.354 121.669 256.462C121.669 213.57 156.439 178.8 199.331 178.8C242.223 178.8 276.993 213.57 276.993 256.462ZM268.606 253.482C268.606 291.745 237.587 322.763 199.324 322.763C161.061 322.763 130.042 291.745 130.042 253.482C130.042 215.218 161.061 184.199 199.324 184.199C237.587 184.199 268.606 215.218 268.606 253.482ZM260.614 250.925C260.614 284.771 233.177 312.208 199.331 312.208C165.485 312.208 138.048 284.771 138.048 250.925C138.048 217.08 165.485 189.643 199.331 189.643C233.176 189.643 260.614 217.08 260.614 250.925ZM252.479 248.5C252.478 277.852 228.683 301.647 199.331 301.647C169.979 301.646 146.184 277.852 146.184 248.5C146.184 219.147 169.978 195.352 199.331 195.352C228.683 195.352 252.479 219.147 252.479 248.5ZM245.632 246.7C245.632 272.271 224.902 293 199.331 293C173.76 293 153.031 272.271 153.03 246.7C153.03 221.129 173.76 200.399 199.331 200.399C224.902 200.399 245.632 221.128 245.632 246.7ZM238.389 245.216C238.389 266.787 220.902 284.274 199.331 284.274C177.76 284.274 160.273 266.787 160.273 245.216C160.273 223.645 177.76 206.158 199.331 206.158C220.902 206.158 238.389 223.645 238.389 245.216ZM231.398 243.985C231.398 261.695 217.041 276.052 199.331 276.052C181.621 276.052 167.264 261.695 167.264 243.985C167.264 226.275 181.621 211.918 199.331 211.918C217.041 211.918 231.398 226.275 231.398 243.985ZM224.652 242.999C224.652 256.983 213.315 268.32 199.331 268.32C185.347 268.319 174.01 256.983 174.01 242.999C174.01 229.014 185.347 217.678 199.331 217.678C213.315 217.678 224.652 229.014 224.652 242.999ZM218.136 242.243C218.136 252.629 209.717 261.048 199.331 261.048C188.945 261.048 180.525 252.629 180.525 242.243C180.525 231.857 188.945 223.437 199.331 223.437C209.717 223.437 218.136 231.857 218.136 242.243ZM211.643 241.501C211.643 248.3 206.13 253.813 199.331 253.813C192.532 253.813 187.02 248.3 187.02 241.501C187.02 234.702 192.532 229.19 199.331 229.19C206.13 229.19 211.643 234.702 211.643 241.501ZM204.954 241.501C204.954 244.606 202.436 247.124 199.331 247.124C196.226 247.124 193.708 244.606 193.708 241.501C193.708 238.396 196.226 235.879 199.331 235.878C202.436 235.878 204.954 238.396 204.954 241.501ZM205.674 241.501C205.674 237.998 202.834 235.158 199.331 235.158C195.828 235.159 192.988 237.998 192.988 241.501C192.988 245.004 195.828 247.844 199.331 247.844C202.834 247.844 205.674 245.004 205.674 241.501ZM212.363 241.501C212.362 234.304 206.528 228.47 199.331 228.47C192.134 228.47 186.3 234.304 186.3 241.501C186.3 248.698 192.134 254.533 199.331 254.533C206.528 254.533 212.363 248.698 212.363 241.501ZM218.856 242.243C218.856 231.459 210.114 222.717 199.331 222.717C188.547 222.717 179.805 231.459 179.805 242.243C179.805 253.026 188.547 261.768 199.331 261.768C210.114 261.768 218.856 253.026 218.856 242.243ZM225.372 242.999C225.372 228.617 213.713 216.958 199.331 216.958C184.949 216.958 173.29 228.617 173.29 242.999C173.29 257.381 184.949 269.039 199.331 269.04C213.713 269.04 225.372 257.381 225.372 242.999ZM232.118 243.985C232.118 225.877 217.439 211.198 199.331 211.198C181.223 211.198 166.544 225.877 166.544 243.985C166.544 262.093 181.223 276.772 199.331 276.772C217.439 276.772 232.118 262.093 232.118 243.985ZM239.109 245.216C239.109 223.247 221.3 205.438 199.331 205.438C177.362 205.438 159.553 223.248 159.553 245.216C159.553 267.185 177.362 284.994 199.331 284.994C221.3 284.994 239.109 267.185 239.109 245.216ZM246.352 246.7C246.352 220.731 225.3 199.679 199.331 199.679C173.362 199.679 152.311 220.731 152.311 246.7C152.311 272.668 173.362 293.72 199.331 293.72C225.3 293.72 246.352 272.668 246.352 246.7ZM253.199 248.5C253.199 218.749 229.081 194.632 199.331 194.632C169.581 194.632 145.464 218.749 145.464 248.5C145.464 278.249 169.581 302.366 199.331 302.367C229.081 302.367 253.198 278.25 253.199 248.5ZM261.334 250.925C261.334 216.682 233.574 188.923 199.331 188.923C165.088 188.923 137.328 216.682 137.328 250.925C137.328 285.168 165.088 312.928 199.331 312.928C233.574 312.928 261.334 285.169 261.334 250.925ZM269.326 253.482C269.326 214.821 237.985 183.479 199.324 183.479C160.663 183.479 129.322 214.821 129.322 253.482C129.323 292.142 160.663 323.483 199.324 323.483C237.985 323.483 269.326 292.142 269.326 253.482ZM277.713 256.462C277.713 213.173 242.62 178.08 199.331 178.08C156.042 178.08 120.949 213.173 120.949 256.462C120.949 299.751 156.042 334.844 199.331 334.844C242.62 334.844 277.713 299.751 277.713 256.462ZM287.476 260.515C287.476 211.838 248.016 172.378 199.339 172.378C150.662 172.378 111.201 211.838 111.201 260.515C111.201 309.192 150.662 348.653 199.339 348.653C248.016 348.653 287.476 309.192 287.476 260.515ZM297.721 264.95C297.721 210.611 253.67 166.56 199.331 166.56C144.992 166.561 100.942 210.611 100.942 264.95C100.942 319.289 144.992 363.34 199.331 363.34C253.67 363.34 297.721 319.29 297.721 264.95ZM308.787 269.897C308.787 209.442 259.779 160.434 199.324 160.434C138.869 160.434 89.8609 209.442 89.8609 269.897C89.861 330.351 138.869 379.359 199.324 379.359C259.778 379.359 308.787 330.351 308.787 269.897ZM321.559 276.549C321.559 209.045 266.835 154.321 199.331 154.321C131.826 154.321 77.1034 209.045 77.1034 276.549C77.1036 344.053 131.827 398.776 199.331 398.777C266.835 398.777 321.559 344.054 321.559 276.549ZM333.928 283.576C333.928 209.24 273.667 148.979 199.331 148.979C124.995 148.979 64.7347 209.24 64.7347 283.576C64.7348 357.911 124.995 418.173 199.331 418.173C273.667 418.173 333.928 357.911 333.928 283.576ZM350.098 292.878C350.098 209.615 282.601 142.118 199.339 142.118C116.076 142.118 48.5785 209.615 48.5785 292.878C48.5785 376.14 116.076 443.638 199.339 443.638C282.601 443.638 350.098 376.14 350.098 292.878ZM367.903 304.419C367.903 211.319 292.43 135.847 199.331 135.847C106.231 135.847 30.7595 211.319 30.7595 304.419C30.7596 397.518 106.232 472.99 199.331 472.99C292.43 472.99 367.903 397.518 367.903 304.419Z" fill="#1C4AC7"/>
<path d="M199.756 398.417V0.933563H199.036V398.417H199.756Z" fill="#1C4AC7"/>
<path d="M214.307 111.648C224.029 84.6178 245.211 43.8489 264.967 11.7635L264.661 11.5744L264.354 11.386C244.585 43.4921 223.375 84.3088 213.629 111.405L214.307 111.648ZM184.976 111.426C175.194 84.3443 153.934 43.5563 134.121 11.4717L133.815 11.6609L133.509 11.85C153.309 43.9139 174.541 84.6547 184.299 111.671L184.976 111.426ZM228.354 115.396C252.98 88.0669 294.711 58.1906 323.359 45.6776L323.071 45.0181C294.324 57.5741 252.51 87.5121 227.819 114.914L228.087 115.155L228.354 115.396ZM170.8 114.95C146.066 87.5768 104.223 57.6962 75.4545 45.1763L75.1676 45.8365C103.838 58.3136 145.597 88.1317 170.266 115.432L170.8 114.95ZM241.647 121.79C256.777 112.376 279.735 105.378 303.012 101.167C326.285 96.956 349.828 95.5394 366.108 97.2553L366.146 96.8968L366.184 96.5389C349.814 94.8135 326.199 96.2404 302.884 100.459C279.573 104.676 256.511 111.693 241.266 121.178L241.456 121.484L241.647 121.79ZM157.354 121.236C142.098 111.769 119.028 104.78 95.7125 100.592C72.3929 96.4037 48.7763 95.0077 32.4066 96.7548L32.4825 97.4712C48.7628 95.7337 72.3074 97.1199 95.5852 101.301C118.867 105.483 141.833 112.451 156.974 121.847L157.354 121.236ZM389.155 158.802C370.091 146.054 317.116 121.019 252.757 129.126L252.847 129.84C316.987 121.761 369.79 146.72 388.754 159.401L389.155 158.802ZM9.90849 159.638C28.8585 146.928 81.6251 121.905 145.779 129.905L145.824 129.547L145.869 129.19C81.4955 121.163 28.5572 146.264 9.50773 159.04L9.90849 159.638ZM389.437 224.776L389.742 224.585C365.777 186.5 318.823 146.809 263.875 140.284L263.833 140.642L263.79 140.999C318.464 147.492 365.248 187.011 389.132 224.968L389.437 224.776ZM9.61741 225.212C33.4511 187.219 80.1856 147.649 134.852 141.078L134.808 140.721L134.765 140.364C79.8252 146.968 32.9212 186.709 9.00713 224.83L9.61741 225.212ZM97.3324 356.94C149.317 320.565 186.578 264.105 199.388 242.126C212.231 264.095 249.561 320.496 301.59 356.803L301.796 356.508L302.002 356.213C250.937 320.579 214.038 265.509 200.648 242.851L200.692 242.827C200.669 242.784 200.645 242.741 200.621 242.698C223.948 257.445 286.078 282.206 363.1 265.093L362.944 264.39C287.504 281.152 226.41 257.617 202.283 242.881L202.391 242.672C201.656 242.291 200.9 241.884 200.124 241.456C200.137 241.448 200.149 241.441 200.162 241.433C240.261 242.339 292.732 225.041 326.327 193.44L325.834 192.915C292.719 224.064 241.139 241.272 201.37 240.735C223.811 227.595 259.921 196.992 281.872 157.715L281.244 157.364C259.05 197.074 222.32 227.897 200.065 240.658C205.716 230.046 214.027 213.42 221.652 195.76C229.905 176.644 237.369 156.286 239.774 141.029L239.419 140.973L239.063 140.917C236.674 156.078 229.242 176.366 220.991 195.474C213.356 213.16 205.03 229.809 199.387 240.402C193.729 229.816 185.383 213.18 177.725 195.505C169.45 176.407 161.993 156.128 159.585 140.967L159.23 141.023L158.874 141.08C161.297 156.337 168.787 176.686 177.064 195.791C184.711 213.44 193.043 230.054 198.708 240.659C176.437 227.924 139.662 197.151 117.419 157.464L116.791 157.816C138.792 197.07 174.948 227.624 197.405 240.738C157.635 241.333 106.03 224.188 72.872 193.08L72.3792 193.606C106.018 225.164 158.513 242.398 198.612 241.434C198.626 241.442 198.639 241.449 198.653 241.456C197.875 241.888 197.117 242.296 196.379 242.679L196.489 242.891C172.377 257.658 111.314 281.261 35.8629 264.598L35.7849 264.95L35.7076 265.302C112.746 282.314 174.845 257.479 198.154 242.701C198.131 242.743 198.109 242.786 198.086 242.827L198.128 242.851C184.772 265.52 147.942 320.648 96.9197 356.349L97.1257 356.644L97.3324 356.94Z" fill="#1C4AC7"/>
<path d="M281.846 193.314C281.846 238.886 244.903 275.829 199.331 275.829C153.76 275.829 116.816 238.886 116.816 193.314C116.817 147.742 153.76 110.8 199.331 110.8C244.903 110.8 281.845 147.743 281.846 193.314ZM283.286 193.314C283.285 146.947 245.698 109.36 199.331 109.36C152.965 109.36 115.377 146.947 115.376 193.314C115.376 239.681 152.964 277.269 199.331 277.269C245.698 277.269 283.286 239.681 283.286 193.314Z" fill="#1C4AC7"/>
<path d="M325.36 193.343C325.36 262.935 268.944 319.351 199.352 319.351C129.76 319.35 73.3451 262.935 73.3451 193.343C73.3453 123.751 129.761 67.3356 199.352 67.3354C268.944 67.3354 325.36 123.751 325.36 193.343ZM326.8 193.343C326.8 122.956 269.74 65.8955 199.352 65.8955C128.965 65.8957 71.9054 122.956 71.9052 193.343C71.9052 263.73 128.965 320.79 199.352 320.79C269.74 320.79 326.8 263.73 326.8 193.343Z" fill="#1C4AC7"/>
<path d="M207.035 193.314C207.035 197.569 203.586 201.018 199.331 201.018C195.077 201.018 191.628 197.569 191.628 193.314C191.628 189.06 195.077 185.61 199.331 185.61C203.586 185.61 207.035 189.06 207.035 193.314ZM208.115 193.314C208.115 188.463 204.182 184.53 199.331 184.53C194.48 184.53 190.548 188.463 190.548 193.314C190.548 198.165 194.48 202.098 199.331 202.098C204.182 202.098 208.115 198.165 208.115 193.314Z" fill="#1C4AC7"/>
<path d="M391.266 193.343C391.265 299.334 305.343 385.256 199.352 385.256C93.3621 385.256 7.44009 299.334 7.43992 193.343C7.43992 87.3529 93.362 1.43033 199.352 1.43015C305.343 1.43015 391.266 87.3528 391.266 193.343ZM392.706 193.343C392.706 86.5576 306.138 -0.00976562 199.352 -0.00976562C92.5668 -0.00961304 6 86.5577 6 193.343C6.00017 300.129 92.5669 386.696 199.352 386.696C306.138 386.696 392.705 300.129 392.706 193.343Z" fill="#1C4AC7"/>
</g>
<defs>
<clipPath id="clip0_4122_3822">
<rect width="400" height="190" fill="white"/>
</clipPath>
</defs>
</svg>
