<svg width="1280" height="220" viewBox="0 0 1280 220" fill="none" xmlns="http://www.w3.org/2000/svg">
<g clip-path="url(#clip0_4121_3088)">
<path d="M443.117 269.9C443.117 184.161 373.611 114.656 287.872 114.656C202.133 114.656 132.628 184.161 132.628 269.9C132.628 355.639 202.133 425.145 287.872 425.145C373.611 425.145 443.117 355.639 443.117 269.9ZM426.649 280.575C426.649 203.934 364.52 141.804 287.879 141.804C211.239 141.804 149.109 203.934 149.109 280.575C149.109 357.215 211.239 419.345 287.879 419.345C364.52 419.345 426.649 357.215 426.649 280.575ZM411.694 289.178C411.694 220.793 356.257 165.356 287.872 165.356C219.488 165.356 164.052 220.793 164.052 289.178C164.052 357.562 219.488 412.999 287.872 412.999C356.257 412.999 411.694 357.562 411.694 289.178ZM400.254 295.677C400.254 233.61 349.939 183.296 287.872 183.296C225.806 183.296 175.491 233.61 175.491 295.677C175.491 357.743 225.806 408.058 287.872 408.058C349.939 408.058 400.254 357.743 400.254 295.677ZM388.441 301.83C388.441 246.283 343.412 201.254 287.866 201.254C232.32 201.254 187.291 246.283 187.291 301.83C187.291 357.376 232.32 402.405 287.866 402.405C343.412 402.405 388.441 357.376 388.441 301.83ZM378.206 306.404C378.206 256.514 337.762 216.07 287.872 216.07C237.982 216.07 197.539 256.514 197.539 306.404C197.539 356.294 237.982 396.738 287.872 396.738C337.762 396.738 378.206 356.294 378.206 306.404ZM368.731 310.506C368.731 265.853 332.532 229.655 287.879 229.655C243.226 229.655 207.028 265.853 207.028 310.506C207.028 355.159 243.226 391.358 287.879 391.358C332.532 391.358 368.731 355.159 368.731 310.506ZM359.701 314.255C359.701 274.585 327.542 242.426 287.872 242.426C248.202 242.426 216.043 274.585 216.043 314.255C216.043 353.925 248.202 386.084 287.872 386.084C327.542 386.084 359.701 353.925 359.701 314.255ZM351.944 317.012C351.944 281.622 323.255 252.934 287.866 252.934C252.477 252.934 223.788 281.622 223.788 317.012C223.788 352.401 252.476 381.09 287.866 381.09C323.255 381.09 351.944 352.401 351.944 317.012ZM344.552 319.376C344.552 288.072 319.176 262.696 287.872 262.696C256.569 262.696 231.192 288.072 231.192 319.376C231.192 350.679 256.569 376.055 287.872 376.056C319.176 376.056 344.552 350.679 344.552 319.376ZM337.028 321.619C337.028 294.472 315.02 272.464 287.872 272.464C260.725 272.464 238.717 294.472 238.717 321.619C238.717 348.767 260.724 370.775 287.872 370.775C315.02 370.775 337.028 348.767 337.028 321.619ZM330.696 323.284C330.695 299.634 311.523 280.461 287.872 280.461C264.222 280.462 245.05 299.634 245.049 323.284C245.049 346.935 264.222 366.107 287.872 366.108C311.523 366.108 330.696 346.935 330.696 323.284ZM323.996 324.656C323.996 304.705 307.823 288.532 287.872 288.532C267.921 288.532 251.748 304.705 251.748 324.656C251.748 344.607 267.922 360.78 287.872 360.78C307.823 360.78 323.996 344.607 323.996 324.656ZM317.531 325.795C317.531 309.415 304.252 296.136 287.872 296.136C271.492 296.136 258.214 309.415 258.214 325.795C258.214 342.175 271.492 355.453 287.872 355.453C304.252 355.453 317.531 342.175 317.531 325.795ZM311.291 326.707C311.291 313.773 300.806 303.288 287.872 303.288C274.938 303.288 264.453 313.773 264.453 326.707C264.453 339.641 274.938 350.126 287.872 350.126C300.806 350.126 311.291 339.641 311.291 326.707ZM305.265 327.406C305.265 317.8 297.478 310.013 287.872 310.013C278.267 310.013 270.479 317.8 270.479 327.406C270.479 337.012 278.267 344.799 287.872 344.799C297.478 344.799 305.265 337.012 305.265 327.406ZM299.259 328.092C299.259 321.804 294.161 316.705 287.872 316.705C281.584 316.705 276.486 321.804 276.486 328.092C276.486 334.381 281.584 339.479 287.872 339.479C294.161 339.479 299.259 334.381 299.259 328.092ZM293.073 328.092C293.073 325.22 290.744 322.891 287.872 322.891C285 322.891 282.672 325.22 282.672 328.092C282.672 330.964 285 333.292 287.872 333.293C290.744 333.293 293.073 330.964 293.073 328.092ZM293.739 328.092C293.739 331.332 291.112 333.958 287.872 333.958C284.632 333.958 282.006 331.332 282.006 328.092C282.006 324.852 284.632 322.226 287.872 322.225C291.112 322.225 293.739 324.852 293.739 328.092ZM299.925 328.092C299.925 334.749 294.529 340.145 287.872 340.145C281.216 340.144 275.82 334.749 275.82 328.092C275.82 321.436 281.216 316.04 287.872 316.039C294.529 316.039 299.925 321.436 299.925 328.092ZM305.931 327.406C305.931 337.38 297.846 345.465 287.872 345.465C277.899 345.465 269.813 337.38 269.813 327.406C269.813 317.433 277.899 309.348 287.872 309.347C297.846 309.347 305.931 317.433 305.931 327.406ZM311.957 326.707C311.957 340.009 301.174 350.792 287.872 350.792C274.571 350.792 263.787 340.009 263.787 326.707C263.787 313.405 274.571 302.622 287.872 302.622C301.174 302.622 311.957 313.405 311.957 326.707ZM318.197 325.795C318.197 342.543 304.62 356.119 287.872 356.119C271.125 356.119 257.548 342.542 257.548 325.795C257.548 309.047 271.125 295.471 287.872 295.47C304.62 295.47 318.197 309.047 318.197 325.795ZM324.662 324.656C324.662 344.975 308.191 361.446 287.872 361.446C267.554 361.446 251.082 344.975 251.082 324.656C251.082 304.338 267.554 287.866 287.872 287.866C308.191 287.866 324.662 304.338 324.662 324.656ZM331.362 323.284C331.362 347.302 311.891 366.773 287.872 366.773C263.854 366.773 244.384 347.302 244.384 323.284C244.384 299.266 263.854 279.796 287.872 279.796C311.89 279.796 331.361 299.266 331.362 323.284ZM337.694 321.619C337.694 349.135 315.388 371.441 287.872 371.441C260.357 371.441 238.051 349.135 238.051 321.619C238.051 294.104 260.357 271.799 287.872 271.798C315.388 271.798 337.694 294.104 337.694 321.619ZM345.218 319.376C345.218 351.047 319.543 376.721 287.872 376.721C256.201 376.721 230.526 351.047 230.526 319.376C230.526 287.705 256.201 262.03 287.872 262.03C319.544 262.03 345.218 287.705 345.218 319.376ZM352.61 317.012C352.61 352.769 323.623 381.756 287.866 381.756C252.109 381.756 223.122 352.769 223.122 317.012C223.122 281.255 252.109 252.268 287.866 252.268C323.623 252.268 352.61 281.255 352.61 317.012ZM360.367 314.255C360.367 354.293 327.91 386.75 287.872 386.75C247.835 386.75 215.377 354.293 215.377 314.255C215.377 274.217 247.835 241.76 287.872 241.76C327.91 241.76 360.367 274.217 360.367 314.255ZM369.397 310.506C369.397 355.527 332.9 392.024 287.879 392.024C242.859 392.024 206.362 355.527 206.362 310.506C206.362 265.485 242.858 228.989 287.879 228.989C332.9 228.989 369.397 265.485 369.397 310.506ZM378.872 306.404C378.872 356.662 338.13 397.404 287.872 397.404C237.615 397.404 196.873 356.662 196.873 306.404C196.873 256.147 237.615 215.404 287.872 215.404C338.13 215.404 378.872 256.146 378.872 306.404ZM389.107 301.83C389.107 357.743 343.78 403.071 287.866 403.071C231.952 403.071 186.625 357.743 186.625 301.83C186.625 245.916 231.952 200.588 287.866 200.588C343.78 200.588 389.107 245.916 389.107 301.83ZM400.92 295.677C400.92 358.111 350.307 408.724 287.872 408.724C225.438 408.724 174.825 358.111 174.825 295.677C174.825 233.243 225.438 182.63 287.872 182.63C350.306 182.63 400.92 233.242 400.92 295.677ZM412.359 289.178C412.359 357.93 356.625 413.665 287.872 413.665C219.12 413.665 163.386 357.93 163.386 289.178C163.386 220.425 219.12 164.691 287.872 164.69C356.625 164.69 412.359 220.425 412.359 289.178ZM427.315 280.575C427.315 357.583 364.888 420.011 287.879 420.011C210.871 420.011 148.443 357.583 148.443 280.575C148.443 203.566 210.871 141.138 287.879 141.138C364.888 141.138 427.315 203.566 427.315 280.575ZM443.783 269.9C443.783 356.007 373.979 425.811 287.872 425.811C201.766 425.811 131.962 356.007 131.962 269.9C131.962 183.794 201.766 113.99 287.872 113.99C373.979 113.99 443.783 183.793 443.783 269.9Z" fill="#DCD0B4"/>
<path d="M288.265 182.963V550.591H287.599V182.963H288.265Z" fill="#DCD0B4"/>
<path d="M301.724 448.192C310.715 473.192 330.306 510.899 348.579 540.574L348.295 540.749L348.012 540.923C329.727 511.229 310.11 473.478 301.097 448.417L301.724 448.192ZM274.595 448.397C265.548 473.445 245.885 511.169 227.561 540.844L227.277 540.669L226.994 540.494C245.307 510.839 264.944 473.158 273.969 448.171L274.595 448.397ZM314.715 444.725C337.492 470.002 376.088 497.634 402.585 509.207L402.318 509.817C375.731 498.204 337.057 470.515 314.221 445.171L314.468 444.948L314.715 444.725ZM261.484 445.138C238.608 470.455 199.908 498.091 173.3 509.671L173.035 509.06C199.551 497.52 238.174 469.942 260.99 444.692L261.484 445.138ZM327.01 438.812C341.004 447.519 362.237 453.991 383.766 457.886C405.291 461.781 427.066 463.091 442.123 461.504L442.158 461.835L442.193 462.166C427.052 463.762 405.211 462.442 383.648 458.541C362.087 454.64 340.757 448.15 326.658 439.378L326.833 439.095L327.01 438.812ZM249.048 439.325C234.938 448.08 213.601 454.544 192.037 458.417C170.469 462.291 148.626 463.582 133.486 461.967L133.556 461.304C148.613 462.911 170.39 461.629 191.919 457.762C213.452 453.894 234.693 447.449 248.697 438.759L249.048 439.325ZM463.439 404.58C445.807 416.37 396.811 439.525 337.286 432.027L337.369 431.367C396.692 438.838 445.528 415.754 463.068 404.026L463.439 404.58ZM112.677 403.806C130.204 415.562 179.007 438.705 238.343 431.307L238.385 431.637L238.426 431.967C178.888 439.391 129.925 416.176 112.307 404.359L112.677 403.806ZM463.699 343.561L463.982 343.738C441.817 378.962 398.389 415.672 347.569 421.707L347.529 421.376L347.49 421.045C398.057 415.041 441.328 378.489 463.418 343.383L463.699 343.561ZM112.408 343.158C134.452 378.297 177.676 414.895 228.236 420.973L228.196 421.303L228.156 421.633C177.343 415.525 133.962 378.769 111.844 343.511L112.408 343.158ZM193.535 221.324C241.615 254.967 276.077 307.186 287.925 327.514C299.803 307.195 334.33 255.031 382.451 221.451L382.642 221.723L382.832 221.997C335.602 254.954 301.475 305.887 289.091 326.844L289.131 326.866C289.109 326.906 289.088 326.945 289.066 326.985C310.641 313.346 368.104 290.445 439.341 306.273L439.196 306.922C369.423 291.42 312.917 313.187 290.603 326.815L290.703 327.009C290.022 327.362 289.323 327.738 288.606 328.134C288.618 328.141 288.629 328.148 288.641 328.155C325.728 327.317 374.258 343.316 405.33 372.544L404.873 373.029C374.246 344.22 326.54 328.304 289.758 328.801C310.514 340.954 343.912 369.258 364.214 405.585L363.633 405.91C343.106 369.182 309.134 340.674 288.552 328.872C293.777 338.687 301.465 354.064 308.517 370.398C316.15 388.078 323.054 406.907 325.278 421.018L324.949 421.069L324.621 421.121C322.41 407.099 315.536 388.335 307.906 370.662C300.844 354.305 293.143 338.906 287.924 329.108C282.691 338.899 274.972 354.287 267.889 370.634C260.236 388.298 253.339 407.053 251.112 421.075L250.783 421.023L250.454 420.971C252.696 406.859 259.622 388.039 267.278 370.369C274.35 354.045 282.057 338.679 287.296 328.871C266.698 340.65 232.685 369.111 212.113 405.817L211.532 405.492C231.88 369.186 265.321 340.927 286.091 328.798C249.308 328.248 201.579 344.105 170.912 372.876L170.456 372.39C201.568 343.202 250.12 327.263 287.207 328.154C287.22 328.147 287.233 328.141 287.245 328.134C286.526 327.735 285.824 327.357 285.142 327.003L285.244 326.807C262.943 313.149 206.467 291.319 136.682 306.73L136.61 306.405L136.539 306.079C207.791 290.344 265.225 313.314 286.783 326.982C286.762 326.943 286.742 326.904 286.721 326.866L286.76 326.844C274.407 305.878 240.343 254.89 193.153 221.87L193.344 221.597L193.535 221.324Z" fill="#DCD0B4"/>
<path d="M364.189 372.66C364.189 330.511 330.021 296.343 287.873 296.343C245.724 296.343 211.555 330.511 211.555 372.66C211.556 414.809 245.724 448.977 287.873 448.977C330.021 448.976 364.189 414.809 364.189 372.66ZM365.521 372.66C365.521 415.544 330.757 450.308 287.873 450.308C244.989 450.308 210.224 415.544 210.224 372.66C210.224 329.776 244.988 295.011 287.873 295.011C330.757 295.011 365.521 329.776 365.521 372.66Z" fill="#DCD0B4"/>
<path d="M404.436 372.633C404.436 308.268 352.257 256.09 287.892 256.09C223.527 256.09 171.349 308.269 171.349 372.633C171.35 436.998 223.527 489.176 287.892 489.176C352.257 489.176 404.435 436.998 404.436 372.633ZM405.767 372.633C405.767 437.734 352.993 490.508 287.892 490.508C222.792 490.508 170.018 437.734 170.018 372.633C170.018 307.533 222.792 254.758 287.892 254.758C352.993 254.758 405.767 307.533 405.767 372.633Z" fill="#DCD0B4"/>
<path d="M294.998 372.66C294.998 368.725 291.808 365.535 287.873 365.535C283.938 365.535 280.748 368.725 280.748 372.66C280.748 376.595 283.938 379.785 287.873 379.785C291.808 379.785 294.998 376.595 294.998 372.66ZM295.997 372.66C295.996 377.146 292.359 380.784 287.873 380.784C283.386 380.784 279.749 377.146 279.749 372.66C279.749 368.173 283.386 364.536 287.873 364.536C292.359 364.536 295.997 368.173 295.997 372.66Z" fill="#DCD0B4"/>
<path d="M465.391 372.633C465.391 274.603 385.922 195.135 287.892 195.135C189.863 195.135 110.394 274.604 110.394 372.633C110.394 470.662 189.863 550.131 287.892 550.131C385.922 550.131 465.391 470.662 465.391 372.633ZM466.723 372.633C466.723 471.398 386.657 551.463 287.892 551.463C189.127 551.463 109.062 471.398 109.062 372.633C109.063 273.868 189.127 193.803 287.892 193.803C386.657 193.803 466.722 273.868 466.723 372.633Z" fill="#DCD0B4"/>
<path d="M1231.55 422.84C1231.55 551.6 1127.17 655.98 998.412 655.98C869.653 655.98 765.273 551.6 765.273 422.84C765.273 294.081 869.653 189.7 998.412 189.7C1127.17 189.7 1231.55 294.081 1231.55 422.84ZM1206.82 406.81C1206.82 521.906 1113.52 615.21 998.423 615.21C883.327 615.21 790.023 521.906 790.023 406.81C790.023 291.714 883.327 198.41 998.423 198.41C1113.52 198.41 1206.82 291.714 1206.82 406.81ZM1184.36 393.89C1184.36 496.587 1101.11 579.84 998.412 579.84C895.715 579.84 812.463 496.587 812.463 393.89C812.463 291.193 895.715 207.94 998.412 207.94C1101.11 207.94 1184.36 291.193 1184.36 393.89ZM1167.18 384.13C1167.18 477.339 1091.62 552.9 998.412 552.9C905.204 552.9 829.643 477.339 829.643 384.13C829.643 290.921 905.203 215.36 998.412 215.36C1091.62 215.36 1167.18 290.921 1167.18 384.13ZM1149.44 374.89C1149.44 458.307 1081.82 525.93 998.403 525.93C914.986 525.93 847.363 458.307 847.363 374.89C847.363 291.473 914.986 223.85 998.403 223.85C1081.82 223.85 1149.44 291.473 1149.44 374.89ZM1134.07 368.02C1134.07 442.943 1073.34 503.68 998.412 503.68C923.49 503.68 862.753 442.943 862.753 368.02C862.753 293.097 923.49 232.36 998.412 232.36C1073.34 232.36 1134.07 293.097 1134.07 368.02ZM1119.84 361.86C1119.84 428.918 1065.48 483.28 998.423 483.28C931.365 483.28 877.003 428.918 877.003 361.86C877.003 294.802 931.365 240.44 998.423 240.44C1065.48 240.44 1119.84 294.802 1119.84 361.86ZM1106.28 356.23C1106.28 415.805 1057.99 464.1 998.412 464.1C938.838 464.1 890.542 415.805 890.542 356.23C890.542 296.655 938.838 248.36 998.412 248.36C1057.99 248.36 1106.28 296.655 1106.28 356.23ZM1094.63 352.09C1094.63 405.237 1051.55 448.32 998.403 448.32C945.256 448.32 902.173 405.237 902.173 352.09C902.173 298.944 945.256 255.86 998.403 255.86C1051.55 255.86 1094.63 298.944 1094.63 352.09ZM1083.53 348.54C1083.53 395.55 1045.42 433.66 998.412 433.66C951.402 433.66 913.292 395.55 913.292 348.54C913.293 301.529 951.402 263.421 998.412 263.421C1045.42 263.421 1083.53 301.529 1083.53 348.54ZM1072.23 345.171C1072.23 385.94 1039.18 418.99 998.412 418.99C957.643 418.99 924.593 385.94 924.593 345.171C924.593 304.401 957.643 271.35 998.412 271.35C1039.18 271.35 1072.23 304.401 1072.23 345.171ZM1062.72 342.671C1062.72 378.188 1033.93 406.98 998.412 406.98C962.895 406.98 934.103 378.188 934.103 342.671C934.103 307.153 962.895 278.36 998.412 278.36C1033.93 278.36 1062.72 307.153 1062.72 342.671ZM1052.66 340.61C1052.66 370.571 1028.37 394.86 998.412 394.86C968.451 394.86 944.162 370.571 944.162 340.61C944.162 310.649 968.451 286.36 998.412 286.36C1028.37 286.36 1052.66 310.649 1052.66 340.61ZM1042.95 338.9C1042.95 363.499 1023.01 383.44 998.412 383.44C973.814 383.44 953.872 363.499 953.872 338.9C953.872 314.301 973.814 294.36 998.412 294.36C1023.01 294.36 1042.95 314.301 1042.95 338.9ZM1033.58 337.53C1033.58 356.954 1017.84 372.7 998.412 372.7C978.989 372.7 963.242 356.954 963.242 337.53C963.243 318.106 978.989 302.36 998.412 302.36C1017.84 302.36 1033.58 318.106 1033.58 337.53ZM1024.53 336.48C1024.53 350.906 1012.84 362.6 998.412 362.6C983.987 362.6 972.292 350.906 972.292 336.48C972.292 322.055 983.987 310.36 998.412 310.36C1012.84 310.36 1024.53 322.054 1024.53 336.48ZM1015.51 335.45C1015.51 344.894 1007.86 352.55 998.412 352.55C988.969 352.55 981.313 344.894 981.313 335.45C981.313 326.006 988.969 318.35 998.412 318.35C1007.86 318.35 1015.51 326.006 1015.51 335.45ZM1006.22 335.45C1006.22 339.763 1002.73 343.26 998.412 343.26C994.099 343.26 990.603 339.763 990.603 335.45C990.603 331.137 994.099 327.64 998.412 327.64C1002.73 327.64 1006.22 331.137 1006.22 335.45ZM1007.22 335.45C1007.22 330.584 1003.28 326.64 998.412 326.64C993.547 326.64 989.603 330.584 989.603 335.45C989.603 340.315 993.547 344.26 998.412 344.26C1003.28 344.26 1007.22 340.315 1007.22 335.45ZM1016.51 335.45C1016.51 325.454 1008.41 317.35 998.412 317.35C988.416 317.35 980.313 325.454 980.313 335.45C980.313 345.446 988.416 353.55 998.412 353.55C1008.41 353.55 1016.51 345.446 1016.51 335.45ZM1025.53 336.48C1025.53 321.502 1013.39 309.36 998.412 309.36C983.435 309.36 971.292 321.502 971.292 336.48C971.292 351.458 983.435 363.6 998.412 363.6C1013.39 363.6 1025.53 351.458 1025.53 336.48ZM1034.58 337.53C1034.58 317.554 1018.39 301.36 998.412 301.36C978.436 301.36 962.243 317.554 962.242 337.53C962.242 357.506 978.436 373.7 998.412 373.7C1018.39 373.7 1034.58 357.506 1034.58 337.53ZM1043.95 338.9C1043.95 313.749 1023.56 293.36 998.412 293.36C973.262 293.36 952.872 313.749 952.872 338.9C952.872 364.051 973.262 384.44 998.412 384.44C1023.56 384.44 1043.95 364.051 1043.95 338.9ZM1053.66 340.61C1053.66 310.096 1028.93 285.36 998.412 285.36C967.899 285.36 943.162 310.096 943.162 340.61C943.162 371.124 967.899 395.86 998.412 395.86C1028.93 395.86 1053.66 371.124 1053.66 340.61ZM1063.72 342.671C1063.72 306.601 1034.48 277.36 998.412 277.36C962.343 277.36 933.103 306.601 933.103 342.671C933.103 378.74 962.343 407.98 998.412 407.98C1034.48 407.98 1063.72 378.74 1063.72 342.671ZM1073.23 345.171C1073.23 303.849 1039.73 270.35 998.412 270.35C957.091 270.35 923.593 303.849 923.593 345.171C923.593 386.492 957.091 419.99 998.412 419.99C1039.73 419.99 1073.23 386.492 1073.23 345.171ZM1084.53 348.54C1084.53 300.977 1045.98 262.421 998.412 262.421C950.85 262.421 912.293 300.977 912.292 348.54C912.292 396.102 950.85 434.66 998.412 434.66C1045.98 434.66 1084.53 396.102 1084.53 348.54ZM1095.63 352.09C1095.63 298.392 1052.1 254.86 998.403 254.86C944.704 254.86 901.173 298.392 901.173 352.09C901.173 405.789 944.704 449.32 998.403 449.32C1052.1 449.32 1095.63 405.789 1095.63 352.09ZM1107.28 356.23C1107.28 296.103 1058.54 247.36 998.412 247.36C938.285 247.36 889.542 296.103 889.542 356.23C889.542 416.357 938.285 465.1 998.412 465.1C1058.54 465.1 1107.28 416.357 1107.28 356.23ZM1120.84 361.86C1120.84 294.249 1066.03 239.44 998.423 239.44C930.813 239.44 876.003 294.249 876.003 361.86C876.003 429.471 930.812 484.28 998.423 484.28C1066.03 484.28 1120.84 429.471 1120.84 361.86ZM1135.07 368.02C1135.07 292.545 1073.89 231.36 998.412 231.36C922.937 231.36 861.753 292.545 861.753 368.02C861.753 443.495 922.937 504.68 998.412 504.68C1073.89 504.68 1135.07 443.495 1135.07 368.02ZM1150.44 374.89C1150.44 290.921 1082.37 222.85 998.403 222.85C914.433 222.85 846.363 290.921 846.363 374.89C846.363 458.859 914.433 526.93 998.403 526.93C1082.37 526.93 1150.44 458.859 1150.44 374.89ZM1168.18 384.13C1168.18 290.369 1092.17 214.36 998.412 214.36C904.651 214.36 828.643 290.369 828.643 384.13C828.643 477.892 904.651 553.9 998.412 553.9C1092.17 553.9 1168.18 477.892 1168.18 384.13ZM1185.36 393.89C1185.36 290.641 1101.66 206.94 998.412 206.94C895.163 206.94 811.463 290.641 811.463 393.89C811.463 497.14 895.163 580.84 998.412 580.84C1101.66 580.84 1185.36 497.14 1185.36 393.89ZM1207.82 406.81C1207.82 291.162 1114.07 197.41 998.423 197.41C882.775 197.41 789.023 291.162 789.023 406.81C789.023 522.458 882.775 616.21 998.423 616.21C1114.07 616.21 1207.82 522.458 1207.82 406.81ZM1232.55 422.84C1232.55 293.529 1127.72 188.7 998.412 188.7C869.101 188.7 764.273 293.529 764.273 422.84C764.273 552.152 869.101 656.98 998.412 656.98C1127.72 656.98 1232.55 552.152 1232.55 422.84Z" fill="#DCD0B4"/>
<path d="M999.003 553.4V1.3103H998.003V553.4H999.003Z" fill="#DCD0B4"/>
<path d="M1019.21 155.089C1032.72 117.545 1062.14 60.9182 1089.58 16.3527L1089.15 16.09L1088.73 15.8283C1061.27 60.4226 1031.81 117.116 1018.27 154.751L1019.21 155.089ZM978.474 154.78C964.887 117.165 935.358 60.5118 907.839 15.9474L907.413 16.2101L906.988 16.4728C934.489 61.0085 963.98 117.596 977.533 155.12L978.474 154.78ZM1038.72 160.295C1072.93 122.335 1130.89 80.8384 1170.68 63.4582L1170.28 62.5422C1130.35 79.982 1072.28 121.565 1037.98 159.625L1038.35 159.96L1038.72 160.295ZM958.784 159.675C924.429 121.655 866.311 80.1516 826.353 62.7619L825.954 63.6789C865.776 81.0092 923.777 122.425 958.042 160.345L958.784 159.675ZM1057.19 169.175C1078.2 156.099 1110.09 146.38 1142.42 140.53C1174.75 134.682 1207.45 132.714 1230.06 135.098L1230.11 134.6L1230.16 134.103C1207.43 131.706 1174.63 133.688 1142.24 139.547C1109.87 145.405 1077.83 155.151 1056.66 168.325L1056.92 168.75L1057.19 169.175ZM940.107 168.405C918.918 155.256 886.875 145.549 854.49 139.733C822.1 133.915 789.298 131.976 766.561 134.403L766.666 135.398C789.279 132.984 821.981 134.91 854.313 140.717C886.651 146.525 918.549 156.204 939.58 169.255L940.107 168.405ZM1262.07 220.584C1235.59 202.878 1162.01 168.105 1072.62 179.364L1072.75 180.357C1161.83 169.136 1235.17 203.802 1261.51 221.416L1262.07 220.584ZM735.312 221.745C761.632 204.092 834.923 169.335 924.031 180.446L924.094 179.95L924.155 179.454C834.743 168.305 761.214 203.169 734.755 220.915L735.312 221.745ZM1262.46 312.22L1262.89 311.954C1229.6 259.055 1164.38 203.926 1088.06 194.863L1088 195.36L1087.94 195.857C1163.88 204.874 1228.87 259.765 1262.04 312.486L1262.46 312.22ZM734.907 312.825C768.011 260.054 832.924 205.093 908.854 195.966L908.793 195.47L908.733 194.974C832.423 204.147 767.275 259.345 734.06 312.294L734.907 312.825ZM856.74 495.79C928.945 445.267 980.699 366.846 998.491 336.318C1016.33 366.832 1068.18 445.171 1140.45 495.6L1140.73 495.19L1141.02 494.78C1070.09 445.286 1018.84 368.796 1000.24 337.324L1000.3 337.291C1000.27 337.232 1000.24 337.172 1000.21 337.112C1032.61 357.595 1118.9 391.987 1225.88 368.218L1225.66 367.242C1120.88 390.523 1036.02 357.834 1002.51 337.367L1002.66 337.076C1001.64 336.546 1000.59 335.982 999.514 335.387C999.532 335.377 999.549 335.366 999.567 335.356C1055.26 336.614 1128.14 312.587 1174.81 268.694L1174.12 267.966C1128.13 311.231 1056.48 335.132 1001.25 334.386C1032.41 316.135 1082.57 273.628 1113.06 219.074L1112.19 218.586C1081.36 273.743 1030.34 316.555 999.433 334.279C1007.28 319.539 1018.83 296.447 1029.42 271.917C1040.88 245.366 1051.25 217.089 1054.59 195.898L1054.09 195.82L1053.6 195.742C1050.28 216.801 1039.96 244.979 1028.5 271.521C1017.89 296.085 1006.33 319.21 998.49 333.924C990.632 319.22 979.039 296.112 968.402 271.563C956.909 245.036 946.551 216.87 943.207 195.812L942.714 195.89L942.22 195.969C945.585 217.16 955.987 245.424 967.484 271.96C978.106 296.474 989.679 319.551 997.547 334.28C966.614 316.591 915.535 273.849 884.64 218.726L883.768 219.214C914.326 273.737 964.545 316.176 995.737 334.39C940.499 335.216 868.821 311.403 822.766 268.195L822.081 268.925C868.804 312.759 941.718 336.696 997.414 335.357C997.433 335.367 997.452 335.377 997.471 335.388C996.39 335.987 995.337 336.553 994.312 337.086L994.465 337.38C960.975 357.891 876.161 390.675 771.361 367.531L771.253 368.02L771.146 368.508C878.149 392.138 964.402 357.643 996.777 337.117C996.746 337.176 996.715 337.234 996.684 337.292L996.742 337.324C978.191 368.811 927.035 445.382 856.167 494.97L856.453 495.38L856.74 495.79Z" fill="#DCD0B4"/>
<path d="M1113.02 268.52C1113.02 331.817 1061.71 383.13 998.413 383.13C935.116 383.13 883.803 331.817 883.803 268.52C883.803 205.223 935.116 153.91 998.413 153.91C1061.71 153.911 1113.02 205.223 1113.02 268.52ZM1115.02 268.52C1115.02 204.118 1062.81 151.911 998.413 151.91C934.011 151.91 881.803 204.118 881.803 268.52C881.803 332.922 934.011 385.13 998.413 385.13C1062.81 385.13 1115.02 332.922 1115.02 268.52Z" fill="#DCD0B4"/>
<path d="M1173.46 268.56C1173.46 365.22 1095.1 443.58 998.442 443.58C901.782 443.58 823.423 365.22 823.423 268.56C823.423 171.899 901.782 93.5404 998.442 93.5402C1095.1 93.5402 1173.46 171.899 1173.46 268.56ZM1175.46 268.56C1175.46 170.794 1096.21 91.5402 998.442 91.5402C900.677 91.5404 821.423 170.795 821.423 268.56C821.423 366.325 900.677 445.58 998.442 445.58C1096.21 445.58 1175.46 366.325 1175.46 268.56Z" fill="#DCD0B4"/>
<path d="M1009.11 268.52C1009.11 274.429 1004.32 279.22 998.413 279.22C992.503 279.22 987.713 274.429 987.713 268.52C987.713 262.611 992.504 257.82 998.413 257.82C1004.32 257.82 1009.11 262.611 1009.11 268.52ZM1010.61 268.52C1010.61 261.782 1005.15 256.32 998.413 256.32C991.675 256.32 986.213 261.782 986.213 268.52C986.213 275.258 991.675 280.72 998.413 280.72C1005.15 280.72 1010.61 275.258 1010.61 268.52Z" fill="#DCD0B4"/>
<path d="M1265 268.561C1265 415.777 1145.66 535.12 998.442 535.12C851.226 535.12 731.883 415.777 731.883 268.561C731.883 121.344 851.226 2.00031 998.442 2.00006C1145.66 2.00006 1265 121.344 1265 268.561ZM1267 268.561C1267 120.239 1146.76 6.10352e-05 998.442 6.10352e-05C850.121 0.000305176 729.883 120.239 729.883 268.561C729.883 416.882 850.121 537.12 998.442 537.12C1146.76 537.12 1267 416.882 1267 268.561Z" fill="#DCD0B4"/>
</g>
<defs>
<clipPath id="clip0_4121_3088">
<rect width="1280" height="220" fill="white"/>
</clipPath>
</defs>
</svg>
